ISO-10303-21;
HEADER;
/* Generated by software containing ST-Developer
 * from STEP Tools, Inc. (www.steptools.com) 
 */
/* OPTION: using custom renumber hook */
FILE_DESCRIPTION(
/* description */ ('STEP AP242',
'CAx-IF Rec.Pracs.---Representation and Presentation of Product Manufa
cturing Information (PMI)---4.0---2014-10-13',
'CAx-IF Rec.Pracs.---3D Tessellated Geometry---0.4---2014-09-14','2;1'),
/* implementation_level */ '2;1');
FILE_NAME(
/* name */ '6182a86076c7db496995461d',
/* time_stamp */ '2021-11-03T15:18:57+00:00',
/* author */ (''),
/* organization */ (''),
/* preprocessor_version */ 'ST-DEVELOPER v18.1',
/* originating_system */ '  ',
/* authorisation */ '  ');
FILE_SCHEMA (('AP242_MANAGED_MODEL_BASED_3D_ENGINEERING_MIM_LF { 1 0 10303 442 1 1 4 }'));
ENDSEC;
DATA;
#1=COLOUR_RGB('',0.105882352941176,0.333333333333334,0.);
#2=COLOUR_RGB('',0.650980392156863,0.486274509803922,0.0196078431372549);
#3=SPHERICAL_SURFACE('',#951,2.5E-5);
#4=SPHERICAL_SURFACE('',#961,2.5E-5);
#5=SPHERICAL_SURFACE('',#962,2.5E-5);
#6=SPHERICAL_SURFACE('',#967,2.5E-5);
#7=CYLINDRICAL_SURFACE('',#949,2.5E-5);
#8=CYLINDRICAL_SURFACE('',#953,2.5E-5);
#9=CYLINDRICAL_SURFACE('',#955,2.5E-5);
#10=CYLINDRICAL_SURFACE('',#957,2.5E-5);
#11=CYLINDRICAL_SURFACE('',#959,2.5E-5);
#12=CYLINDRICAL_SURFACE('',#963,2.5E-5);
#13=CYLINDRICAL_SURFACE('',#965,2.5E-5);
#14=CYLINDRICAL_SURFACE('',#968,2.5E-5);
#15=CYLINDRICAL_SURFACE('',#984,2.5E-5);
#16=CYLINDRICAL_SURFACE('',#988,2.5E-5);
#17=CYLINDRICAL_SURFACE('',#997,2.5E-5);
#18=CYLINDRICAL_SURFACE('',#994,2.5E-5);
#19=CYLINDRICAL_SURFACE('',#1002,2.5E-5);
#20=CYLINDRICAL_SURFACE('',#947,2.5E-5);
#21=CYLINDRICAL_SURFACE('',#1003,2.5E-5);
#22=CYLINDRICAL_SURFACE('',#945,2.5E-5);
#23=CIRCLE('',#945,2.5E-5);
#24=CIRCLE('',#946,2.5E-5);
#25=CIRCLE('',#947,2.5E-5);
#26=CIRCLE('',#948,2.5E-5);
#27=CIRCLE('',#950,2.5E-5);
#28=CIRCLE('',#951,2.5E-5);
#29=CIRCLE('',#952,2.5E-5);
#30=CIRCLE('',#954,2.5E-5);
#31=CIRCLE('',#956,2.5E-5);
#32=CIRCLE('',#958,2.5E-5);
#33=CIRCLE('',#960,2.5E-5);
#34=CIRCLE('',#961,2.5E-5);
#35=CIRCLE('',#962,2.5E-5);
#36=CIRCLE('',#964,2.5E-5);
#37=CIRCLE('',#966,2.5E-5);
#38=CIRCLE('',#967,2.5E-5);
#39=CIRCLE('',#984,2.5E-5);
#40=CIRCLE('',#985,2.5E-5);
#41=CIRCLE('',#986,2.5E-5);
#42=CIRCLE('',#987,2.5E-5);
#43=CIRCLE('',#993,2.5E-5);
#44=CIRCLE('',#994,2.5E-5);
#45=CIRCLE('',#995,2.5E-5);
#46=CIRCLE('',#996,2.5E-5);
#47=SURFACE_STYLE_RENDERING_WITH_PROPERTIES(.CONSTANT_SHADING.,#914,(#48));
#48=SURFACE_STYLE_TRANSPARENT(0.6);
#49=SHAPE_REPRESENTATION_RELATIONSHIP('','',#927,#55);
#50=SHAPE_REPRESENTATION_RELATIONSHIP('','',#928,#56);
#51=SHAPE_REPRESENTATION_RELATIONSHIP('','',#929,#57);
#52=SHAPE_REPRESENTATION_RELATIONSHIP('','',#930,#58);
#53=SHAPE_REPRESENTATION_RELATIONSHIP('','',#931,#59);
#54=SHAPE_REPRESENTATION_RELATIONSHIP('','',#932,#60);
#55=ADVANCED_BREP_SHAPE_REPRESENTATION('',(#915),#1191);
#56=ADVANCED_BREP_SHAPE_REPRESENTATION('',(#916),#1192);
#57=ADVANCED_BREP_SHAPE_REPRESENTATION('',(#917),#1193);
#58=ADVANCED_BREP_SHAPE_REPRESENTATION('',(#918),#1194);
#59=ADVANCED_BREP_SHAPE_REPRESENTATION('',(#919),#1195);
#60=ADVANCED_BREP_SHAPE_REPRESENTATION('',(#920),#1196);
#61=ORIENTED_EDGE('',*,*,#321,.F.);
#62=ORIENTED_EDGE('',*,*,#322,.F.);
#63=ORIENTED_EDGE('',*,*,#323,.T.);
#64=ORIENTED_EDGE('',*,*,#324,.T.);
#65=ORIENTED_EDGE('',*,*,#325,.T.);
#66=ORIENTED_EDGE('',*,*,#326,.F.);
#67=ORIENTED_EDGE('',*,*,#327,.F.);
#68=ORIENTED_EDGE('',*,*,#322,.T.);
#69=ORIENTED_EDGE('',*,*,#328,.T.);
#70=ORIENTED_EDGE('',*,*,#329,.F.);
#71=ORIENTED_EDGE('',*,*,#330,.F.);
#72=ORIENTED_EDGE('',*,*,#326,.T.);
#73=ORIENTED_EDGE('',*,*,#331,.F.);
#74=ORIENTED_EDGE('',*,*,#324,.F.);
#75=ORIENTED_EDGE('',*,*,#332,.T.);
#76=ORIENTED_EDGE('',*,*,#329,.T.);
#77=ORIENTED_EDGE('',*,*,#323,.F.);
#78=ORIENTED_EDGE('',*,*,#327,.T.);
#79=ORIENTED_EDGE('',*,*,#330,.T.);
#80=ORIENTED_EDGE('',*,*,#332,.F.);
#81=ORIENTED_EDGE('',*,*,#321,.T.);
#82=ORIENTED_EDGE('',*,*,#331,.T.);
#83=ORIENTED_EDGE('',*,*,#328,.F.);
#84=ORIENTED_EDGE('',*,*,#325,.F.);
#85=ORIENTED_EDGE('',*,*,#333,.F.);
#86=ORIENTED_EDGE('',*,*,#334,.T.);
#87=ORIENTED_EDGE('',*,*,#335,.T.);
#88=ORIENTED_EDGE('',*,*,#336,.T.);
#89=ORIENTED_EDGE('',*,*,#337,.T.);
#90=ORIENTED_EDGE('',*,*,#338,.T.);
#91=ORIENTED_EDGE('',*,*,#339,.T.);
#92=ORIENTED_EDGE('',*,*,#340,.T.);
#93=ORIENTED_EDGE('',*,*,#341,.T.);
#94=ORIENTED_EDGE('',*,*,#342,.T.);
#95=ORIENTED_EDGE('',*,*,#343,.T.);
#96=ORIENTED_EDGE('',*,*,#344,.T.);
#97=ORIENTED_EDGE('',*,*,#345,.F.);
#98=ORIENTED_EDGE('',*,*,#346,.T.);
#99=ORIENTED_EDGE('',*,*,#347,.T.);
#100=ORIENTED_EDGE('',*,*,#348,.T.);
#101=ORIENTED_EDGE('',*,*,#349,.T.);
#102=ORIENTED_EDGE('',*,*,#350,.T.);
#103=ORIENTED_EDGE('',*,*,#351,.T.);
#104=ORIENTED_EDGE('',*,*,#352,.T.);
#105=ORIENTED_EDGE('',*,*,#339,.F.);
#106=ORIENTED_EDGE('',*,*,#353,.T.);
#107=ORIENTED_EDGE('',*,*,#333,.T.);
#108=ORIENTED_EDGE('',*,*,#354,.T.);
#109=ORIENTED_EDGE('',*,*,#345,.T.);
#110=ORIENTED_EDGE('',*,*,#355,.T.);
#111=ORIENTED_EDGE('',*,*,#341,.F.);
#112=ORIENTED_EDGE('',*,*,#356,.T.);
#113=ORIENTED_EDGE('',*,*,#357,.F.);
#114=ORIENTED_EDGE('',*,*,#342,.F.);
#115=ORIENTED_EDGE('',*,*,#355,.F.);
#116=ORIENTED_EDGE('',*,*,#348,.F.);
#117=ORIENTED_EDGE('',*,*,#358,.F.);
#118=ORIENTED_EDGE('',*,*,#357,.T.);
#119=ORIENTED_EDGE('',*,*,#359,.F.);
#120=ORIENTED_EDGE('',*,*,#354,.F.);
#121=ORIENTED_EDGE('',*,*,#336,.F.);
#122=ORIENTED_EDGE('',*,*,#360,.F.);
#123=ORIENTED_EDGE('',*,*,#346,.F.);
#124=ORIENTED_EDGE('',*,*,#359,.T.);
#125=ORIENTED_EDGE('',*,*,#347,.F.);
#126=ORIENTED_EDGE('',*,*,#361,.F.);
#127=ORIENTED_EDGE('',*,*,#351,.F.);
#128=ORIENTED_EDGE('',*,*,#358,.T.);
#129=ORIENTED_EDGE('',*,*,#350,.F.);
#130=ORIENTED_EDGE('',*,*,#362,.F.);
#131=ORIENTED_EDGE('',*,*,#343,.F.);
#132=ORIENTED_EDGE('',*,*,#356,.F.);
#133=ORIENTED_EDGE('',*,*,#344,.F.);
#134=ORIENTED_EDGE('',*,*,#363,.F.);
#135=ORIENTED_EDGE('',*,*,#340,.F.);
#136=ORIENTED_EDGE('',*,*,#361,.T.);
#137=ORIENTED_EDGE('',*,*,#360,.T.);
#138=ORIENTED_EDGE('',*,*,#364,.F.);
#139=ORIENTED_EDGE('',*,*,#363,.T.);
#140=ORIENTED_EDGE('',*,*,#362,.T.);
#141=ORIENTED_EDGE('',*,*,#365,.F.);
#142=ORIENTED_EDGE('',*,*,#364,.T.);
#143=ORIENTED_EDGE('',*,*,#335,.F.);
#144=ORIENTED_EDGE('',*,*,#366,.F.);
#145=ORIENTED_EDGE('',*,*,#352,.F.);
#146=ORIENTED_EDGE('',*,*,#365,.T.);
#147=ORIENTED_EDGE('',*,*,#349,.F.);
#148=ORIENTED_EDGE('',*,*,#367,.F.);
#149=ORIENTED_EDGE('',*,*,#337,.F.);
#150=ORIENTED_EDGE('',*,*,#367,.T.);
#151=ORIENTED_EDGE('',*,*,#366,.T.);
#152=ORIENTED_EDGE('',*,*,#368,.F.);
#153=ORIENTED_EDGE('',*,*,#368,.T.);
#154=ORIENTED_EDGE('',*,*,#334,.F.);
#155=ORIENTED_EDGE('',*,*,#353,.F.);
#156=ORIENTED_EDGE('',*,*,#338,.F.);
#157=ORIENTED_EDGE('',*,*,#369,.T.);
#158=ORIENTED_EDGE('',*,*,#370,.F.);
#159=ORIENTED_EDGE('',*,*,#371,.F.);
#160=ORIENTED_EDGE('',*,*,#372,.T.);
#161=ORIENTED_EDGE('',*,*,#373,.T.);
#162=ORIENTED_EDGE('',*,*,#374,.F.);
#163=ORIENTED_EDGE('',*,*,#375,.F.);
#164=ORIENTED_EDGE('',*,*,#370,.T.);
#165=ORIENTED_EDGE('',*,*,#376,.T.);
#166=ORIENTED_EDGE('',*,*,#377,.F.);
#167=ORIENTED_EDGE('',*,*,#378,.F.);
#168=ORIENTED_EDGE('',*,*,#374,.T.);
#169=ORIENTED_EDGE('',*,*,#379,.F.);
#170=ORIENTED_EDGE('',*,*,#380,.F.);
#171=ORIENTED_EDGE('',*,*,#381,.T.);
#172=ORIENTED_EDGE('',*,*,#377,.T.);
#173=ORIENTED_EDGE('',*,*,#382,.T.);
#174=ORIENTED_EDGE('',*,*,#383,.F.);
#175=ORIENTED_EDGE('',*,*,#384,.F.);
#176=ORIENTED_EDGE('',*,*,#380,.T.);
#177=ORIENTED_EDGE('',*,*,#385,.F.);
#178=ORIENTED_EDGE('',*,*,#386,.F.);
#179=ORIENTED_EDGE('',*,*,#387,.T.);
#180=ORIENTED_EDGE('',*,*,#383,.T.);
#181=ORIENTED_EDGE('',*,*,#388,.F.);
#182=ORIENTED_EDGE('',*,*,#389,.F.);
#183=ORIENTED_EDGE('',*,*,#390,.T.);
#184=ORIENTED_EDGE('',*,*,#386,.T.);
#185=ORIENTED_EDGE('',*,*,#391,.T.);
#186=ORIENTED_EDGE('',*,*,#372,.F.);
#187=ORIENTED_EDGE('',*,*,#392,.F.);
#188=ORIENTED_EDGE('',*,*,#389,.T.);
#189=ORIENTED_EDGE('',*,*,#371,.T.);
#190=ORIENTED_EDGE('',*,*,#375,.T.);
#191=ORIENTED_EDGE('',*,*,#378,.T.);
#192=ORIENTED_EDGE('',*,*,#381,.F.);
#193=ORIENTED_EDGE('',*,*,#384,.T.);
#194=ORIENTED_EDGE('',*,*,#387,.F.);
#195=ORIENTED_EDGE('',*,*,#390,.F.);
#196=ORIENTED_EDGE('',*,*,#392,.T.);
#197=ORIENTED_EDGE('',*,*,#369,.F.);
#198=ORIENTED_EDGE('',*,*,#391,.F.);
#199=ORIENTED_EDGE('',*,*,#388,.T.);
#200=ORIENTED_EDGE('',*,*,#385,.T.);
#201=ORIENTED_EDGE('',*,*,#382,.F.);
#202=ORIENTED_EDGE('',*,*,#379,.T.);
#203=ORIENTED_EDGE('',*,*,#376,.F.);
#204=ORIENTED_EDGE('',*,*,#373,.F.);
#205=ORIENTED_EDGE('',*,*,#393,.F.);
#206=ORIENTED_EDGE('',*,*,#394,.T.);
#207=ORIENTED_EDGE('',*,*,#395,.T.);
#208=ORIENTED_EDGE('',*,*,#396,.T.);
#209=ORIENTED_EDGE('',*,*,#397,.F.);
#210=ORIENTED_EDGE('',*,*,#398,.T.);
#211=ORIENTED_EDGE('',*,*,#399,.T.);
#212=ORIENTED_EDGE('',*,*,#400,.F.);
#213=ORIENTED_EDGE('',*,*,#401,.T.);
#214=ORIENTED_EDGE('',*,*,#402,.F.);
#215=ORIENTED_EDGE('',*,*,#403,.F.);
#216=ORIENTED_EDGE('',*,*,#400,.T.);
#217=ORIENTED_EDGE('',*,*,#404,.F.);
#218=ORIENTED_EDGE('',*,*,#405,.T.);
#219=ORIENTED_EDGE('',*,*,#406,.T.);
#220=ORIENTED_EDGE('',*,*,#402,.T.);
#221=ORIENTED_EDGE('',*,*,#395,.F.);
#222=ORIENTED_EDGE('',*,*,#407,.T.);
#223=ORIENTED_EDGE('',*,*,#397,.T.);
#224=ORIENTED_EDGE('',*,*,#403,.T.);
#225=ORIENTED_EDGE('',*,*,#406,.F.);
#226=ORIENTED_EDGE('',*,*,#408,.T.);
#227=ORIENTED_EDGE('',*,*,#399,.F.);
#228=ORIENTED_EDGE('',*,*,#409,.T.);
#229=ORIENTED_EDGE('',*,*,#393,.T.);
#230=ORIENTED_EDGE('',*,*,#410,.T.);
#231=ORIENTED_EDGE('',*,*,#404,.T.);
#232=ORIENTED_EDGE('',*,*,#401,.F.);
#233=ORIENTED_EDGE('',*,*,#407,.F.);
#234=ORIENTED_EDGE('',*,*,#394,.F.);
#235=ORIENTED_EDGE('',*,*,#409,.F.);
#236=ORIENTED_EDGE('',*,*,#398,.F.);
#237=ORIENTED_EDGE('',*,*,#408,.F.);
#238=ORIENTED_EDGE('',*,*,#405,.F.);
#239=ORIENTED_EDGE('',*,*,#410,.F.);
#240=ORIENTED_EDGE('',*,*,#396,.F.);
#241=ORIENTED_EDGE('',*,*,#411,.F.);
#242=ORIENTED_EDGE('',*,*,#412,.T.);
#243=ORIENTED_EDGE('',*,*,#413,.T.);
#244=ORIENTED_EDGE('',*,*,#414,.T.);
#245=ORIENTED_EDGE('',*,*,#415,.T.);
#246=ORIENTED_EDGE('',*,*,#416,.T.);
#247=ORIENTED_EDGE('',*,*,#417,.F.);
#248=ORIENTED_EDGE('',*,*,#418,.T.);
#249=ORIENTED_EDGE('',*,*,#419,.F.);
#250=ORIENTED_EDGE('',*,*,#420,.T.);
#251=ORIENTED_EDGE('',*,*,#421,.T.);
#252=ORIENTED_EDGE('',*,*,#422,.F.);
#253=ORIENTED_EDGE('',*,*,#423,.F.);
#254=ORIENTED_EDGE('',*,*,#414,.F.);
#255=ORIENTED_EDGE('',*,*,#424,.T.);
#256=ORIENTED_EDGE('',*,*,#422,.T.);
#257=ORIENTED_EDGE('',*,*,#417,.T.);
#258=ORIENTED_EDGE('',*,*,#425,.T.);
#259=ORIENTED_EDGE('',*,*,#419,.T.);
#260=ORIENTED_EDGE('',*,*,#424,.F.);
#261=ORIENTED_EDGE('',*,*,#413,.F.);
#262=ORIENTED_EDGE('',*,*,#426,.T.);
#263=ORIENTED_EDGE('',*,*,#421,.F.);
#264=ORIENTED_EDGE('',*,*,#427,.T.);
#265=ORIENTED_EDGE('',*,*,#415,.F.);
#266=ORIENTED_EDGE('',*,*,#428,.T.);
#267=ORIENTED_EDGE('',*,*,#411,.T.);
#268=ORIENTED_EDGE('',*,*,#423,.T.);
#269=ORIENTED_EDGE('',*,*,#425,.F.);
#270=ORIENTED_EDGE('',*,*,#416,.F.);
#271=ORIENTED_EDGE('',*,*,#427,.F.);
#272=ORIENTED_EDGE('',*,*,#420,.F.);
#273=ORIENTED_EDGE('',*,*,#426,.F.);
#274=ORIENTED_EDGE('',*,*,#412,.F.);
#275=ORIENTED_EDGE('',*,*,#428,.F.);
#276=ORIENTED_EDGE('',*,*,#418,.F.);
#277=ORIENTED_EDGE('',*,*,#429,.T.);
#278=ORIENTED_EDGE('',*,*,#430,.F.);
#279=ORIENTED_EDGE('',*,*,#431,.F.);
#280=ORIENTED_EDGE('',*,*,#432,.T.);
#281=ORIENTED_EDGE('',*,*,#433,.T.);
#282=ORIENTED_EDGE('',*,*,#434,.T.);
#283=ORIENTED_EDGE('',*,*,#435,.T.);
#284=ORIENTED_EDGE('',*,*,#436,.T.);
#285=ORIENTED_EDGE('',*,*,#431,.T.);
#286=ORIENTED_EDGE('',*,*,#435,.F.);
#287=ORIENTED_EDGE('',*,*,#430,.T.);
#288=ORIENTED_EDGE('',*,*,#436,.F.);
#289=ORIENTED_EDGE('',*,*,#437,.T.);
#290=ORIENTED_EDGE('',*,*,#438,.F.);
#291=ORIENTED_EDGE('',*,*,#439,.T.);
#292=ORIENTED_EDGE('',*,*,#440,.T.);
#293=ORIENTED_EDGE('',*,*,#441,.T.);
#294=ORIENTED_EDGE('',*,*,#442,.T.);
#295=ORIENTED_EDGE('',*,*,#441,.F.);
#296=ORIENTED_EDGE('',*,*,#443,.T.);
#297=ORIENTED_EDGE('',*,*,#444,.T.);
#298=ORIENTED_EDGE('',*,*,#438,.T.);
#299=ORIENTED_EDGE('',*,*,#445,.T.);
#300=ORIENTED_EDGE('',*,*,#446,.T.);
#301=ORIENTED_EDGE('',*,*,#447,.T.);
#302=ORIENTED_EDGE('',*,*,#448,.T.);
#303=ORIENTED_EDGE('',*,*,#449,.T.);
#304=ORIENTED_EDGE('',*,*,#450,.T.);
#305=ORIENTED_EDGE('',*,*,#443,.F.);
#306=ORIENTED_EDGE('',*,*,#440,.F.);
#307=ORIENTED_EDGE('',*,*,#447,.F.);
#308=ORIENTED_EDGE('',*,*,#429,.F.);
#309=ORIENTED_EDGE('',*,*,#446,.F.);
#310=ORIENTED_EDGE('',*,*,#433,.F.);
#311=ORIENTED_EDGE('',*,*,#448,.F.);
#312=ORIENTED_EDGE('',*,*,#442,.F.);
#313=ORIENTED_EDGE('',*,*,#445,.F.);
#314=ORIENTED_EDGE('',*,*,#437,.F.);
#315=ORIENTED_EDGE('',*,*,#449,.F.);
#316=ORIENTED_EDGE('',*,*,#434,.F.);
#317=ORIENTED_EDGE('',*,*,#444,.F.);
#318=ORIENTED_EDGE('',*,*,#432,.F.);
#319=ORIENTED_EDGE('',*,*,#450,.F.);
#320=ORIENTED_EDGE('',*,*,#439,.F.);
#321=EDGE_CURVE('',#451,#452,#519,.T.);
#322=EDGE_CURVE('',#453,#451,#520,.T.);
#323=EDGE_CURVE('',#453,#454,#521,.T.);
#324=EDGE_CURVE('',#454,#452,#522,.T.);
#325=EDGE_CURVE('',#451,#455,#523,.T.);
#326=EDGE_CURVE('',#456,#455,#524,.T.);
#327=EDGE_CURVE('',#453,#456,#525,.T.);
#328=EDGE_CURVE('',#455,#457,#526,.T.);
#329=EDGE_CURVE('',#458,#457,#527,.T.);
#330=EDGE_CURVE('',#456,#458,#528,.T.);
#331=EDGE_CURVE('',#452,#457,#529,.T.);
#332=EDGE_CURVE('',#454,#458,#530,.T.);
#333=EDGE_CURVE('',#459,#460,#531,.T.);
#334=EDGE_CURVE('',#459,#461,#532,.F.);
#335=EDGE_CURVE('',#461,#462,#533,.T.);
#336=EDGE_CURVE('',#462,#460,#534,.T.);
#337=EDGE_CURVE('',#463,#464,#535,.F.);
#338=EDGE_CURVE('',#464,#465,#536,.T.);
#339=EDGE_CURVE('',#465,#466,#537,.T.);
#340=EDGE_CURVE('',#466,#463,#538,.F.);
#341=EDGE_CURVE('',#467,#468,#539,.T.);
#342=EDGE_CURVE('',#468,#469,#540,.F.);
#343=EDGE_CURVE('',#469,#470,#541,.F.);
#344=EDGE_CURVE('',#470,#467,#542,.T.);
#345=EDGE_CURVE('',#471,#472,#543,.T.);
#346=EDGE_CURVE('',#471,#473,#544,.F.);
#347=EDGE_CURVE('',#473,#474,#545,.T.);
#348=EDGE_CURVE('',#474,#472,#546,.T.);
#349=EDGE_CURVE('',#475,#476,#547,.T.);
#350=EDGE_CURVE('',#476,#477,#548,.T.);
#351=EDGE_CURVE('',#477,#478,#549,.F.);
#352=EDGE_CURVE('',#478,#475,#550,.F.);
#353=EDGE_CURVE('',#465,#459,#23,.F.);
#354=EDGE_CURVE('',#460,#471,#24,.F.);
#355=EDGE_CURVE('',#472,#468,#25,.F.);
#356=EDGE_CURVE('',#467,#466,#26,.F.);
#357=EDGE_CURVE('',#469,#474,#27,.T.);
#358=EDGE_CURVE('',#469,#477,#28,.F.);
#359=EDGE_CURVE('',#477,#474,#29,.F.);
#360=EDGE_CURVE('',#473,#462,#30,.T.);
#361=EDGE_CURVE('',#478,#473,#31,.T.);
#362=EDGE_CURVE('',#470,#476,#32,.T.);
#363=EDGE_CURVE('',#463,#470,#33,.T.);
#364=EDGE_CURVE('',#478,#462,#34,.F.);
#365=EDGE_CURVE('',#463,#476,#35,.F.);
#366=EDGE_CURVE('',#475,#461,#36,.T.);
#367=EDGE_CURVE('',#464,#475,#37,.T.);
#368=EDGE_CURVE('',#464,#461,#38,.F.);
#369=EDGE_CURVE('',#479,#480,#551,.T.);
#370=EDGE_CURVE('',#481,#480,#552,.T.);
#371=EDGE_CURVE('',#482,#481,#553,.T.);
#372=EDGE_CURVE('',#482,#479,#554,.T.);
#373=EDGE_CURVE('',#480,#483,#555,.T.);
#374=EDGE_CURVE('',#484,#483,#556,.T.);
#375=EDGE_CURVE('',#481,#484,#557,.T.);
#376=EDGE_CURVE('',#483,#485,#558,.T.);
#377=EDGE_CURVE('',#486,#485,#559,.T.);
#378=EDGE_CURVE('',#484,#486,#560,.T.);
#379=EDGE_CURVE('',#487,#485,#561,.T.);
#380=EDGE_CURVE('',#488,#487,#562,.T.);
#381=EDGE_CURVE('',#488,#486,#563,.T.);
#382=EDGE_CURVE('',#487,#489,#564,.T.);
#383=EDGE_CURVE('',#490,#489,#565,.T.);
#384=EDGE_CURVE('',#488,#490,#566,.T.);
#385=EDGE_CURVE('',#491,#489,#567,.T.);
#386=EDGE_CURVE('',#492,#491,#568,.T.);
#387=EDGE_CURVE('',#492,#490,#569,.T.);
#388=EDGE_CURVE('',#493,#491,#570,.T.);
#389=EDGE_CURVE('',#494,#493,#571,.T.);
#390=EDGE_CURVE('',#494,#492,#572,.T.);
#391=EDGE_CURVE('',#493,#479,#573,.T.);
#392=EDGE_CURVE('',#494,#482,#574,.T.);
#393=EDGE_CURVE('',#495,#496,#575,.T.);
#394=EDGE_CURVE('',#495,#497,#576,.F.);
#395=EDGE_CURVE('',#497,#498,#577,.T.);
#396=EDGE_CURVE('',#498,#496,#578,.T.);
#397=EDGE_CURVE('',#499,#500,#579,.T.);
#398=EDGE_CURVE('',#499,#501,#580,.T.);
#399=EDGE_CURVE('',#501,#502,#581,.T.);
#400=EDGE_CURVE('',#500,#502,#582,.T.);
#401=EDGE_CURVE('',#502,#503,#583,.T.);
#402=EDGE_CURVE('',#504,#503,#584,.T.);
#403=EDGE_CURVE('',#500,#504,#585,.T.);
#404=EDGE_CURVE('',#505,#503,#586,.T.);
#405=EDGE_CURVE('',#505,#506,#587,.F.);
#406=EDGE_CURVE('',#506,#504,#588,.T.);
#407=EDGE_CURVE('',#497,#499,#39,.T.);
#408=EDGE_CURVE('',#506,#498,#40,.T.);
#409=EDGE_CURVE('',#501,#495,#41,.F.);
#410=EDGE_CURVE('',#496,#505,#42,.F.);
#411=EDGE_CURVE('',#507,#508,#589,.T.);
#412=EDGE_CURVE('',#507,#509,#590,.F.);
#413=EDGE_CURVE('',#509,#510,#591,.T.);
#414=EDGE_CURVE('',#510,#508,#592,.T.);
#415=EDGE_CURVE('',#511,#512,#593,.T.);
#416=EDGE_CURVE('',#512,#513,#594,.F.);
#417=EDGE_CURVE('',#514,#513,#595,.T.);
#418=EDGE_CURVE('',#514,#511,#596,.T.);
#419=EDGE_CURVE('',#515,#516,#597,.T.);
#420=EDGE_CURVE('',#515,#517,#598,.T.);
#421=EDGE_CURVE('',#517,#518,#599,.T.);
#422=EDGE_CURVE('',#516,#518,#600,.T.);
#423=EDGE_CURVE('',#508,#518,#601,.T.);
#424=EDGE_CURVE('',#510,#516,#602,.T.);
#425=EDGE_CURVE('',#513,#515,#43,.T.);
#426=EDGE_CURVE('',#509,#514,#44,.T.);
#427=EDGE_CURVE('',#517,#512,#45,.F.);
#428=EDGE_CURVE('',#511,#507,#46,.F.);
#429=EDGE_CURVE('',#460,#499,#603,.T.);
#430=EDGE_CURVE('',#493,#502,#604,.T.);
#431=EDGE_CURVE('',#508,#479,#604,.T.);
#432=EDGE_CURVE('',#509,#459,#605,.F.);
#433=EDGE_CURVE('',#506,#468,#606,.F.);
#434=EDGE_CURVE('',#467,#515,#607,.T.);
#435=EDGE_CURVE('',#518,#489,#608,.T.);
#436=EDGE_CURVE('',#491,#503,#608,.T.);
#437=EDGE_CURVE('',#513,#466,#609,.F.);
#438=EDGE_CURVE('',#465,#466,#610,.T.);
#439=EDGE_CURVE('',#465,#514,#611,.T.);
#440=EDGE_CURVE('',#497,#471,#612,.F.);
#441=EDGE_CURVE('',#471,#472,#613,.T.);
#442=EDGE_CURVE('',#472,#498,#578,.T.);
#443=EDGE_CURVE('',#471,#460,#24,.T.);
#444=EDGE_CURVE('',#459,#465,#23,.T.);
#445=EDGE_CURVE('',#466,#467,#26,.T.);
#446=EDGE_CURVE('',#468,#472,#25,.T.);
#447=EDGE_CURVE('',#499,#497,#39,.F.);
#448=EDGE_CURVE('',#498,#506,#40,.F.);
#449=EDGE_CURVE('',#515,#513,#43,.F.);
#450=EDGE_CURVE('',#514,#509,#44,.F.);
#451=VERTEX_POINT('',#1028);
#452=VERTEX_POINT('',#1029);
#453=VERTEX_POINT('',#1030);
#454=VERTEX_POINT('',#1031);
#455=VERTEX_POINT('',#1034);
#456=VERTEX_POINT('',#1035);
#457=VERTEX_POINT('',#1038);
#458=VERTEX_POINT('',#1039);
#459=VERTEX_POINT('',#1046);
#460=VERTEX_POINT('',#1047);
#461=VERTEX_POINT('',#1049);
#462=VERTEX_POINT('',#1051);
#463=VERTEX_POINT('',#1055);
#464=VERTEX_POINT('',#1056);
#465=VERTEX_POINT('',#1057);
#466=VERTEX_POINT('',#1059);
#467=VERTEX_POINT('',#1063);
#468=VERTEX_POINT('',#1064);
#469=VERTEX_POINT('',#1066);
#470=VERTEX_POINT('',#1068);
#471=VERTEX_POINT('',#1072);
#472=VERTEX_POINT('',#1073);
#473=VERTEX_POINT('',#1075);
#474=VERTEX_POINT('',#1077);
#475=VERTEX_POINT('',#1079);
#476=VERTEX_POINT('',#1080);
#477=VERTEX_POINT('',#1082);
#478=VERTEX_POINT('',#1084);
#479=VERTEX_POINT('',#1100);
#480=VERTEX_POINT('',#1101);
#481=VERTEX_POINT('',#1102);
#482=VERTEX_POINT('',#1103);
#483=VERTEX_POINT('',#1106);
#484=VERTEX_POINT('',#1107);
#485=VERTEX_POINT('',#1110);
#486=VERTEX_POINT('',#1111);
#487=VERTEX_POINT('',#1114);
#488=VERTEX_POINT('',#1115);
#489=VERTEX_POINT('',#1118);
#490=VERTEX_POINT('',#1119);
#491=VERTEX_POINT('',#1122);
#492=VERTEX_POINT('',#1123);
#493=VERTEX_POINT('',#1126);
#494=VERTEX_POINT('',#1127);
#495=VERTEX_POINT('',#1134);
#496=VERTEX_POINT('',#1135);
#497=VERTEX_POINT('',#1136);
#498=VERTEX_POINT('',#1137);
#499=VERTEX_POINT('',#1139);
#500=VERTEX_POINT('',#1140);
#501=VERTEX_POINT('',#1141);
#502=VERTEX_POINT('',#1143);
#503=VERTEX_POINT('',#1146);
#504=VERTEX_POINT('',#1147);
#505=VERTEX_POINT('',#1150);
#506=VERTEX_POINT('',#1151);
#507=VERTEX_POINT('',#1159);
#508=VERTEX_POINT('',#1160);
#509=VERTEX_POINT('',#1161);
#510=VERTEX_POINT('',#1162);
#511=VERTEX_POINT('',#1165);
#512=VERTEX_POINT('',#1166);
#513=VERTEX_POINT('',#1167);
#514=VERTEX_POINT('',#1168);
#515=VERTEX_POINT('',#1170);
#516=VERTEX_POINT('',#1171);
#517=VERTEX_POINT('',#1172);
#518=VERTEX_POINT('',#1174);
#519=LINE('',#1027,#614);
#520=LINE('',#1030,#615);
#521=LINE('',#1026,#614);
#522=LINE('',#1031,#615);
#523=LINE('',#1033,#616);
#524=LINE('',#1035,#615);
#525=LINE('',#1032,#616);
#526=LINE('',#1037,#614);
#527=LINE('',#1039,#615);
#528=LINE('',#1036,#614);
#529=LINE('',#1041,#616);
#530=LINE('',#1040,#616);
#531=LINE('',#1045,#617);
#532=LINE('',#1048,#615);
#533=LINE('',#1050,#617);
#534=LINE('',#1052,#615);
#535=LINE('',#1054,#616);
#536=LINE('',#1057,#615);
#537=LINE('',#1058,#616);
#538=LINE('',#1060,#615);
#539=LINE('',#1062,#617);
#540=LINE('',#1065,#615);
#541=LINE('',#1067,#617);
#542=LINE('',#1069,#615);
#543=LINE('',#1071,#616);
#544=LINE('',#1074,#615);
#545=LINE('',#1076,#616);
#546=LINE('',#1073,#615);
#547=LINE('',#1069,#616);
#548=LINE('',#1081,#617);
#549=LINE('',#1083,#616);
#550=LINE('',#1085,#617);
#551=LINE('',#1099,#618);
#552=LINE('',#1102,#615);
#553=LINE('',#1098,#618);
#554=LINE('',#1103,#615);
#555=LINE('',#1105,#619);
#556=LINE('',#1107,#615);
#557=LINE('',#1104,#619);
#558=LINE('',#1109,#620);
#559=LINE('',#1111,#615);
#560=LINE('',#1108,#620);
#561=LINE('',#1113,#619);
#562=LINE('',#1115,#615);
#563=LINE('',#1112,#619);
#564=LINE('',#1117,#618);
#565=LINE('',#1119,#615);
#566=LINE('',#1116,#618);
#567=LINE('',#1121,#619);
#568=LINE('',#1123,#615);
#569=LINE('',#1120,#619);
#570=LINE('',#1125,#621);
#571=LINE('',#1127,#615);
#572=LINE('',#1124,#621);
#573=LINE('',#1129,#619);
#574=LINE('',#1128,#619);
#575=LINE('',#1133,#616);
#576=LINE('',#1136,#615);
#577=LINE('',#1132,#616);
#578=LINE('',#1137,#615);
#579=LINE('',#1138,#619);
#580=LINE('',#1141,#615);
#581=LINE('',#1142,#619);
#582=LINE('',#1140,#615);
#583=LINE('',#1145,#620);
#584=LINE('',#1147,#615);
#585=LINE('',#1144,#620);
#586=LINE('',#1149,#619);
#587=LINE('',#1151,#615);
#588=LINE('',#1148,#619);
#589=LINE('',#1158,#617);
#590=LINE('',#1161,#615);
#591=LINE('',#1157,#617);
#592=LINE('',#1162,#615);
#593=LINE('',#1164,#616);
#594=LINE('',#1167,#615);
#595=LINE('',#1163,#616);
#596=LINE('',#1165,#615);
#597=LINE('',#1169,#617);
#598=LINE('',#1170,#615);
#599=LINE('',#1173,#617);
#600=LINE('',#1171,#615);
#601=LINE('',#1176,#622);
#602=LINE('',#1175,#622);
#603=LINE('',#1047,#615);
#604=LINE('',#1181,#617);
#605=LINE('',#1046,#615);
#606=LINE('',#1064,#615);
#607=LINE('',#1063,#615);
#608=LINE('',#1182,#617);
#609=LINE('',#1059,#615);
#610=LINE('',#1183,#616);
#611=LINE('',#1168,#615);
#612=LINE('',#1072,#615);
#613=LINE('',#1184,#616);
#614=VECTOR('',#1008,1.);
#615=VECTOR('',#1009,1.);
#616=VECTOR('',#1010,1.);
#617=VECTOR('',#1005,1.);
#618=VECTOR('',#1015,1.);
#619=VECTOR('',#1012,1.);
#620=VECTOR('',#1018,1.);
#621=VECTOR('',#1021,1.);
#622=VECTOR('',#1024,1.);
#623=EDGE_LOOP('',(#61,#62,#63,#64));
#624=EDGE_LOOP('',(#65,#66,#67,#68));
#625=EDGE_LOOP('',(#69,#70,#71,#72));
#626=EDGE_LOOP('',(#73,#74,#75,#76));
#627=EDGE_LOOP('',(#77,#78,#79,#80));
#628=EDGE_LOOP('',(#81,#82,#83,#84));
#629=EDGE_LOOP('',(#85,#86,#87,#88));
#630=EDGE_LOOP('',(#89,#90,#91,#92));
#631=EDGE_LOOP('',(#93,#94,#95,#96));
#632=EDGE_LOOP('',(#97,#98,#99,#100));
#633=EDGE_LOOP('',(#101,#102,#103,#104));
#634=EDGE_LOOP('',(#105,#106,#107,#108,#109,#110,#111,#112));
#635=EDGE_LOOP('',(#113,#114,#115,#116));
#636=EDGE_LOOP('',(#117,#118,#119));
#637=EDGE_LOOP('',(#120,#121,#122,#123));
#638=EDGE_LOOP('',(#124,#125,#126,#127));
#639=EDGE_LOOP('',(#128,#129,#130,#131));
#640=EDGE_LOOP('',(#132,#133,#134,#135));
#641=EDGE_LOOP('',(#136,#137,#138));
#642=EDGE_LOOP('',(#139,#140,#141));
#643=EDGE_LOOP('',(#142,#143,#144,#145));
#644=EDGE_LOOP('',(#146,#147,#148,#149));
#645=EDGE_LOOP('',(#150,#151,#152));
#646=EDGE_LOOP('',(#153,#154,#155,#156));
#647=EDGE_LOOP('',(#157,#158,#159,#160));
#648=EDGE_LOOP('',(#161,#162,#163,#164));
#649=EDGE_LOOP('',(#165,#166,#167,#168));
#650=EDGE_LOOP('',(#169,#170,#171,#172));
#651=EDGE_LOOP('',(#173,#174,#175,#176));
#652=EDGE_LOOP('',(#177,#178,#179,#180));
#653=EDGE_LOOP('',(#181,#182,#183,#184));
#654=EDGE_LOOP('',(#185,#186,#187,#188));
#655=EDGE_LOOP('',(#189,#190,#191,#192,#193,#194,#195,#196));
#656=EDGE_LOOP('',(#197,#198,#199,#200,#201,#202,#203,#204));
#657=EDGE_LOOP('',(#205,#206,#207,#208));
#658=EDGE_LOOP('',(#209,#210,#211,#212));
#659=EDGE_LOOP('',(#213,#214,#215,#216));
#660=EDGE_LOOP('',(#217,#218,#219,#220));
#661=EDGE_LOOP('',(#221,#222,#223,#224,#225,#226));
#662=EDGE_LOOP('',(#227,#228,#229,#230,#231,#232));
#663=EDGE_LOOP('',(#233,#234,#235,#236));
#664=EDGE_LOOP('',(#237,#238,#239,#240));
#665=EDGE_LOOP('',(#241,#242,#243,#244));
#666=EDGE_LOOP('',(#245,#246,#247,#248));
#667=EDGE_LOOP('',(#249,#250,#251,#252));
#668=EDGE_LOOP('',(#253,#254,#255,#256));
#669=EDGE_LOOP('',(#257,#258,#259,#260,#261,#262));
#670=EDGE_LOOP('',(#263,#264,#265,#266,#267,#268));
#671=EDGE_LOOP('',(#269,#270,#271,#272));
#672=EDGE_LOOP('',(#273,#274,#275,#276));
#673=EDGE_LOOP('',(#107,#277,#223,#216,#278,#182,#196,#160,#279,#254,#261,#280));
#674=EDGE_LOOP('',(#225,#281,#111,#282,#259,#256,#283,#174,#194,#184,#284,#214));
#675=EDGE_LOOP('',(#253,#285,#157,#161,#165,#169,#173,#286));
#676=EDGE_LOOP('',(#287,#213,#288,#181));
#677=EDGE_LOOP('',(#257,#289,#290,#291));
#678=EDGE_LOOP('',(#221,#292,#293,#294));
#679=EDGE_LOOP('',(#295,#296,#85,#297,#298,#299,#93,#300));
#680=EDGE_LOOP('',(#197,#186,#189,#164));
#681=EDGE_LOOP('',(#204,#158,#190,#168));
#682=EDGE_LOOP('',(#203,#162,#191,#172));
#683=EDGE_LOOP('',(#202,#166,#192,#176));
#684=EDGE_LOOP('',(#201,#170,#193,#180));
#685=EDGE_LOOP('',(#199,#178,#195,#188));
#686=EDGE_LOOP('',(#159,#187,#183,#179,#175,#171,#167,#163));
#687=EDGE_LOOP('',(#232,#212,#224,#220));
#688=EDGE_LOOP('',(#209,#301,#207,#302,#219,#215));
#689=EDGE_LOOP('',(#268,#252,#260,#244));
#690=EDGE_LOOP('',(#249,#303,#247,#304,#243,#255));
#691=EDGE_LOOP('',(#305,#306,#307,#308));
#692=EDGE_LOOP('',(#309,#310,#311,#312));
#693=EDGE_LOOP('',(#313,#314,#315,#316));
#694=EDGE_LOOP('',(#317,#318,#319,#320));
#695=FACE_BOUND('',#623,.T.);
#696=FACE_BOUND('',#624,.T.);
#697=FACE_BOUND('',#625,.T.);
#698=FACE_BOUND('',#626,.T.);
#699=FACE_BOUND('',#627,.T.);
#700=FACE_BOUND('',#628,.T.);
#701=FACE_BOUND('',#629,.T.);
#702=FACE_BOUND('',#630,.T.);
#703=FACE_BOUND('',#631,.T.);
#704=FACE_BOUND('',#632,.T.);
#705=FACE_BOUND('',#633,.T.);
#706=FACE_BOUND('',#634,.T.);
#707=FACE_BOUND('',#635,.T.);
#708=FACE_BOUND('',#636,.T.);
#709=FACE_BOUND('',#637,.T.);
#710=FACE_BOUND('',#638,.T.);
#711=FACE_BOUND('',#639,.T.);
#712=FACE_BOUND('',#640,.T.);
#713=FACE_BOUND('',#641,.T.);
#714=FACE_BOUND('',#642,.T.);
#715=FACE_BOUND('',#643,.T.);
#716=FACE_BOUND('',#644,.T.);
#717=FACE_BOUND('',#645,.T.);
#718=FACE_BOUND('',#646,.T.);
#719=FACE_BOUND('',#647,.T.);
#720=FACE_BOUND('',#648,.T.);
#721=FACE_BOUND('',#649,.T.);
#722=FACE_BOUND('',#650,.T.);
#723=FACE_BOUND('',#651,.T.);
#724=FACE_BOUND('',#652,.T.);
#725=FACE_BOUND('',#653,.T.);
#726=FACE_BOUND('',#654,.T.);
#727=FACE_BOUND('',#655,.T.);
#728=FACE_BOUND('',#656,.T.);
#729=FACE_BOUND('',#657,.T.);
#730=FACE_BOUND('',#658,.T.);
#731=FACE_BOUND('',#659,.T.);
#732=FACE_BOUND('',#660,.T.);
#733=FACE_BOUND('',#661,.T.);
#734=FACE_BOUND('',#662,.T.);
#735=FACE_BOUND('',#663,.T.);
#736=FACE_BOUND('',#664,.T.);
#737=FACE_BOUND('',#665,.T.);
#738=FACE_BOUND('',#666,.T.);
#739=FACE_BOUND('',#667,.T.);
#740=FACE_BOUND('',#668,.T.);
#741=FACE_BOUND('',#669,.T.);
#742=FACE_BOUND('',#670,.T.);
#743=FACE_BOUND('',#671,.T.);
#744=FACE_BOUND('',#672,.T.);
#745=FACE_BOUND('',#673,.T.);
#746=FACE_BOUND('',#674,.T.);
#747=FACE_BOUND('',#675,.T.);
#748=FACE_BOUND('',#676,.T.);
#749=FACE_BOUND('',#677,.T.);
#750=FACE_BOUND('',#678,.T.);
#751=FACE_BOUND('',#679,.T.);
#752=FACE_BOUND('',#680,.T.);
#753=FACE_BOUND('',#681,.T.);
#754=FACE_BOUND('',#682,.T.);
#755=FACE_BOUND('',#683,.T.);
#756=FACE_BOUND('',#684,.T.);
#757=FACE_BOUND('',#685,.T.);
#758=FACE_BOUND('',#686,.T.);
#759=FACE_BOUND('',#687,.T.);
#760=FACE_BOUND('',#688,.T.);
#761=FACE_BOUND('',#689,.T.);
#762=FACE_BOUND('',#690,.T.);
#763=FACE_BOUND('',#691,.T.);
#764=FACE_BOUND('',#692,.T.);
#765=FACE_BOUND('',#693,.T.);
#766=FACE_BOUND('',#694,.T.);
#767=PLANE('',#934);
#768=PLANE('',#935);
#769=PLANE('',#936);
#770=PLANE('',#937);
#771=PLANE('',#938);
#772=PLANE('',#939);
#773=PLANE('',#940);
#774=PLANE('',#941);
#775=PLANE('',#942);
#776=PLANE('',#943);
#777=PLANE('',#944);
#778=PLANE('',#969);
#779=PLANE('',#970);
#780=PLANE('',#971);
#781=PLANE('',#972);
#782=PLANE('',#973);
#783=PLANE('',#974);
#784=PLANE('',#975);
#785=PLANE('',#976);
#786=PLANE('',#977);
#787=PLANE('',#978);
#788=PLANE('',#979);
#789=PLANE('',#980);
#790=PLANE('',#981);
#791=PLANE('',#982);
#792=PLANE('',#983);
#793=PLANE('',#933);
#794=PLANE('',#989);
#795=PLANE('',#990);
#796=PLANE('',#991);
#797=PLANE('',#992);
#798=PLANE('',#998);
#799=PLANE('',#999);
#800=PLANE('',#1000);
#801=PLANE('',#1001);
#802=ADVANCED_FACE('',(#695),#767,.T.);
#803=ADVANCED_FACE('',(#696),#768,.F.);
#804=ADVANCED_FACE('',(#697),#769,.F.);
#805=ADVANCED_FACE('',(#698),#770,.T.);
#806=ADVANCED_FACE('',(#699),#771,.T.);
#807=ADVANCED_FACE('',(#700),#772,.F.);
#808=ADVANCED_FACE('',(#701),#773,.T.);
#809=ADVANCED_FACE('',(#702),#774,.F.);
#810=ADVANCED_FACE('',(#703),#775,.F.);
#811=ADVANCED_FACE('',(#704),#776,.T.);
#812=ADVANCED_FACE('',(#705),#777,.T.);
#813=ADVANCED_FACE('',(#706),#772,.F.);
#814=ADVANCED_FACE('',(#707),#7,.T.);
#815=ADVANCED_FACE('',(#708),#3,.T.);
#816=ADVANCED_FACE('',(#709),#8,.T.);
#817=ADVANCED_FACE('',(#710),#9,.T.);
#818=ADVANCED_FACE('',(#711),#10,.T.);
#819=ADVANCED_FACE('',(#712),#11,.T.);
#820=ADVANCED_FACE('',(#713),#4,.T.);
#821=ADVANCED_FACE('',(#714),#5,.T.);
#822=ADVANCED_FACE('',(#715),#12,.T.);
#823=ADVANCED_FACE('',(#716),#13,.T.);
#824=ADVANCED_FACE('',(#717),#6,.T.);
#825=ADVANCED_FACE('',(#718),#14,.T.);
#826=ADVANCED_FACE('',(#719),#778,.F.);
#827=ADVANCED_FACE('',(#720),#779,.F.);
#828=ADVANCED_FACE('',(#721),#780,.F.);
#829=ADVANCED_FACE('',(#722),#781,.T.);
#830=ADVANCED_FACE('',(#723),#782,.F.);
#831=ADVANCED_FACE('',(#724),#783,.T.);
#832=ADVANCED_FACE('',(#725),#784,.T.);
#833=ADVANCED_FACE('',(#726),#785,.F.);
#834=ADVANCED_FACE('',(#727),#786,.T.);
#835=ADVANCED_FACE('',(#728),#787,.F.);
#836=ADVANCED_FACE('',(#729),#788,.T.);
#837=ADVANCED_FACE('',(#730),#789,.F.);
#838=ADVANCED_FACE('',(#731),#790,.F.);
#839=ADVANCED_FACE('',(#732),#791,.T.);
#840=ADVANCED_FACE('',(#733),#792,.T.);
#841=ADVANCED_FACE('',(#734),#793,.F.);
#842=ADVANCED_FACE('',(#735),#15,.T.);
#843=ADVANCED_FACE('',(#736),#16,.T.);
#844=ADVANCED_FACE('',(#737),#794,.T.);
#845=ADVANCED_FACE('',(#738),#795,.F.);
#846=ADVANCED_FACE('',(#739),#796,.F.);
#847=ADVANCED_FACE('',(#740),#797,.T.);
#848=ADVANCED_FACE('',(#741),#792,.T.);
#849=ADVANCED_FACE('',(#742),#793,.F.);
#850=ADVANCED_FACE('',(#743),#17,.T.);
#851=ADVANCED_FACE('',(#744),#18,.T.);
#852=ADVANCED_FACE('',(#745),#798,.T.);
#853=ADVANCED_FACE('',(#746),#799,.F.);
#854=ADVANCED_FACE('',(#747),#793,.F.);
#855=ADVANCED_FACE('',(#748),#793,.F.);
#856=ADVANCED_FACE('',(#749),#800,.F.);
#857=ADVANCED_FACE('',(#750),#801,.T.);
#858=ADVANCED_FACE('',(#751),#772,.T.);
#859=ADVANCED_FACE('',(#752),#778,.T.);
#860=ADVANCED_FACE('',(#753),#779,.T.);
#861=ADVANCED_FACE('',(#754),#780,.T.);
#862=ADVANCED_FACE('',(#755),#781,.F.);
#863=ADVANCED_FACE('',(#756),#782,.T.);
#864=ADVANCED_FACE('',(#757),#784,.F.);
#865=ADVANCED_FACE('',(#758),#786,.F.);
#866=ADVANCED_FACE('',(#759),#790,.T.);
#867=ADVANCED_FACE('',(#760),#792,.F.);
#868=ADVANCED_FACE('',(#761),#797,.F.);
#869=ADVANCED_FACE('',(#762),#792,.F.);
#870=ADVANCED_FACE('',(#763),#19,.T.);
#871=ADVANCED_FACE('',(#764),#20,.T.);
#872=ADVANCED_FACE('',(#765),#21,.T.);
#873=ADVANCED_FACE('',(#766),#22,.T.);
#874=CLOSED_SHELL('',(#802,#803,#804,#805,#806,#807));
#875=CLOSED_SHELL('',(#808,#809,#810,#811,#812,#813,#814,#815,#816,#817,#818,#819,#820,#821,#822,#823,#824,#825));
#876=CLOSED_SHELL('',(#826,#827,#828,#829,#830,#831,#832,#833,#834,#835));
#877=CLOSED_SHELL('',(#836,#837,#838,#839,#840,#841,#842,#843));
#878=CLOSED_SHELL('',(#844,#845,#846,#847,#848,#849,#850,#851));
#879=CLOSED_SHELL('',(#852,#853,#854,#855,#856,#857,#858,#859,#860,#861,#862,#863,#864,#865,#866,#867,#868,#869,#870,#871,#872,#873));
#880=STYLED_ITEM('',(#886),#915);
#881=STYLED_ITEM('',(#887),#916);
#882=STYLED_ITEM('',(#888),#917);
#883=STYLED_ITEM('',(#889),#918);
#884=STYLED_ITEM('',(#889),#919);
#885=STYLED_ITEM('',(#890),#920);
#886=PRESENTATION_STYLE_ASSIGNMENT((#891));
#887=PRESENTATION_STYLE_ASSIGNMENT((#892));
#888=PRESENTATION_STYLE_ASSIGNMENT((#893));
#889=PRESENTATION_STYLE_ASSIGNMENT((#894));
#890=PRESENTATION_STYLE_ASSIGNMENT((#895));
#891=SURFACE_STYLE_USAGE(.BOTH.,#896);
#892=SURFACE_STYLE_USAGE(.BOTH.,#897);
#893=SURFACE_STYLE_USAGE(.BOTH.,#898);
#894=SURFACE_STYLE_USAGE(.BOTH.,#899);
#895=SURFACE_STYLE_USAGE(.BOTH.,#900);
#896=SURFACE_SIDE_STYLE('',(#901));
#897=SURFACE_SIDE_STYLE('',(#902,#47));
#898=SURFACE_SIDE_STYLE('',(#903));
#899=SURFACE_SIDE_STYLE('',(#904));
#900=SURFACE_SIDE_STYLE('',(#902));
#901=SURFACE_STYLE_FILL_AREA(#905);
#902=SURFACE_STYLE_FILL_AREA(#906);
#903=SURFACE_STYLE_FILL_AREA(#907);
#904=SURFACE_STYLE_FILL_AREA(#908);
#905=FILL_AREA_STYLE('',(#909));
#906=FILL_AREA_STYLE('',(#910));
#907=FILL_AREA_STYLE('',(#911));
#908=FILL_AREA_STYLE('',(#912));
#909=FILL_AREA_STYLE_COLOUR('',#913);
#910=FILL_AREA_STYLE_COLOUR('',#914);
#911=FILL_AREA_STYLE_COLOUR('',#1);
#912=FILL_AREA_STYLE_COLOUR('',#2);
#913=DRAUGHTING_PRE_DEFINED_COLOUR('red');
#914=DRAUGHTING_PRE_DEFINED_COLOUR('white');
#915=MANIFOLD_SOLID_BREP('Light',#874);
#916=MANIFOLD_SOLID_BREP('Body',#875);
#917=MANIFOLD_SOLID_BREP('Cathode Mark',#876);
#918=MANIFOLD_SOLID_BREP('Anode Pin',#877);
#919=MANIFOLD_SOLID_BREP('Cathode Pin',#878);
#920=MANIFOLD_SOLID_BREP('Base',#879);
#921=SHAPE_DEFINITION_REPRESENTATION(#1201,#927);
#922=SHAPE_DEFINITION_REPRESENTATION(#1202,#928);
#923=SHAPE_DEFINITION_REPRESENTATION(#1203,#929);
#924=SHAPE_DEFINITION_REPRESENTATION(#1204,#930);
#925=SHAPE_DEFINITION_REPRESENTATION(#1205,#931);
#926=SHAPE_DEFINITION_REPRESENTATION(#1206,#932);
#927=SHAPE_REPRESENTATION('Light',(#933),#1191);
#928=SHAPE_REPRESENTATION('Body',(#933),#1192);
#929=SHAPE_REPRESENTATION('Cathode Mark',(#933),#1193);
#930=SHAPE_REPRESENTATION('Anode Pin',(#933),#1194);
#931=SHAPE_REPRESENTATION('Cathode Pin',(#933),#1195);
#932=SHAPE_REPRESENTATION('Base',(#933),#1196);
#933=AXIS2_PLACEMENT_3D('',#1025,#1004,#1005);
#934=AXIS2_PLACEMENT_3D('',#1026,#1006,#1007);
#935=AXIS2_PLACEMENT_3D('',#1032,#1005,#1009);
#936=AXIS2_PLACEMENT_3D('',#1036,#1006,#1007);
#937=AXIS2_PLACEMENT_3D('',#1040,#1005,#1009);
#938=AXIS2_PLACEMENT_3D('',#1042,#1004,#1005);
#939=AXIS2_PLACEMENT_3D('',#1043,#1004,#1005);
#940=AXIS2_PLACEMENT_3D('',#1044,#1011,#1004);
#941=AXIS2_PLACEMENT_3D('',#1053,#1005,#1009);
#942=AXIS2_PLACEMENT_3D('',#1061,#1011,#1004);
#943=AXIS2_PLACEMENT_3D('',#1070,#1005,#1009);
#944=AXIS2_PLACEMENT_3D('',#1078,#1004,#1005);
#945=AXIS2_PLACEMENT_3D('',#1086,#1004,#1005);
#946=AXIS2_PLACEMENT_3D('',#1087,#1004,#1005);
#947=AXIS2_PLACEMENT_3D('',#1088,#1004,#1005);
#948=AXIS2_PLACEMENT_3D('',#1089,#1004,#1005);
#949=AXIS2_PLACEMENT_3D('',#1082,#1004,#1005);
#950=AXIS2_PLACEMENT_3D('',#1090,#1004,#1005);
#951=AXIS2_PLACEMENT_3D('',#1090,#1005,#1009);
#952=AXIS2_PLACEMENT_3D('',#1090,#1010,#1009);
#953=AXIS2_PLACEMENT_3D('',#1084,#1009,#1012);
#954=AXIS2_PLACEMENT_3D('',#1091,#1004,#1005);
#955=AXIS2_PLACEMENT_3D('',#1092,#1010,#1009);
#956=AXIS2_PLACEMENT_3D('',#1091,#1011,#1004);
#957=AXIS2_PLACEMENT_3D('',#1093,#1012,#1004);
#958=AXIS2_PLACEMENT_3D('',#1094,#1012,#1004);
#959=AXIS2_PLACEMENT_3D('',#1080,#1009,#1012);
#960=AXIS2_PLACEMENT_3D('',#1094,#1004,#1005);
#961=AXIS2_PLACEMENT_3D('',#1091,#1005,#1009);
#962=AXIS2_PLACEMENT_3D('',#1094,#1010,#1009);
#963=AXIS2_PLACEMENT_3D('',#1095,#1005,#1009);
#964=AXIS2_PLACEMENT_3D('',#1096,#1012,#1004);
#965=AXIS2_PLACEMENT_3D('',#1097,#1011,#1004);
#966=AXIS2_PLACEMENT_3D('',#1096,#1011,#1004);
#967=AXIS2_PLACEMENT_3D('',#1096,#1004,#1005);
#968=AXIS2_PLACEMENT_3D('',#1079,#1004,#1005);
#969=AXIS2_PLACEMENT_3D('',#1098,#1013,#1014);
#970=AXIS2_PLACEMENT_3D('',#1104,#1010,#1009);
#971=AXIS2_PLACEMENT_3D('',#1108,#1016,#1017);
#972=AXIS2_PLACEMENT_3D('',#1112,#1010,#1009);
#973=AXIS2_PLACEMENT_3D('',#1116,#1013,#1014);
#974=AXIS2_PLACEMENT_3D('',#1120,#1010,#1009);
#975=AXIS2_PLACEMENT_3D('',#1124,#1019,#1020);
#976=AXIS2_PLACEMENT_3D('',#1128,#1010,#1009);
#977=AXIS2_PLACEMENT_3D('',#1130,#1004,#1005);
#978=AXIS2_PLACEMENT_3D('',#1131,#1004,#1005);
#979=AXIS2_PLACEMENT_3D('',#1132,#1005,#1009);
#980=AXIS2_PLACEMENT_3D('',#1138,#1010,#1009);
#981=AXIS2_PLACEMENT_3D('',#1144,#1016,#1017);
#982=AXIS2_PLACEMENT_3D('',#1148,#1010,#1009);
#983=AXIS2_PLACEMENT_3D('',#1152,#1004,#1005);
#984=AXIS2_PLACEMENT_3D('',#1153,#1004,#1005);
#985=AXIS2_PLACEMENT_3D('',#1154,#1004,#1005);
#986=AXIS2_PLACEMENT_3D('',#1155,#1004,#1005);
#987=AXIS2_PLACEMENT_3D('',#1156,#1004,#1005);
#988=AXIS2_PLACEMENT_3D('',#1154,#1009,#1012);
#989=AXIS2_PLACEMENT_3D('',#1157,#1011,#1004);
#990=AXIS2_PLACEMENT_3D('',#1163,#1005,#1009);
#991=AXIS2_PLACEMENT_3D('',#1169,#1011,#1004);
#992=AXIS2_PLACEMENT_3D('',#1175,#1022,#1023);
#993=AXIS2_PLACEMENT_3D('',#1177,#1004,#1005);
#994=AXIS2_PLACEMENT_3D('',#1178,#1004,#1005);
#995=AXIS2_PLACEMENT_3D('',#1179,#1004,#1005);
#996=AXIS2_PLACEMENT_3D('',#1180,#1004,#1005);
#997=AXIS2_PLACEMENT_3D('',#1177,#1009,#1012);
#998=AXIS2_PLACEMENT_3D('',#1045,#1011,#1004);
#999=AXIS2_PLACEMENT_3D('',#1062,#1011,#1004);
#1000=AXIS2_PLACEMENT_3D('',#1183,#1005,#1009);
#1001=AXIS2_PLACEMENT_3D('',#1184,#1005,#1009);
#1002=AXIS2_PLACEMENT_3D('',#1087,#1009,#1012);
#1003=AXIS2_PLACEMENT_3D('',#1089,#1009,#1012);
#1004=DIRECTION('',(0.,0.,1.));
#1005=DIRECTION('',(1.,0.,0.));
#1006=DIRECTION('',(-1.80700362080917E-16,1.,0.));
#1007=DIRECTION('',(-1.,-1.80700362080917E-16,0.));
#1008=DIRECTION('',(1.,1.80700362080917E-16,0.));
#1009=DIRECTION('',(0.,0.,-1.));
#1010=DIRECTION('',(0.,-1.,0.));
#1011=DIRECTION('',(0.,1.,0.));
#1012=DIRECTION('',(-1.,0.,0.));
#1013=DIRECTION('',(1.,1.89735380184963E-16,0.));
#1014=DIRECTION('',(-1.89735380184963E-16,1.,0.));
#1015=DIRECTION('',(1.89735380184963E-16,-1.,0.));
#1016=DIRECTION('',(1.,3.25260651745651E-16,0.));
#1017=DIRECTION('',(-3.25260651745651E-16,1.,0.));
#1018=DIRECTION('',(3.25260651745651E-16,-1.,0.));
#1019=DIRECTION('',(1.,2.16840434497101E-16,0.));
#1020=DIRECTION('',(-2.16840434497101E-16,1.,0.));
#1021=DIRECTION('',(2.16840434497101E-16,-1.,0.));
#1022=DIRECTION('',(1.,1.0842021724855E-16,0.));
#1023=DIRECTION('',(-1.0842021724855E-16,1.,0.));
#1024=DIRECTION('',(1.0842021724855E-16,-1.,0.));
#1025=CARTESIAN_POINT('',(0.,0.,0.));
#1026=CARTESIAN_POINT('',(0.,0.00015,0.00033));
#1027=CARTESIAN_POINT('',(0.,0.00015,0.00018));
#1028=CARTESIAN_POINT('',(-0.00015,0.00015,0.00018));
#1029=CARTESIAN_POINT('',(0.00015,0.00015,0.00018));
#1030=CARTESIAN_POINT('',(-0.00015,0.00015,0.00033));
#1031=CARTESIAN_POINT('',(0.00015,0.00015,0.00033));
#1032=CARTESIAN_POINT('',(-0.00015,0.,0.00033));
#1033=CARTESIAN_POINT('',(-0.00015,0.,0.00018));
#1034=CARTESIAN_POINT('',(-0.00015,-0.00015,0.00018));
#1035=CARTESIAN_POINT('',(-0.00015,-0.00015,0.00033));
#1036=CARTESIAN_POINT('',(0.,-0.00015,0.00033));
#1037=CARTESIAN_POINT('',(0.,-0.00015,0.00018));
#1038=CARTESIAN_POINT('',(0.00015,-0.00015,0.00018));
#1039=CARTESIAN_POINT('',(0.00015,-0.00015,0.00033));
#1040=CARTESIAN_POINT('',(0.00015,5.42101086242752E-20,0.00033));
#1041=CARTESIAN_POINT('',(0.00015,5.42101086242752E-20,0.00018));
#1042=CARTESIAN_POINT('',(0.,0.,0.00033));
#1043=CARTESIAN_POINT('',(0.,0.,0.00018));
#1044=CARTESIAN_POINT('',(0.,0.00025,0.00035));
#1045=CARTESIAN_POINT('',(0.,0.00025,0.00018));
#1046=CARTESIAN_POINT('',(-0.000475,0.00025,0.00018));
#1047=CARTESIAN_POINT('',(0.000475,0.00025,0.00018));
#1048=CARTESIAN_POINT('',(-0.000475,0.00025,0.00035));
#1049=CARTESIAN_POINT('',(-0.000475,0.00025,0.000325));
#1050=CARTESIAN_POINT('',(0.,0.00025,0.000325));
#1051=CARTESIAN_POINT('',(0.000475,0.00025,0.000325));
#1052=CARTESIAN_POINT('',(0.000475,0.00025,0.00035));
#1053=CARTESIAN_POINT('',(-0.0005,0.,0.00035));
#1054=CARTESIAN_POINT('',(-0.0005,0.00025,0.000325));
#1055=CARTESIAN_POINT('',(-0.0005,-0.000225,0.000325));
#1056=CARTESIAN_POINT('',(-0.0005,0.000225,0.000325));
#1057=CARTESIAN_POINT('',(-0.0005,0.000225,0.00018));
#1058=CARTESIAN_POINT('',(-0.0005,0.,0.00018));
#1059=CARTESIAN_POINT('',(-0.0005,-0.000225,0.00018));
#1060=CARTESIAN_POINT('',(-0.0005,-0.000225,0.00035));
#1061=CARTESIAN_POINT('',(0.,-0.00025,0.00035));
#1062=CARTESIAN_POINT('',(0.,-0.00025,0.00018));
#1063=CARTESIAN_POINT('',(-0.000475,-0.00025,0.00018));
#1064=CARTESIAN_POINT('',(0.000475,-0.00025,0.00018));
#1065=CARTESIAN_POINT('',(0.000475,-0.00025,0.00035));
#1066=CARTESIAN_POINT('',(0.000475,-0.00025,0.000325));
#1067=CARTESIAN_POINT('',(-0.0005,-0.00025,0.000325));
#1068=CARTESIAN_POINT('',(-0.000475,-0.00025,0.000325));
#1069=CARTESIAN_POINT('',(-0.000475,-0.00025,0.00035));
#1070=CARTESIAN_POINT('',(0.0005,0.,0.00035));
#1071=CARTESIAN_POINT('',(0.0005,0.,0.00018));
#1072=CARTESIAN_POINT('',(0.0005,0.000225,0.00018));
#1073=CARTESIAN_POINT('',(0.0005,-0.000225,0.00018));
#1074=CARTESIAN_POINT('',(0.0005,0.000225,0.00035));
#1075=CARTESIAN_POINT('',(0.0005,0.000225,0.000325));
#1076=CARTESIAN_POINT('',(0.0005,0.,0.000325));
#1077=CARTESIAN_POINT('',(0.0005,-0.000225,0.000325));
#1078=CARTESIAN_POINT('',(0.,0.,0.00035));
#1079=CARTESIAN_POINT('',(-0.000475,0.000225,0.00035));
#1080=CARTESIAN_POINT('',(-0.000475,-0.000225,0.00035));
#1081=CARTESIAN_POINT('',(0.0005,-0.000225,0.00035));
#1082=CARTESIAN_POINT('',(0.000475,-0.000225,0.00035));
#1083=CARTESIAN_POINT('',(0.000475,0.,0.00035));
#1084=CARTESIAN_POINT('',(0.000475,0.000225,0.00035));
#1085=CARTESIAN_POINT('',(0.,0.000225,0.00035));
#1086=CARTESIAN_POINT('',(-0.000475,0.000225,0.00018));
#1087=CARTESIAN_POINT('',(0.000475,0.000225,0.00018));
#1088=CARTESIAN_POINT('',(0.000475,-0.000225,0.00018));
#1089=CARTESIAN_POINT('',(-0.000475,-0.000225,0.00018));
#1090=CARTESIAN_POINT('',(0.000475,-0.000225,0.000325));
#1091=CARTESIAN_POINT('',(0.000475,0.000225,0.000325));
#1092=CARTESIAN_POINT('',(0.000475,0.,0.000325));
#1093=CARTESIAN_POINT('',(0.,-0.000225,0.000325));
#1094=CARTESIAN_POINT('',(-0.000475,-0.000225,0.000325));
#1095=CARTESIAN_POINT('',(0.,0.000225,0.000325));
#1096=CARTESIAN_POINT('',(-0.000475,0.000225,0.000325));
#1097=CARTESIAN_POINT('',(-0.000475,0.,0.000325));
#1098=CARTESIAN_POINT('',(2.5E-5,0.0001875,2.E-5));
#1099=CARTESIAN_POINT('',(2.5E-5,0.0001875,0.));
#1100=CARTESIAN_POINT('',(2.5E-5,0.00025,0.));
#1101=CARTESIAN_POINT('',(2.5E-5,0.000125,0.));
#1102=CARTESIAN_POINT('',(2.5E-5,0.000125,2.E-5));
#1103=CARTESIAN_POINT('',(2.5E-5,0.00025,2.E-5));
#1104=CARTESIAN_POINT('',(-2.5E-5,0.000125,2.E-5));
#1105=CARTESIAN_POINT('',(-2.5E-5,0.000125,0.));
#1106=CARTESIAN_POINT('',(-7.5E-5,0.000125,0.));
#1107=CARTESIAN_POINT('',(-7.5E-5,0.000125,2.E-5));
#1108=CARTESIAN_POINT('',(-7.5E-5,1.35525271560688E-20,2.E-5));
#1109=CARTESIAN_POINT('',(-7.5E-5,1.35525271560688E-20,0.));
#1110=CARTESIAN_POINT('',(-7.5E-5,-0.000125,0.));
#1111=CARTESIAN_POINT('',(-7.5E-5,-0.000125,2.E-5));
#1112=CARTESIAN_POINT('',(-2.5E-5,-0.000125,2.E-5));
#1113=CARTESIAN_POINT('',(-2.5E-5,-0.000125,0.));
#1114=CARTESIAN_POINT('',(2.5E-5,-0.000125,0.));
#1115=CARTESIAN_POINT('',(2.5E-5,-0.000125,2.E-5));
#1116=CARTESIAN_POINT('',(2.5E-5,-0.0001875,2.E-5));
#1117=CARTESIAN_POINT('',(2.5E-5,-0.0001875,0.));
#1118=CARTESIAN_POINT('',(2.5E-5,-0.00025,0.));
#1119=CARTESIAN_POINT('',(2.5E-5,-0.00025,2.E-5));
#1120=CARTESIAN_POINT('',(7.5E-5,-0.00025,2.E-5));
#1121=CARTESIAN_POINT('',(7.5E-5,-0.00025,0.));
#1122=CARTESIAN_POINT('',(0.000125,-0.00025,0.));
#1123=CARTESIAN_POINT('',(0.000125,-0.00025,2.E-5));
#1124=CARTESIAN_POINT('',(0.000125,0.,2.E-5));
#1125=CARTESIAN_POINT('',(0.000125,0.,0.));
#1126=CARTESIAN_POINT('',(0.000125,0.00025,0.));
#1127=CARTESIAN_POINT('',(0.000125,0.00025,2.E-5));
#1128=CARTESIAN_POINT('',(7.5E-5,0.00025,2.E-5));
#1129=CARTESIAN_POINT('',(7.5E-5,0.00025,0.));
#1130=CARTESIAN_POINT('',(2.5E-5,0.,2.E-5));
#1131=CARTESIAN_POINT('',(2.5E-5,0.,0.));
#1132=CARTESIAN_POINT('',(0.0005,5.42101086242752E-20,2.E-5));
#1133=CARTESIAN_POINT('',(0.0005,5.42101086242752E-20,0.));
#1134=CARTESIAN_POINT('',(0.0005,0.000225,0.));
#1135=CARTESIAN_POINT('',(0.0005,-0.000225,0.));
#1136=CARTESIAN_POINT('',(0.0005,0.000225,2.E-5));
#1137=CARTESIAN_POINT('',(0.0005,-0.000225,2.E-5));
#1138=CARTESIAN_POINT('',(0.0003375,0.00025,2.E-5));
#1139=CARTESIAN_POINT('',(0.000475,0.00025,2.E-5));
#1140=CARTESIAN_POINT('',(0.000175,0.00025,2.E-5));
#1141=CARTESIAN_POINT('',(0.000475,0.00025,0.));
#1142=CARTESIAN_POINT('',(0.0003375,0.00025,0.));
#1143=CARTESIAN_POINT('',(0.000175,0.00025,0.));
#1144=CARTESIAN_POINT('',(0.000175,5.42101086242752E-20,2.E-5));
#1145=CARTESIAN_POINT('',(0.000175,5.42101086242752E-20,0.));
#1146=CARTESIAN_POINT('',(0.000175,-0.00025,0.));
#1147=CARTESIAN_POINT('',(0.000175,-0.00025,2.E-5));
#1148=CARTESIAN_POINT('',(0.0003375,-0.00025,2.E-5));
#1149=CARTESIAN_POINT('',(0.0003375,-0.00025,0.));
#1150=CARTESIAN_POINT('',(0.000475,-0.00025,0.));
#1151=CARTESIAN_POINT('',(0.000475,-0.00025,2.E-5));
#1152=CARTESIAN_POINT('',(0.,0.,2.E-5));
#1153=CARTESIAN_POINT('',(0.000475,0.000225,2.E-5));
#1154=CARTESIAN_POINT('',(0.000475,-0.000225,2.E-5));
#1155=CARTESIAN_POINT('',(0.000475,0.000225,0.));
#1156=CARTESIAN_POINT('',(0.000475,-0.000225,0.));
#1157=CARTESIAN_POINT('',(-0.0003375,0.00025,2.E-5));
#1158=CARTESIAN_POINT('',(-0.0003375,0.00025,0.));
#1159=CARTESIAN_POINT('',(-0.000475,0.00025,0.));
#1160=CARTESIAN_POINT('',(-0.000175,0.00025,0.));
#1161=CARTESIAN_POINT('',(-0.000475,0.00025,2.E-5));
#1162=CARTESIAN_POINT('',(-0.000175,0.00025,2.E-5));
#1163=CARTESIAN_POINT('',(-0.0005,0.,2.E-5));
#1164=CARTESIAN_POINT('',(-0.0005,0.,0.));
#1165=CARTESIAN_POINT('',(-0.0005,0.000225,0.));
#1166=CARTESIAN_POINT('',(-0.0005,-0.000225,0.));
#1167=CARTESIAN_POINT('',(-0.0005,-0.000225,2.E-5));
#1168=CARTESIAN_POINT('',(-0.0005,0.000225,2.E-5));
#1169=CARTESIAN_POINT('',(-0.0003375,-0.00025,2.E-5));
#1170=CARTESIAN_POINT('',(-0.000475,-0.00025,2.E-5));
#1171=CARTESIAN_POINT('',(-0.000175,-0.00025,2.E-5));
#1172=CARTESIAN_POINT('',(-0.000475,-0.00025,0.));
#1173=CARTESIAN_POINT('',(-0.0003375,-0.00025,0.));
#1174=CARTESIAN_POINT('',(-0.000175,-0.00025,0.));
#1175=CARTESIAN_POINT('',(-0.000175,0.,2.E-5));
#1176=CARTESIAN_POINT('',(-0.000175,0.,0.));
#1177=CARTESIAN_POINT('',(-0.000475,-0.000225,2.E-5));
#1178=CARTESIAN_POINT('',(-0.000475,0.000225,2.E-5));
#1179=CARTESIAN_POINT('',(-0.000475,-0.000225,0.));
#1180=CARTESIAN_POINT('',(-0.000475,0.000225,0.));
#1181=CARTESIAN_POINT('',(0.,0.00025,0.));
#1182=CARTESIAN_POINT('',(0.,-0.00025,0.));
#1183=CARTESIAN_POINT('',(-0.0005,-1.0842021724855E-19,0.00018));
#1184=CARTESIAN_POINT('',(0.0005,5.42101086242752E-20,0.00018));
#1185=MECHANICAL_DESIGN_GEOMETRIC_PRESENTATION_REPRESENTATION('',(#880),#1191);
#1186=MECHANICAL_DESIGN_GEOMETRIC_PRESENTATION_REPRESENTATION('',(#881),#1192);
#1187=MECHANICAL_DESIGN_GEOMETRIC_PRESENTATION_REPRESENTATION('',(#882),#1193);
#1188=MECHANICAL_DESIGN_GEOMETRIC_PRESENTATION_REPRESENTATION('',(#883),#1194);
#1189=MECHANICAL_DESIGN_GEOMETRIC_PRESENTATION_REPRESENTATION('',(#884),#1195);
#1190=MECHANICAL_DESIGN_GEOMETRIC_PRESENTATION_REPRESENTATION('',(#885),#1196);
#1191=(GEOMETRIC_REPRESENTATION_CONTEXT(3)GLOBAL_UNCERTAINTY_ASSIGNED_CONTEXT((#1197))GLOBAL_UNIT_ASSIGNED_CONTEXT((#1200,#1199,#1198))REPRESENTATION_CONTEXT('Light','TOP_LEVEL_ASSEMBLY_PART'));
#1192=(GEOMETRIC_REPRESENTATION_CONTEXT(3)GLOBAL_UNCERTAINTY_ASSIGNED_CONTEXT((#1197))GLOBAL_UNIT_ASSIGNED_CONTEXT((#1200,#1199,#1198))REPRESENTATION_CONTEXT('Body','TOP_LEVEL_ASSEMBLY_PART'));
#1193=(GEOMETRIC_REPRESENTATION_CONTEXT(3)GLOBAL_UNCERTAINTY_ASSIGNED_CONTEXT((#1197))GLOBAL_UNIT_ASSIGNED_CONTEXT((#1200,#1199,#1198))REPRESENTATION_CONTEXT('Cathode Mark','TOP_LEVEL_ASSEMBLY_PART'));
#1194=(GEOMETRIC_REPRESENTATION_CONTEXT(3)GLOBAL_UNCERTAINTY_ASSIGNED_CONTEXT((#1197))GLOBAL_UNIT_ASSIGNED_CONTEXT((#1200,#1199,#1198))REPRESENTATION_CONTEXT('Anode Pin','TOP_LEVEL_ASSEMBLY_PART'));
#1195=(GEOMETRIC_REPRESENTATION_CONTEXT(3)GLOBAL_UNCERTAINTY_ASSIGNED_CONTEXT((#1197))GLOBAL_UNIT_ASSIGNED_CONTEXT((#1200,#1199,#1198))REPRESENTATION_CONTEXT('Cathode Pin','TOP_LEVEL_ASSEMBLY_PART'));
#1196=(GEOMETRIC_REPRESENTATION_CONTEXT(3)GLOBAL_UNCERTAINTY_ASSIGNED_CONTEXT((#1197))GLOBAL_UNIT_ASSIGNED_CONTEXT((#1200,#1199,#1198))REPRESENTATION_CONTEXT('Base','TOP_LEVEL_ASSEMBLY_PART'));
#1197=UNCERTAINTY_MEASURE_WITH_UNIT(LENGTH_MEASURE(5.E-6),#1200,'DISTANCE_ACCURACY_VALUE','Maximum Tolerance applied to model');
#1198=(NAMED_UNIT(*)SI_UNIT($,.STERADIAN.)SOLID_ANGLE_UNIT());
#1199=(NAMED_UNIT(*)PLANE_ANGLE_UNIT()SI_UNIT($,.RADIAN.));
#1200=(LENGTH_UNIT()NAMED_UNIT(*)SI_UNIT($,.METRE.));
#1201=PRODUCT_DEFINITION_SHAPE('','',#1207);
#1202=PRODUCT_DEFINITION_SHAPE('','',#1208);
#1203=PRODUCT_DEFINITION_SHAPE('','',#1209);
#1204=PRODUCT_DEFINITION_SHAPE('','',#1210);
#1205=PRODUCT_DEFINITION_SHAPE('','',#1211);
#1206=PRODUCT_DEFINITION_SHAPE('','',#1212);
#1207=PRODUCT_DEFINITION('','',#1219,#1213);
#1208=PRODUCT_DEFINITION('','',#1220,#1214);
#1209=PRODUCT_DEFINITION('','',#1221,#1215);
#1210=PRODUCT_DEFINITION('','',#1222,#1216);
#1211=PRODUCT_DEFINITION('','',#1223,#1217);
#1212=PRODUCT_DEFINITION('','',#1224,#1218);
#1213=PRODUCT_DEFINITION_CONTEXT('',#1240,'design');
#1214=PRODUCT_DEFINITION_CONTEXT('',#1240,'design');
#1215=PRODUCT_DEFINITION_CONTEXT('',#1240,'design');
#1216=PRODUCT_DEFINITION_CONTEXT('',#1240,'design');
#1217=PRODUCT_DEFINITION_CONTEXT('',#1240,'design');
#1218=PRODUCT_DEFINITION_CONTEXT('',#1240,'design');
#1219=PRODUCT_DEFINITION_FORMATION_WITH_SPECIFIED_SOURCE('','',#1231,.NOT_KNOWN.);
#1220=PRODUCT_DEFINITION_FORMATION_WITH_SPECIFIED_SOURCE('','',#1232,.NOT_KNOWN.);
#1221=PRODUCT_DEFINITION_FORMATION_WITH_SPECIFIED_SOURCE('','',#1233,.NOT_KNOWN.);
#1222=PRODUCT_DEFINITION_FORMATION_WITH_SPECIFIED_SOURCE('','',#1234,.NOT_KNOWN.);
#1223=PRODUCT_DEFINITION_FORMATION_WITH_SPECIFIED_SOURCE('','',#1235,.NOT_KNOWN.);
#1224=PRODUCT_DEFINITION_FORMATION_WITH_SPECIFIED_SOURCE('','',#1236,.NOT_KNOWN.);
#1225=PRODUCT_RELATED_PRODUCT_CATEGORY('','',(#1231));
#1226=PRODUCT_RELATED_PRODUCT_CATEGORY('','',(#1232));
#1227=PRODUCT_RELATED_PRODUCT_CATEGORY('','',(#1233));
#1228=PRODUCT_RELATED_PRODUCT_CATEGORY('','',(#1234));
#1229=PRODUCT_RELATED_PRODUCT_CATEGORY('','',(#1235));
#1230=PRODUCT_RELATED_PRODUCT_CATEGORY('','',(#1236));
#1231=PRODUCT('Light','Light','Light',(#1238));
#1232=PRODUCT('Body','Body','Body',(#1238));
#1233=PRODUCT('Cathode Mark','Cathode Mark','Cathode Mark',(#1238));
#1234=PRODUCT('Anode Pin','Anode Pin','Anode Pin',(#1238));
#1235=PRODUCT('Cathode Pin','Cathode Pin','Cathode Pin',(#1238));
#1236=PRODUCT('Base','Base','Base',(#1238));
#1237=PRODUCT_CATEGORY('','');
#1238=PRODUCT_CONTEXT('',#1240,'mechanical');
#1239=APPLICATION_PROTOCOL_DEFINITION('international standard','ap242_managed_model_based_3d_engineering',2011,#1240);
#1240=APPLICATION_CONTEXT('managed model based 3d engineering');
ENDSEC;
END-ISO-10303-21;
