G04 --- HEADER BEGIN --- *
G04 #@! TF.GenerationSoftware,LibrePCB,LibrePCB,2.1.0*
G04 #@! TF.CreationDate,2026-05-25T16:11:16*
G04 #@! TF.ProjectId,LED-Spot,3c1585ae-4d95-495e-8c35-7f5f3331ca9b,v1*
G04 #@! TF.Part,Single*
G04 #@! TF.SameCoordinates*
G04 #@! TF.FileFunction,Legend,Bot*
G04 #@! TF.FilePolarity,Positive*
%FSLAX66Y66*%
%MOMM*%
G01*
G75*
G04 --- HEADER END --- *
G04 --- APERTURE LIST BEGIN --- *
%ADD10C,0.1*%
%ADD11C,0.2*%
%ADD12C,2.2*%
%ADD13C,5.8*%
G04 --- APERTURE LIST END --- *
G04 --- BOARD BEGIN --- *
D10*
G04 #@! TO.C,MECH1*
X4700000Y11500000D02*
G02*
X-4700000Y11500000I-4700000J0D01*
G01*
G02*
X4700000Y11500000I4700000J0D01*
G01*
X9500000Y11500000D02*
G02*
X-9500000Y11500000I-9500000J0D01*
G01*
G02*
X9500000Y11500000I9500000J0D01*
G01*
D11*
G04 #@! TO.C,H2*
X-14950000Y-6000000D02*
G02*
X-21050000Y-6000000I-3050000J0D01*
G01*
G02*
X-14950000Y-6000000I3050000J0D01*
G01*
G04 #@! TO.C,H4*
X21050000Y-6000000D02*
G02*
X14950000Y-6000000I-3050000J0D01*
G01*
G02*
X21050000Y-6000000I3050000J0D01*
G01*
D10*
G04 #@! TO.C,MECH3*
X14659000Y-5750000D02*
G02*
X5259000Y-5750000I-4700000J0D01*
G01*
G02*
X14659000Y-5750000I4700000J0D01*
G01*
X19459000Y-5750000D02*
G02*
X459000Y-5750000I-9500000J0D01*
G01*
G02*
X19459000Y-5750000I9500000J0D01*
G01*
D11*
G04 #@! TO.C,H3*
X21050000Y6000000D02*
G02*
X14950000Y6000000I-3050000J0D01*
G01*
G02*
X21050000Y6000000I3050000J0D01*
G01*
D10*
G04 #@! TO.C,MECH2*
X-5259000Y-5750000D02*
G02*
X-14659000Y-5750000I-4700000J0D01*
G01*
G02*
X-5259000Y-5750000I4700000J0D01*
G01*
X-459000Y-5750000D02*
G02*
X-19459000Y-5750000I-9500000J0D01*
G01*
G02*
X-459000Y-5750000I9500000J0D01*
G01*
D11*
G04 #@! TO.C,H1*
X-14950000Y6000000D02*
G02*
X-21050000Y6000000I-3050000J0D01*
G01*
G02*
X-14950000Y6000000I3050000J0D01*
G01*
%LPC*%
D12*
G04 #@! TD*
X-4300000Y11500000D03*
X4300000Y11500000D03*
D13*
G04 #@! TO.C,H2*
X-18000000Y-6000000D03*
G04 #@! TO.C,H4*
X18000000Y-6000000D03*
D12*
G04 #@! TD*
X6235091Y-7900000D03*
X13682909Y-3600000D03*
D13*
G04 #@! TO.C,H3*
X18000000Y6000000D03*
D12*
G04 #@! TD*
X-13682909Y-3600000D03*
X-6235091Y-7900000D03*
D13*
G04 #@! TO.C,H1*
X-18000000Y6000000D03*
G04 --- BOARD END --- *
G04 #@! TF.MD5,0d67765b501e429b16202d1117f81973*
M02*
