G04 --- HEADER BEGIN --- *
G04 #@! TF.GenerationSoftware,LibrePCB,LibrePCB,2.1.0*
G04 #@! TF.CreationDate,2026-05-25T16:11:16*
G04 #@! TF.ProjectId,LED-Spot,3c1585ae-4d95-495e-8c35-7f5f3331ca9b,v1*
G04 #@! TF.Part,Single*
G04 #@! TF.SameCoordinates*
G04 #@! TF.FileFunction,Soldermask,Top*
G04 #@! TF.FilePolarity,Negative*
%FSLAX66Y66*%
%MOMM*%
G01*
G75*
G04 --- HEADER END --- *
G04 --- APERTURE LIST BEGIN --- *
%ADD10C,2.2*%
%ADD11C,5.8*%
%ADD12C,0.01*%
G04 --- APERTURE LIST END --- *
G04 --- BOARD BEGIN --- *
D10*
X-4300000Y11500000D03*
X4300000Y11500000D03*
D11*
G04 #@! TO.C,H2*
X-18000000Y-6000000D03*
G04 #@! TO.C,H4*
X18000000Y-6000000D03*
D12*
G04 #@! TO.C,LED3*
G36*
X11609000Y-4100000D02*
X11609000Y-4600000D01*
X8309000Y-4600000D01*
X8309000Y-4100000D01*
X11609000Y-4100000D01*
G37*
G36*
X11609000Y-5100000D02*
X11609000Y-6400000D01*
X8309000Y-6400000D01*
X8309000Y-5100000D01*
X11609000Y-5100000D01*
G37*
G36*
X11609000Y-7400000D02*
X11609000Y-6900000D01*
X8309000Y-6900000D01*
X8309000Y-7400000D01*
X11609000Y-7400000D01*
G37*
D10*
G04 #@! TD*
X6235091Y-7900000D03*
X13682909Y-3600000D03*
D11*
G04 #@! TO.C,H3*
X18000000Y6000000D03*
D12*
G04 #@! TO.C,LED2*
G36*
X-11609000Y-7400000D02*
X-11609000Y-6900000D01*
X-8309000Y-6900000D01*
X-8309000Y-7400000D01*
X-11609000Y-7400000D01*
G37*
G36*
X-11609000Y-6400000D02*
X-11609000Y-5100000D01*
X-8309000Y-5100000D01*
X-8309000Y-6400000D01*
X-11609000Y-6400000D01*
G37*
G36*
X-11609000Y-4100000D02*
X-11609000Y-4600000D01*
X-8309000Y-4600000D01*
X-8309000Y-4100000D01*
X-11609000Y-4100000D01*
G37*
D10*
G04 #@! TD*
X-13682909Y-3600000D03*
X-6235091Y-7900000D03*
D12*
G04 #@! TO.C,LED1*
G36*
X-1650000Y13150000D02*
X-1150000Y13150000D01*
X-1150000Y9850000D01*
X-1650000Y9850000D01*
X-1650000Y13150000D01*
G37*
G36*
X-650000Y13150000D02*
X650000Y13150000D01*
X650000Y9850000D01*
X-650000Y9850000D01*
X-650000Y13150000D01*
G37*
G36*
X1650000Y13150000D02*
X1150000Y13150000D01*
X1150000Y9850000D01*
X1650000Y9850000D01*
X1650000Y13150000D01*
G37*
D11*
G04 #@! TO.C,H1*
X-18000000Y6000000D03*
G04 --- BOARD END --- *
G04 #@! TF.MD5,44cd163926d4dc8a425fa928f50a057c*
M02*
