G04 --- HEADER BEGIN --- *
G04 #@! TF.GenerationSoftware,LibrePCB,LibrePCB,2.1.0*
G04 #@! TF.CreationDate,2026-08-16T21:35:04*
G04 #@! TF.ProjectId,LED-Spot,3c1585ae-4d95-495e-8c35-7f5f3331ca9b,v1*
G04 #@! TF.Part,Single*
G04 #@! TF.SameCoordinates*
G04 #@! TF.FileFunction,Soldermask,Top*
G04 #@! TF.FilePolarity,Negative*
%FSLAX66Y66*%
%MOMM*%
G01*
G75*
G04 --- HEADER END --- *
G04 --- APERTURE LIST BEGIN --- *
%ADD10C,0.01*%
%ADD11C,2.2*%
%AMROUNDEDRECT12*20,1,2.2,-0.9,0.0,0.9,0.0,0.0*20,1,1.8,-1.1,0.0,1.1,0.0,0.0*1,1,0.4,-0.9,0.9*1,1,0.4,0.9,0.9*1,1,0.4,0.9,-0.9*1,1,0.4,-0.9,-0.9*%
%ADD12ROUNDEDRECT12*%
%ADD13C,3.4*%
G04 --- APERTURE LIST END --- *
G04 --- BOARD BEGIN --- *
D10*
G04 #@! TO.C,LED6*
G36*
X-16717058Y-7746058D02*
X-16467058Y-8179071D01*
X-19324942Y-9829071D01*
X-19574942Y-9396058D01*
X-16717058Y-7746058D01*
G37*
G36*
X-16217058Y-8612083D02*
X-15567058Y-9737917D01*
X-18424942Y-11387917D01*
X-19074942Y-10262083D01*
X-16217058Y-8612083D01*
G37*
G36*
X-15067058Y-10603942D02*
X-15317058Y-10170929D01*
X-18174942Y-11820929D01*
X-17924942Y-12253942D01*
X-15067058Y-10603942D01*
G37*
D11*
G04 #@! TD*
X-15171000Y13723909D03*
X-19471000Y6276091D03*
D10*
G04 #@! TO.C,LED3*
G36*
X16717058Y7746058D02*
X16467058Y8179071D01*
X19324942Y9829071D01*
X19574942Y9396058D01*
X16717058Y7746058D01*
G37*
G36*
X16217058Y8612083D02*
X15567058Y9737917D01*
X18424942Y11387917D01*
X19074942Y10262083D01*
X16217058Y8612083D01*
G37*
G36*
X15067058Y10603942D02*
X15317058Y10170929D01*
X18174942Y11820929D01*
X17924942Y12253942D01*
X15067058Y10603942D01*
G37*
D11*
G04 #@! TD*
X15171000Y13723909D03*
X19471000Y6276091D03*
D10*
G04 #@! TO.C,LED5*
G36*
X-1650000Y-18350000D02*
X-1150000Y-18350000D01*
X-1150000Y-21650000D01*
X-1650000Y-21650000D01*
X-1650000Y-18350000D01*
G37*
G36*
X-650000Y-18350000D02*
X650000Y-18350000D01*
X650000Y-21650000D01*
X-650000Y-21650000D01*
X-650000Y-18350000D01*
G37*
G36*
X1650000Y-18350000D02*
X1150000Y-18350000D01*
X1150000Y-21650000D01*
X1650000Y-21650000D01*
X1650000Y-18350000D01*
G37*
D12*
G04 #@! TO.C,TP1*
X-7000000Y-5000000D03*
D11*
G04 #@! TD*
X-19471000Y-6276091D03*
X-15171000Y-13723909D03*
D10*
G04 #@! TO.C,LED2*
G36*
X1650000Y18350000D02*
X1150000Y18350000D01*
X1150000Y21650000D01*
X1650000Y21650000D01*
X1650000Y18350000D01*
G37*
G36*
X650000Y18350000D02*
X-650000Y18350000D01*
X-650000Y21650000D01*
X650000Y21650000D01*
X650000Y18350000D01*
G37*
G36*
X-1650000Y18350000D02*
X-1150000Y18350000D01*
X-1150000Y21650000D01*
X-1650000Y21650000D01*
X-1650000Y18350000D01*
G37*
D11*
G04 #@! TD*
X4300000Y20000000D03*
X-4300000Y20000000D03*
D10*
G04 #@! TO.C,LED1*
G36*
X-15067058Y10603942D02*
X-15317058Y10170929D01*
X-18174942Y11820929D01*
X-17924942Y12253942D01*
X-15067058Y10603942D01*
G37*
G36*
X-15567058Y9737917D02*
X-16217058Y8612083D01*
X-19074942Y10262083D01*
X-18424942Y11387917D01*
X-15567058Y9737917D01*
G37*
G36*
X-16717058Y7746058D02*
X-16467058Y8179071D01*
X-19324942Y9829071D01*
X-19574942Y9396058D01*
X-16717058Y7746058D01*
G37*
G04 #@! TO.C,LED4*
G36*
X15067058Y-10603942D02*
X15317058Y-10170929D01*
X18174942Y-11820929D01*
X17924942Y-12253942D01*
X15067058Y-10603942D01*
G37*
G36*
X15567058Y-9737917D02*
X16217058Y-8612083D01*
X19074942Y-10262083D01*
X18424942Y-11387917D01*
X15567058Y-9737917D01*
G37*
G36*
X16717058Y-7746058D02*
X16467058Y-8179071D01*
X19324942Y-9829071D01*
X19574942Y-9396058D01*
X16717058Y-7746058D01*
G37*
D12*
G04 #@! TO.C,TP2*
X-7000000Y5000000D03*
D11*
G04 #@! TD*
X19471000Y-6276091D03*
X15171000Y-13723909D03*
X4300000Y-20000000D03*
X-4300000Y-20000000D03*
D13*
X22000000Y0D03*
X-22000000Y0D03*
X0Y8000000D03*
X0Y-8000000D03*
G04 --- BOARD END --- *
G04 #@! TF.MD5,e18bcf14831964fe2a70065b9cf725e5*
M02*
