G04 --- HEADER BEGIN --- *
G04 #@! TF.GenerationSoftware,LibrePCB,LibrePCB,2.1.0*
G04 #@! TF.CreationDate,2026-08-16T21:35:04*
G04 #@! TF.ProjectId,LED-Spot,3c1585ae-4d95-495e-8c35-7f5f3331ca9b,v1*
G04 #@! TF.Part,Single*
G04 #@! TF.SameCoordinates*
G04 #@! TF.FileFunction,Legend,Top*
G04 #@! TF.FilePolarity,Positive*
%FSLAX66Y66*%
%MOMM*%
G01*
G75*
G04 --- HEADER END --- *
G04 --- APERTURE LIST BEGIN --- *
%ADD10C,0.01*%
%ADD11C,0.2*%
%ADD12C,2.2*%
%AMROUNDEDRECT13*20,1,2.2,-0.9,0.0,0.9,0.0,0.0*20,1,1.8,-1.1,0.0,1.1,0.0,0.0*1,1,0.4,-0.9,0.9*1,1,0.4,0.9,0.9*1,1,0.4,0.9,-0.9*1,1,0.4,-0.9,-0.9*%
%ADD13ROUNDEDRECT13*%
%ADD14C,3.4*%
G04 --- APERTURE LIST END --- *
G04 --- BOARD BEGIN --- *
D10*
G04 #@! TO.C,LOGO1*
G36*
X-2952500Y12285000D02*
X-2532500Y12285000D01*
X-2532500Y12085000D01*
X-2952500Y12085000D01*
X-2952500Y12285000D01*
G37*
G36*
X-4112500Y13645000D02*
X-3912500Y13645000D01*
X-3912500Y14065000D01*
X-4112500Y14065000D01*
X-4112500Y13645000D01*
G37*
G36*
X-4512500Y13645000D02*
X-4312500Y13645000D01*
X-4312500Y14065000D01*
X-4512500Y14065000D01*
X-4512500Y13645000D01*
G37*
G36*
X-5072500Y13085000D02*
X-5492500Y13085000D01*
X-5492500Y12885000D01*
X-5072500Y12885000D01*
X-5072500Y13085000D01*
G37*
G36*
X-4112500Y11525000D02*
X-3912500Y11525000D01*
X-3912500Y11105000D01*
X-4112500Y11105000D01*
X-4112500Y11525000D01*
G37*
G36*
X-4647500Y13432000D02*
X-3377500Y13432000D01*
G02*
X-3165500Y13220000I0J-212000D01*
G01*
X-3165500Y11950000D01*
G02*
X-3377500Y11738000I-212000J0D01*
G01*
X-4647500Y11738000D01*
G02*
X-4859500Y11950000I0J212000D01*
G01*
X-4859500Y13050000D01*
X-4644500Y13050000D01*
G03*
X-4477500Y12883000I167000J0D01*
G01*
G03*
X-4310500Y13050000I0J167000D01*
G01*
G03*
X-4477500Y13217000I-167000J0D01*
G01*
G03*
X-4644500Y13050000I0J-167000D01*
G01*
X-4859500Y13050000D01*
X-4859500Y13220000D01*
G02*
X-4647500Y13432000I212000J0D01*
G01*
G37*
G36*
X-2952500Y13085000D02*
X-2532500Y13085000D01*
X-2532500Y12885000D01*
X-2952500Y12885000D01*
X-2952500Y13085000D01*
G37*
G36*
X-3712500Y13645000D02*
X-3512500Y13645000D01*
X-3512500Y14065000D01*
X-3712500Y14065000D01*
X-3712500Y13645000D01*
G37*
G36*
X-5072500Y12685000D02*
X-5492500Y12685000D01*
X-5492500Y12485000D01*
X-5072500Y12485000D01*
X-5072500Y12685000D01*
G37*
G36*
X-4512500Y11525000D02*
X-4312500Y11525000D01*
X-4312500Y11105000D01*
X-4512500Y11105000D01*
X-4512500Y11525000D01*
G37*
G36*
X-5072500Y12285000D02*
X-5492500Y12285000D01*
X-5492500Y12085000D01*
X-5072500Y12085000D01*
X-5072500Y12285000D01*
G37*
G36*
X-3712500Y11525000D02*
X-3512500Y11525000D01*
X-3512500Y11105000D01*
X-3712500Y11105000D01*
X-3712500Y11525000D01*
G37*
G36*
X-2952500Y12685000D02*
X-2532500Y12685000D01*
X-2532500Y12485000D01*
X-2952500Y12485000D01*
X-2952500Y12685000D01*
G37*
D11*
X-1753750Y12825000D02*
X-1753750Y13825000D01*
X-1420417Y13110556D01*
X-1087083Y13825000D01*
X-1087083Y12825000D01*
X-210416Y12825000D02*
X-210416Y13348333D01*
X-258194Y13443889D01*
X-353750Y13491667D01*
X-543750Y13491667D01*
X-639305Y13443889D01*
X-210416Y12872778D02*
X-305972Y12825000D01*
X-543750Y12825000D01*
X-639305Y12872778D01*
X-687083Y12968333D01*
X-687083Y13062778D01*
X-639305Y13158333D01*
X-543750Y13206111D01*
X-305972Y13206111D01*
X-210416Y13253889D01*
X666251Y12825000D02*
X666251Y13825000D01*
X666251Y12872778D02*
X570695Y12825000D01*
X379584Y12825000D01*
X285140Y12872778D01*
X237362Y12920556D01*
X189584Y13015000D01*
X189584Y13301667D01*
X237362Y13396111D01*
X285140Y13443889D01*
X379584Y13491667D01*
X570695Y13491667D01*
X666251Y13443889D01*
X1495140Y12872778D02*
X1399584Y12825000D01*
X1209584Y12825000D01*
X1114029Y12872778D01*
X1066251Y12968333D01*
X1066251Y13348333D01*
X1114029Y13443889D01*
X1209584Y13491667D01*
X1399584Y13491667D01*
X1495140Y13443889D01*
X1542918Y13348333D01*
X1542918Y13253889D01*
X1066251Y13158333D01*
X2742917Y13825000D02*
X2980695Y12825000D01*
X3171806Y13539444D01*
X3361806Y12825000D01*
X3599584Y13825000D01*
X4047362Y12825000D02*
X4047362Y13491667D01*
X4047362Y13825000D02*
X3999584Y13777222D01*
X4047362Y13729444D01*
X4095140Y13777222D01*
X4047362Y13825000D01*
X4047362Y13729444D01*
X4495140Y13491667D02*
X4876251Y13491667D01*
X4638473Y13825000D02*
X4638473Y12968333D01*
X4685140Y12872778D01*
X4780696Y12825000D01*
X4876251Y12825000D01*
X5276251Y12825000D02*
X5276251Y13825000D01*
X5705140Y12825000D02*
X5705140Y13348333D01*
X5657362Y13443889D01*
X5561807Y13491667D01*
X5419584Y13491667D01*
X5324029Y13443889D01*
X5276251Y13396111D01*
X-1277083Y11345000D02*
X-1753750Y11345000D01*
X-1753750Y12345000D01*
X-829305Y11345000D02*
X-829305Y12011667D01*
X-829305Y12345000D02*
X-877083Y12297222D01*
X-829305Y12249444D01*
X-781527Y12297222D01*
X-829305Y12345000D01*
X-829305Y12249444D01*
X-381527Y11345000D02*
X-381527Y12345000D01*
X-381527Y11963889D02*
X-285971Y12011667D01*
X-95971Y12011667D01*
X-416Y11963889D01*
X47362Y11916111D01*
X95140Y11821667D01*
X95140Y11535000D01*
X47362Y11440556D01*
X-416Y11392778D01*
X-95971Y11345000D01*
X-285971Y11345000D01*
X-381527Y11392778D01*
X495140Y11345000D02*
X495140Y12011667D01*
X495140Y11821667D02*
X542918Y11916111D01*
X590696Y11963889D01*
X685140Y12011667D01*
X780696Y12011667D01*
X1609585Y11392778D02*
X1514029Y11345000D01*
X1324029Y11345000D01*
X1228474Y11392778D01*
X1180696Y11488333D01*
X1180696Y11868333D01*
X1228474Y11963889D01*
X1324029Y12011667D01*
X1514029Y12011667D01*
X1609585Y11963889D01*
X1657363Y11868333D01*
X1657363Y11773889D01*
X1180696Y11678333D01*
X2057363Y11345000D02*
X2057363Y12345000D01*
X2438474Y12345000D01*
X2534030Y12297222D01*
X2580696Y12249444D01*
X2628474Y12155000D01*
X2628474Y12011667D01*
X2580696Y11916111D01*
X2534030Y11868333D01*
X2438474Y11821667D01*
X2057363Y11821667D01*
X3647363Y11440556D02*
X3599585Y11392778D01*
X3457363Y11345000D01*
X3361807Y11345000D01*
X3218474Y11392778D01*
X3124030Y11488333D01*
X3076252Y11582778D01*
X3028474Y11773889D01*
X3028474Y11916111D01*
X3076252Y12107222D01*
X3124030Y12201667D01*
X3218474Y12297222D01*
X3361807Y12345000D01*
X3457363Y12345000D01*
X3599585Y12297222D01*
X3647363Y12249444D01*
X4380696Y11868333D02*
X4524030Y11821667D01*
X4570696Y11773889D01*
X4618474Y11678333D01*
X4618474Y11535000D01*
X4570696Y11440556D01*
X4524030Y11392778D01*
X4428474Y11345000D01*
X4047363Y11345000D01*
X4047363Y12345000D01*
X4380696Y12345000D01*
X4476252Y12297222D01*
X4524030Y12249444D01*
X4570696Y12155000D01*
X4570696Y12059444D01*
X4524030Y11963889D01*
X4476252Y11916111D01*
X4380696Y11868333D01*
X4047363Y11868333D01*
G04 #@! TO.C,LOGO2*
X8555051Y-5991874D02*
X8638528Y-6051538D01*
X8730735Y-6129457D01*
X8811830Y-6202218D01*
X8868318Y-6247991D01*
X8895306Y-6271274D01*
X8906418Y-6288208D01*
X8895901Y-6307770D01*
X8869112Y-6335171D01*
X8833195Y-6363961D01*
X8795293Y-6387691D01*
X8750628Y-6403136D01*
X8696736Y-6409651D01*
X8641851Y-6407039D01*
X8594210Y-6395099D01*
X8559616Y-6374561D01*
X8523831Y-6344299D01*
X8491221Y-6308481D01*
X8466151Y-6271274D01*
X8451467Y-6226163D01*
X8447101Y-6161207D01*
X8455700Y-6017406D01*
X8463324Y-5964903D01*
X8471443Y-5944249D01*
X8555051Y-5991874D01*
X8555051Y-5991874D01*
X7794109Y-5680724D02*
X7826521Y-5699245D01*
X7833549Y-5707513D01*
X7834326Y-5714591D01*
X7759184Y-5836299D01*
X7689334Y-5949541D01*
X7676502Y-5967747D01*
X7647001Y-5994388D01*
X7614325Y-6018448D01*
X7591968Y-6028916D01*
X7577945Y-6031562D01*
X7568684Y-6037382D01*
X7547600Y-6045039D01*
X7508756Y-6048627D01*
X7472095Y-6047652D01*
X7460815Y-6045297D01*
X7457559Y-6041616D01*
X7583501Y-5840532D01*
X7659569Y-5720610D01*
X7684183Y-5686346D01*
X7703886Y-5666172D01*
X7721704Y-5657804D01*
X7740663Y-5658962D01*
X7794109Y-5680724D01*
X7794109Y-5680724D01*
X13631880Y4330057D02*
X13451963Y4033724D01*
X13471757Y4013500D01*
X13515860Y3983056D01*
X13561352Y3956780D01*
X13585313Y3949057D01*
X13776475Y4250153D01*
X13952555Y4538549D01*
X13883234Y4582999D01*
X13820263Y4617924D01*
X13761790Y4532728D01*
X13631880Y4330057D01*
X13631880Y4330057D01*
X13161979Y4060182D02*
X13131685Y4039809D01*
X13110121Y4017849D01*
X13100728Y3996550D01*
X13104614Y3991506D01*
X13114354Y3987157D01*
X13172430Y3960434D01*
X13223363Y3922599D01*
X13237171Y3908411D01*
X13242545Y3897993D01*
X13240180Y3887178D01*
X13230771Y3871799D01*
X13212779Y3844282D01*
X13173621Y3867566D01*
X13097421Y3916249D01*
X13061438Y3940591D01*
X13021221Y3877091D01*
X12981004Y3810415D01*
X13055088Y3760674D01*
X13128113Y3716224D01*
X13112238Y3685532D01*
X13101952Y3667689D01*
X13091071Y3661852D01*
X13073840Y3668119D01*
X13044504Y3686590D01*
X12978888Y3726807D01*
X12940788Y3750090D01*
X12902688Y3689765D01*
X12864588Y3623090D01*
X12937613Y3572290D01*
X13011696Y3526782D01*
X12993704Y3496090D01*
X12983204Y3479190D01*
X12973993Y3472013D01*
X12961409Y3473171D01*
X12940788Y3481274D01*
X12875832Y3516860D01*
X12830721Y3553240D01*
X12824106Y3559590D01*
X12819079Y3559590D01*
X12776878Y3492254D01*
X12748171Y3436824D01*
X12768279Y3417641D01*
X12816962Y3384965D01*
X12865646Y3352157D01*
X12885754Y3332048D01*
X12866704Y3297123D01*
X12847654Y3271723D01*
X12778862Y3315115D01*
X12728195Y3345542D01*
X12700546Y3358507D01*
X12682819Y3340647D01*
X12653979Y3298182D01*
X12617996Y3238915D01*
X12643396Y3219865D01*
X12705837Y3182823D01*
X12743590Y3161640D01*
X12759416Y3142739D01*
X12759571Y3132005D01*
X12754802Y3119274D01*
X12731237Y3084398D01*
X12698429Y3101332D01*
X12624346Y3151073D01*
X12579896Y3178590D01*
X12541796Y3120382D01*
X12504754Y3052648D01*
X12597424Y2988818D01*
X12801617Y2857121D01*
X13006603Y2728203D01*
X13101654Y2672706D01*
X13149941Y2744805D01*
X13176796Y2798648D01*
X13102713Y2846273D01*
X13033921Y2893898D01*
X13052971Y2924590D01*
X13072021Y2948932D01*
X13139754Y2905540D01*
X13190422Y2876965D01*
X13218071Y2867440D01*
X13265696Y2926707D01*
X13300621Y2980682D01*
X13276279Y2999732D01*
X13201138Y3048415D01*
X13150338Y3083340D01*
X13174679Y3117207D01*
X13197963Y3146840D01*
X13270988Y3099215D01*
X13345071Y3051590D01*
X13379996Y3106623D01*
X13412408Y3169330D01*
X13413483Y3184312D01*
X13404338Y3189173D01*
X13376457Y3200964D01*
X13333694Y3227935D01*
X13294503Y3257486D01*
X13277338Y3277015D01*
X13282894Y3293022D01*
X13296388Y3312998D01*
X13314379Y3336282D01*
X13386346Y3288657D01*
X13462546Y3242090D01*
X13505673Y3306516D01*
X13540863Y3373324D01*
X13469955Y3416715D01*
X13399046Y3465399D01*
X13400898Y3477702D01*
X13413863Y3497149D01*
X13432913Y3521490D01*
X13503821Y3477040D01*
X13580021Y3432590D01*
X13621164Y3489873D01*
X13658338Y3554299D01*
X13584255Y3607215D01*
X13510171Y3654840D01*
X13527105Y3681299D01*
X13543906Y3700084D01*
X13559913Y3707757D01*
X13577954Y3702796D01*
X13602643Y3689501D01*
X13657280Y3647432D01*
X13680629Y3628647D01*
X13698026Y3624942D01*
X13711453Y3636716D01*
X13722896Y3664365D01*
X13729776Y3706302D01*
X13717605Y3752207D01*
X13702656Y3780782D01*
X13671038Y3810945D01*
X13604495Y3856982D01*
X13484771Y3933182D01*
X13320068Y4032136D01*
X13264357Y4061770D01*
X13233946Y4073941D01*
X13197963Y4073015D01*
X13161979Y4060182D01*
X13161979Y4060182D01*
X8163468Y-5824657D02*
X8346560Y-5896624D01*
X8340210Y-5975999D01*
X8324004Y-6098253D01*
X8312453Y-6145124D01*
X8297876Y-6184094D01*
X8279728Y-6216367D01*
X8257461Y-6243146D01*
X8230532Y-6265633D01*
X8198393Y-6285033D01*
X8153821Y-6303665D01*
X8108716Y-6313641D01*
X8063834Y-6315133D01*
X8019931Y-6308316D01*
X7977765Y-6293363D01*
X7938092Y-6270447D01*
X7901669Y-6239743D01*
X7869251Y-6201424D01*
X7837766Y-6149169D01*
X7820568Y-6107232D01*
X7813424Y-6079716D01*
X7804693Y-6064899D01*
X7795813Y-6049438D01*
X7797152Y-6023756D01*
X7807818Y-5992717D01*
X7826918Y-5961182D01*
X7858668Y-5910382D01*
X7878776Y-5872282D01*
X7926401Y-5798199D01*
X7950081Y-5766846D01*
X7966618Y-5753749D01*
X8163468Y-5824657D01*
X8163468Y-5824657D01*
X9149835Y-3929181D02*
X9261754Y-3948049D01*
X9351448Y-3970588D01*
X9437967Y-4002851D01*
X9540360Y-4050890D01*
X9699144Y-4134366D01*
X9873206Y-4237685D01*
X10094894Y-4380693D01*
X10396553Y-4583231D01*
X10512969Y-4666840D01*
X10568003Y-4709173D01*
X10565886Y-5534674D01*
X10562711Y-6360174D01*
X10520378Y-6374991D01*
X10395924Y-6408362D01*
X10238332Y-6436374D01*
X10071214Y-6455656D01*
X9918186Y-6462833D01*
X9757654Y-6455916D01*
X9603695Y-6435878D01*
X9456037Y-6402594D01*
X9314406Y-6355941D01*
X9178530Y-6295794D01*
X9048136Y-6222029D01*
X8922951Y-6134522D01*
X8802702Y-6033149D01*
X8687343Y-5930491D01*
X8642728Y-5900576D01*
X8580451Y-5865800D01*
X8451335Y-5806666D01*
X8159416Y-5693705D01*
X7740796Y-5526075D01*
X7359680Y-5370152D01*
X7180276Y-5292315D01*
X7148935Y-5266915D01*
X7121042Y-5236554D01*
X7096969Y-5202125D01*
X7077088Y-5164521D01*
X7061771Y-5124635D01*
X7051390Y-5083360D01*
X7046318Y-5041589D01*
X7046925Y-5000215D01*
X7057972Y-4943098D01*
X7079734Y-4885386D01*
X7109433Y-4833230D01*
X7144292Y-4792782D01*
X7186117Y-4758477D01*
X7229058Y-4732457D01*
X7274331Y-4714572D01*
X7323151Y-4704675D01*
X7376733Y-4702617D01*
X7436293Y-4708247D01*
X7503047Y-4721419D01*
X7578209Y-4741982D01*
X7748998Y-4793179D01*
X7890418Y-4830882D01*
X8065043Y-4878507D01*
X8387835Y-4969523D01*
X8966743Y-5130390D01*
X9274851Y-5212543D01*
X9323485Y-5218348D01*
X9345627Y-5209765D01*
X9367323Y-5188202D01*
X9370630Y-5175088D01*
X9369969Y-5157907D01*
X9368999Y-5142429D01*
X9362808Y-5129530D01*
X9341710Y-5115937D01*
X9296018Y-5098376D01*
X9092106Y-5038249D01*
X8673585Y-4922957D01*
X8385321Y-4842126D01*
X8259776Y-4803365D01*
X8257810Y-4796941D01*
X8263100Y-4780942D01*
X8300654Y-4711290D01*
X8520126Y-4358865D01*
X8719490Y-4047185D01*
X8810110Y-3913306D01*
X8853072Y-3907750D01*
X8938698Y-3909337D01*
X9044961Y-3916878D01*
X9149835Y-3929181D01*
X9149835Y-3929181D01*
X11932195Y-4435065D02*
X11954420Y-4455173D01*
X11954420Y-5511390D01*
X11954420Y-6567608D01*
X11926904Y-6588774D01*
X11916304Y-6596110D01*
X11900644Y-6601623D01*
X11827156Y-6608221D01*
X11322595Y-6610999D01*
X10746861Y-6610999D01*
X10721461Y-6584541D01*
X10695003Y-6559141D01*
X10695003Y-5506099D01*
X10695003Y-4453056D01*
X10723578Y-4430831D01*
X10734010Y-4423849D01*
X10749292Y-4418627D01*
X10822135Y-4412575D01*
X11331062Y-4411781D01*
X11830860Y-4417470D01*
X11907027Y-4423836D01*
X11922947Y-4428725D01*
X11932195Y-4435065D01*
X11932195Y-4435065D01*
X8145476Y-4030781D02*
X7935926Y-4363098D01*
X7748601Y-4660490D01*
X7705209Y-4649907D01*
X7631126Y-4626623D01*
X7569627Y-4607606D01*
X7489177Y-4591963D01*
X7405353Y-4582272D01*
X7333734Y-4581115D01*
X7276623Y-4589307D01*
X7220939Y-4605572D01*
X7167512Y-4629354D01*
X7117172Y-4660093D01*
X7070752Y-4697232D01*
X7029083Y-4740212D01*
X6992994Y-4788476D01*
X6963317Y-4841465D01*
X6949484Y-4876576D01*
X6938975Y-4915978D01*
X6928128Y-5002596D01*
X6931170Y-5091199D01*
X6948500Y-5171665D01*
X6980978Y-5243863D01*
X7026553Y-5313482D01*
X7078874Y-5371988D01*
X7105580Y-5394407D01*
X7131592Y-5410849D01*
X7160167Y-5426724D01*
X7134767Y-5477524D01*
X7082909Y-5559015D01*
X6998242Y-5680724D01*
X6965632Y-5729473D01*
X6939769Y-5761157D01*
X6914303Y-5782522D01*
X6882884Y-5800316D01*
X6833903Y-5819151D01*
X6787898Y-5827965D01*
X6746259Y-5826658D01*
X6710375Y-5815132D01*
X6678510Y-5793436D01*
X6645949Y-5763009D01*
X6616762Y-5728217D01*
X6595017Y-5693424D01*
X6582945Y-5654679D01*
X6578613Y-5607302D01*
X6582218Y-5559330D01*
X6593959Y-5518799D01*
X6751650Y-5122982D01*
X6916750Y-4720815D01*
X6968053Y-4642666D01*
X7033680Y-4564529D01*
X7112180Y-4487508D01*
X7202104Y-4412707D01*
X7301998Y-4341231D01*
X7410414Y-4274181D01*
X7525898Y-4212664D01*
X7647001Y-4157781D01*
X7868722Y-4070998D01*
X7982493Y-4035014D01*
X8024826Y-4025489D01*
X8080918Y-4012789D01*
X8132776Y-4001148D01*
X8152885Y-3996914D01*
X8159020Y-3998485D01*
X8159896Y-4003926D01*
X8145476Y-4030781D01*
X8145476Y-4030781D01*
X11394562Y1305339D02*
X10311886Y-405987D01*
X10229336Y-423979D01*
X10166233Y-442367D01*
X10130911Y-459962D01*
X9668419Y-1187038D01*
X9209102Y-1908821D01*
X9151158Y-1929062D01*
X9028127Y-1959622D01*
X8840802Y-2003013D01*
X8813285Y-2030265D01*
X8773068Y-2087680D01*
X8723327Y-2168113D01*
X8740260Y-2249605D01*
X8758252Y-2350147D01*
X8740921Y-2391157D01*
X8698985Y-2462330D01*
X8640777Y-2555464D01*
X8668293Y-2679289D01*
X8695810Y-2803114D01*
X8631252Y-2904714D01*
X8583891Y-2987661D01*
X8574101Y-3012912D01*
X8573043Y-3028539D01*
X8607174Y-3157788D01*
X8623843Y-3240206D01*
X8616220Y-3269095D01*
X8587463Y-3325269D01*
X8440751Y-3565114D01*
X8283324Y-3807870D01*
X8249358Y-3849227D01*
X8238266Y-3857150D01*
X8229085Y-3859331D01*
X8115843Y-3879439D01*
X8053666Y-3892007D01*
X8028001Y-3894256D01*
X7998368Y-3904839D01*
X7928385Y-3932224D01*
X7800459Y-3974689D01*
X7650358Y-4027732D01*
X7507301Y-4088675D01*
X7372578Y-4156688D01*
X7247480Y-4230939D01*
X7133295Y-4310597D01*
X7031315Y-4394832D01*
X6942828Y-4482812D01*
X6869125Y-4573706D01*
X6823088Y-4641060D01*
X6784194Y-4714862D01*
X6732203Y-4838472D01*
X6646875Y-5055248D01*
X6521992Y-5372749D01*
X6467091Y-5522371D01*
X6458740Y-5566374D01*
X6457433Y-5610874D01*
X6461712Y-5660549D01*
X6473408Y-5709034D01*
X6491999Y-5755535D01*
X6516965Y-5799257D01*
X6547785Y-5839408D01*
X6583937Y-5875193D01*
X6624902Y-5905818D01*
X6670159Y-5930491D01*
X6703413Y-5944348D01*
X6730616Y-5951657D01*
X6759604Y-5953410D01*
X6798217Y-5950599D01*
X6861585Y-5939222D01*
X6914634Y-5923082D01*
X6945193Y-5912234D01*
X6952287Y-5912069D01*
X6952734Y-5915674D01*
X6803509Y-6151682D01*
X6704158Y-6312814D01*
X6662750Y-6386633D01*
X6681536Y-6405947D01*
X6727309Y-6436374D01*
X6771362Y-6467860D01*
X6784012Y-6480130D01*
X6787634Y-6488233D01*
X6579142Y-6825841D01*
X6432827Y-7060130D01*
X6370650Y-7166625D01*
X6362316Y-7186865D01*
X6345250Y-7214250D01*
X6330963Y-7236475D01*
X6329375Y-7246000D01*
X6329507Y-7254466D01*
X6320908Y-7275633D01*
X6293871Y-7334371D01*
X6271299Y-7396283D01*
X6257656Y-7447083D01*
X6257408Y-7472483D01*
X6269939Y-7471601D01*
X6292366Y-7457882D01*
X6356892Y-7401707D01*
X6430942Y-7323506D01*
X6494475Y-7242825D01*
X6530459Y-7198375D01*
X6736834Y-6880875D01*
X6932625Y-6570783D01*
X7002475Y-6610999D01*
X7050762Y-6638252D01*
X7074442Y-6644866D01*
X7228959Y-6401449D01*
X7376067Y-6167557D01*
X7462851Y-6173908D01*
X7529145Y-6174933D01*
X7579664Y-6168616D01*
X7613316Y-6155155D01*
X7623476Y-6145808D01*
X7629009Y-6134749D01*
X7633491Y-6124745D01*
X7641048Y-6118213D01*
X7668168Y-6113582D01*
X7686507Y-6115286D01*
X7699785Y-6123240D01*
X7712072Y-6141711D01*
X7727434Y-6174966D01*
X7762260Y-6251679D01*
X7789347Y-6300511D01*
X7816434Y-6332873D01*
X7851259Y-6360174D01*
X7910510Y-6397662D01*
X7961723Y-6420367D01*
X8015119Y-6431761D01*
X8080918Y-6435316D01*
X8149296Y-6431265D01*
X8207256Y-6417986D01*
X8260256Y-6393793D01*
X8313751Y-6356999D01*
X8355026Y-6324191D01*
X8381485Y-6365466D01*
X8412590Y-6405633D01*
X8454113Y-6444709D01*
X8502184Y-6479617D01*
X8552935Y-6507283D01*
X8617278Y-6525307D01*
X8693825Y-6531624D01*
X8769777Y-6526035D01*
X8832335Y-6508341D01*
X8877198Y-6483768D01*
X8920574Y-6453043D01*
X8958988Y-6418746D01*
X8988968Y-6383458D01*
X9015427Y-6347474D01*
X9090568Y-6388749D01*
X9194781Y-6439864D01*
X9309908Y-6484132D01*
X9437338Y-6522248D01*
X9578460Y-6554908D01*
X9636603Y-6564119D01*
X9705461Y-6569857D01*
X9927711Y-6572899D01*
X10095043Y-6570799D01*
X10221001Y-6562448D01*
X10334458Y-6544771D01*
X10464286Y-6514691D01*
X10524694Y-6500023D01*
X10555435Y-6496567D01*
X10562812Y-6499446D01*
X10566531Y-6505613D01*
X10568003Y-6528449D01*
X10571165Y-6556162D01*
X10579413Y-6584657D01*
X10608484Y-6639971D01*
X10649858Y-6686356D01*
X10673485Y-6703688D01*
X10698178Y-6715774D01*
X10749077Y-6720719D01*
X10871215Y-6724373D01*
X11326828Y-6727416D01*
X11853217Y-6724638D01*
X11935387Y-6718040D01*
X11972412Y-6705191D01*
X12014348Y-6676484D01*
X12047554Y-6634283D01*
X12076129Y-6584541D01*
X12076129Y-5510332D01*
X12073218Y-4579660D01*
X12067199Y-4441001D01*
X12062354Y-4412581D01*
X12056020Y-4395906D01*
X12029165Y-4358336D01*
X11993579Y-4327115D01*
X11950187Y-4298540D01*
X11332120Y-4295365D01*
X10714053Y-4293248D01*
X10675953Y-4316531D01*
X10625153Y-4351456D01*
X10606748Y-4375649D01*
X10590625Y-4409268D01*
X10578272Y-4448641D01*
X10571178Y-4490098D01*
X10564828Y-4530579D01*
X10558478Y-4547248D01*
X10478044Y-4493273D01*
X10258027Y-4340691D01*
X10003778Y-4177493D01*
X9759651Y-4031161D01*
X9569994Y-3929181D01*
X9424754Y-3868310D01*
X9280407Y-3824803D01*
X9133481Y-3797766D01*
X8980502Y-3786306D01*
X8888427Y-3782073D01*
X8962510Y-3658248D01*
X9038710Y-3537598D01*
X9112793Y-3518547D01*
X9252494Y-3487856D01*
X9317052Y-3476214D01*
X9378435Y-3376731D01*
X9413112Y-3322739D01*
X9437570Y-3290873D01*
X9458654Y-3273890D01*
X9483210Y-3264547D01*
X9532952Y-3253964D01*
X9577402Y-3240206D01*
X9614444Y-3229093D01*
X9651485Y-3224331D01*
X9672834Y-3222032D01*
X9691305Y-3209911D01*
X9714737Y-3180129D01*
X9750969Y-3124847D01*
X9802298Y-3053013D01*
X9834577Y-3020072D01*
X9929827Y-2996789D01*
X10006027Y-2978797D01*
X10057886Y-2898364D01*
X10108686Y-2816872D01*
X10064236Y-2621080D01*
X10027856Y-2445661D01*
X10028963Y-2414507D01*
X10039894Y-2392480D01*
X10502386Y-1659055D01*
X10946886Y-957379D01*
X10928895Y-876946D01*
X10910903Y-795454D01*
X11992520Y913755D01*
X12756505Y2123563D01*
X13072021Y2632490D01*
X12935760Y2726417D01*
X12547087Y2974332D01*
X12477237Y3017723D01*
X11394562Y1305339D01*
X11394562Y1305339D01*
G04 #@! TD*
X-4723333Y-10394446D02*
X-5200000Y-10394446D01*
X-5200000Y-9394446D01*
X-4323333Y-9871113D02*
X-3990000Y-9871113D01*
X-3846666Y-10394446D02*
X-4323333Y-10394446D01*
X-4323333Y-9394446D01*
X-3846666Y-9394446D01*
X-3446666Y-10394446D02*
X-3446666Y-9394446D01*
X-3208888Y-9394446D01*
X-3065555Y-9442224D01*
X-2969999Y-9537779D01*
X-2923333Y-9632224D01*
X-2875555Y-9823335D01*
X-2875555Y-9965557D01*
X-2923333Y-10156668D01*
X-2969999Y-10251113D01*
X-3065555Y-10346668D01*
X-3208888Y-10394446D01*
X-3446666Y-10394446D01*
X-2475555Y-10013335D02*
X-1713333Y-10013335D01*
X-1313333Y-10346668D02*
X-1170000Y-10394446D01*
X-932222Y-10394446D01*
X-836666Y-10346668D01*
X-790000Y-10298890D01*
X-742222Y-10204446D01*
X-742222Y-10108890D01*
X-790000Y-10013335D01*
X-836666Y-9965557D01*
X-932222Y-9917779D01*
X-1123333Y-9871113D01*
X-1217777Y-9823335D01*
X-1265555Y-9775557D01*
X-1313333Y-9680002D01*
X-1313333Y-9584446D01*
X-1265555Y-9490002D01*
X-1217777Y-9442224D01*
X-1123333Y-9394446D01*
X-884444Y-9394446D01*
X-742222Y-9442224D01*
X-342222Y-9727779D02*
X-342222Y-10727779D01*
X-342222Y-9775557D02*
X-246666Y-9727779D01*
X-56666Y-9727779D01*
X38889Y-9775557D01*
X86667Y-9823335D01*
X134445Y-9917779D01*
X134445Y-10204446D01*
X86667Y-10298890D01*
X38889Y-10346668D01*
X-56666Y-10394446D01*
X-246666Y-10394446D01*
X-342222Y-10346668D01*
X724445Y-10394446D02*
X630001Y-10346668D01*
X582223Y-10298890D01*
X534445Y-10204446D01*
X534445Y-9917779D01*
X582223Y-9823335D01*
X630001Y-9775557D01*
X724445Y-9727779D01*
X867778Y-9727779D01*
X963334Y-9775557D01*
X1011112Y-9823335D01*
X1057778Y-9917779D01*
X1057778Y-10204446D01*
X1011112Y-10298890D01*
X963334Y-10346668D01*
X867778Y-10394446D01*
X724445Y-10394446D01*
X1457778Y-9727779D02*
X1838889Y-9727779D01*
X1601111Y-9394446D02*
X1601111Y-10251113D01*
X1647778Y-10346668D01*
X1743334Y-10394446D01*
X1838889Y-10394446D01*
X3038888Y-9727779D02*
X3276666Y-10394446D01*
X3515555Y-9727779D01*
X4486666Y-10394446D02*
X3915555Y-10394446D01*
X4201111Y-10394446D02*
X4201111Y-9394446D01*
X4105555Y-9537779D01*
X4011111Y-9632224D01*
X3915555Y-9680002D01*
X-4723333Y-12372223D02*
X-5200000Y-12372223D01*
X-5200000Y-11372223D01*
X-3894444Y-11705556D02*
X-3894444Y-12372223D01*
X-4323333Y-11705556D02*
X-4323333Y-12228890D01*
X-4275555Y-12324445D01*
X-4180000Y-12372223D01*
X-4037777Y-12372223D01*
X-3942222Y-12324445D01*
X-3894444Y-12276667D01*
X-3494444Y-12372223D02*
X-3494444Y-11372223D01*
X-3398888Y-11991112D02*
X-3113333Y-12372223D01*
X-3113333Y-11705556D02*
X-3494444Y-12086667D01*
X-2236666Y-12372223D02*
X-2236666Y-11848890D01*
X-2284444Y-11753334D01*
X-2380000Y-11705556D01*
X-2570000Y-11705556D01*
X-2665555Y-11753334D01*
X-2236666Y-12324445D02*
X-2332222Y-12372223D01*
X-2570000Y-12372223D01*
X-2665555Y-12324445D01*
X-2713333Y-12228890D01*
X-2713333Y-12134445D01*
X-2665555Y-12038890D01*
X-2570000Y-11991112D01*
X-2332222Y-11991112D01*
X-2236666Y-11943334D01*
X-1836666Y-12324445D02*
X-1741110Y-12372223D01*
X-1551110Y-12372223D01*
X-1455555Y-12324445D01*
X-1407777Y-12228890D01*
X-1407777Y-12182223D01*
X-1455555Y-12086667D01*
X-1551110Y-12038890D01*
X-1693333Y-12038890D01*
X-1788888Y-11991112D01*
X-1836666Y-11895556D01*
X-1836666Y-11848890D01*
X-1788888Y-11753334D01*
X-1693333Y-11705556D01*
X-1551110Y-11705556D01*
X-1455555Y-11753334D01*
X125555Y-11848890D02*
X268889Y-11895556D01*
X315555Y-11943334D01*
X363333Y-12038890D01*
X363333Y-12182223D01*
X315555Y-12276667D01*
X268889Y-12324445D01*
X173333Y-12372223D01*
X-207778Y-12372223D01*
X-207778Y-11372223D01*
X125555Y-11372223D01*
X221111Y-11420001D01*
X268889Y-11467779D01*
X315555Y-11562223D01*
X315555Y-11657779D01*
X268889Y-11753334D01*
X221111Y-11801112D01*
X125555Y-11848890D01*
X-207778Y-11848890D01*
X1240000Y-12372223D02*
X1240000Y-11848890D01*
X1192222Y-11753334D01*
X1096666Y-11705556D01*
X906666Y-11705556D01*
X811111Y-11753334D01*
X1240000Y-12324445D02*
X1144444Y-12372223D01*
X906666Y-12372223D01*
X811111Y-12324445D01*
X763333Y-12228890D01*
X763333Y-12134445D01*
X811111Y-12038890D01*
X906666Y-11991112D01*
X1144444Y-11991112D01*
X1240000Y-11943334D01*
X1640000Y-12372223D02*
X1640000Y-11705556D01*
X1640000Y-11895556D02*
X1687778Y-11801112D01*
X1735556Y-11753334D01*
X1830000Y-11705556D01*
X1925556Y-11705556D01*
X2325556Y-12372223D02*
X2325556Y-11372223D01*
X2325556Y-11753334D02*
X2421112Y-11705556D01*
X2611112Y-11705556D01*
X2706667Y-11753334D01*
X2754445Y-11801112D01*
X2802223Y-11895556D01*
X2802223Y-12182223D01*
X2754445Y-12276667D01*
X2706667Y-12324445D01*
X2611112Y-12372223D01*
X2421112Y-12372223D01*
X2325556Y-12324445D01*
X3250001Y-12372223D02*
X3250001Y-11705556D01*
X3250001Y-11372223D02*
X3202223Y-11420001D01*
X3250001Y-11467779D01*
X3297779Y-11420001D01*
X3250001Y-11372223D01*
X3250001Y-11467779D01*
X3697779Y-12324445D02*
X3793335Y-12372223D01*
X3983335Y-12372223D01*
X4078890Y-12324445D01*
X4126668Y-12228890D01*
X4126668Y-12182223D01*
X4078890Y-12086667D01*
X3983335Y-12038890D01*
X3841112Y-12038890D01*
X3745557Y-11991112D01*
X3697779Y-11895556D01*
X3697779Y-11848890D01*
X3745557Y-11753334D01*
X3841112Y-11705556D01*
X3983335Y-11705556D01*
X4078890Y-11753334D01*
X5003335Y-12324445D02*
X4907779Y-12372223D01*
X4716668Y-12372223D01*
X4622224Y-12324445D01*
X4574446Y-12276667D01*
X4526668Y-12182223D01*
X4526668Y-11895556D01*
X4574446Y-11801112D01*
X4622224Y-11753334D01*
X4716668Y-11705556D01*
X4907779Y-11705556D01*
X5003335Y-11753334D01*
X5403335Y-12372223D02*
X5403335Y-11372223D01*
X5832224Y-12372223D02*
X5832224Y-11848890D01*
X5784446Y-11753334D01*
X5688891Y-11705556D01*
X5546668Y-11705556D01*
X5451113Y-11753334D01*
X5403335Y-11801112D01*
X-5152222Y-13445556D02*
X-5104444Y-13397778D01*
X-5010000Y-13350000D01*
X-4771111Y-13350000D01*
X-4676667Y-13397778D01*
X-4628889Y-13445556D01*
X-4581111Y-13540000D01*
X-4581111Y-13635556D01*
X-4628889Y-13778889D01*
X-5200000Y-14350000D01*
X-4581111Y-14350000D01*
X-3943333Y-13350000D02*
X-3847778Y-13350000D01*
X-3752222Y-13397778D01*
X-3704444Y-13445556D01*
X-3657778Y-13540000D01*
X-3610000Y-13731111D01*
X-3610000Y-13968889D01*
X-3657778Y-14160000D01*
X-3704444Y-14254444D01*
X-3752222Y-14302222D01*
X-3847778Y-14350000D01*
X-3943333Y-14350000D01*
X-4037778Y-14302222D01*
X-4085555Y-14254444D01*
X-4133333Y-14160000D01*
X-4181111Y-13968889D01*
X-4181111Y-13731111D01*
X-4133333Y-13540000D01*
X-4085555Y-13445556D01*
X-4037778Y-13397778D01*
X-3943333Y-13350000D01*
X-3162222Y-13445556D02*
X-3114444Y-13397778D01*
X-3020000Y-13350000D01*
X-2781111Y-13350000D01*
X-2686667Y-13397778D01*
X-2638889Y-13445556D01*
X-2591111Y-13540000D01*
X-2591111Y-13635556D01*
X-2638889Y-13778889D01*
X-3210000Y-14350000D01*
X-2591111Y-14350000D01*
X-1714444Y-13350000D02*
X-1905555Y-13350000D01*
X-2001111Y-13397778D01*
X-2047778Y-13445556D01*
X-2143333Y-13587778D01*
X-2191111Y-13778889D01*
X-2191111Y-14160000D01*
X-2143333Y-14254444D01*
X-2095555Y-14302222D01*
X-2001111Y-14350000D01*
X-1810000Y-14350000D01*
X-1714444Y-14302222D01*
X-1667778Y-14254444D01*
X-1620000Y-14160000D01*
X-1620000Y-13921111D01*
X-1667778Y-13826667D01*
X-1714444Y-13778889D01*
X-1810000Y-13731111D01*
X-2001111Y-13731111D01*
X-2095555Y-13778889D01*
X-2143333Y-13826667D01*
X-2191111Y-13921111D01*
X-1220000Y-13968889D02*
X-457778Y-13968889D01*
X180000Y-13350000D02*
X275555Y-13350000D01*
X371111Y-13397778D01*
X418889Y-13445556D01*
X465555Y-13540000D01*
X513333Y-13731111D01*
X513333Y-13968889D01*
X465555Y-14160000D01*
X418889Y-14254444D01*
X371111Y-14302222D01*
X275555Y-14350000D01*
X180000Y-14350000D01*
X85555Y-14302222D01*
X37778Y-14254444D01*
X-10000Y-14160000D01*
X-57778Y-13968889D01*
X-57778Y-13731111D01*
X-10000Y-13540000D01*
X37778Y-13445556D01*
X85555Y-13397778D01*
X180000Y-13350000D01*
X1103333Y-13778889D02*
X1008889Y-13731111D01*
X961111Y-13683333D01*
X913333Y-13587778D01*
X913333Y-13540000D01*
X961111Y-13445556D01*
X1008889Y-13397778D01*
X1103333Y-13350000D01*
X1294444Y-13350000D01*
X1390000Y-13397778D01*
X1436666Y-13445556D01*
X1484444Y-13540000D01*
X1484444Y-13587778D01*
X1436666Y-13683333D01*
X1390000Y-13731111D01*
X1294444Y-13778889D01*
X1103333Y-13778889D01*
X1008889Y-13826667D01*
X961111Y-13873333D01*
X913333Y-13968889D01*
X913333Y-14160000D01*
X961111Y-14254444D01*
X1008889Y-14302222D01*
X1103333Y-14350000D01*
X1294444Y-14350000D01*
X1390000Y-14302222D01*
X1436666Y-14254444D01*
X1484444Y-14160000D01*
X1484444Y-13968889D01*
X1436666Y-13873333D01*
X1390000Y-13826667D01*
X1294444Y-13778889D01*
X1884444Y-13968889D02*
X2646666Y-13968889D01*
X3617777Y-14350000D02*
X3046666Y-14350000D01*
X3332222Y-14350000D02*
X3332222Y-13350000D01*
X3236666Y-13493333D01*
X3142222Y-13587778D01*
X3046666Y-13635556D01*
X4494444Y-13350000D02*
X4303333Y-13350000D01*
X4207777Y-13397778D01*
X4161110Y-13445556D01*
X4065555Y-13587778D01*
X4017777Y-13778889D01*
X4017777Y-14160000D01*
X4065555Y-14254444D01*
X4113333Y-14302222D01*
X4207777Y-14350000D01*
X4398888Y-14350000D01*
X4494444Y-14302222D01*
X4541110Y-14254444D01*
X4588888Y-14160000D01*
X4588888Y-13921111D01*
X4541110Y-13826667D01*
X4494444Y-13778889D01*
X4398888Y-13731111D01*
X4207777Y-13731111D01*
X4113333Y-13778889D01*
X4065555Y-13826667D01*
X4017777Y-13921111D01*
G04 #@! TO.C,LED6*
X-15706851Y-7715788D02*
X-15945184Y-7302982D01*
X-15079159Y-6802982D01*
X-15053631Y-7800532D02*
X-14886964Y-8089207D01*
X-15268517Y-8475004D02*
X-15506851Y-8062198D01*
X-14640825Y-7562198D01*
X-14402492Y-7975004D01*
X-15068517Y-8821414D02*
X-14202492Y-8321414D01*
X-14083603Y-8527336D01*
X-14053313Y-8675355D01*
X-14088288Y-8805886D01*
X-14146747Y-8893523D01*
X-14288365Y-9030455D01*
X-14411533Y-9101566D01*
X-14600929Y-9155745D01*
X-14706053Y-9162553D01*
X-14836585Y-9127577D01*
X-14949628Y-9027336D01*
X-15068517Y-8821414D01*
X-13478603Y-9575227D02*
X-13574158Y-9409720D01*
X-13663313Y-9350855D01*
X-13728024Y-9334329D01*
X-13898969Y-9322687D01*
X-14088365Y-9376865D01*
X-14418417Y-9567421D01*
X-14476319Y-9656020D01*
X-14493807Y-9721286D01*
X-14487961Y-9826966D01*
X-14392406Y-9992473D01*
X-14303251Y-10051338D01*
X-14238541Y-10067863D01*
X-14132861Y-10062018D01*
X-13925977Y-9942573D01*
X-13868075Y-9853974D01*
X-13850031Y-9789671D01*
X-13856432Y-9683028D01*
X-13951988Y-9517521D01*
X-14040587Y-9459619D01*
X-14105853Y-9442131D01*
X-14211533Y-9447976D01*
G04 #@! TO.C,LED5*
X-1171111Y-17460000D02*
X-1647778Y-17460000D01*
X-1647778Y-16460000D01*
X-771111Y-16936667D02*
X-437778Y-16936667D01*
X-294444Y-17460000D02*
X-771111Y-17460000D01*
X-771111Y-16460000D01*
X-294444Y-16460000D01*
X105556Y-17460000D02*
X105556Y-16460000D01*
X343334Y-16460000D01*
X486667Y-16507778D01*
X582223Y-16603333D01*
X628889Y-16697778D01*
X676667Y-16888889D01*
X676667Y-17031111D01*
X628889Y-17222222D01*
X582223Y-17316667D01*
X486667Y-17412222D01*
X343334Y-17460000D01*
X105556Y-17460000D01*
X1600000Y-16460000D02*
X1124445Y-16460000D01*
X1076667Y-16936667D01*
X1124445Y-16888889D01*
X1220000Y-16841111D01*
X1457778Y-16841111D01*
X1553334Y-16888889D01*
X1600000Y-16936667D01*
X1647778Y-17031111D01*
X1647778Y-17270000D01*
X1600000Y-17364444D01*
X1553334Y-17412222D01*
X1457778Y-17460000D01*
X1220000Y-17460000D01*
X1124445Y-17412222D01*
X1076667Y-17364444D01*
G04 #@! TO.C,LED4*
X14523795Y-9764900D02*
X14285461Y-10177706D01*
X13419436Y-9677706D01*
X14270575Y-9156824D02*
X14437242Y-8868149D01*
X14962128Y-9005684D02*
X14723795Y-9418490D01*
X13857770Y-8918490D01*
X14096103Y-8505684D01*
X15162129Y-8659274D02*
X14296103Y-8159274D01*
X14414992Y-7953353D01*
X14528036Y-7853111D01*
X14658567Y-7818135D01*
X14763691Y-7824944D01*
X14953087Y-7879122D01*
X15076255Y-7950233D01*
X15217873Y-8087166D01*
X15276332Y-8174802D01*
X15311307Y-8305333D01*
X15281018Y-8453353D01*
X15162129Y-8659274D01*
X15308667Y-7072128D02*
X15886018Y-7405462D01*
X14859171Y-7088457D02*
X15359009Y-7651601D01*
X15668454Y-7115627D01*
%LPC*%
D10*
G04 #@! TO.C,LED6*
G36*
X-16717058Y-7746058D02*
X-16467058Y-8179071D01*
X-19324942Y-9829071D01*
X-19574942Y-9396058D01*
X-16717058Y-7746058D01*
G37*
G36*
X-16217058Y-8612083D02*
X-15567058Y-9737917D01*
X-18424942Y-11387917D01*
X-19074942Y-10262083D01*
X-16217058Y-8612083D01*
G37*
G36*
X-15067058Y-10603942D02*
X-15317058Y-10170929D01*
X-18174942Y-11820929D01*
X-17924942Y-12253942D01*
X-15067058Y-10603942D01*
G37*
D12*
G04 #@! TD*
X-15171000Y13723909D03*
X-19471000Y6276091D03*
D10*
G04 #@! TO.C,LED3*
G36*
X16717058Y7746058D02*
X16467058Y8179071D01*
X19324942Y9829071D01*
X19574942Y9396058D01*
X16717058Y7746058D01*
G37*
G36*
X16217058Y8612083D02*
X15567058Y9737917D01*
X18424942Y11387917D01*
X19074942Y10262083D01*
X16217058Y8612083D01*
G37*
G36*
X15067058Y10603942D02*
X15317058Y10170929D01*
X18174942Y11820929D01*
X17924942Y12253942D01*
X15067058Y10603942D01*
G37*
D12*
G04 #@! TD*
X15171000Y13723909D03*
X19471000Y6276091D03*
D10*
G04 #@! TO.C,LED5*
G36*
X-1650000Y-18350000D02*
X-1150000Y-18350000D01*
X-1150000Y-21650000D01*
X-1650000Y-21650000D01*
X-1650000Y-18350000D01*
G37*
G36*
X-650000Y-18350000D02*
X650000Y-18350000D01*
X650000Y-21650000D01*
X-650000Y-21650000D01*
X-650000Y-18350000D01*
G37*
G36*
X1650000Y-18350000D02*
X1150000Y-18350000D01*
X1150000Y-21650000D01*
X1650000Y-21650000D01*
X1650000Y-18350000D01*
G37*
D13*
G04 #@! TO.C,TP1*
X-7000000Y-5000000D03*
D12*
G04 #@! TD*
X-19471000Y-6276091D03*
X-15171000Y-13723909D03*
D10*
G04 #@! TO.C,LED2*
G36*
X1650000Y18350000D02*
X1150000Y18350000D01*
X1150000Y21650000D01*
X1650000Y21650000D01*
X1650000Y18350000D01*
G37*
G36*
X650000Y18350000D02*
X-650000Y18350000D01*
X-650000Y21650000D01*
X650000Y21650000D01*
X650000Y18350000D01*
G37*
G36*
X-1650000Y18350000D02*
X-1150000Y18350000D01*
X-1150000Y21650000D01*
X-1650000Y21650000D01*
X-1650000Y18350000D01*
G37*
D12*
G04 #@! TD*
X4300000Y20000000D03*
X-4300000Y20000000D03*
D10*
G04 #@! TO.C,LED1*
G36*
X-15067058Y10603942D02*
X-15317058Y10170929D01*
X-18174942Y11820929D01*
X-17924942Y12253942D01*
X-15067058Y10603942D01*
G37*
G36*
X-15567058Y9737917D02*
X-16217058Y8612083D01*
X-19074942Y10262083D01*
X-18424942Y11387917D01*
X-15567058Y9737917D01*
G37*
G36*
X-16717058Y7746058D02*
X-16467058Y8179071D01*
X-19324942Y9829071D01*
X-19574942Y9396058D01*
X-16717058Y7746058D01*
G37*
G04 #@! TO.C,LED4*
G36*
X15067058Y-10603942D02*
X15317058Y-10170929D01*
X18174942Y-11820929D01*
X17924942Y-12253942D01*
X15067058Y-10603942D01*
G37*
G36*
X15567058Y-9737917D02*
X16217058Y-8612083D01*
X19074942Y-10262083D01*
X18424942Y-11387917D01*
X15567058Y-9737917D01*
G37*
G36*
X16717058Y-7746058D02*
X16467058Y-8179071D01*
X19324942Y-9829071D01*
X19574942Y-9396058D01*
X16717058Y-7746058D01*
G37*
D13*
G04 #@! TO.C,TP2*
X-7000000Y5000000D03*
D12*
G04 #@! TD*
X19471000Y-6276091D03*
X15171000Y-13723909D03*
X4300000Y-20000000D03*
X-4300000Y-20000000D03*
D14*
X22000000Y0D03*
X-22000000Y0D03*
X0Y8000000D03*
X0Y-8000000D03*
G04 --- BOARD END --- *
G04 #@! TF.MD5,f0504641a05361b3cdfc9bd1b342c32e*
M02*
