G04 --- HEADER BEGIN --- *
G04 #@! TF.GenerationSoftware,LibrePCB,LibrePCB,2.1.1*
G04 #@! TF.CreationDate,2026-08-29T23:07:21*
G04 #@! TF.ProjectId,Lab-Lamp,1f94bfc4-d831-43e1-86c0-4bc184f53f1f,v1*
G04 #@! TF.Part,Single*
G04 #@! TF.SameCoordinates*
G04 #@! TF.FileFunction,Paste,Top*
G04 #@! TF.FilePolarity,Positive*
%FSLAX66Y66*%
%MOMM*%
G01*
G75*
G04 --- HEADER END --- *
G04 --- APERTURE LIST BEGIN --- *
%AMROUNDEDRECT10*20,1,0.2,-0.4,0.0,0.4,0.0,0.0*20,1,0.125,-0.4375,0.0,0.4375,0.0,0.0*1,1,0.075,-0.4,0.0625*1,1,0.075,0.4,0.0625*1,1,0.075,0.4,-0.0625*1,1,0.075,-0.4,-0.0625*%
%ADD10ROUNDEDRECT10*%
%AMROUNDEDRECT11*20,1,0.2,-0.3375,0.0,0.3375,0.0,90.0*20,1,0.125,-0.375,0.0,0.375,0.0,90.0*1,1,0.075,-0.0625,-0.3375*1,1,0.075,-0.0625,0.3375*1,1,0.075,0.0625,0.3375*1,1,0.075,0.0625,-0.3375*%
%ADD11ROUNDEDRECT11*%
%AMROUNDEDRECT12*20,1,0.2,-0.3375,0.0,0.3375,0.0,0.0*20,1,0.125,-0.375,0.0,0.375,0.0,0.0*1,1,0.075,-0.3375,0.0625*1,1,0.075,0.3375,0.0625*1,1,0.075,0.3375,-0.0625*1,1,0.075,-0.3375,-0.0625*%
%ADD12ROUNDEDRECT12*%
%AMROUNDEDRECT13*20,1,0.2,-0.3,0.0,0.3,0.0,90.0*20,1,0.125,-0.3375,0.0,0.3375,0.0,90.0*1,1,0.075,-0.0625,-0.3*1,1,0.075,-0.0625,0.3*1,1,0.075,0.0625,0.3*1,1,0.075,0.0625,-0.3*%
%ADD13ROUNDEDRECT13*%
%AMROUNDEDRECT14*20,1,0.16,-0.4125,0.0,0.4125,0.0,0.0*20,1,0.1,-0.4425,0.0,0.4425,0.0,0.0*1,1,0.06,-0.4125,0.05*1,1,0.06,0.4125,0.05*1,1,0.06,0.4125,-0.05*1,1,0.06,-0.4125,-0.05*%
%ADD14ROUNDEDRECT14*%
%AMROUNDEDRECT15*20,1,0.34,-0.296875,0.0,0.296875,0.0,90.0*20,1,0.31875,-0.3075,0.0,0.3075,0.0,90.0*1,1,0.02125,-0.159375,-0.296875*1,1,0.02125,-0.159375,0.296875*1,1,0.02125,0.159375,0.296875*1,1,0.02125,0.159375,-0.296875*%
%ADD15ROUNDEDRECT15*%
%AMROUNDEDRECT16*20,1,0.16,-0.35,0.0,0.35,0.0,90.0*20,1,0.1,-0.38,0.0,0.38,0.0,90.0*1,1,0.06,-0.05,-0.35*1,1,0.06,-0.05,0.35*1,1,0.06,0.05,0.35*1,1,0.06,0.05,-0.35*%
%ADD16ROUNDEDRECT16*%
%AMROUNDEDRECT17*20,1,0.56,-0.4125,0.0,0.4125,0.0,90.0*20,1,0.525,-0.43,0.0,0.43,0.0,90.0*1,1,0.035,-0.2625,-0.4125*1,1,0.035,-0.2625,0.4125*1,1,0.035,0.2625,0.4125*1,1,0.035,0.2625,-0.4125*%
%ADD17ROUNDEDRECT17*%
%ADD18R,0.76X1.06*%
%AMROUNDEDRECT19*20,1,0.64,-0.45,0.0,0.45,0.0,90.0*20,1,0.4,-0.57,0.0,0.57,0.0,90.0*1,1,0.24,-0.2,-0.45*1,1,0.24,-0.2,0.45*1,1,0.24,0.2,0.45*1,1,0.24,0.2,-0.45*%
%ADD19ROUNDEDRECT19*%
%ADD20R,1.06X0.76*%
%ADD21R,0.43X0.28*%
%ADD22C,0.8*%
%ADD23R,0.42X0.32*%
%ADD24R,0.28X0.43*%
%ADD25R,0.32X0.42*%
%ADD26R,0.64X0.69*%
%AMROUNDEDRECT27*20,1,0.48,-0.2,0.0,0.2,0.0,0.0*20,1,0.3,-0.29,0.0,0.29,0.0,0.0*1,1,0.18,-0.2,0.15*1,1,0.18,0.2,0.15*1,1,0.18,0.2,-0.15*1,1,0.18,-0.2,-0.15*%
%ADD27ROUNDEDRECT27*%
%AMROUNDEDRECT28*20,1,0.264,-0.5675,0.0,0.5675,0.0,90.0*20,1,0.165,-0.617,0.0,0.617,0.0,90.0*1,1,0.099,-0.0825,-0.5675*1,1,0.099,-0.0825,0.5675*1,1,0.099,0.0825,0.5675*1,1,0.099,0.0825,-0.5675*%
%ADD28ROUNDEDRECT28*%
%ADD29R,2.0X7.5*%
%AMROUNDEDRECT30*20,1,0.48,-0.4,0.0,0.4,0.0,90.0*20,1,0.3,-0.49,0.0,0.49,0.0,90.0*1,1,0.18,-0.15,-0.4*1,1,0.18,-0.15,0.4*1,1,0.18,0.15,0.4*1,1,0.18,0.15,-0.4*%
%ADD30ROUNDEDRECT30*%
%AMROUNDEDRECT31*20,1,0.64,-1.15,0.0,1.15,0.0,90.0*20,1,0.4,-1.27,0.0,1.27,0.0,90.0*1,1,0.24,-0.2,-1.15*1,1,0.24,-0.2,1.15*1,1,0.24,0.2,1.15*1,1,0.24,0.2,-1.15*%
%ADD31ROUNDEDRECT31*%
G04 --- APERTURE LIST END --- *
G04 --- BOARD BEGIN --- *
D10*
G04 #@! TO.C,U1*
X23882500Y10300000D03*
D11*
X22545000Y13900000D03*
X23045000Y13900000D03*
D12*
X21145000Y13200000D03*
X23945000Y13200000D03*
X21145000Y12700000D03*
X23945000Y13700000D03*
D13*
X23545000Y13937500D03*
D14*
X23882500Y10925000D03*
D13*
X23545000Y10062500D03*
D10*
X21207500Y10300000D03*
D15*
X21457500Y11175000D03*
D12*
X23945000Y12700000D03*
D13*
X21545000Y10062500D03*
D14*
X23882500Y12050000D03*
X23882500Y11425000D03*
D16*
X22295000Y10100000D03*
D14*
X21207500Y10925000D03*
X21208000Y12050000D03*
X21207500Y11425000D03*
D16*
X22795000Y10100000D03*
D11*
X22045000Y13900000D03*
D15*
X23632000Y11175000D03*
D12*
X21145000Y13700000D03*
D13*
X21545000Y13937500D03*
D17*
X22545000Y10700000D03*
D18*
G04 #@! TO.C,C20*
X12675000Y8150000D03*
X14425000Y8150000D03*
D19*
G04 #@! TO.C,Q1*
X9100000Y15050000D03*
X8150000Y17250000D03*
X7200000Y15050000D03*
D20*
G04 #@! TO.C,C8*
X27295000Y13625000D03*
X27295000Y15375000D03*
D21*
G04 #@! TO.C,R2*
X21795000Y15075000D03*
X21795000Y15925000D03*
D22*
G04 #@! TO.C,TP2*
X8500000Y9500000D03*
D23*
G04 #@! TO.C,C14*
X28545000Y7850000D03*
X28545000Y8650000D03*
D22*
G04 #@! TO.C,TP1*
X17545000Y12750000D03*
D24*
G04 #@! TO.C,R7*
X13120000Y10500000D03*
X13970000Y10500000D03*
G04 #@! TO.C,R10*
X15720000Y11250000D03*
X14870000Y11250000D03*
D25*
G04 #@! TO.C,C18*
X17000000Y7400000D03*
X16200000Y7400000D03*
D21*
G04 #@! TO.C,R1*
X19795000Y10425000D03*
X19795000Y9575000D03*
D20*
G04 #@! TO.C,C12*
X29045000Y6625000D03*
X29045000Y4875000D03*
D24*
G04 #@! TO.C,R15*
X17075000Y2250000D03*
X17925000Y2250000D03*
D26*
G04 #@! TO.C,C10*
X27295000Y10525000D03*
X27295000Y11975000D03*
D27*
G04 #@! TO.C,LED2*
X19765000Y15580000D03*
X19765000Y14630000D03*
D24*
G04 #@! TO.C,R13*
X8575000Y13800000D03*
X7725000Y13800000D03*
D26*
G04 #@! TO.C,C11*
X25920000Y10525000D03*
X25920000Y11975000D03*
D27*
G04 #@! TO.C,LED1*
X10400000Y7625000D03*
X10400000Y8575000D03*
D24*
G04 #@! TO.C,R14*
X17925000Y1350000D03*
X17075000Y1350000D03*
D21*
G04 #@! TO.C,R8*
X10400000Y10325000D03*
X10400000Y9475000D03*
D24*
G04 #@! TO.C,R3*
X13370000Y19750000D03*
X14220000Y19750000D03*
D23*
G04 #@! TO.C,C13*
X29545000Y7850000D03*
X29545000Y8650000D03*
D25*
G04 #@! TO.C,C17*
X17000000Y8300000D03*
X16200000Y8300000D03*
D20*
G04 #@! TO.C,C9*
X29045000Y13625000D03*
X29045000Y15375000D03*
D23*
G04 #@! TO.C,C5*
X24045000Y15100000D03*
X24045000Y15900000D03*
D25*
G04 #@! TO.C,C19*
X14900000Y3600000D03*
X14100000Y3600000D03*
D21*
G04 #@! TO.C,R4*
X21045000Y15075000D03*
X21045000Y15925000D03*
D28*
G04 #@! TO.C,U2*
X14920000Y12600000D03*
X14270000Y12600000D03*
X16220000Y12600000D03*
X16220000Y18400000D03*
X15570000Y18400000D03*
X10370000Y12600000D03*
X13620000Y18400000D03*
X14920000Y18400000D03*
X13620000Y12600000D03*
X11020000Y18400000D03*
X15570000Y12600000D03*
X14270000Y18400000D03*
X12320000Y12600000D03*
X11020000Y12600000D03*
X12970000Y18400000D03*
X12970000Y12600000D03*
X11670000Y12600000D03*
X12320000Y18400000D03*
X11670000Y18400000D03*
X10370000Y18400000D03*
D21*
G04 #@! TO.C,R12*
X18495000Y15530000D03*
X18495000Y14680000D03*
D29*
G04 #@! TO.C,L1*
X21045000Y5000000D03*
X26545000Y5000000D03*
D21*
G04 #@! TO.C,R6*
X23295000Y15075000D03*
X23295000Y15925000D03*
D20*
G04 #@! TO.C,C7*
X25545000Y13625000D03*
X25545000Y15375000D03*
D30*
G04 #@! TO.C,U4*
X17050000Y6200000D03*
X17050000Y3400000D03*
X16100000Y6200000D03*
X16100000Y3400000D03*
X18000000Y3400000D03*
X18000000Y6200000D03*
D24*
G04 #@! TO.C,R11*
X10470000Y19750000D03*
X9620000Y19750000D03*
D25*
G04 #@! TO.C,C2*
X11645000Y11250000D03*
X12445000Y11250000D03*
D31*
G04 #@! TO.C,L2*
X14650000Y5650000D03*
X12450000Y5650000D03*
D25*
G04 #@! TO.C,C3*
X11645000Y10500000D03*
X12445000Y10500000D03*
D24*
G04 #@! TO.C,R9*
X17345000Y11250000D03*
X16495000Y11250000D03*
D21*
G04 #@! TO.C,R5*
X22545000Y15075000D03*
X22545000Y15925000D03*
D20*
G04 #@! TO.C,C6*
X28995000Y11975000D03*
X28995000Y10225000D03*
D23*
G04 #@! TO.C,C1*
X19045000Y10400000D03*
X19045000Y9600000D03*
D25*
G04 #@! TO.C,C4*
X13945000Y11250000D03*
X13145000Y11250000D03*
G04 --- BOARD END --- *
G04 #@! TF.MD5,ef0c0a91dd1470b52f6b9394aa7dbb94*
M02*
