M48
; #@! TF.GenerationSoftware,LibrePCB,LibrePCB,2.1.0
; #@! TF.CreationDate,2026-05-25T16:10:25
; #@! TF.ProjectId,Lab-Lamp,1f94bfc4-d831-43e1-86c0-4bc184f53f1f,v1
; #@! TF.Part,Single
; #@! TF.SameCoordinates
; #@! TF.FileFunction,Plated,1,2,PTH
FMAT,2
METRIC,TZ
; #@! TA.AperFunction,ViaDrill
T1C0.2
; #@! TA.AperFunction,ComponentDrill
T2C1.0
; #@! TA.AperFunction,ComponentDrill
T3C1.1
; #@! TA.AperFunction,ComponentDrill
T4C3.2
%
G90
G05
M71
T1
X16.345Y16.0
X4.595Y16.625
X4.97Y19.25
X9.845Y8.875
X14.095Y16.0
X7.22Y9.875
X17.845Y15.875
X21.345Y15.875
X19.595Y15.875
X1.345Y19.25
X12.72Y10.75
X4.72Y3.5
X1.27Y12.065
X12.065Y15.875
X20.97Y3.375
X16.97Y10.75
X21.845Y8.75
X19.595Y9.125
X20.845Y8.75
X18.22Y9.125
X14.845Y12.5
X14.845Y11.25
X4.345Y8.75
X4.72Y9.375
X14.845Y16.0
X21.72Y3.375
X15.845Y8.75
X11.095Y12.25
T2
X5.075Y21.5
X2.535Y21.5
X10.155Y21.5
X7.615Y21.5
T3
X24.095Y12.23
X24.095Y14.77
X24.095Y6.23
X24.095Y8.77
T4
X22.095Y19.5
T0
M30
