G04 --- HEADER BEGIN --- *
G04 #@! TF.GenerationSoftware,LibrePCB,LibrePCB,2.1.0*
G04 #@! TF.CreationDate,2026-05-25T16:10:25*
G04 #@! TF.ProjectId,Lab-Lamp,1f94bfc4-d831-43e1-86c0-4bc184f53f1f,v1*
G04 #@! TF.Part,Single*
G04 #@! TF.SameCoordinates*
G04 #@! TF.FileFunction,Copper,L2,Bot*
G04 #@! TF.FilePolarity,Positive*
%FSLAX66Y66*%
%MOMM*%
G01*
G75*
G04 --- HEADER END --- *
G04 --- APERTURE LIST BEGIN --- *
G04 #@! TA.AperFunction,ComponentPad*
%ADD10O,2.19X1.587*%
%ADD11R,2.19X1.587*%
%ADD12C,5.7*%
%ADD13O,1.587X2.19*%
%ADD14R,1.587X2.19*%
G04 #@! TA.AperFunction,ViaPad*
%ADD15C,0.5*%
G04 #@! TA.AperFunction,Conductor*
%ADD16C,0.2*%
%ADD17C,0.01*%
G04 #@! TD*
G04 --- APERTURE LIST END --- *
G04 --- BOARD BEGIN --- *
D10*
G04 #@! TO.N,GND*
G04 #@! TO.C,J2*
G04 #@! TO.P,J2,2,2*
X24095000Y8770000D03*
D11*
G04 #@! TO.N,OUT*
G04 #@! TO.P,J2,1,1*
X24095000Y6230000D03*
D10*
G04 #@! TO.N,GND*
G04 #@! TO.C,J3*
G04 #@! TO.P,J3,2,2*
X24095000Y14770000D03*
D11*
G04 #@! TO.N,Vin*
G04 #@! TO.P,J3,1,1*
X24095000Y12230000D03*
D12*
G04 #@! TO.N,GND*
G04 #@! TO.C,H1*
G04 #@! TO.P,H1,1,1*
X22095000Y19500000D03*
D13*
G04 #@! TO.N,SWDIO*
G04 #@! TO.C,J1*
G04 #@! TO.P,J1,2,2*
X7615000Y21500000D03*
D14*
G04 #@! TO.N,3.3V*
G04 #@! TO.P,J1,1,1*
X10155000Y21500000D03*
D13*
G04 #@! TO.N,GND*
G04 #@! TO.P,J1,4,4*
X2535000Y21500000D03*
G04 #@! TO.N,SWCLK*
G04 #@! TO.P,J1,3,3*
X5075000Y21500000D03*
D15*
G04 #@! TD.C*
G04 #@! TD.P*
G04 #@! TO.N,FAULT*
X11095000Y12250000D03*
X15845000Y8750000D03*
D16*
X15845000Y8750000D02*
X12345000Y12250000D01*
X11095000Y12250000D02*
X12345000Y12250000D01*
D15*
G04 #@! TO.N,GND*
X21720000Y3375000D03*
X14845000Y16000000D03*
X4720000Y9375000D03*
X4345000Y8750000D03*
X14845000Y11250000D03*
X14845000Y12500000D03*
X18220000Y9125000D03*
X20845000Y8750000D03*
X19595000Y9125000D03*
X21845000Y8750000D03*
X16970000Y10750000D03*
X20970000Y3375000D03*
X12065000Y15875000D03*
X1270000Y12065000D03*
X4720000Y3500000D03*
X12720000Y10750000D03*
X1345000Y19250000D03*
X19595000Y15875000D03*
X21345000Y15875000D03*
X17845000Y15875000D03*
X7220000Y9875000D03*
X14095000Y16000000D03*
X9845000Y8875000D03*
G04 #@! TO.N,3.3V*
X4970000Y19250000D03*
X4595000Y16625000D03*
D16*
X4970000Y19250000D02*
X4970000Y17000000D01*
X4595000Y16625000D02*
X4970000Y17000000D01*
D15*
G04 #@! TO.N,GND*
X16345000Y16000000D03*
D17*
G04 #@! TA.AperFunction,Conductor*
G36*
X300000Y399999D02*
X319500Y340672D01*
X399999Y300000D01*
X2417362Y300000D01*
X2417362Y20112795D01*
X2240301Y20145893D01*
X2231433Y20148417D01*
X2051891Y20217971D01*
X2043661Y20222069D01*
X1879947Y20323436D01*
X1872603Y20328982D01*
X1730316Y20458695D01*
X1724104Y20465508D01*
X1608074Y20619157D01*
X1603226Y20626987D01*
X1517406Y20799337D01*
X1514076Y20807931D01*
X1461384Y20993126D01*
X1459692Y21002175D01*
X1441714Y21196195D01*
X1441500Y21200811D01*
X1441500Y21383982D01*
X1443066Y21388747D01*
X1457513Y21396046D01*
X1457513Y21600005D01*
X1452748Y21601571D01*
X1441500Y21623833D01*
X1441500Y21799189D01*
X1441714Y21803805D01*
X1459692Y21997825D01*
X1461384Y22006874D01*
X1514076Y22192069D01*
X1517406Y22200663D01*
X1603226Y22373013D01*
X1608074Y22380843D01*
X1724104Y22534492D01*
X1730316Y22541305D01*
X1872603Y22671018D01*
X1879947Y22676564D01*
X2043661Y22777931D01*
X2051891Y22782029D01*
X2231433Y22851583D01*
X2240301Y22854107D01*
X2423918Y22888431D01*
X2434995Y22866507D01*
X2434995Y22583732D01*
X2358430Y22575105D01*
X2190713Y22516419D01*
X2040261Y22421883D01*
X1914617Y22296239D01*
X1820081Y22145787D01*
X1761395Y21978070D01*
X1741500Y21801500D01*
X1741500Y21600005D01*
X1457513Y21600005D01*
X1457513Y21396046D01*
X1465328Y21399995D01*
X1741500Y21399995D01*
X1741500Y21198500D01*
X1761395Y21021930D01*
X1820081Y20854213D01*
X1914617Y20703761D01*
X2040261Y20578117D01*
X2190713Y20483581D01*
X2358430Y20424895D01*
X2434995Y20416268D01*
X2434995Y20125678D01*
X2433429Y20120913D01*
X2417362Y20112795D01*
X2417362Y300000D01*
X2646082Y300000D01*
X2646082Y20111569D01*
X2635005Y20133493D01*
X2635005Y20416268D01*
X2711570Y20424895D01*
X2879287Y20483581D01*
X3029739Y20578117D01*
X3155383Y20703761D01*
X3249919Y20854213D01*
X3308605Y21021930D01*
X3328500Y21198500D01*
X3328500Y21399995D01*
X3328500Y21600005D01*
X3328500Y21801500D01*
X3308605Y21978070D01*
X3249919Y22145787D01*
X3155383Y22296239D01*
X3029739Y22421883D01*
X2879287Y22516419D01*
X2711570Y22575105D01*
X2635005Y22583732D01*
X2635005Y22874322D01*
X2636571Y22879087D01*
X2652638Y22887205D01*
X2829699Y22854107D01*
X2838567Y22851583D01*
X3018109Y22782029D01*
X3026339Y22777931D01*
X3190053Y22676564D01*
X3197397Y22671018D01*
X3339684Y22541305D01*
X3345896Y22534492D01*
X3461926Y22380843D01*
X3466774Y22373013D01*
X3552594Y22200663D01*
X3555924Y22192069D01*
X3608616Y22006874D01*
X3610308Y21997825D01*
X3628286Y21803805D01*
X3628500Y21799189D01*
X3628500Y21616018D01*
X3626934Y21611253D01*
X3604672Y21600005D01*
X3328500Y21600005D01*
X3328500Y21399995D01*
X3612487Y21399995D01*
X3617252Y21398429D01*
X3628500Y21376167D01*
X3628500Y21200811D01*
X3628286Y21196195D01*
X3610308Y21002175D01*
X3608616Y20993126D01*
X3555924Y20807931D01*
X3552594Y20799337D01*
X3466774Y20626987D01*
X3461926Y20619157D01*
X3345896Y20465508D01*
X3339684Y20458695D01*
X3197397Y20328982D01*
X3190053Y20323436D01*
X3026339Y20222069D01*
X3018109Y20217971D01*
X2838567Y20148417D01*
X2829699Y20145893D01*
X2646082Y20111569D01*
X2646082Y300000D01*
X4538110Y300000D01*
X4538110Y16179580D01*
X4524095Y16181595D01*
X4414926Y16213651D01*
X4402045Y16219534D01*
X4306328Y16281048D01*
X4295632Y16290315D01*
X4221117Y16376309D01*
X4213466Y16388216D01*
X4166199Y16491715D01*
X4162210Y16505299D01*
X4146018Y16617920D01*
X4146018Y16632080D01*
X4162210Y16744701D01*
X4166199Y16758285D01*
X4213466Y16861784D01*
X4221117Y16873691D01*
X4295632Y16959685D01*
X4306328Y16968952D01*
X4402045Y17030466D01*
X4414926Y17036349D01*
X4524095Y17068405D01*
X4538110Y17070420D01*
X4570001Y17070420D01*
X4629328Y17089920D01*
X4670000Y17170419D01*
X4670000Y18878747D01*
X4645575Y18944233D01*
X4596117Y19001310D01*
X4588466Y19013216D01*
X4541199Y19116715D01*
X4537210Y19130299D01*
X4521018Y19242920D01*
X4521018Y19257080D01*
X4537210Y19369701D01*
X4541199Y19383285D01*
X4588466Y19486784D01*
X4596117Y19498691D01*
X4670632Y19584685D01*
X4681328Y19593952D01*
X4777045Y19655466D01*
X4789926Y19661349D01*
X4899095Y19693405D01*
X4913110Y19695420D01*
X5026890Y19695420D01*
X5040905Y19693405D01*
X5070106Y19684830D01*
X5070106Y20205482D01*
X4886071Y20223608D01*
X4876474Y20225517D01*
X4699510Y20279198D01*
X4690466Y20282945D01*
X4527376Y20370118D01*
X4519240Y20375555D01*
X4376292Y20492868D01*
X4369368Y20499792D01*
X4252055Y20642740D01*
X4246618Y20650876D01*
X4159445Y20813966D01*
X4155698Y20823010D01*
X4102017Y20999974D01*
X4100108Y21009571D01*
X4081741Y21196057D01*
X4081500Y21200950D01*
X4081500Y21799050D01*
X4081741Y21803943D01*
X4100108Y21990429D01*
X4102017Y22000026D01*
X4155698Y22176990D01*
X4159445Y22186034D01*
X4246618Y22349124D01*
X4252055Y22357260D01*
X4369368Y22500208D01*
X4376292Y22507132D01*
X4519240Y22624445D01*
X4527376Y22629882D01*
X4690466Y22717055D01*
X4699510Y22720802D01*
X4876474Y22774483D01*
X4886071Y22776392D01*
X5070106Y22794518D01*
X5079894Y22794518D01*
X5263929Y22776392D01*
X5273526Y22774483D01*
X5450490Y22720802D01*
X5459534Y22717055D01*
X5622624Y22629882D01*
X5630760Y22624445D01*
X5773708Y22507132D01*
X5780632Y22500208D01*
X5897945Y22357260D01*
X5903382Y22349124D01*
X5990555Y22186034D01*
X5994302Y22176990D01*
X6047983Y22000026D01*
X6049892Y21990429D01*
X6068259Y21803943D01*
X6068500Y21799050D01*
X6068500Y21200950D01*
X6068259Y21196057D01*
X6049892Y21009571D01*
X6047983Y20999974D01*
X5994302Y20823010D01*
X5990555Y20813966D01*
X5903382Y20650876D01*
X5897945Y20642740D01*
X5780632Y20499792D01*
X5773708Y20492868D01*
X5630760Y20375555D01*
X5622624Y20370118D01*
X5459534Y20282945D01*
X5450490Y20279198D01*
X5273526Y20225517D01*
X5263929Y20223608D01*
X5079894Y20205482D01*
X5070106Y20205482D01*
X5070106Y19684830D01*
X5150074Y19661349D01*
X5162955Y19655466D01*
X5258672Y19593952D01*
X5269368Y19584685D01*
X5343883Y19498691D01*
X5351534Y19486784D01*
X5398801Y19383285D01*
X5402790Y19369701D01*
X5418982Y19257080D01*
X5418982Y19242920D01*
X5402790Y19130299D01*
X5398801Y19116715D01*
X5351534Y19013216D01*
X5343883Y19001310D01*
X5294425Y18944233D01*
X5270000Y18878747D01*
X5270000Y17004371D01*
X5268861Y16991352D01*
X5269567Y16991290D01*
X5269564Y16991221D01*
X5268859Y16991283D01*
X5266595Y16965402D01*
X5259845Y16940213D01*
X5257956Y16931695D01*
X5253427Y16906009D01*
X5246023Y16885668D01*
X5236875Y16866050D01*
X5221917Y16844687D01*
X5217231Y16837332D01*
X5204187Y16814740D01*
X5187487Y16794838D01*
X5188115Y16794311D01*
X5188072Y16794264D01*
X5187444Y16794791D01*
X5179043Y16784779D01*
X5072856Y16678592D01*
X5044585Y16622113D01*
X5027790Y16505299D01*
X5023801Y16491715D01*
X4976534Y16388216D01*
X4968883Y16376309D01*
X4894368Y16290315D01*
X4883672Y16281048D01*
X4787955Y16219534D01*
X4775074Y16213651D01*
X4665905Y16181595D01*
X4651890Y16179580D01*
X4538110Y16179580D01*
X4538110Y300000D01*
X7610106Y300000D01*
X7610106Y20205482D01*
X7426071Y20223608D01*
X7416474Y20225517D01*
X7239510Y20279198D01*
X7230466Y20282945D01*
X7067376Y20370118D01*
X7059240Y20375555D01*
X6916292Y20492868D01*
X6909368Y20499792D01*
X6792055Y20642740D01*
X6786618Y20650876D01*
X6699445Y20813966D01*
X6695698Y20823010D01*
X6642017Y20999974D01*
X6640108Y21009571D01*
X6621741Y21196057D01*
X6621500Y21200950D01*
X6621500Y21799050D01*
X6621741Y21803943D01*
X6640108Y21990429D01*
X6642017Y22000026D01*
X6695698Y22176990D01*
X6699445Y22186034D01*
X6786618Y22349124D01*
X6792055Y22357260D01*
X6909368Y22500208D01*
X6916292Y22507132D01*
X7059240Y22624445D01*
X7067376Y22629882D01*
X7230466Y22717055D01*
X7239510Y22720802D01*
X7416474Y22774483D01*
X7426071Y22776392D01*
X7610106Y22794518D01*
X7619894Y22794518D01*
X7803929Y22776392D01*
X7813526Y22774483D01*
X7990490Y22720802D01*
X7999534Y22717055D01*
X8162624Y22629882D01*
X8170760Y22624445D01*
X8313708Y22507132D01*
X8320632Y22500208D01*
X8437945Y22357260D01*
X8443382Y22349124D01*
X8530555Y22186034D01*
X8534302Y22176990D01*
X8587983Y22000026D01*
X8589892Y21990429D01*
X8608259Y21803943D01*
X8608500Y21799050D01*
X8608500Y21200950D01*
X8608259Y21196057D01*
X8589892Y21009571D01*
X8587983Y20999974D01*
X8534302Y20823010D01*
X8530555Y20813966D01*
X8443382Y20650876D01*
X8437945Y20642740D01*
X8320632Y20499792D01*
X8313708Y20492868D01*
X8170760Y20375555D01*
X8162624Y20370118D01*
X7999534Y20282945D01*
X7990490Y20279198D01*
X7813526Y20225517D01*
X7803929Y20223608D01*
X7619894Y20205482D01*
X7610106Y20205482D01*
X7610106Y300000D01*
X9366414Y300000D01*
X9366414Y20205000D01*
X9356683Y20205958D01*
X9294623Y20218303D01*
X9276773Y20225696D01*
X9228267Y20258108D01*
X9214608Y20271767D01*
X9182196Y20320273D01*
X9174803Y20338123D01*
X9162458Y20400183D01*
X9161500Y20409914D01*
X9161500Y22590086D01*
X9162458Y22599817D01*
X9174803Y22661877D01*
X9182196Y22679727D01*
X9214608Y22728233D01*
X9228267Y22741892D01*
X9276773Y22774304D01*
X9294623Y22781697D01*
X9356683Y22794042D01*
X9366414Y22795000D01*
X10943586Y22795000D01*
X10953317Y22794042D01*
X11015377Y22781697D01*
X11033227Y22774304D01*
X11081733Y22741892D01*
X11095392Y22728233D01*
X11127804Y22679727D01*
X11135197Y22661877D01*
X11147542Y22599817D01*
X11148500Y22590086D01*
X11148500Y20409914D01*
X11147542Y20400183D01*
X11135197Y20338123D01*
X11127804Y20320273D01*
X11095392Y20271767D01*
X11081733Y20258108D01*
X11033227Y20225696D01*
X11015377Y20218303D01*
X10953317Y20205958D01*
X10943586Y20205000D01*
X9366414Y20205000D01*
X9366414Y300000D01*
X15788110Y300000D01*
X15788110Y8304580D01*
X15774095Y8306595D01*
X15664926Y8338651D01*
X15652045Y8344534D01*
X15556328Y8406048D01*
X15545632Y8415315D01*
X15471117Y8501309D01*
X15463466Y8513216D01*
X15416199Y8616715D01*
X15412210Y8630299D01*
X15395415Y8747112D01*
X15367144Y8803591D01*
X12250024Y11920711D01*
X12179314Y11950000D01*
X11470091Y11950000D01*
X11401089Y11918488D01*
X11399777Y11920002D01*
X11394621Y11915535D01*
X11394517Y11915487D01*
X11394369Y11915316D01*
X11383672Y11906048D01*
X11287955Y11844534D01*
X11275074Y11838651D01*
X11165905Y11806595D01*
X11151890Y11804580D01*
X11038110Y11804580D01*
X11024095Y11806595D01*
X10914926Y11838651D01*
X10902045Y11844534D01*
X10806328Y11906048D01*
X10795632Y11915315D01*
X10721117Y12001309D01*
X10713466Y12013216D01*
X10666199Y12116715D01*
X10662210Y12130299D01*
X10646018Y12242920D01*
X10646018Y12257080D01*
X10662210Y12369701D01*
X10666199Y12383285D01*
X10713466Y12486784D01*
X10721117Y12498691D01*
X10795632Y12584685D01*
X10806328Y12593952D01*
X10902045Y12655466D01*
X10914926Y12661349D01*
X11024095Y12693405D01*
X11038110Y12695420D01*
X11151890Y12695420D01*
X11165905Y12693405D01*
X11275074Y12661349D01*
X11287955Y12655466D01*
X11383672Y12593952D01*
X11394369Y12584684D01*
X11394517Y12584513D01*
X11394621Y12584465D01*
X11399777Y12579998D01*
X11401089Y12581512D01*
X11470091Y12550000D01*
X12340630Y12550000D01*
X12353651Y12548861D01*
X12353708Y12549510D01*
X12353776Y12549507D01*
X12353719Y12548859D01*
X12379601Y12546595D01*
X12404806Y12539842D01*
X12413320Y12537954D01*
X12438989Y12533427D01*
X12459351Y12526016D01*
X12478957Y12516874D01*
X12500331Y12501906D01*
X12507693Y12497216D01*
X12530257Y12484189D01*
X12550162Y12467486D01*
X12550645Y12468062D01*
X12550692Y12468019D01*
X12550210Y12467444D01*
X12560222Y12459043D01*
X15794556Y9224709D01*
X15865266Y9195420D01*
X15901890Y9195420D01*
X15915905Y9193405D01*
X16025074Y9161349D01*
X16037955Y9155466D01*
X16133672Y9093952D01*
X16144368Y9084685D01*
X16218883Y8998691D01*
X16226534Y8986784D01*
X16273801Y8883285D01*
X16277790Y8869701D01*
X16293982Y8757080D01*
X16293982Y8742920D01*
X16277790Y8630299D01*
X16273801Y8616715D01*
X16226534Y8513216D01*
X16218883Y8501309D01*
X16144368Y8415315D01*
X16133672Y8406048D01*
X16037955Y8344534D01*
X16025074Y8338651D01*
X15915905Y8306595D01*
X15901890Y8304580D01*
X15788110Y8304580D01*
X15788110Y300000D01*
X19800082Y300000D01*
X19800082Y17352504D01*
X19795878Y17353214D01*
X19794911Y17353969D01*
X19634101Y17533914D01*
X19630609Y17538293D01*
X19429443Y17821811D01*
X19426461Y17826556D01*
X19258303Y18130815D01*
X19255877Y18135852D01*
X19122842Y18457027D01*
X19120991Y18462317D01*
X19024756Y18796355D01*
X19023505Y18801836D01*
X18965278Y19144540D01*
X18964650Y19150115D01*
X18945157Y19497204D01*
X18945157Y19502796D01*
X18964650Y19849885D01*
X18965278Y19855460D01*
X19023505Y20198164D01*
X19024756Y20203645D01*
X19120991Y20537683D01*
X19122842Y20542973D01*
X19255877Y20864148D01*
X19258303Y20869185D01*
X19426461Y21173444D01*
X19429443Y21178189D01*
X19630609Y21461707D01*
X19634101Y21466086D01*
X19790200Y21640759D01*
X19801950Y21647548D01*
X19806190Y21647075D01*
X19807193Y21646378D01*
X20013646Y21439925D01*
X19911773Y21331945D01*
X19713860Y21066101D01*
X19548147Y20779078D01*
X19416876Y20474757D01*
X19321822Y20157255D01*
X19264271Y19830865D01*
X19245000Y19500000D01*
X19264271Y19169135D01*
X19321822Y18842745D01*
X19416876Y18525243D01*
X19548147Y18220922D01*
X19713860Y17933899D01*
X19911773Y17668055D01*
X20013646Y17560075D01*
X19812194Y17358623D01*
X19800082Y17352504D01*
X19800082Y300000D01*
X22092204Y300000D01*
X22092204Y16350157D01*
X21745115Y16369650D01*
X21739540Y16370278D01*
X21396836Y16428505D01*
X21391355Y16429756D01*
X21057317Y16525991D01*
X21052027Y16527842D01*
X20730852Y16660877D01*
X20725815Y16663303D01*
X20421556Y16831461D01*
X20416811Y16834443D01*
X20133293Y17035609D01*
X20128914Y17039101D01*
X19954241Y17195200D01*
X19947452Y17206950D01*
X19947925Y17211190D01*
X19948622Y17212193D01*
X20152371Y17415942D01*
X20152371Y21584058D01*
X19953623Y21782806D01*
X19947504Y21794918D01*
X19948214Y21799122D01*
X19948969Y21800089D01*
X20128914Y21960899D01*
X20133293Y21964391D01*
X20416811Y22165557D01*
X20421556Y22168539D01*
X20725815Y22336697D01*
X20730852Y22339123D01*
X21052027Y22472158D01*
X21057317Y22474009D01*
X21391355Y22570244D01*
X21396836Y22571495D01*
X21739540Y22629722D01*
X21745115Y22630350D01*
X22092204Y22649843D01*
X22097796Y22649843D01*
X22444885Y22630350D01*
X22450460Y22629722D01*
X22793164Y22571495D01*
X22798645Y22570244D01*
X23132683Y22474009D01*
X23137973Y22472158D01*
X23459148Y22339123D01*
X23464185Y22336697D01*
X23768444Y22168539D01*
X23773189Y22165557D01*
X24056707Y21964391D01*
X24061086Y21960899D01*
X24235759Y21804800D01*
X24242548Y21793050D01*
X24242075Y21788810D01*
X24241378Y21787807D01*
X24037629Y21584058D01*
X23796902Y21786051D01*
X23520000Y21968172D01*
X23223827Y22116916D01*
X22912389Y22230270D01*
X22589897Y22306702D01*
X22260713Y22345178D01*
X21929287Y22345178D01*
X21600103Y22306702D01*
X21277611Y22230270D01*
X20966173Y22116916D01*
X20670000Y21968172D01*
X20393098Y21786051D01*
X20152371Y21584058D01*
X20152371Y17415942D01*
X20393098Y17213949D01*
X20670000Y17031828D01*
X20966173Y16883084D01*
X21277611Y16769730D01*
X21600103Y16693298D01*
X21929287Y16654822D01*
X22260713Y16654822D01*
X22589897Y16693298D01*
X22912389Y16769730D01*
X23223827Y16883084D01*
X23520000Y17031828D01*
X23796902Y17213949D01*
X24037629Y17415942D01*
X24236377Y17217194D01*
X24242496Y17205082D01*
X24241786Y17200878D01*
X24241031Y17199911D01*
X24061086Y17039101D01*
X24056707Y17035609D01*
X23773189Y16834443D01*
X23768444Y16831461D01*
X23464185Y16663303D01*
X23459148Y16660877D01*
X23137973Y16527842D01*
X23132683Y16525991D01*
X22798645Y16429756D01*
X22793164Y16428505D01*
X22450460Y16370278D01*
X22444885Y16369650D01*
X22097796Y16350157D01*
X22092204Y16350157D01*
X22092204Y300000D01*
X23004914Y300000D01*
X23004914Y5236500D01*
X22995183Y5237458D01*
X22933123Y5249803D01*
X22915273Y5257196D01*
X22866767Y5289608D01*
X22853108Y5303267D01*
X22820696Y5351773D01*
X22813303Y5369623D01*
X22800958Y5431683D01*
X22800000Y5441414D01*
X22800000Y7018586D01*
X22800958Y7028317D01*
X22813303Y7090377D01*
X22820696Y7108227D01*
X22853108Y7156733D01*
X22866767Y7170392D01*
X22915273Y7202804D01*
X22933123Y7210197D01*
X22995183Y7222542D01*
X23004914Y7223500D01*
X23795811Y7223500D01*
X23795811Y7676500D01*
X23791195Y7676714D01*
X23597175Y7694692D01*
X23588126Y7696384D01*
X23402931Y7749076D01*
X23394337Y7752406D01*
X23221987Y7838226D01*
X23214157Y7843074D01*
X23060508Y7959104D01*
X23053695Y7965316D01*
X22923982Y8107603D01*
X22918436Y8114947D01*
X22817069Y8278661D01*
X22812971Y8286891D01*
X22743417Y8466433D01*
X22740893Y8475301D01*
X22706569Y8658918D01*
X22720678Y8666046D01*
X22720678Y8870005D01*
X22715913Y8871571D01*
X22707795Y8887638D01*
X22740893Y9064699D01*
X22743417Y9073567D01*
X22812971Y9253109D01*
X22817069Y9261339D01*
X22918436Y9425053D01*
X22923982Y9432397D01*
X23004914Y9521174D01*
X23004914Y11236500D01*
X22995183Y11237458D01*
X22933123Y11249803D01*
X22915273Y11257196D01*
X22866767Y11289608D01*
X22853108Y11303267D01*
X22820696Y11351773D01*
X22813303Y11369623D01*
X22800958Y11431683D01*
X22800000Y11441414D01*
X22800000Y13018586D01*
X22800958Y13028317D01*
X22813303Y13090377D01*
X22820696Y13108227D01*
X22853108Y13156733D01*
X22866767Y13170392D01*
X22915273Y13202804D01*
X22933123Y13210197D01*
X22995183Y13222542D01*
X23004914Y13223500D01*
X23795811Y13223500D01*
X23795811Y13676500D01*
X23791195Y13676714D01*
X23597175Y13694692D01*
X23588126Y13696384D01*
X23402931Y13749076D01*
X23394337Y13752406D01*
X23221987Y13838226D01*
X23214157Y13843074D01*
X23060508Y13959104D01*
X23053695Y13965316D01*
X22923982Y14107603D01*
X22918436Y14114947D01*
X22817069Y14278661D01*
X22812971Y14286891D01*
X22743417Y14466433D01*
X22740893Y14475301D01*
X22706569Y14658918D01*
X22720678Y14666046D01*
X22720678Y14870005D01*
X22715913Y14871571D01*
X22707795Y14887638D01*
X22740893Y15064699D01*
X22743417Y15073567D01*
X22812971Y15253109D01*
X22817069Y15261339D01*
X22918436Y15425053D01*
X22923982Y15432397D01*
X23053695Y15574684D01*
X23060508Y15580896D01*
X23214157Y15696926D01*
X23221987Y15701774D01*
X23394337Y15787594D01*
X23402931Y15790924D01*
X23588126Y15843616D01*
X23597175Y15845308D01*
X23791195Y15863286D01*
X23795811Y15863500D01*
X23978982Y15863500D01*
X23983747Y15861934D01*
X23994995Y15839672D01*
X23994995Y15563500D01*
X23793500Y15563500D01*
X23616930Y15543605D01*
X23449213Y15484919D01*
X23298761Y15390383D01*
X23173117Y15264739D01*
X23078581Y15114287D01*
X23019895Y14946570D01*
X23011268Y14870005D01*
X22720678Y14870005D01*
X22720678Y14666046D01*
X22728493Y14669995D01*
X23011268Y14669995D01*
X23019895Y14593430D01*
X23078581Y14425713D01*
X23173117Y14275261D01*
X23298761Y14149617D01*
X23449213Y14055081D01*
X23616930Y13996395D01*
X23793500Y13976500D01*
X23994995Y13976500D01*
X23994995Y13692513D01*
X23993429Y13687748D01*
X23971167Y13676500D01*
X23795811Y13676500D01*
X23795811Y13223500D01*
X24211018Y13223500D01*
X24211018Y13676500D01*
X24206253Y13678066D01*
X24195005Y13700328D01*
X24195005Y13976500D01*
X24396500Y13976500D01*
X24573070Y13996395D01*
X24740787Y14055081D01*
X24891239Y14149617D01*
X25016883Y14275261D01*
X25111419Y14425713D01*
X25170105Y14593430D01*
X25178732Y14669995D01*
X25178732Y14870005D01*
X25170105Y14946570D01*
X25111419Y15114287D01*
X25016883Y15264739D01*
X24891239Y15390383D01*
X24740787Y15484919D01*
X24573070Y15543605D01*
X24396500Y15563500D01*
X24195005Y15563500D01*
X24195005Y15847487D01*
X24196571Y15852252D01*
X24218833Y15863500D01*
X24388050Y15863500D01*
X24388050Y17352452D01*
X24383810Y17352925D01*
X24382807Y17353622D01*
X24176354Y17560075D01*
X24278227Y17668055D01*
X24476140Y17933899D01*
X24641853Y18220922D01*
X24773124Y18525243D01*
X24868178Y18842745D01*
X24925729Y19169135D01*
X24945000Y19500000D01*
X24925729Y19830865D01*
X24868178Y20157255D01*
X24773124Y20474757D01*
X24641853Y20779078D01*
X24476140Y21066101D01*
X24278227Y21331945D01*
X24176354Y21439925D01*
X24377806Y21641377D01*
X24389918Y21647496D01*
X24394122Y21646786D01*
X24395089Y21646031D01*
X24555899Y21466086D01*
X24559391Y21461707D01*
X24760557Y21178189D01*
X24763539Y21173444D01*
X24931697Y20869185D01*
X24934123Y20864148D01*
X25067158Y20542973D01*
X25069009Y20537683D01*
X25165244Y20203645D01*
X25166495Y20198164D01*
X25224722Y19855460D01*
X25225350Y19849885D01*
X25244843Y19502796D01*
X25244843Y19497204D01*
X25225350Y19150115D01*
X25224722Y19144540D01*
X25166495Y18801836D01*
X25165244Y18796355D01*
X25069009Y18462317D01*
X25067158Y18457027D01*
X24934123Y18135852D01*
X24931697Y18130815D01*
X24763539Y17826556D01*
X24760557Y17821811D01*
X24559391Y17538293D01*
X24555899Y17533914D01*
X24399800Y17359241D01*
X24388050Y17352452D01*
X24388050Y15863500D01*
X24394189Y15863500D01*
X24398805Y15863286D01*
X24592825Y15845308D01*
X24601874Y15843616D01*
X24787069Y15790924D01*
X24795663Y15787594D01*
X24968013Y15701774D01*
X24975843Y15696926D01*
X25129492Y15580896D01*
X25136305Y15574684D01*
X25266018Y15432397D01*
X25271564Y15425053D01*
X25372931Y15261339D01*
X25377029Y15253109D01*
X25446583Y15073567D01*
X25449107Y15064699D01*
X25483431Y14881082D01*
X25461507Y14870005D01*
X25178732Y14870005D01*
X25178732Y14669995D01*
X25469322Y14669995D01*
X25474087Y14668429D01*
X25482205Y14652362D01*
X25449107Y14475301D01*
X25446583Y14466433D01*
X25377029Y14286891D01*
X25372931Y14278661D01*
X25271564Y14114947D01*
X25266018Y14107603D01*
X25136305Y13965316D01*
X25129492Y13959104D01*
X24975843Y13843074D01*
X24968013Y13838226D01*
X24795663Y13752406D01*
X24787069Y13749076D01*
X24601874Y13696384D01*
X24592825Y13694692D01*
X24398805Y13676714D01*
X24394189Y13676500D01*
X24211018Y13676500D01*
X24211018Y13223500D01*
X25185086Y13223500D01*
X25194817Y13222542D01*
X25256877Y13210197D01*
X25274727Y13202804D01*
X25323233Y13170392D01*
X25336892Y13156733D01*
X25369304Y13108227D01*
X25376697Y13090377D01*
X25389042Y13028317D01*
X25390000Y13018586D01*
X25390000Y11441414D01*
X25389042Y11431683D01*
X25376697Y11369623D01*
X25369304Y11351773D01*
X25336892Y11303267D01*
X25323233Y11289608D01*
X25274727Y11257196D01*
X25256877Y11249803D01*
X25194817Y11237458D01*
X25185086Y11236500D01*
X23004914Y11236500D01*
X23004914Y9521174D01*
X23053695Y9574684D01*
X23060508Y9580896D01*
X23214157Y9696926D01*
X23221987Y9701774D01*
X23394337Y9787594D01*
X23402931Y9790924D01*
X23588126Y9843616D01*
X23597175Y9845308D01*
X23791195Y9863286D01*
X23795811Y9863500D01*
X23978982Y9863500D01*
X23983747Y9861934D01*
X23994995Y9839672D01*
X23994995Y9563500D01*
X23793500Y9563500D01*
X23616930Y9543605D01*
X23449213Y9484919D01*
X23298761Y9390383D01*
X23173117Y9264739D01*
X23078581Y9114287D01*
X23019895Y8946570D01*
X23011268Y8870005D01*
X22720678Y8870005D01*
X22720678Y8666046D01*
X22728493Y8669995D01*
X23011268Y8669995D01*
X23019895Y8593430D01*
X23078581Y8425713D01*
X23173117Y8275261D01*
X23298761Y8149617D01*
X23449213Y8055081D01*
X23616930Y7996395D01*
X23793500Y7976500D01*
X23994995Y7976500D01*
X23994995Y7692513D01*
X23993429Y7687748D01*
X23971167Y7676500D01*
X23795811Y7676500D01*
X23795811Y7223500D01*
X24211018Y7223500D01*
X24211018Y7676500D01*
X24206253Y7678066D01*
X24195005Y7700328D01*
X24195005Y7976500D01*
X24396500Y7976500D01*
X24573070Y7996395D01*
X24740787Y8055081D01*
X24891239Y8149617D01*
X25016883Y8275261D01*
X25111419Y8425713D01*
X25170105Y8593430D01*
X25178732Y8669995D01*
X25178732Y8870005D01*
X25170105Y8946570D01*
X25111419Y9114287D01*
X25016883Y9264739D01*
X24891239Y9390383D01*
X24740787Y9484919D01*
X24573070Y9543605D01*
X24396500Y9563500D01*
X24195005Y9563500D01*
X24195005Y9847487D01*
X24196571Y9852252D01*
X24218833Y9863500D01*
X24394189Y9863500D01*
X24398805Y9863286D01*
X24592825Y9845308D01*
X24601874Y9843616D01*
X24787069Y9790924D01*
X24795663Y9787594D01*
X24968013Y9701774D01*
X24975843Y9696926D01*
X25129492Y9580896D01*
X25136305Y9574684D01*
X25266018Y9432397D01*
X25271564Y9425053D01*
X25372931Y9261339D01*
X25377029Y9253109D01*
X25446583Y9073567D01*
X25449107Y9064699D01*
X25483431Y8881082D01*
X25461507Y8870005D01*
X25178732Y8870005D01*
X25178732Y8669995D01*
X25469322Y8669995D01*
X25474087Y8668429D01*
X25482205Y8652362D01*
X25449107Y8475301D01*
X25446583Y8466433D01*
X25377029Y8286891D01*
X25372931Y8278661D01*
X25271564Y8114947D01*
X25266018Y8107603D01*
X25136305Y7965316D01*
X25129492Y7959104D01*
X24975843Y7843074D01*
X24968013Y7838226D01*
X24795663Y7752406D01*
X24787069Y7749076D01*
X24601874Y7696384D01*
X24592825Y7694692D01*
X24398805Y7676714D01*
X24394189Y7676500D01*
X24211018Y7676500D01*
X24211018Y7223500D01*
X25185086Y7223500D01*
X25194817Y7222542D01*
X25256877Y7210197D01*
X25274727Y7202804D01*
X25323233Y7170392D01*
X25336892Y7156733D01*
X25369304Y7108227D01*
X25376697Y7090377D01*
X25389042Y7028317D01*
X25390000Y7018586D01*
X25390000Y5441414D01*
X25389042Y5431683D01*
X25376697Y5369623D01*
X25369304Y5351773D01*
X25336892Y5303267D01*
X25323233Y5289608D01*
X25274727Y5257196D01*
X25256877Y5249803D01*
X25194817Y5237458D01*
X25185086Y5236500D01*
X23004914Y5236500D01*
X23004914Y300000D01*
X25695001Y300000D01*
X25754328Y319500D01*
X25795000Y399999D01*
X25795000Y23099925D01*
X25775500Y23159252D01*
X25694982Y23199924D01*
X399980Y23195076D01*
X340656Y23175565D01*
X300000Y23095077D01*
X300000Y399999D01*
G37*
G04 --- BOARD END --- *
G04 #@! TF.MD5,572fc72a64eecbc1db8cd8c398933252*
M02*
