M48
; #@! TF.GenerationSoftware,LibrePCB,LibrePCB,2.1.0
; #@! TF.CreationDate,2026-08-16T21:20:06
; #@! TF.ProjectId,Lab-Lamp,1f94bfc4-d831-43e1-86c0-4bc184f53f1f,v1
; #@! TF.Part,Single
; #@! TF.SameCoordinates
; #@! TF.FileFunction,Plated,1,2,PTH
FMAT,2
METRIC,TZ
; #@! TA.AperFunction,ViaDrill
T1C0.2
; #@! TA.AperFunction,ComponentDrill
T2C1.0
%
G90
G05
M71
T1
X24.045Y16.5
X17.545Y9.375
X21.795Y16.5
X24.67Y11.25
X27.295Y9.625
X28.545Y9.25
X25.92Y9.625
X29.545Y9.25
X14.92Y10.375
X9.545Y19.05
X20.42Y11.25
X12.1Y3.9
X9.1Y16.15
X19.765Y16.375
X28.67Y3.875
X10.4Y6.9
X12.9Y3.9
X22.545Y13.0
X12.6Y19.6
X12.3Y16.7
X22.545Y11.75
X12.045Y9.25
X12.42Y9.875
X22.545Y16.5
X29.42Y3.875
X25.545Y16.375
X29.045Y16.375
X27.295Y16.375
X23.545Y9.25
X18.795Y12.75
T2
X8.45Y2.4
X5.95Y2.4
X2.7Y21.2
X2.7Y18.7
X31.3Y21.45
X33.8Y21.45
X33.8Y5.5
X33.8Y3.0
X13.47Y22.1
X16.01Y22.1
X8.39Y22.1
X10.93Y22.1
T0
M30
