G04 --- HEADER BEGIN --- *
G04 #@! TF.GenerationSoftware,LibrePCB,LibrePCB,2.1.1*
G04 #@! TF.CreationDate,2026-08-29T23:07:21*
G04 #@! TF.ProjectId,Lab-Lamp,1f94bfc4-d831-43e1-86c0-4bc184f53f1f,v1*
G04 #@! TF.Part,Single*
G04 #@! TF.SameCoordinates*
G04 #@! TF.FileFunction,Copper,L2,Bot*
G04 #@! TF.FilePolarity,Positive*
%FSLAX66Y66*%
%MOMM*%
G01*
G75*
G04 --- HEADER END --- *
G04 --- APERTURE LIST BEGIN --- *
G04 #@! TA.AperFunction,ComponentPad*
%ADD10O,1.587X2.19*%
%ADD11R,1.587X2.19*%
%ADD12O,1.8X1.6*%
%ADD13O,1.6X1.8*%
G04 #@! TA.AperFunction,ViaPad*
%ADD14C,0.5*%
G04 #@! TA.AperFunction,Conductor*
%ADD15C,0.5*%
%ADD16C,0.2*%
%ADD17C,0.01*%
G04 #@! TD*
G04 --- APERTURE LIST END --- *
G04 --- BOARD BEGIN --- *
D10*
G04 #@! TO.N,SWCLK*
G04 #@! TO.C,J1*
G04 #@! TO.P,J1,2,2*
X10930000Y22100000D03*
D11*
G04 #@! TO.N,GND*
G04 #@! TO.P,J1,1,1*
X8390000Y22100000D03*
D10*
G04 #@! TO.N,3.3V*
G04 #@! TO.P,J1,4,4*
X16010000Y22100000D03*
G04 #@! TO.N,SWDIO*
G04 #@! TO.P,J1,3,3*
X13470000Y22100000D03*
D12*
G04 #@! TO.N,OUT*
G04 #@! TO.C,J5*
G04 #@! TO.P,J5,2,2*
X33800000Y3000000D03*
G04 #@! TO.N,GND*
G04 #@! TO.P,J5,1,1*
X33800000Y5500000D03*
D13*
G04 #@! TO.N,Vin*
G04 #@! TO.C,J2*
G04 #@! TO.P,J2,2,2*
X33800000Y21450000D03*
G04 #@! TO.N,GND*
G04 #@! TO.P,J2,1,1*
X31300000Y21450000D03*
D12*
G04 #@! TO.N,N10*
G04 #@! TO.C,J3*
G04 #@! TO.P,J3,2,2*
X2700000Y18700000D03*
G04 #@! TO.N,Vin*
G04 #@! TO.P,J3,1,1*
X2700000Y21200000D03*
D13*
G04 #@! TO.N,IR_OUT*
G04 #@! TO.C,J4*
G04 #@! TO.P,J4,2,2*
X5950000Y2400000D03*
G04 #@! TO.N,GND*
G04 #@! TO.P,J4,1,1*
X8450000Y2400000D03*
D14*
G04 #@! TD.C*
G04 #@! TD.P*
X27295000Y16375000D03*
X29045000Y16375000D03*
X25545000Y16375000D03*
X29420000Y3875000D03*
X22545000Y16500000D03*
X12420000Y9875000D03*
X22545000Y11750000D03*
X17050000Y4550000D03*
D15*
G04 #@! TO.N,Vin*
X5350000Y20400000D02*
X17500000Y20400000D01*
X20050000Y22950000D02*
X17500000Y20400000D01*
X20050000Y22950000D02*
X32300000Y22950000D01*
X5350000Y20400000D02*
X4550000Y21200000D01*
X33800000Y21450000D02*
X32300000Y22950000D01*
X2700000Y21200000D02*
X4550000Y21200000D01*
D14*
G04 #@! TO.N,GND*
X22545000Y13000000D03*
X10400000Y6900000D03*
X28670000Y3875000D03*
X15550000Y7400000D03*
X19765000Y16375000D03*
X9100000Y16150000D03*
G04 #@! TO.N,3.3V*
X12600000Y19600000D03*
X12300000Y16700000D03*
D16*
X12300000Y16700000D02*
X12600000Y17000000D01*
X12600000Y19600000D02*
X12600000Y17000000D01*
D14*
G04 #@! TO.N,GND*
X20420000Y11250000D03*
X9545000Y19050000D03*
X14920000Y10375000D03*
X29545000Y9250000D03*
X25920000Y9625000D03*
X28545000Y9250000D03*
X27295000Y9625000D03*
X24670000Y11250000D03*
G04 #@! TO.N,FAULT*
X18795000Y12750000D03*
X23545000Y9250000D03*
D16*
X18795000Y12750000D02*
X20045000Y12750000D01*
X23545000Y9250000D02*
X20045000Y12750000D01*
D14*
G04 #@! TO.N,GND*
X21795000Y16500000D03*
X14400000Y9200000D03*
X15550000Y8300000D03*
X24045000Y16500000D03*
D17*
G04 #@! TA.AperFunction,Conductor*
G36*
X300000Y399999D02*
X319500Y340672D01*
X399999Y300000D01*
X2996435Y300000D01*
X2996435Y10150255D01*
X2740287Y10168575D01*
X2733225Y10169590D01*
X2482287Y10224178D01*
X2475446Y10226187D01*
X2234831Y10315932D01*
X2228344Y10318894D01*
X2002951Y10441969D01*
X1996954Y10445823D01*
X1791367Y10599722D01*
X1785984Y10604387D01*
X1604387Y10785984D01*
X1599722Y10791367D01*
X1445823Y10996953D01*
X1441969Y11002950D01*
X1318895Y11228344D01*
X1315932Y11234831D01*
X1226187Y11475446D01*
X1224178Y11482287D01*
X1169590Y11733225D01*
X1168575Y11740287D01*
X1150255Y11996435D01*
X1150255Y12003565D01*
X1168575Y12259713D01*
X1169590Y12266775D01*
X1224178Y12517713D01*
X1226187Y12524554D01*
X1315932Y12765169D01*
X1318894Y12771656D01*
X1441966Y12997045D01*
X1445823Y13003046D01*
X1599722Y13208633D01*
X1604387Y13214016D01*
X1785984Y13395613D01*
X1791367Y13400278D01*
X1996953Y13554177D01*
X2002950Y13558031D01*
X2228344Y13681105D01*
X2234831Y13684068D01*
X2475446Y13773813D01*
X2482287Y13775822D01*
X2602450Y13801961D01*
X2602450Y17750000D01*
X2597557Y17750241D01*
X2419557Y17767772D01*
X2409960Y17769681D01*
X2241157Y17820886D01*
X2232113Y17824633D01*
X2076542Y17907787D01*
X2068410Y17913221D01*
X1932047Y18025132D01*
X1925132Y18032047D01*
X1813221Y18168410D01*
X1807787Y18176542D01*
X1724633Y18332113D01*
X1720886Y18341157D01*
X1669681Y18509960D01*
X1667772Y18519557D01*
X1650482Y18695106D01*
X1650482Y18704894D01*
X1667772Y18880443D01*
X1669681Y18890040D01*
X1720886Y19058843D01*
X1724633Y19067887D01*
X1807787Y19223458D01*
X1813221Y19231590D01*
X1925132Y19367953D01*
X1932047Y19374868D01*
X2068410Y19486779D01*
X2076542Y19492213D01*
X2232113Y19575367D01*
X2241157Y19579114D01*
X2409960Y19630319D01*
X2419557Y19632228D01*
X2597557Y19649759D01*
X2602450Y19650000D01*
X2797550Y19650000D01*
X2802443Y19649759D01*
X2980443Y19632228D01*
X2990040Y19630319D01*
X3158843Y19579114D01*
X3167887Y19575367D01*
X3323458Y19492213D01*
X3331590Y19486779D01*
X3467953Y19374868D01*
X3474868Y19367953D01*
X3586779Y19231590D01*
X3592213Y19223458D01*
X3675367Y19067887D01*
X3679114Y19058843D01*
X3730319Y18890040D01*
X3732228Y18880443D01*
X3749518Y18704894D01*
X3749518Y18695106D01*
X3732228Y18519557D01*
X3730319Y18509960D01*
X3679114Y18341157D01*
X3675367Y18332113D01*
X3592213Y18176542D01*
X3586779Y18168410D01*
X3474868Y18032047D01*
X3467953Y18025132D01*
X3331590Y17913221D01*
X3323458Y17907787D01*
X3167887Y17824633D01*
X3158843Y17820886D01*
X2990040Y17769681D01*
X2980443Y17767772D01*
X2802443Y17750241D01*
X2797550Y17750000D01*
X2602450Y17750000D01*
X2602450Y13801961D01*
X2733225Y13830410D01*
X2740287Y13831425D01*
X2996435Y13849745D01*
X3003565Y13849745D01*
X3259713Y13831425D01*
X3266775Y13830410D01*
X3517713Y13775822D01*
X3524554Y13773813D01*
X3765169Y13684068D01*
X3771656Y13681106D01*
X3997049Y13558031D01*
X4003046Y13554177D01*
X4208633Y13400278D01*
X4214016Y13395613D01*
X4395613Y13214016D01*
X4400278Y13208633D01*
X4554177Y13003047D01*
X4558031Y12997050D01*
X4681105Y12771656D01*
X4684068Y12765169D01*
X4773813Y12524554D01*
X4775822Y12517713D01*
X4830410Y12266775D01*
X4831425Y12259713D01*
X4849745Y12003565D01*
X4849745Y11996435D01*
X4831425Y11740287D01*
X4830410Y11733225D01*
X4775822Y11482287D01*
X4773813Y11475446D01*
X4684068Y11234831D01*
X4681106Y11228344D01*
X4558031Y11002951D01*
X4554177Y10996954D01*
X4400278Y10791367D01*
X4395613Y10785984D01*
X4214016Y10604387D01*
X4208633Y10599722D01*
X4003047Y10445823D01*
X3997050Y10441969D01*
X3771656Y10318895D01*
X3765169Y10315932D01*
X3524554Y10226187D01*
X3517713Y10224178D01*
X3266775Y10169590D01*
X3259713Y10168575D01*
X3003565Y10150255D01*
X2996435Y10150255D01*
X2996435Y300000D01*
X5945106Y300000D01*
X5945106Y1350482D01*
X5769557Y1367772D01*
X5759960Y1369681D01*
X5591157Y1420886D01*
X5582113Y1424633D01*
X5426542Y1507787D01*
X5418410Y1513221D01*
X5282047Y1625132D01*
X5275132Y1632047D01*
X5163221Y1768410D01*
X5157787Y1776542D01*
X5074633Y1932113D01*
X5070886Y1941157D01*
X5019681Y2109960D01*
X5017772Y2119557D01*
X5000241Y2297557D01*
X5000000Y2302450D01*
X5000000Y2497550D01*
X5000241Y2502443D01*
X5017772Y2680443D01*
X5019681Y2690040D01*
X5070886Y2858843D01*
X5074633Y2867887D01*
X5157787Y3023458D01*
X5163221Y3031590D01*
X5275132Y3167953D01*
X5282047Y3174868D01*
X5418410Y3286779D01*
X5426542Y3292213D01*
X5582113Y3375367D01*
X5591157Y3379114D01*
X5759960Y3430319D01*
X5769557Y3432228D01*
X5945106Y3449518D01*
X5954894Y3449518D01*
X6130443Y3432228D01*
X6140040Y3430319D01*
X6308843Y3379114D01*
X6317887Y3375367D01*
X6473458Y3292213D01*
X6481590Y3286779D01*
X6617953Y3174868D01*
X6624868Y3167953D01*
X6736779Y3031590D01*
X6742213Y3023458D01*
X6825367Y2867887D01*
X6829114Y2858843D01*
X6880319Y2690040D01*
X6882228Y2680443D01*
X6899759Y2502443D01*
X6900000Y2497550D01*
X6900000Y2302450D01*
X6899759Y2297557D01*
X6882228Y2119557D01*
X6880319Y2109960D01*
X6829114Y1941157D01*
X6825367Y1932113D01*
X6742213Y1776542D01*
X6736779Y1768410D01*
X6624868Y1632047D01*
X6617953Y1625132D01*
X6481590Y1513221D01*
X6473458Y1507787D01*
X6317887Y1424633D01*
X6308843Y1420886D01*
X6140040Y1369681D01*
X6130443Y1367772D01*
X5954894Y1350482D01*
X5945106Y1350482D01*
X5945106Y300000D01*
X12292228Y300000D01*
X12292228Y16301231D01*
X12184164Y16318346D01*
X12169383Y16323149D01*
X12071896Y16372821D01*
X12059322Y16381957D01*
X11981957Y16459322D01*
X11972821Y16471896D01*
X11923149Y16569383D01*
X11918346Y16584164D01*
X11901231Y16692228D01*
X11901231Y16707772D01*
X11918346Y16815836D01*
X11923149Y16830617D01*
X11972821Y16928104D01*
X11981957Y16940678D01*
X12059322Y17018043D01*
X12071896Y17027179D01*
X12169383Y17076851D01*
X12184164Y17081654D01*
X12265644Y17094559D01*
X12321191Y17123100D01*
X12350000Y17193327D01*
X12350000Y19249858D01*
X12320711Y19320568D01*
X12281957Y19359322D01*
X12272821Y19371896D01*
X12223149Y19469383D01*
X12218346Y19484164D01*
X12201231Y19592228D01*
X12201231Y19607772D01*
X12218346Y19715836D01*
X12223149Y19730617D01*
X12272821Y19828103D01*
X12282353Y19841223D01*
X12301449Y19900681D01*
X12281546Y19959874D01*
X12201452Y20000000D01*
X5353931Y20000000D01*
X5346118Y20000615D01*
X5326664Y20003696D01*
X5311021Y20004927D01*
X5295296Y20004927D01*
X5279937Y20007360D01*
X5264983Y20012218D01*
X5249728Y20015881D01*
X5234165Y20018346D01*
X5219383Y20023150D01*
X5205350Y20030300D01*
X5190850Y20036306D01*
X5175885Y20041168D01*
X5162037Y20048224D01*
X5149305Y20057474D01*
X5135927Y20065673D01*
X5121897Y20072822D01*
X5109319Y20081960D01*
X5098189Y20093090D01*
X5086256Y20103281D01*
X5070340Y20114844D01*
X5064380Y20119935D01*
X4413604Y20770711D01*
X4342894Y20800000D01*
X3718139Y20800000D01*
X3658812Y20780500D01*
X3629948Y20747140D01*
X3592213Y20676542D01*
X3586779Y20668410D01*
X3474868Y20532047D01*
X3467953Y20525132D01*
X3331590Y20413221D01*
X3323458Y20407787D01*
X3167887Y20324633D01*
X3158843Y20320886D01*
X2990040Y20269681D01*
X2980443Y20267772D01*
X2802443Y20250241D01*
X2797550Y20250000D01*
X2602450Y20250000D01*
X2597557Y20250241D01*
X2419557Y20267772D01*
X2409960Y20269681D01*
X2241157Y20320886D01*
X2232113Y20324633D01*
X2076542Y20407787D01*
X2068410Y20413221D01*
X1932047Y20525132D01*
X1925132Y20532047D01*
X1813221Y20668410D01*
X1807787Y20676542D01*
X1724633Y20832113D01*
X1720886Y20841157D01*
X1669681Y21009960D01*
X1667772Y21019557D01*
X1650482Y21195106D01*
X1650482Y21204894D01*
X1667772Y21380443D01*
X1669681Y21390040D01*
X1720886Y21558843D01*
X1724633Y21567887D01*
X1807787Y21723458D01*
X1813221Y21731590D01*
X1925132Y21867953D01*
X1932047Y21874868D01*
X2068410Y21986779D01*
X2076542Y21992213D01*
X2232113Y22075367D01*
X2241157Y22079114D01*
X2409960Y22130319D01*
X2419557Y22132228D01*
X2597557Y22149759D01*
X2602450Y22150000D01*
X2797550Y22150000D01*
X2802443Y22149759D01*
X2980443Y22132228D01*
X2990040Y22130319D01*
X3158843Y22079114D01*
X3167887Y22075367D01*
X3323458Y21992213D01*
X3331590Y21986779D01*
X3467953Y21874868D01*
X3474868Y21867953D01*
X3586779Y21731590D01*
X3592213Y21723458D01*
X3629948Y21652860D01*
X3675112Y21609730D01*
X3718139Y21600000D01*
X4546069Y21600000D01*
X4553884Y21599385D01*
X4573319Y21596307D01*
X4588961Y21595076D01*
X4604705Y21595076D01*
X4620062Y21592644D01*
X4635035Y21587779D01*
X4650291Y21584116D01*
X4665835Y21581654D01*
X4680621Y21576849D01*
X4694638Y21569707D01*
X4709136Y21563701D01*
X4724112Y21558835D01*
X4737964Y21551777D01*
X4750698Y21542525D01*
X4764078Y21534325D01*
X4778106Y21527177D01*
X4790677Y21518044D01*
X4801811Y21506910D01*
X4813742Y21496720D01*
X4829664Y21485152D01*
X4835621Y21480064D01*
X5486396Y20829289D01*
X5557106Y20800000D01*
X10406983Y20800000D01*
X10466310Y20819500D01*
X10502499Y20870395D01*
X10501437Y20932836D01*
X10454122Y20988191D01*
X10410145Y21011697D01*
X10402021Y21017125D01*
X10266643Y21128228D01*
X10259728Y21135143D01*
X10148625Y21270521D01*
X10143192Y21278653D01*
X10060639Y21433100D01*
X10056892Y21442145D01*
X10006056Y21609728D01*
X10004147Y21619325D01*
X9986741Y21796057D01*
X9986500Y21800950D01*
X9986500Y22399050D01*
X9986741Y22403943D01*
X10004147Y22580675D01*
X10006056Y22590272D01*
X10056892Y22757855D01*
X10060639Y22766900D01*
X10143192Y22921347D01*
X10148625Y22929479D01*
X10259728Y23064857D01*
X10266643Y23071772D01*
X10402021Y23182875D01*
X10410153Y23188308D01*
X10564600Y23270861D01*
X10573645Y23274608D01*
X10741228Y23325444D01*
X10750825Y23327353D01*
X10925106Y23344518D01*
X10934894Y23344518D01*
X11109175Y23327353D01*
X11118772Y23325444D01*
X11286355Y23274608D01*
X11295400Y23270861D01*
X11449847Y23188308D01*
X11457979Y23182875D01*
X11593357Y23071772D01*
X11600272Y23064857D01*
X11711375Y22929479D01*
X11716808Y22921347D01*
X11799361Y22766900D01*
X11803108Y22757855D01*
X11853944Y22590272D01*
X11855853Y22580675D01*
X11873259Y22403943D01*
X11873500Y22399050D01*
X11873500Y21800950D01*
X11873259Y21796057D01*
X11855853Y21619325D01*
X11853944Y21609728D01*
X11803108Y21442145D01*
X11799361Y21433100D01*
X11716808Y21278653D01*
X11711375Y21270521D01*
X11600272Y21135143D01*
X11593357Y21128228D01*
X11457979Y21017125D01*
X11449855Y21011697D01*
X11405878Y20988191D01*
X11362749Y20943027D01*
X11354824Y20881082D01*
X11385194Y20826515D01*
X11453017Y20800000D01*
X12946983Y20800000D01*
X13006310Y20819500D01*
X13042499Y20870395D01*
X13041437Y20932836D01*
X12994122Y20988191D01*
X12950145Y21011697D01*
X12942021Y21017125D01*
X12806643Y21128228D01*
X12799728Y21135143D01*
X12688625Y21270521D01*
X12683192Y21278653D01*
X12600639Y21433100D01*
X12596892Y21442145D01*
X12546056Y21609728D01*
X12544147Y21619325D01*
X12526741Y21796057D01*
X12526500Y21800950D01*
X12526500Y22399050D01*
X12526741Y22403943D01*
X12544147Y22580675D01*
X12546056Y22590272D01*
X12596892Y22757855D01*
X12600639Y22766900D01*
X12683192Y22921347D01*
X12688625Y22929479D01*
X12799728Y23064857D01*
X12806643Y23071772D01*
X12942021Y23182875D01*
X12950153Y23188308D01*
X13104600Y23270861D01*
X13113645Y23274608D01*
X13281228Y23325444D01*
X13290825Y23327353D01*
X13465106Y23344518D01*
X13474894Y23344518D01*
X13649175Y23327353D01*
X13658772Y23325444D01*
X13826355Y23274608D01*
X13835400Y23270861D01*
X13989847Y23188308D01*
X13997979Y23182875D01*
X14133357Y23071772D01*
X14140272Y23064857D01*
X14251375Y22929479D01*
X14256808Y22921347D01*
X14339361Y22766900D01*
X14343108Y22757855D01*
X14393944Y22590272D01*
X14395853Y22580675D01*
X14413259Y22403943D01*
X14413500Y22399050D01*
X14413500Y21800950D01*
X14413259Y21796057D01*
X14395853Y21619325D01*
X14393944Y21609728D01*
X14343108Y21442145D01*
X14339361Y21433100D01*
X14256808Y21278653D01*
X14251375Y21270521D01*
X14140272Y21135143D01*
X14133357Y21128228D01*
X13997979Y21017125D01*
X13989855Y21011697D01*
X13945878Y20988191D01*
X13902749Y20943027D01*
X13894824Y20881082D01*
X13925194Y20826515D01*
X13993017Y20800000D01*
X15486983Y20800000D01*
X15546310Y20819500D01*
X15582499Y20870395D01*
X15581437Y20932836D01*
X15534122Y20988191D01*
X15490145Y21011697D01*
X15482021Y21017125D01*
X15346643Y21128228D01*
X15339728Y21135143D01*
X15228625Y21270521D01*
X15223192Y21278653D01*
X15140639Y21433100D01*
X15136892Y21442145D01*
X15086056Y21609728D01*
X15084147Y21619325D01*
X15066741Y21796057D01*
X15066500Y21800950D01*
X15066500Y22399050D01*
X15066741Y22403943D01*
X15084147Y22580675D01*
X15086056Y22590272D01*
X15136892Y22757855D01*
X15140639Y22766900D01*
X15223192Y22921347D01*
X15228625Y22929479D01*
X15339728Y23064857D01*
X15346643Y23071772D01*
X15482021Y23182875D01*
X15490153Y23188308D01*
X15644600Y23270861D01*
X15653645Y23274608D01*
X15821228Y23325444D01*
X15830825Y23327353D01*
X16005106Y23344518D01*
X16014894Y23344518D01*
X16189175Y23327353D01*
X16198772Y23325444D01*
X16366355Y23274608D01*
X16375400Y23270861D01*
X16529847Y23188308D01*
X16537979Y23182875D01*
X16673357Y23071772D01*
X16680272Y23064857D01*
X16791375Y22929479D01*
X16796808Y22921347D01*
X16879361Y22766900D01*
X16883108Y22757855D01*
X16933944Y22590272D01*
X16935853Y22580675D01*
X16953259Y22403943D01*
X16953500Y22399050D01*
X16953500Y21800950D01*
X16953259Y21796057D01*
X16935853Y21619325D01*
X16933944Y21609728D01*
X16883108Y21442145D01*
X16879361Y21433100D01*
X16796808Y21278653D01*
X16791375Y21270521D01*
X16680272Y21135143D01*
X16673357Y21128228D01*
X16537979Y21017125D01*
X16529855Y21011697D01*
X16485878Y20988191D01*
X16442749Y20943027D01*
X16434824Y20881082D01*
X16465194Y20826515D01*
X16533017Y20800000D01*
X17292893Y20800000D01*
X17363603Y20829289D01*
X19764380Y23230066D01*
X19770333Y23235151D01*
X19786260Y23246722D01*
X19798192Y23256913D01*
X19809319Y23268040D01*
X19821897Y23277179D01*
X19835923Y23284325D01*
X19849302Y23292524D01*
X19862039Y23301778D01*
X19875889Y23308835D01*
X19890862Y23313700D01*
X19905360Y23319705D01*
X19919386Y23326852D01*
X19934165Y23331654D01*
X19949712Y23334116D01*
X19964972Y23337780D01*
X19979936Y23342642D01*
X19995300Y23345076D01*
X20011039Y23345076D01*
X20026681Y23346307D01*
X20046116Y23349385D01*
X20053931Y23350000D01*
X32296069Y23350000D01*
X32303884Y23349385D01*
X32323319Y23346307D01*
X32338961Y23345076D01*
X32354700Y23345076D01*
X32370064Y23342642D01*
X32385028Y23337780D01*
X32400288Y23334116D01*
X32415835Y23331654D01*
X32430614Y23326852D01*
X32444640Y23319705D01*
X32459138Y23313700D01*
X32474111Y23308835D01*
X32487961Y23301778D01*
X32500698Y23292524D01*
X32514077Y23284325D01*
X32528103Y23277179D01*
X32540681Y23268040D01*
X32551808Y23256913D01*
X32563740Y23246722D01*
X32579667Y23235151D01*
X32585620Y23230066D01*
X33356895Y22458791D01*
X33412634Y22430629D01*
X33456633Y22433808D01*
X33609960Y22480319D01*
X33619557Y22482228D01*
X33795106Y22499518D01*
X33804894Y22499518D01*
X33980443Y22482228D01*
X33990040Y22480319D01*
X34158843Y22429114D01*
X34167887Y22425367D01*
X34323458Y22342213D01*
X34331590Y22336779D01*
X34467953Y22224868D01*
X34474868Y22217953D01*
X34586779Y22081590D01*
X34592213Y22073458D01*
X34675367Y21917887D01*
X34679114Y21908843D01*
X34730319Y21740040D01*
X34732228Y21730443D01*
X34749759Y21552443D01*
X34750000Y21547550D01*
X34750000Y21352450D01*
X34749759Y21347557D01*
X34732228Y21169557D01*
X34730319Y21159960D01*
X34679114Y20991157D01*
X34675367Y20982113D01*
X34592213Y20826542D01*
X34586779Y20818410D01*
X34474868Y20682047D01*
X34467953Y20675132D01*
X34331590Y20563221D01*
X34323458Y20557787D01*
X34167887Y20474633D01*
X34158843Y20470886D01*
X33990040Y20419681D01*
X33980443Y20417772D01*
X33804894Y20400482D01*
X33795106Y20400482D01*
X33619557Y20417772D01*
X33609960Y20419681D01*
X33441157Y20470886D01*
X33432113Y20474633D01*
X33276542Y20557787D01*
X33268410Y20563221D01*
X33132047Y20675132D01*
X33125132Y20682047D01*
X33013221Y20818410D01*
X33007787Y20826542D01*
X32924633Y20982113D01*
X32920886Y20991157D01*
X32869681Y21159960D01*
X32867772Y21169557D01*
X32850241Y21347557D01*
X32850000Y21352450D01*
X32850000Y21547550D01*
X32850241Y21552443D01*
X32867772Y21730443D01*
X32870639Y21744857D01*
X32869526Y21745078D01*
X32868202Y21802355D01*
X32844660Y21839654D01*
X32163603Y22520711D01*
X32092893Y22550000D01*
X20257107Y22550000D01*
X20186397Y22520711D01*
X17785620Y20119934D01*
X17779667Y20114849D01*
X17763740Y20103278D01*
X17751808Y20093087D01*
X17740681Y20081960D01*
X17728103Y20072821D01*
X17714077Y20065675D01*
X17700698Y20057476D01*
X17687961Y20048222D01*
X17674111Y20041165D01*
X17659138Y20036300D01*
X17644640Y20030295D01*
X17630614Y20023148D01*
X17615835Y20018346D01*
X17600288Y20015884D01*
X17585028Y20012220D01*
X17570064Y20007358D01*
X17554700Y20004924D01*
X17538960Y20004924D01*
X17523317Y20003693D01*
X17503882Y20000615D01*
X17496069Y20000000D01*
X12998548Y20000000D01*
X12939221Y19980500D01*
X12903032Y19929605D01*
X12917647Y19841223D01*
X12927179Y19828103D01*
X12976851Y19730617D01*
X12981654Y19715836D01*
X12998769Y19607772D01*
X12998769Y19592228D01*
X12981654Y19484164D01*
X12976851Y19469383D01*
X12927179Y19371896D01*
X12918043Y19359322D01*
X12879289Y19320568D01*
X12850000Y19249858D01*
X12850000Y17004914D01*
X12849042Y16995183D01*
X12832891Y16913986D01*
X12825498Y16896140D01*
X12779509Y16827312D01*
X12773301Y16819747D01*
X12728058Y16774504D01*
X12698769Y16703794D01*
X12698769Y16692228D01*
X12681654Y16584164D01*
X12676851Y16569383D01*
X12627179Y16471896D01*
X12618043Y16459322D01*
X12540678Y16381957D01*
X12528104Y16372821D01*
X12430617Y16323149D01*
X12415836Y16318346D01*
X12307772Y16301231D01*
X12292228Y16301231D01*
X12292228Y300000D01*
X23537228Y300000D01*
X23537228Y8851231D01*
X23429164Y8868346D01*
X23414383Y8873149D01*
X23316896Y8922821D01*
X23304322Y8931957D01*
X23226957Y9009322D01*
X23217821Y9021896D01*
X23168149Y9119383D01*
X23163346Y9134164D01*
X23146231Y9242228D01*
X23146231Y9253795D01*
X23116942Y9324505D01*
X19970736Y12470711D01*
X19900026Y12500000D01*
X19145142Y12500000D01*
X19074432Y12470711D01*
X19035678Y12431957D01*
X19023104Y12422821D01*
X18925617Y12373149D01*
X18910836Y12368346D01*
X18802772Y12351231D01*
X18787228Y12351231D01*
X18679164Y12368346D01*
X18664383Y12373149D01*
X18566896Y12422821D01*
X18554322Y12431957D01*
X18476957Y12509322D01*
X18467821Y12521896D01*
X18418149Y12619383D01*
X18413346Y12634164D01*
X18396231Y12742228D01*
X18396231Y12757772D01*
X18413346Y12865836D01*
X18418149Y12880617D01*
X18467821Y12978104D01*
X18476957Y12990678D01*
X18554322Y13068043D01*
X18566896Y13077179D01*
X18664383Y13126851D01*
X18679164Y13131654D01*
X18787228Y13148769D01*
X18802772Y13148769D01*
X18910836Y13131654D01*
X18925617Y13126851D01*
X19023104Y13077179D01*
X19035678Y13068043D01*
X19074432Y13029289D01*
X19145142Y13000000D01*
X20040087Y13000000D01*
X20049818Y12999042D01*
X20131012Y12982891D01*
X20148860Y12975498D01*
X20173157Y12959263D01*
X20213565Y12932263D01*
X20220375Y12925446D01*
X20225905Y12922648D01*
X23470495Y9678058D01*
X23541205Y9648769D01*
X23552772Y9648769D01*
X23660836Y9631654D01*
X23675617Y9626851D01*
X23773104Y9577179D01*
X23785678Y9568043D01*
X23863043Y9490678D01*
X23872179Y9478104D01*
X23921851Y9380617D01*
X23926654Y9365836D01*
X23943769Y9257772D01*
X23943769Y9242228D01*
X23926654Y9134164D01*
X23921851Y9119383D01*
X23872179Y9021896D01*
X23863043Y9009322D01*
X23785678Y8931957D01*
X23773104Y8922821D01*
X23675617Y8873149D01*
X23660836Y8868346D01*
X23552772Y8851231D01*
X23537228Y8851231D01*
X23537228Y300000D01*
X33702450Y300000D01*
X33702450Y2050000D01*
X33697557Y2050241D01*
X33519557Y2067772D01*
X33509960Y2069681D01*
X33341157Y2120886D01*
X33332113Y2124633D01*
X33176542Y2207787D01*
X33168410Y2213221D01*
X33032047Y2325132D01*
X33025132Y2332047D01*
X32913221Y2468410D01*
X32907787Y2476542D01*
X32824633Y2632113D01*
X32820886Y2641157D01*
X32769681Y2809960D01*
X32767772Y2819557D01*
X32750482Y2995106D01*
X32750482Y3004894D01*
X32767772Y3180443D01*
X32769681Y3190040D01*
X32820886Y3358843D01*
X32824633Y3367887D01*
X32907787Y3523458D01*
X32913221Y3531590D01*
X32996435Y3632985D01*
X32996435Y10150255D01*
X32740287Y10168575D01*
X32733225Y10169590D01*
X32482287Y10224178D01*
X32475446Y10226187D01*
X32234831Y10315932D01*
X32228344Y10318894D01*
X32002951Y10441969D01*
X31996954Y10445823D01*
X31791367Y10599722D01*
X31785984Y10604387D01*
X31604387Y10785984D01*
X31599722Y10791367D01*
X31445823Y10996953D01*
X31441969Y11002950D01*
X31318895Y11228344D01*
X31315932Y11234831D01*
X31226187Y11475446D01*
X31224178Y11482287D01*
X31169590Y11733225D01*
X31168575Y11740287D01*
X31150255Y11996435D01*
X31150255Y12003565D01*
X31168575Y12259713D01*
X31169590Y12266775D01*
X31224178Y12517713D01*
X31226187Y12524554D01*
X31315932Y12765169D01*
X31318894Y12771656D01*
X31441966Y12997045D01*
X31445823Y13003046D01*
X31599722Y13208633D01*
X31604387Y13214016D01*
X31785984Y13395613D01*
X31791367Y13400278D01*
X31996953Y13554177D01*
X32002950Y13558031D01*
X32228344Y13681105D01*
X32234831Y13684068D01*
X32475446Y13773813D01*
X32482287Y13775822D01*
X32733225Y13830410D01*
X32740287Y13831425D01*
X32996435Y13849745D01*
X33003565Y13849745D01*
X33259713Y13831425D01*
X33266775Y13830410D01*
X33517713Y13775822D01*
X33524554Y13773813D01*
X33765169Y13684068D01*
X33771656Y13681106D01*
X33997049Y13558031D01*
X34003046Y13554177D01*
X34208633Y13400278D01*
X34214016Y13395613D01*
X34395613Y13214016D01*
X34400278Y13208633D01*
X34554177Y13003047D01*
X34558031Y12997050D01*
X34681105Y12771656D01*
X34684068Y12765169D01*
X34773813Y12524554D01*
X34775822Y12517713D01*
X34830410Y12266775D01*
X34831425Y12259713D01*
X34849745Y12003565D01*
X34849745Y11996435D01*
X34831425Y11740287D01*
X34830410Y11733225D01*
X34775822Y11482287D01*
X34773813Y11475446D01*
X34684068Y11234831D01*
X34681106Y11228344D01*
X34558031Y11002951D01*
X34554177Y10996954D01*
X34400278Y10791367D01*
X34395613Y10785984D01*
X34214016Y10604387D01*
X34208633Y10599722D01*
X34003047Y10445823D01*
X33997050Y10441969D01*
X33771656Y10318895D01*
X33765169Y10315932D01*
X33524554Y10226187D01*
X33517713Y10224178D01*
X33266775Y10169590D01*
X33259713Y10168575D01*
X33003565Y10150255D01*
X32996435Y10150255D01*
X32996435Y3632985D01*
X33025132Y3667953D01*
X33032047Y3674868D01*
X33168410Y3786779D01*
X33176542Y3792213D01*
X33332113Y3875367D01*
X33341157Y3879114D01*
X33509960Y3930319D01*
X33519557Y3932228D01*
X33697557Y3949759D01*
X33702450Y3950000D01*
X33897550Y3950000D01*
X33902443Y3949759D01*
X34080443Y3932228D01*
X34090040Y3930319D01*
X34258843Y3879114D01*
X34267887Y3875367D01*
X34423458Y3792213D01*
X34431590Y3786779D01*
X34567953Y3674868D01*
X34574868Y3667953D01*
X34686779Y3531590D01*
X34692213Y3523458D01*
X34775367Y3367887D01*
X34779114Y3358843D01*
X34830319Y3190040D01*
X34832228Y3180443D01*
X34849518Y3004894D01*
X34849518Y2995106D01*
X34832228Y2819557D01*
X34830319Y2809960D01*
X34779114Y2641157D01*
X34775367Y2632113D01*
X34692213Y2476542D01*
X34686779Y2468410D01*
X34574868Y2332047D01*
X34567953Y2325132D01*
X34431590Y2213221D01*
X34423458Y2207787D01*
X34267887Y2124633D01*
X34258843Y2120886D01*
X34090040Y2069681D01*
X34080443Y2067772D01*
X33902443Y2050241D01*
X33897550Y2050000D01*
X33702450Y2050000D01*
X33702450Y300000D01*
X36100001Y300000D01*
X36159328Y319500D01*
X36200000Y399999D01*
X36200000Y23600001D01*
X36180500Y23659328D01*
X36100001Y23700000D01*
X399999Y23700000D01*
X340672Y23680500D01*
X300000Y23600001D01*
X300000Y399999D01*
G37*
G04 --- BOARD END --- *
G04 #@! TF.MD5,0c70101edac99aade40099cf28dc9c87*
M02*
