G04 --- HEADER BEGIN --- *
G04 #@! TF.GenerationSoftware,LibrePCB,LibrePCB,2.0.1*
G04 #@! TF.CreationDate,2026-04-17T23:48:40*
G04 #@! TF.ProjectId,Lab-Lamp,1f94bfc4-d831-43e1-86c0-4bc184f53f1f,v1*
G04 #@! TF.Part,Single*
G04 #@! TF.SameCoordinates*
G04 #@! TF.FileFunction,Paste,Top*
G04 #@! TF.FilePolarity,Positive*
%FSLAX66Y66*%
%MOMM*%
G01*
G75*
G04 --- HEADER END --- *
G04 --- APERTURE LIST BEGIN --- *
%AMROUNDEDRECT10*20,1,0.2,-0.4,0.0,0.4,0.0,0.0*20,1,0.125,-0.4375,0.0,0.4375,0.0,0.0*1,1,0.075,-0.4,0.0625*1,1,0.075,0.4,0.0625*1,1,0.075,0.4,-0.0625*1,1,0.075,-0.4,-0.0625*%
%ADD10ROUNDEDRECT10*%
%AMROUNDEDRECT11*20,1,0.2,-0.3375,0.0,0.3375,0.0,90.0*20,1,0.125,-0.375,0.0,0.375,0.0,90.0*1,1,0.075,-0.0625,-0.3375*1,1,0.075,-0.0625,0.3375*1,1,0.075,0.0625,0.3375*1,1,0.075,0.0625,-0.3375*%
%ADD11ROUNDEDRECT11*%
%AMROUNDEDRECT12*20,1,0.2,-0.3375,0.0,0.3375,0.0,0.0*20,1,0.125,-0.375,0.0,0.375,0.0,0.0*1,1,0.075,-0.3375,0.0625*1,1,0.075,0.3375,0.0625*1,1,0.075,0.3375,-0.0625*1,1,0.075,-0.3375,-0.0625*%
%ADD12ROUNDEDRECT12*%
%AMROUNDEDRECT13*20,1,0.2,-0.3,0.0,0.3,0.0,90.0*20,1,0.125,-0.3375,0.0,0.3375,0.0,90.0*1,1,0.075,-0.0625,-0.3*1,1,0.075,-0.0625,0.3*1,1,0.075,0.0625,0.3*1,1,0.075,0.0625,-0.3*%
%ADD13ROUNDEDRECT13*%
%AMROUNDEDRECT14*20,1,0.16,-0.4125,0.0,0.4125,0.0,0.0*20,1,0.1,-0.4425,0.0,0.4425,0.0,0.0*1,1,0.06,-0.4125,0.05*1,1,0.06,0.4125,0.05*1,1,0.06,0.4125,-0.05*1,1,0.06,-0.4125,-0.05*%
%ADD14ROUNDEDRECT14*%
%AMROUNDEDRECT15*20,1,0.34,-0.296875,0.0,0.296875,0.0,90.0*20,1,0.31875,-0.3075,0.0,0.3075,0.0,90.0*1,1,0.02125,-0.159375,-0.296875*1,1,0.02125,-0.159375,0.296875*1,1,0.02125,0.159375,0.296875*1,1,0.02125,0.159375,-0.296875*%
%ADD15ROUNDEDRECT15*%
%AMROUNDEDRECT16*20,1,0.16,-0.35,0.0,0.35,0.0,90.0*20,1,0.1,-0.38,0.0,0.38,0.0,90.0*1,1,0.06,-0.05,-0.35*1,1,0.06,-0.05,0.35*1,1,0.06,0.05,0.35*1,1,0.06,0.05,-0.35*%
%ADD16ROUNDEDRECT16*%
%AMROUNDEDRECT17*20,1,0.56,-0.4125,0.0,0.4125,0.0,90.0*20,1,0.525,-0.43,0.0,0.43,0.0,90.0*1,1,0.035,-0.2625,-0.4125*1,1,0.035,-0.2625,0.4125*1,1,0.035,0.2625,0.4125*1,1,0.035,0.2625,-0.4125*%
%ADD17ROUNDEDRECT17*%
%ADD18R,1.06X0.76*%
%ADD19R,0.43X0.28*%
%ADD20R,0.42X0.32*%
%ADD21R,0.28X0.43*%
%ADD22R,0.64X0.69*%
%ADD23R,2.82X1.72*%
%AMROUNDEDRECT24*20,1,0.76,-0.8375,0.0,0.8375,0.0,90.0*20,1,0.475,-0.98,0.0,0.98,0.0,90.0*1,1,0.285,-0.2375,-0.8375*1,1,0.285,-0.2375,0.8375*1,1,0.285,0.2375,0.8375*1,1,0.285,0.2375,-0.8375*%
%ADD24ROUNDEDRECT24*%
%AMROUNDEDRECT25*20,1,0.264,-0.5675,0.0,0.5675,0.0,90.0*20,1,0.165,-0.617,0.0,0.617,0.0,90.0*1,1,0.099,-0.0825,-0.5675*1,1,0.099,-0.0825,0.5675*1,1,0.099,0.0825,0.5675*1,1,0.099,0.0825,-0.5675*%
%ADD25ROUNDEDRECT25*%
%ADD26R,2.0X7.5*%
%ADD27R,0.32X0.42*%
%ADD28R,0.96X0.96*%
G04 --- APERTURE LIST END --- *
G04 --- BOARD BEGIN --- *
D10*
G04 #@! TO.C,U1*
X15587500Y9800000D03*
D11*
X14250000Y13400000D03*
X14750000Y13400000D03*
D12*
X12850000Y12700000D03*
X15650000Y12700000D03*
X12850000Y12200000D03*
X15650000Y13200000D03*
D13*
X15250000Y13437500D03*
D14*
X15587500Y10425000D03*
D13*
X15250000Y9562500D03*
D10*
X12912500Y9800000D03*
D15*
X13162500Y10675000D03*
D12*
X15650000Y12200000D03*
D13*
X13250000Y9562500D03*
D14*
X15587500Y11550000D03*
X15587500Y10925000D03*
D16*
X14000000Y9600000D03*
D14*
X12912500Y10425000D03*
X12913000Y11550000D03*
X12912500Y10925000D03*
D16*
X14500000Y9600000D03*
D11*
X13750000Y13400000D03*
D15*
X15337000Y10675000D03*
D12*
X12850000Y13200000D03*
D13*
X13250000Y13437500D03*
D17*
X14250000Y10200000D03*
D18*
G04 #@! TO.C,C8*
X19000000Y13125000D03*
X19000000Y14875000D03*
D19*
G04 #@! TO.C,R2*
X13500000Y14575000D03*
X13500000Y15425000D03*
D20*
G04 #@! TO.C,C16*
X3750000Y7350000D03*
X3750000Y8150000D03*
G04 #@! TO.C,C14*
X20250000Y7350000D03*
X20250000Y8150000D03*
D21*
G04 #@! TO.C,R7*
X4825000Y10000000D03*
X5675000Y10000000D03*
G04 #@! TO.C,R10*
X7425000Y10750000D03*
X6575000Y10750000D03*
D19*
G04 #@! TO.C,R1*
X11500000Y9925000D03*
X11500000Y9075000D03*
D18*
G04 #@! TO.C,C12*
X20750000Y6125000D03*
X20750000Y4375000D03*
D22*
G04 #@! TO.C,C10*
X19000000Y10025000D03*
X19000000Y11475000D03*
D23*
G04 #@! TO.C,U3*
X6500000Y7650000D03*
D24*
X4200000Y1850000D03*
X6500000Y1850000D03*
X8800000Y1850000D03*
D22*
G04 #@! TO.C,C11*
X17625000Y10025000D03*
X17625000Y11475000D03*
D19*
G04 #@! TO.C,R8*
X1750000Y7925000D03*
X1750000Y7075000D03*
D21*
G04 #@! TO.C,R3*
X5075000Y19250000D03*
X5925000Y19250000D03*
D20*
G04 #@! TO.C,C15*
X9250000Y7350000D03*
X9250000Y8150000D03*
G04 #@! TO.C,C13*
X21250000Y7350000D03*
X21250000Y8150000D03*
D18*
G04 #@! TO.C,C9*
X20750000Y13125000D03*
X20750000Y14875000D03*
D20*
G04 #@! TO.C,C5*
X15750000Y14600000D03*
X15750000Y15400000D03*
D19*
G04 #@! TO.C,R4*
X12750000Y14575000D03*
X12750000Y15425000D03*
D25*
G04 #@! TO.C,U2*
X6625000Y12100000D03*
X5975000Y12100000D03*
X7925000Y12100000D03*
X7925000Y17900000D03*
X7275000Y17900000D03*
X2075000Y12100000D03*
X5325000Y17900000D03*
X6625000Y17900000D03*
X5325000Y12100000D03*
X2725000Y17900000D03*
X7275000Y12100000D03*
X5975000Y17900000D03*
X4025000Y12100000D03*
X2725000Y12100000D03*
X4675000Y17900000D03*
X4675000Y12100000D03*
X3375000Y12100000D03*
X4025000Y17900000D03*
X3375000Y17900000D03*
X2075000Y17900000D03*
D26*
G04 #@! TO.C,L1*
X12750000Y4500000D03*
X18250000Y4500000D03*
D19*
G04 #@! TO.C,R6*
X15000000Y14575000D03*
X15000000Y15425000D03*
D18*
G04 #@! TO.C,C7*
X17250000Y13125000D03*
X17250000Y14875000D03*
D21*
G04 #@! TO.C,R11*
X2175000Y19250000D03*
X1325000Y19250000D03*
D27*
G04 #@! TO.C,C2*
X3350000Y10750000D03*
X4150000Y10750000D03*
G04 #@! TO.C,C3*
X3350000Y10000000D03*
X4150000Y10000000D03*
D28*
G04 #@! TO.C,LED1*
X1750000Y5800000D03*
X1750000Y3700000D03*
D21*
G04 #@! TO.C,R9*
X9050000Y10750000D03*
X8200000Y10750000D03*
D19*
G04 #@! TO.C,R5*
X14250000Y14575000D03*
X14250000Y15425000D03*
D18*
G04 #@! TO.C,C6*
X20500000Y11375000D03*
X20500000Y9625000D03*
D20*
G04 #@! TO.C,C1*
X10750000Y9900000D03*
X10750000Y9100000D03*
D27*
G04 #@! TO.C,C4*
X5650000Y10750000D03*
X4850000Y10750000D03*
G04 --- BOARD END --- *
G04 #@! TF.MD5,3cf6429d83d080e0b5d7a2b8bdfe9dd2*
M02*
