G04 --- HEADER BEGIN --- *
G04 #@! TF.GenerationSoftware,LibrePCB,LibrePCB,2.1.0*
G04 #@! TF.CreationDate,2026-05-25T16:10:25*
G04 #@! TF.ProjectId,Lab-Lamp,1f94bfc4-d831-43e1-86c0-4bc184f53f1f,v1*
G04 #@! TF.Part,Single*
G04 #@! TF.SameCoordinates*
G04 #@! TF.FileFunction,Copper,L1,Top*
G04 #@! TF.FilePolarity,Positive*
%FSLAX66Y66*%
%MOMM*%
G01*
G75*
G04 --- HEADER END --- *
G04 --- APERTURE LIST BEGIN --- *
G04 #@! TA.AperFunction,SMDPad,CuDef*
%AMROUNDEDRECT10*20,1,0.25,-0.4,0.0,0.4,0.0,0.0*20,1,0.125,-0.4625,0.0,0.4625,0.0,0.0*1,1,0.125,-0.4,0.0625*1,1,0.125,0.4,0.0625*1,1,0.125,0.4,-0.0625*1,1,0.125,-0.4,-0.0625*%
%ADD10ROUNDEDRECT10*%
%AMROUNDEDRECT11*20,1,0.25,-0.3375,0.0,0.3375,0.0,90.0*20,1,0.125,-0.4,0.0,0.4,0.0,90.0*1,1,0.125,-0.0625,-0.3375*1,1,0.125,-0.0625,0.3375*1,1,0.125,0.0625,0.3375*1,1,0.125,0.0625,-0.3375*%
%ADD11ROUNDEDRECT11*%
%AMROUNDEDRECT12*20,1,0.25,-0.3375,0.0,0.3375,0.0,0.0*20,1,0.125,-0.4,0.0,0.4,0.0,0.0*1,1,0.125,-0.3375,0.0625*1,1,0.125,0.3375,0.0625*1,1,0.125,0.3375,-0.0625*1,1,0.125,-0.3375,-0.0625*%
%ADD12ROUNDEDRECT12*%
%AMROUNDEDRECT13*20,1,0.25,-0.3,0.0,0.3,0.0,90.0*20,1,0.125,-0.3625,0.0,0.3625,0.0,90.0*1,1,0.125,-0.0625,-0.3*1,1,0.125,-0.0625,0.3*1,1,0.125,0.0625,0.3*1,1,0.125,0.0625,-0.3*%
%ADD13ROUNDEDRECT13*%
%AMROUNDEDRECT14*20,1,0.2,-0.4125,0.0,0.4125,0.0,0.0*20,1,0.1,-0.4625,0.0,0.4625,0.0,0.0*1,1,0.1,-0.4125,0.05*1,1,0.1,0.4125,0.05*1,1,0.1,0.4125,-0.05*1,1,0.1,-0.4125,-0.05*%
%ADD14ROUNDEDRECT14*%
%AMROUNDEDRECT15*20,1,0.425,-0.296875,0.0,0.296875,0.0,90.0*20,1,0.31875,-0.35,0.0,0.35,0.0,90.0*1,1,0.10625,-0.159375,-0.296875*1,1,0.10625,-0.159375,0.296875*1,1,0.10625,0.159375,0.296875*1,1,0.10625,0.159375,-0.296875*%
%ADD15ROUNDEDRECT15*%
%AMROUNDEDRECT16*20,1,0.2,-0.35,0.0,0.35,0.0,90.0*20,1,0.1,-0.4,0.0,0.4,0.0,90.0*1,1,0.1,-0.05,-0.35*1,1,0.1,-0.05,0.35*1,1,0.1,0.05,0.35*1,1,0.1,0.05,-0.35*%
%ADD16ROUNDEDRECT16*%
%AMROUNDEDRECT17*20,1,0.7,-0.4125,0.0,0.4125,0.0,90.0*20,1,0.525,-0.5,0.0,0.5,0.0,90.0*1,1,0.175,-0.2625,-0.4125*1,1,0.175,-0.2625,0.4125*1,1,0.175,0.2625,0.4125*1,1,0.175,0.2625,-0.4125*%
%ADD17ROUNDEDRECT17*%
%ADD18R,1.25X0.95*%
%ADD19R,0.5X0.35*%
G04 #@! TA.AperFunction,ComponentPad*
%ADD20O,2.19X1.587*%
%ADD21R,2.19X1.587*%
G04 #@! TA.AperFunction,SMDPad,CuDef*
%ADD22R,0.5X0.4*%
G04 #@! TA.AperFunction,BGAPad,CuDef*
%ADD23C,1.0*%
G04 #@! TA.AperFunction,SMDPad,CuDef*
%ADD24R,0.35X0.5*%
G04 #@! TA.AperFunction,ComponentPad*
%ADD25C,5.7*%
G04 #@! TA.AperFunction,SMDPad,CuDef*
%ADD26R,0.8X0.85*%
%AMROUNDEDRECT27*20,1,0.6,-0.2,0.0,0.2,0.0,0.0*20,1,0.3,-0.35,0.0,0.35,0.0,0.0*1,1,0.3,-0.2,0.15*1,1,0.3,0.2,0.15*1,1,0.3,0.2,-0.15*1,1,0.3,-0.2,-0.15*%
%ADD27ROUNDEDRECT27*%
%ADD28R,3.25X2.15*%
%AMROUNDEDRECT29*20,1,0.95,-0.8375,0.0,0.8375,0.0,90.0*20,1,0.475,-1.075,0.0,1.075,0.0,90.0*1,1,0.475,-0.2375,-0.8375*1,1,0.475,-0.2375,0.8375*1,1,0.475,0.2375,0.8375*1,1,0.475,0.2375,-0.8375*%
%ADD29ROUNDEDRECT29*%
G04 #@! TA.AperFunction,ComponentPad*
%ADD30O,1.587X2.19*%
%ADD31R,1.587X2.19*%
G04 #@! TA.AperFunction,SMDPad,CuDef*
%AMROUNDEDRECT32*20,1,0.33,-0.5675,0.0,0.5675,0.0,90.0*20,1,0.165,-0.65,0.0,0.65,0.0,90.0*1,1,0.165,-0.0825,-0.5675*1,1,0.165,-0.0825,0.5675*1,1,0.165,0.0825,0.5675*1,1,0.165,0.0825,-0.5675*%
%ADD32ROUNDEDRECT32*%
%AMROUNDEDRECT33*20,1,2.5,-3.75,0.0,3.75,0.0,90.0*20,1,2.0,-4.0,0.0,4.0,0.0,90.0*1,1,0.5,-1.0,-3.75*1,1,0.5,-1.0,3.75*1,1,0.5,1.0,3.75*1,1,0.5,1.0,-3.75*%
%ADD33ROUNDEDRECT33*%
%ADD34R,0.4X0.5*%
G04 #@! TA.AperFunction,ViaPad*
%ADD35C,0.5*%
G04 #@! TA.AperFunction,Conductor*
%ADD36C,0.2*%
%ADD37C,0.3*%
%ADD38C,0.8*%
%ADD39C,0.4*%
%ADD40C,0.5*%
%ADD41C,0.01*%
G04 #@! TD*
G04 --- APERTURE LIST END --- *
G04 --- BOARD BEGIN --- *
D10*
G04 #@! TO.N,FAULT*
G04 #@! TO.C,U1*
G04 #@! TO.P,U1,10,FAULT*
X16182500Y9800000D03*
D11*
G04 #@! TO.N,N4*
G04 #@! TO.P,U1,18,ISET*
X14845000Y13400000D03*
G04 #@! TO.N,N5*
G04 #@! TO.P,U1,17,IREF*
X15345000Y13400000D03*
D12*
G04 #@! TO.N,N/C*
G04 #@! TO.P,U1,2*
X13445000Y12700000D03*
G04 #@! TO.N,GND*
G04 #@! TO.P,U1,15,AGND*
X16245000Y12700000D03*
G04 #@! TO.N,PWM_OUT*
G04 #@! TO.P,U1,3,EN/DIM*
X13445000Y12200000D03*
G04 #@! TO.N,N6*
G04 #@! TO.P,U1,16,VCC*
X16245000Y13200000D03*
D13*
X15845000Y13437500D03*
D14*
G04 #@! TO.N,GND*
G04 #@! TO.P,U1,12,PGND*
X16182500Y10425000D03*
D13*
G04 #@! TO.N,FAULT*
G04 #@! TO.P,U1,10,FAULT*
X15845000Y9562500D03*
D10*
G04 #@! TO.N,N8*
G04 #@! TO.P,U1,7,BST*
X13507500Y9800000D03*
D15*
G04 #@! TO.N,GND*
G04 #@! TO.P,U1,5,PGND*
X13757500Y10675000D03*
D12*
G04 #@! TO.P,U1,14,INGND*
X16245000Y12200000D03*
D13*
G04 #@! TO.N,N8*
G04 #@! TO.P,U1,7,BST*
X13845000Y9562500D03*
D14*
G04 #@! TO.N,Vin*
G04 #@! TO.P,U1,13,VIN*
X16182500Y11550000D03*
G04 #@! TO.N,GND*
G04 #@! TO.P,U1,12,PGND*
X16182500Y10925000D03*
D16*
G04 #@! TO.N,N7*
G04 #@! TO.P,U1,8,SW*
X14595000Y9600000D03*
D14*
G04 #@! TO.N,GND*
G04 #@! TO.P,U1,5,PGND*
X13507500Y10425000D03*
G04 #@! TO.N,Vin*
G04 #@! TO.P,U1,4,VIN*
X13508000Y11550000D03*
G04 #@! TO.N,GND*
G04 #@! TO.P,U1,5,PGND*
X13507500Y10925000D03*
D16*
G04 #@! TO.N,N7*
G04 #@! TO.P,U1,8,SW*
X15095000Y9600000D03*
D11*
G04 #@! TO.N,N12*
G04 #@! TO.P,U1,19,NTC*
X14345000Y13400000D03*
D15*
G04 #@! TO.N,GND*
G04 #@! TO.P,U1,12,PGND*
X15932000Y10675000D03*
D12*
G04 #@! TO.N,N2*
G04 #@! TO.P,U1,1,DUTY*
X13445000Y13200000D03*
D13*
X13845000Y13437500D03*
D17*
G04 #@! TO.N,N7*
G04 #@! TO.P,U1,8,SW*
X14845000Y10200000D03*
D18*
G04 #@! TO.N,Vin*
G04 #@! TO.C,C8*
G04 #@! TO.P,C8,1,1*
X19595000Y13125000D03*
G04 #@! TO.N,GND*
G04 #@! TO.P,C8,2,2*
X19595000Y14875000D03*
D19*
G04 #@! TO.N,N12*
G04 #@! TO.C,R2*
G04 #@! TO.P,R2,2,2*
X14095000Y14575000D03*
G04 #@! TO.N,GND*
G04 #@! TO.P,R2,1,1*
X14095000Y15425000D03*
D20*
G04 #@! TO.C,J2*
G04 #@! TO.P,J2,2,2*
X24095000Y8770000D03*
D21*
G04 #@! TO.N,OUT*
G04 #@! TO.P,J2,1,1*
X24095000Y6230000D03*
D22*
G04 #@! TO.N,3.3V*
G04 #@! TO.C,C16*
G04 #@! TO.P,C16,1,1*
X4345000Y7350000D03*
G04 #@! TO.N,GND*
G04 #@! TO.P,C16,2,2*
X4345000Y8150000D03*
D20*
G04 #@! TO.C,J3*
G04 #@! TO.P,J3,2,2*
X24095000Y14770000D03*
D21*
G04 #@! TO.N,Vin*
G04 #@! TO.P,J3,1,1*
X24095000Y12230000D03*
D22*
G04 #@! TO.N,OUT*
G04 #@! TO.C,C14*
G04 #@! TO.P,C14,1,1*
X20845000Y7350000D03*
G04 #@! TO.N,GND*
G04 #@! TO.P,C14,2,2*
X20845000Y8150000D03*
D23*
G04 #@! TO.N,ADC_TEMP*
G04 #@! TO.C,TP1*
G04 #@! TO.P,TP1,1,1*
X9845000Y12250000D03*
D24*
G04 #@! TO.N,3.3V*
G04 #@! TO.C,R7*
G04 #@! TO.P,R7,2,2*
X5420000Y10000000D03*
G04 #@! TO.N,N10*
G04 #@! TO.P,R7,1,1*
X6270000Y10000000D03*
G04 #@! TO.N,ADC_V_IN*
G04 #@! TO.C,R10*
G04 #@! TO.P,R10,2,2*
X8020000Y10750000D03*
G04 #@! TO.N,GND*
G04 #@! TO.P,R10,1,1*
X7170000Y10750000D03*
D25*
G04 #@! TO.C,H1*
G04 #@! TO.P,H1,1,1*
X22095000Y19500000D03*
D19*
G04 #@! TO.N,N3*
G04 #@! TO.C,R1*
G04 #@! TO.P,R1,2,2*
X12095000Y9925000D03*
G04 #@! TO.N,N8*
G04 #@! TO.P,R1,1,1*
X12095000Y9075000D03*
D18*
G04 #@! TO.N,OUT*
G04 #@! TO.C,C12*
G04 #@! TO.P,C12,1,1*
X21345000Y6125000D03*
G04 #@! TO.N,GND*
G04 #@! TO.P,C12,2,2*
X21345000Y4375000D03*
D26*
G04 #@! TO.C,C10*
G04 #@! TO.P,C10,2,2*
X19595000Y10025000D03*
G04 #@! TO.N,Vin*
G04 #@! TO.P,C10,1,1*
X19595000Y11475000D03*
D27*
G04 #@! TO.N,GND*
G04 #@! TO.C,LED2*
G04 #@! TO.P,LED2,K,C*
X12065000Y15080000D03*
G04 #@! TO.N,N14*
G04 #@! TO.P,LED2,A,A*
X12065000Y14130000D03*
D28*
G04 #@! TO.N,3.3V*
G04 #@! TO.C,U3*
G04 #@! TO.P,U3,4,OUT*
X7095000Y7650000D03*
D29*
G04 #@! TO.N,GND*
G04 #@! TO.P,U3,1,GND*
X4795000Y1850000D03*
G04 #@! TO.N,3.3V*
G04 #@! TO.P,U3,2,OUT*
X7095000Y1850000D03*
G04 #@! TO.N,Vin*
G04 #@! TO.P,U3,3,IN*
X9395000Y1850000D03*
D26*
G04 #@! TO.N,GND*
G04 #@! TO.C,C11*
G04 #@! TO.P,C11,2,2*
X18220000Y10025000D03*
G04 #@! TO.N,Vin*
G04 #@! TO.P,C11,1,1*
X18220000Y11475000D03*
D30*
G04 #@! TO.N,SWDIO*
G04 #@! TO.C,J1*
G04 #@! TO.P,J1,2,2*
X7615000Y21500000D03*
D31*
G04 #@! TO.N,3.3V*
G04 #@! TO.P,J1,1,1*
X10155000Y21500000D03*
D30*
G04 #@! TO.N,GND*
G04 #@! TO.P,J1,4,4*
X2535000Y21500000D03*
G04 #@! TO.N,SWCLK*
G04 #@! TO.P,J1,3,3*
X5075000Y21500000D03*
D27*
G04 #@! TO.N,GND*
G04 #@! TO.C,LED1*
G04 #@! TO.P,LED1,K,C*
X2340000Y5240000D03*
G04 #@! TO.N,N11*
G04 #@! TO.P,LED1,A,A*
X2340000Y6190000D03*
D19*
G04 #@! TO.N,3.3V*
G04 #@! TO.C,R8*
G04 #@! TO.P,R8,2,2*
X2345000Y7925000D03*
G04 #@! TO.N,N11*
G04 #@! TO.P,R8,1,1*
X2345000Y7075000D03*
D23*
G04 #@! TO.N,3.3V*
G04 #@! TO.C,TP5*
G04 #@! TO.P,TP5,1,1*
X1270000Y10160000D03*
D24*
G04 #@! TO.C,R3*
G04 #@! TO.P,R3,2,2*
X5670000Y19250000D03*
G04 #@! TO.N,FAULT*
G04 #@! TO.P,R3,1,1*
X6520000Y19250000D03*
D22*
G04 #@! TO.N,Vin*
G04 #@! TO.C,C15*
G04 #@! TO.P,C15,1,1*
X9845000Y7350000D03*
G04 #@! TO.N,GND*
G04 #@! TO.P,C15,2,2*
X9845000Y8150000D03*
G04 #@! TO.N,OUT*
G04 #@! TO.C,C13*
G04 #@! TO.P,C13,1,1*
X21845000Y7350000D03*
G04 #@! TO.N,GND*
G04 #@! TO.P,C13,2,2*
X21845000Y8150000D03*
D18*
G04 #@! TO.N,Vin*
G04 #@! TO.C,C9*
G04 #@! TO.P,C9,1,1*
X21345000Y13125000D03*
G04 #@! TO.N,GND*
G04 #@! TO.P,C9,2,2*
X21345000Y14875000D03*
D22*
G04 #@! TO.N,N6*
G04 #@! TO.C,C5*
G04 #@! TO.P,C5,1,1*
X16345000Y14600000D03*
G04 #@! TO.N,GND*
G04 #@! TO.P,C5,2,2*
X16345000Y15400000D03*
D19*
G04 #@! TO.N,N2*
G04 #@! TO.C,R4*
G04 #@! TO.P,R4,2,2*
X13345000Y14575000D03*
G04 #@! TO.N,GND*
G04 #@! TO.P,R4,1,1*
X13345000Y15425000D03*
D32*
G04 #@! TO.N,N/C*
G04 #@! TO.C,U2*
G04 #@! TO.P,U2,8,PA1*
X7220000Y12100000D03*
G04 #@! TO.P,U2,7,PA0*
X6570000Y12100000D03*
G04 #@! TO.N,ADC_TEMP*
G04 #@! TO.P,U2,10,PA3*
X8520000Y12100000D03*
G04 #@! TO.N,N15*
G04 #@! TO.P,U2,11,PA4*
X8520000Y17900000D03*
G04 #@! TO.N,N/C*
G04 #@! TO.P,U2,12,PA5*
X7870000Y17900000D03*
G04 #@! TO.N,N9*
G04 #@! TO.P,U2,1,PB7/PB8*
X2670000Y12100000D03*
G04 #@! TO.N,N/C*
G04 #@! TO.P,U2,15,PA8/PB0/PB1/PB2*
X5920000Y17900000D03*
G04 #@! TO.N,PWM_OUT*
G04 #@! TO.P,U2,13,PA6*
X7220000Y17900000D03*
G04 #@! TO.N,N10*
G04 #@! TO.P,U2,6,NRST*
X5920000Y12100000D03*
G04 #@! TO.N,SWCLK*
G04 #@! TO.P,U2,19,PA14-BOOT0/PA15*
X3320000Y17900000D03*
G04 #@! TO.N,ADC_V_IN*
G04 #@! TO.P,U2,9,PA2*
X7870000Y12100000D03*
G04 #@! TO.N,FAULT*
G04 #@! TO.P,U2,14,PA7*
X6570000Y17900000D03*
G04 #@! TO.N,3.3V*
G04 #@! TO.P,U2,4,VBAT*
X4620000Y12100000D03*
G04 #@! TO.N,N13*
G04 #@! TO.P,U2,2,PB9/PC14-OSC32_IN*
X3320000Y12100000D03*
G04 #@! TO.N,N/C*
G04 #@! TO.P,U2,16,PA9/PA11*
X5270000Y17900000D03*
G04 #@! TO.N,GND*
G04 #@! TO.P,U2,5,VSS/VSSA*
X5270000Y12100000D03*
G04 #@! TO.N,N/C*
G04 #@! TO.P,U2,3,PC15-OSC32_OUT*
X3970000Y12100000D03*
G04 #@! TO.P,U2,17,PA10/PA12*
X4620000Y17900000D03*
G04 #@! TO.N,SWDIO*
G04 #@! TO.P,U2,18,PA13*
X3970000Y17900000D03*
G04 #@! TO.N,N1*
G04 #@! TO.P,U2,20,PB3/PB4/PB5/PB6*
X2670000Y17900000D03*
D19*
G04 #@! TO.N,N15*
G04 #@! TO.C,R12*
G04 #@! TO.P,R12,2,2*
X10795000Y15030000D03*
G04 #@! TO.N,N14*
G04 #@! TO.P,R12,1,1*
X10795000Y14180000D03*
D23*
G04 #@! TO.N,GND*
G04 #@! TO.C,TP6*
G04 #@! TO.P,TP6,1,1*
X1270000Y12065000D03*
D33*
G04 #@! TO.N,N7*
G04 #@! TO.C,L1*
G04 #@! TO.P,L1,1,1*
X13345000Y4500000D03*
G04 #@! TO.N,OUT*
G04 #@! TO.P,L1,2,2*
X18845000Y4500000D03*
D19*
G04 #@! TO.N,N5*
G04 #@! TO.C,R6*
G04 #@! TO.P,R6,2,2*
X15595000Y14575000D03*
G04 #@! TO.N,GND*
G04 #@! TO.P,R6,1,1*
X15595000Y15425000D03*
D23*
G04 #@! TO.N,N13*
G04 #@! TO.C,TP4*
G04 #@! TO.P,TP4,1,1*
X1270000Y15875000D03*
D18*
G04 #@! TO.N,Vin*
G04 #@! TO.C,C7*
G04 #@! TO.P,C7,1,1*
X17845000Y13125000D03*
G04 #@! TO.N,GND*
G04 #@! TO.P,C7,2,2*
X17845000Y14875000D03*
D23*
G04 #@! TO.N,N9*
G04 #@! TO.C,TP3*
G04 #@! TO.P,TP3,1,1*
X1270000Y13970000D03*
D24*
G04 #@! TO.N,SWCLK*
G04 #@! TO.C,R11*
G04 #@! TO.P,R11,2,2*
X2770000Y19250000D03*
G04 #@! TO.N,GND*
G04 #@! TO.P,R11,1,1*
X1920000Y19250000D03*
D34*
G04 #@! TO.N,3.3V*
G04 #@! TO.C,C2*
G04 #@! TO.P,C2,1,1*
X3945000Y10750000D03*
G04 #@! TO.N,GND*
G04 #@! TO.P,C2,2,2*
X4745000Y10750000D03*
G04 #@! TO.N,3.3V*
G04 #@! TO.C,C3*
G04 #@! TO.P,C3,1,1*
X3945000Y10000000D03*
G04 #@! TO.N,GND*
G04 #@! TO.P,C3,2,2*
X4745000Y10000000D03*
D23*
G04 #@! TO.N,N1*
G04 #@! TO.C,TP2*
G04 #@! TO.P,TP2,1,1*
X1270000Y17780000D03*
D24*
G04 #@! TO.N,Vin*
G04 #@! TO.C,R9*
G04 #@! TO.P,R9,2,2*
X9645000Y10750000D03*
G04 #@! TO.N,ADC_V_IN*
G04 #@! TO.P,R9,1,1*
X8795000Y10750000D03*
D19*
G04 #@! TO.N,N4*
G04 #@! TO.C,R5*
G04 #@! TO.P,R5,2,2*
X14845000Y14575000D03*
G04 #@! TO.N,GND*
G04 #@! TO.P,R5,1,1*
X14845000Y15425000D03*
D18*
G04 #@! TO.N,Vin*
G04 #@! TO.C,C6*
G04 #@! TO.P,C6,1,1*
X21095000Y11375000D03*
G04 #@! TO.N,GND*
G04 #@! TO.P,C6,2,2*
X21095000Y9625000D03*
D22*
G04 #@! TO.N,N3*
G04 #@! TO.C,C1*
G04 #@! TO.P,C1,1,1*
X11345000Y9900000D03*
G04 #@! TO.N,N7*
G04 #@! TO.P,C1,2,2*
X11345000Y9100000D03*
D34*
G04 #@! TO.N,N10*
G04 #@! TO.C,C4*
G04 #@! TO.P,C4,1,1*
X6245000Y10750000D03*
G04 #@! TO.N,GND*
G04 #@! TO.P,C4,2,2*
X5445000Y10750000D03*
D35*
G04 #@! TD.C*
G04 #@! TD.P*
G04 #@! TO.N,FAULT*
X11095000Y12250000D03*
X15845000Y8750000D03*
D36*
X11095000Y12250000D02*
X10010000Y13335000D01*
X6570000Y17900000D02*
X6570000Y19200000D01*
X15845000Y9562500D02*
X15845000Y8750000D01*
X6570000Y17900000D02*
X6570000Y14385000D01*
X10010000Y13335000D02*
X7620000Y13335000D01*
X15845000Y9562500D02*
X15845000Y9800000D01*
X7620000Y13335000D02*
X6570000Y14385000D01*
X6520000Y19250000D02*
X6570000Y19200000D01*
X16182500Y9800000D02*
X15845000Y9800000D01*
G04 #@! TO.N,N10*
X6245000Y10750000D02*
X6245000Y10025000D01*
X6245000Y10750000D02*
X6245000Y11125000D01*
X6270000Y10000000D02*
X6245000Y10025000D01*
X5920000Y12100000D02*
X5920000Y11450000D01*
X5920000Y11450000D02*
X6245000Y11125000D01*
D35*
G04 #@! TO.N,GND*
X21720000Y3375000D03*
D36*
G04 #@! TO.N,ADC_TEMP*
X9845000Y12250000D02*
X9695000Y12100000D01*
X8520000Y12100000D02*
X9695000Y12100000D01*
D35*
G04 #@! TO.N,GND*
X14845000Y16000000D03*
D36*
X14845000Y15425000D02*
X14845000Y16000000D01*
X15595000Y15425000D02*
X14845000Y15425000D01*
D35*
X4720000Y9375000D03*
D36*
X5345000Y10750000D02*
X5270000Y10825000D01*
X5270000Y12100000D02*
X5270000Y10825000D01*
X4745000Y10750000D02*
X4745000Y10000000D01*
X4745000Y10000000D02*
X4745000Y9375000D01*
X5445000Y10750000D02*
X5345000Y10750000D01*
X4720000Y9375000D02*
X4745000Y9375000D01*
X4745000Y10750000D02*
X5345000Y10750000D01*
D35*
X4345000Y8750000D03*
D37*
X4345000Y8150000D02*
X4345000Y8750000D01*
D36*
G04 #@! TO.N,N9*
X2670000Y12100000D02*
X2670000Y12570000D01*
X1270000Y13970000D02*
X2670000Y12570000D01*
D35*
G04 #@! TO.N,GND*
X14845000Y11250000D03*
D36*
G04 #@! TO.N,N2*
X13845000Y13750000D02*
X13345000Y14250000D01*
X13845000Y13437500D02*
X13845000Y13750000D01*
X13445000Y13200000D02*
X13845000Y13200000D01*
X13345000Y14575000D02*
X13345000Y14250000D01*
X13845000Y13437500D02*
X13845000Y13200000D01*
G04 #@! TO.N,SWCLK*
X3320000Y19250000D02*
X3320000Y19995000D01*
X5075000Y21500000D02*
X3320000Y19995000D01*
X3320000Y17900000D02*
X3320000Y19250000D01*
X2770000Y19250000D02*
X3320000Y19250000D01*
G04 #@! TO.N,N6*
X16345000Y14250000D02*
X15845000Y13750000D01*
X15845000Y13437500D02*
X15845000Y13750000D01*
X16345000Y14600000D02*
X16345000Y14250000D01*
X16245000Y13200000D02*
X15845000Y13200000D01*
X15845000Y13437500D02*
X15845000Y13200000D01*
D35*
G04 #@! TO.N,GND*
X14845000Y12500000D03*
D36*
X16245000Y12700000D02*
X16245000Y12200000D01*
X14845000Y12500000D02*
X15045000Y12700000D01*
X16245000Y12700000D02*
X15045000Y12700000D01*
G04 #@! TO.N,N14*
X12065000Y14130000D02*
X12015000Y14180000D01*
X10795000Y14180000D02*
X12015000Y14180000D01*
D35*
G04 #@! TO.N,GND*
X18220000Y9125000D03*
X20845000Y8750000D03*
X19595000Y9125000D03*
X21845000Y8750000D03*
X16970000Y10750000D03*
D38*
X23075000Y8770000D02*
X22220000Y9625000D01*
D39*
X21845000Y8150000D02*
X21845000Y8750000D01*
X21095000Y9625000D02*
X20845000Y9375000D01*
D38*
X21095000Y9625000D02*
X22220000Y9625000D01*
X24095000Y8770000D02*
X23075000Y8770000D01*
X18220000Y10025000D02*
X17695000Y10025000D01*
X18220000Y10025000D02*
X18245000Y10000000D01*
D40*
X19595000Y10025000D02*
X19595000Y9125000D01*
D38*
X16970000Y10750000D02*
X17695000Y10025000D01*
X19595000Y10025000D02*
X21095000Y9625000D01*
D40*
X18220000Y10025000D02*
X18220000Y9125000D01*
D39*
X20845000Y8150000D02*
X20845000Y8750000D01*
X21845000Y8750000D02*
X21845000Y9250000D01*
X21845000Y9250000D02*
X22220000Y9625000D01*
X20845000Y8750000D02*
X20845000Y9375000D01*
D38*
X19595000Y10025000D02*
X18245000Y10000000D01*
D36*
G04 #@! TO.N,N3*
X11345000Y9900000D02*
X12070000Y9900000D01*
X12095000Y9925000D02*
X12070000Y9900000D01*
G04 #@! TO.N,N12*
X14345000Y14000000D02*
X14095000Y14250000D01*
X14345000Y13400000D02*
X14345000Y14000000D01*
X14095000Y14575000D02*
X14095000Y14250000D01*
D35*
G04 #@! TO.N,GND*
X20970000Y3375000D03*
X12065000Y15875000D03*
D36*
X12065000Y15080000D02*
X12065000Y15875000D01*
G04 #@! TO.N,ADC_V_IN*
X7870000Y12100000D02*
X7870000Y10900000D01*
X8020000Y10750000D02*
X8795000Y10750000D01*
X8020000Y10750000D02*
X7870000Y10900000D01*
G04 #@! TO.N,SWDIO*
X3970000Y17900000D02*
X3970000Y19125000D01*
X4845000Y20000000D02*
X5865000Y20000000D01*
X7615000Y21500000D02*
X5865000Y20000000D01*
X3970000Y19125000D02*
X4845000Y20000000D01*
D35*
G04 #@! TO.N,GND*
X1270000Y12065000D03*
D37*
X1270000Y12065000D02*
X1270000Y12065000D01*
D36*
G04 #@! TO.N,N15*
X8520000Y16245000D02*
X9735000Y15030000D01*
X10795000Y15030000D02*
X9735000Y15030000D01*
X8520000Y17900000D02*
X8520000Y16245000D01*
G04 #@! TO.N,N5*
X15345000Y13400000D02*
X15345000Y14000000D01*
X15595000Y14575000D02*
X15595000Y14250000D01*
X15595000Y14250000D02*
X15345000Y14000000D01*
G04 #@! TO.N,N13*
X1270000Y15875000D02*
X3320000Y13825000D01*
X3320000Y12100000D02*
X3320000Y13825000D01*
D35*
G04 #@! TO.N,GND*
X4720000Y3500000D03*
D37*
X4795000Y1850000D02*
X4720000Y1925000D01*
X4795000Y1850000D02*
X3120000Y1850000D01*
X4720000Y3500000D02*
X4720000Y1925000D01*
X3120000Y1850000D02*
X2340000Y2630000D01*
X2340000Y5240000D02*
X2340000Y2630000D01*
D39*
G04 #@! TO.N,Vin*
X16182500Y11550000D02*
X15670000Y11550000D01*
D37*
X9845000Y7350000D02*
X9395000Y6900000D01*
X9395000Y1850000D02*
X9395000Y6900000D01*
X9845000Y7350000D02*
X10320000Y7350000D01*
X10595000Y7625000D02*
X10595000Y10750000D01*
D39*
X15670000Y11550000D02*
X15345000Y11875000D01*
X14020000Y11550000D02*
X14345000Y11875000D01*
D37*
X10595000Y7625000D02*
X10320000Y7350000D01*
D36*
X9645000Y10750000D02*
X10595000Y10750000D01*
D37*
X11395000Y11550000D02*
X10595000Y10750000D01*
X13508000Y11550000D02*
X11395000Y11550000D01*
D39*
X15345000Y11875000D02*
X14345000Y11875000D01*
X13508000Y11550000D02*
X14020000Y11550000D01*
D36*
G04 #@! TO.N,N7*
X11345000Y9100000D02*
X13345000Y6600000D01*
X13345000Y4500000D02*
X13345000Y6600000D01*
D35*
G04 #@! TO.N,GND*
X12720000Y10750000D03*
X1345000Y19250000D03*
D36*
X1920000Y19250000D02*
X1345000Y19250000D01*
G04 #@! TO.N,N1*
X2670000Y17900000D02*
X1390000Y17900000D01*
X1270000Y17780000D02*
X1390000Y17900000D01*
D37*
G04 #@! TO.N,N11*
X2345000Y7075000D02*
X2345000Y6195000D01*
X2340000Y6190000D02*
X2345000Y6195000D01*
D35*
G04 #@! TO.N,GND*
X19595000Y15875000D03*
X21345000Y15875000D03*
X17845000Y15875000D03*
D40*
X19595000Y14875000D02*
X19595000Y15875000D01*
D38*
X24095000Y14770000D02*
X23990000Y14875000D01*
X19595000Y14875000D02*
X21345000Y14875000D01*
D40*
X17845000Y14875000D02*
X17845000Y15875000D01*
D38*
X19595000Y14875000D02*
X17845000Y14875000D01*
D40*
X21345000Y14875000D02*
X21345000Y15875000D01*
D38*
X21345000Y14875000D02*
X23990000Y14875000D01*
D36*
G04 #@! TO.N,N4*
X14845000Y13400000D02*
X14845000Y14575000D01*
D35*
G04 #@! TO.N,GND*
X7220000Y9875000D03*
D36*
X7170000Y10750000D02*
X7170000Y9875000D01*
X7220000Y9875000D02*
X7170000Y9875000D01*
G04 #@! TO.N,N8*
X12095000Y9075000D02*
X12820000Y9800000D01*
X13507500Y9800000D02*
X13845000Y9800000D01*
X13507500Y9800000D02*
X12820000Y9800000D01*
X13845000Y9562500D02*
X13845000Y9800000D01*
D35*
G04 #@! TO.N,GND*
X14095000Y16000000D03*
D36*
X14095000Y15425000D02*
X13345000Y15425000D01*
X14095000Y15425000D02*
X14095000Y16000000D01*
D35*
X9845000Y8875000D03*
D36*
X9845000Y8150000D02*
X9845000Y8875000D01*
D35*
G04 #@! TO.N,3.3V*
X4970000Y19250000D03*
X4595000Y16625000D03*
D37*
X3595000Y9650000D02*
X3595000Y7350000D01*
X3245000Y7350000D02*
X2670000Y7925000D01*
D36*
X3945000Y10750000D02*
X3945000Y10000000D01*
D37*
X4345000Y7350000D02*
X6795000Y7350000D01*
D36*
X5670000Y19250000D02*
X6295000Y19875000D01*
D37*
X7095000Y7650000D02*
X6795000Y7350000D01*
X4345000Y7350000D02*
X3595000Y7350000D01*
D36*
X4620000Y11550000D02*
X3945000Y10875000D01*
D37*
X2345000Y7925000D02*
X2345000Y9085000D01*
D36*
X7095000Y7650000D02*
X5720000Y8150000D01*
D37*
X3245000Y7350000D02*
X3595000Y7350000D01*
D36*
X8280000Y19875000D02*
X6295000Y19875000D01*
D37*
X3945000Y10000000D02*
X3595000Y9650000D01*
D36*
X5670000Y19250000D02*
X4970000Y19250000D01*
X4595000Y16625000D02*
X4620000Y16600000D01*
X5720000Y8150000D02*
X5720000Y8500000D01*
D37*
X2345000Y7925000D02*
X2670000Y7925000D01*
D36*
X5420000Y10000000D02*
X5420000Y8800000D01*
X10155000Y21500000D02*
X8280000Y19875000D01*
D37*
X1270000Y10160000D02*
X2345000Y9085000D01*
D36*
X4620000Y12100000D02*
X4620000Y16600000D01*
X4620000Y12100000D02*
X4620000Y11550000D01*
X5720000Y8500000D02*
X5420000Y8800000D01*
X3945000Y10750000D02*
X3945000Y10875000D01*
D39*
X7095000Y7650000D02*
X7095000Y1850000D01*
D36*
G04 #@! TO.N,PWM_OUT*
X8255000Y13970000D02*
X10160000Y13970000D01*
X13445000Y12200000D02*
X11930000Y12200000D01*
X11930000Y12200000D02*
X10160000Y13970000D01*
X7220000Y17900000D02*
X7220000Y15005000D01*
X7220000Y15005000D02*
X8255000Y13970000D01*
D35*
G04 #@! TO.N,GND*
X16345000Y16000000D03*
D36*
X16345000Y15400000D02*
X16345000Y16000000D01*
D41*
G04 #@! TA.AperFunction,Conductor*
G36*
X20595000Y3291421D02*
X20624289Y3220711D01*
X20815711Y3029289D01*
X20886421Y3000000D01*
X21803579Y3000000D01*
X21874289Y3029289D01*
X22065711Y3220711D01*
X22095000Y3291421D01*
X22095000Y4583579D01*
X22065711Y4654289D01*
X21999289Y4720711D01*
X21928579Y4750000D01*
X20761421Y4750000D01*
X20690711Y4720711D01*
X20624289Y4654289D01*
X20595000Y4583579D01*
X20595000Y3291421D01*
G37*
G04 #@! TO.N,OUT*
G36*
X17595000Y1599999D02*
X17614500Y1540672D01*
X17694999Y1500000D01*
X19803579Y1500000D01*
X19874289Y1529289D01*
X19940711Y1595711D01*
X19970000Y1666421D01*
X19970000Y4855109D01*
X19984065Y4889065D01*
X20330935Y5235935D01*
X20364891Y5250000D01*
X25178579Y5250000D01*
X25249289Y5279289D01*
X25315711Y5345711D01*
X25345000Y5416421D01*
X25345000Y7083579D01*
X25315711Y7154289D01*
X25249289Y7220711D01*
X25178579Y7250000D01*
X22614891Y7250000D01*
X22580935Y7264065D01*
X22249289Y7595711D01*
X22178579Y7625000D01*
X20489891Y7625000D01*
X20455935Y7639065D01*
X19874289Y8220711D01*
X19803579Y8250000D01*
X17761421Y8250000D01*
X17690711Y8220711D01*
X17624289Y8154289D01*
X17595000Y8083579D01*
X17595000Y1599999D01*
G37*
G04 #@! TO.N,Vin*
G36*
X15970000Y11424999D02*
X15989500Y11365672D01*
X16069999Y11325000D01*
X16797939Y11325000D01*
X16827689Y11329528D01*
X16856068Y11338371D01*
X16867886Y11340537D01*
X17000195Y11348540D01*
X17012173Y11347815D01*
X17142550Y11323923D01*
X17154022Y11320348D01*
X17274884Y11265953D01*
X17285166Y11259738D01*
X17391886Y11176127D01*
X17396400Y11172128D01*
X17789239Y10779289D01*
X17859949Y10750000D01*
X20075109Y10750000D01*
X20109065Y10735935D01*
X20190711Y10654289D01*
X20261421Y10625000D01*
X21928579Y10625000D01*
X21999289Y10654289D01*
X22330935Y10985935D01*
X22364891Y11000000D01*
X25303579Y11000000D01*
X25374289Y11029289D01*
X25565711Y11220711D01*
X25595000Y11291421D01*
X25595000Y13071483D01*
X25575500Y13130810D01*
X25550470Y13154687D01*
X25245193Y13358205D01*
X25189724Y13375000D01*
X22864891Y13375000D01*
X22830935Y13389065D01*
X22374289Y13845711D01*
X22303579Y13875000D01*
X17261421Y13875000D01*
X17190711Y13845711D01*
X16999289Y13654289D01*
X16970000Y13583579D01*
X16970000Y12019891D01*
X16955935Y11985935D01*
X16734065Y11764065D01*
X16700109Y11750000D01*
X16069999Y11750000D01*
X16010672Y11730500D01*
X15970000Y11650001D01*
X15970000Y11424999D01*
G37*
G04 #@! TO.N,N7*
G36*
X11970000Y1166421D02*
X11999289Y1095711D01*
X12315711Y779289D01*
X12386421Y750000D01*
X14428579Y750000D01*
X14499289Y779289D01*
X15315711Y1595711D01*
X15345000Y1666421D01*
X15345000Y10175737D01*
X15315711Y10246447D01*
X15286341Y10275817D01*
X15280139Y10283373D01*
X15248611Y10330558D01*
X15199436Y10369053D01*
X15165465Y10375000D01*
X14524535Y10375000D01*
X14465208Y10355500D01*
X14441389Y10330558D01*
X14409861Y10283373D01*
X14403659Y10275817D01*
X14374289Y10246447D01*
X14345000Y10175737D01*
X14345000Y9394891D01*
X14330935Y9360935D01*
X14174344Y9204344D01*
X14155954Y9179032D01*
X14123439Y9115216D01*
X14114304Y9102643D01*
X14067357Y9055696D01*
X14054784Y9046561D01*
X13990968Y9014046D01*
X13965656Y8995656D01*
X13734065Y8764065D01*
X13700109Y8750000D01*
X12511421Y8750000D01*
X12440711Y8720711D01*
X11999289Y8279289D01*
X11970000Y8208579D01*
X11970000Y1166421D01*
G37*
G04 #@! TO.N,GND*
G36*
X12470000Y10416421D02*
X12499289Y10345711D01*
X12565711Y10279289D01*
X12636421Y10250000D01*
X14053579Y10250000D01*
X14124289Y10279289D01*
X14265711Y10420711D01*
X14295000Y10491421D01*
X14295000Y10608569D01*
X14295615Y10616382D01*
X14307840Y10693571D01*
X14312643Y10708352D01*
X14346336Y10774478D01*
X14355472Y10787052D01*
X14407948Y10839528D01*
X14420522Y10848664D01*
X14486648Y10882357D01*
X14501429Y10887160D01*
X14578618Y10899385D01*
X14586431Y10900000D01*
X15103569Y10900000D01*
X15111382Y10899385D01*
X15188571Y10887160D01*
X15203352Y10882357D01*
X15269478Y10848664D01*
X15282052Y10839528D01*
X15334528Y10787052D01*
X15343664Y10774478D01*
X15377357Y10708352D01*
X15382160Y10693571D01*
X15394385Y10616382D01*
X15395000Y10608569D01*
X15395000Y10491421D01*
X15424289Y10420711D01*
X15565711Y10279289D01*
X15636421Y10250000D01*
X17053579Y10250000D01*
X17124289Y10279289D01*
X17190711Y10345711D01*
X17220000Y10416421D01*
X17220000Y10958579D01*
X17190711Y11029289D01*
X17124289Y11095711D01*
X17053579Y11125000D01*
X15614891Y11125000D01*
X15580935Y11139065D01*
X15565808Y11154192D01*
X15540500Y11172580D01*
X15525352Y11180299D01*
X15510850Y11186306D01*
X15495885Y11191168D01*
X15482037Y11198224D01*
X15469305Y11207474D01*
X15455927Y11215673D01*
X15441897Y11222822D01*
X15429319Y11231960D01*
X15418189Y11243090D01*
X15406256Y11253281D01*
X15390340Y11264844D01*
X15384380Y11269935D01*
X15308604Y11345711D01*
X15237894Y11375000D01*
X14452106Y11375000D01*
X14381396Y11345711D01*
X14305620Y11269935D01*
X14299661Y11264845D01*
X14283745Y11253282D01*
X14271812Y11243091D01*
X14260677Y11231956D01*
X14248106Y11222823D01*
X14234072Y11215672D01*
X14220693Y11207473D01*
X14207964Y11198225D01*
X14194109Y11191165D01*
X14179145Y11186303D01*
X14164647Y11180298D01*
X14150617Y11173149D01*
X14135834Y11168346D01*
X14120278Y11165882D01*
X14105022Y11162219D01*
X14090061Y11157358D01*
X14074704Y11154926D01*
X14058973Y11154926D01*
X14043330Y11153695D01*
X14023882Y11150615D01*
X14016069Y11150000D01*
X13511931Y11150000D01*
X13504118Y11150615D01*
X13392164Y11168346D01*
X13377383Y11173149D01*
X13346075Y11189101D01*
X13300676Y11200000D01*
X12586421Y11200000D01*
X12515711Y11170711D01*
X12499289Y11154289D01*
X12470000Y11083579D01*
X12470000Y10416421D01*
G37*
G04 --- BOARD END --- *
G04 #@! TF.MD5,3dec84a70f850f6659d640ed51579291*
M02*
