G04 --- HEADER BEGIN --- *
G04 #@! TF.GenerationSoftware,LibrePCB,LibrePCB,2.0.1*
G04 #@! TF.CreationDate,2026-04-17T23:48:40*
G04 #@! TF.ProjectId,Lab-Lamp,1f94bfc4-d831-43e1-86c0-4bc184f53f1f,v1*
G04 #@! TF.Part,Single*
G04 #@! TF.SameCoordinates*
G04 #@! TF.FileFunction,Copper,L2,Bot*
G04 #@! TF.FilePolarity,Positive*
%FSLAX66Y66*%
%MOMM*%
G01*
G75*
G04 --- HEADER END --- *
G04 --- APERTURE LIST BEGIN --- *
G04 #@! TA.AperFunction,ComponentPad*
%ADD10O,2.19X1.587*%
%ADD11R,2.19X1.587*%
%ADD12C,5.7*%
%ADD13O,1.587X2.19*%
%ADD14R,1.587X2.19*%
G04 #@! TA.AperFunction,ViaPad*
%ADD15C,0.5*%
G04 #@! TA.AperFunction,Conductor*
%ADD16C,0.2*%
%ADD17C,0.01*%
G04 #@! TD*
G04 --- APERTURE LIST END --- *
G04 --- BOARD BEGIN --- *
D10*
G04 #@! TO.N,GND*
G04 #@! TO.C,J2*
G04 #@! TO.P,J2,2,2*
X23500000Y8770000D03*
D11*
G04 #@! TO.N,OUT*
G04 #@! TO.P,J2,1,1*
X23500000Y6230000D03*
D10*
G04 #@! TO.N,GND*
G04 #@! TO.C,J3*
G04 #@! TO.P,J3,2,2*
X23500000Y14770000D03*
D11*
G04 #@! TO.N,Vin*
G04 #@! TO.P,J3,1,1*
X23500000Y12230000D03*
D12*
G04 #@! TO.N,GND*
G04 #@! TO.C,H1*
G04 #@! TO.P,H1,1,1*
X21500000Y19500000D03*
D13*
G04 #@! TO.N,SWDIO*
G04 #@! TO.C,J1*
G04 #@! TO.P,J1,2,2*
X7020000Y21500000D03*
D14*
G04 #@! TO.N,3.3V*
G04 #@! TO.P,J1,1,1*
X9560000Y21500000D03*
D13*
G04 #@! TO.N,GND*
G04 #@! TO.P,J1,4,4*
X1940000Y21500000D03*
G04 #@! TO.N,SWCLK*
G04 #@! TO.P,J1,3,3*
X4480000Y21500000D03*
D15*
G04 #@! TD.C*
G04 #@! TD.P*
G04 #@! TO.N,GND*
X21125000Y3375000D03*
X14250000Y16000000D03*
X4125000Y9375000D03*
X3750000Y8750000D03*
X14250000Y11250000D03*
X14250000Y12500000D03*
X17625000Y9125000D03*
X20250000Y8750000D03*
X19000000Y9125000D03*
X21250000Y8750000D03*
X16375000Y10750000D03*
X20375000Y3375000D03*
X12125000Y10750000D03*
G04 #@! TO.N,FAULT*
X10500000Y12250000D03*
X15250000Y8750000D03*
D16*
X15250000Y8750000D02*
X11750000Y12250000D01*
X10500000Y12250000D02*
X11750000Y12250000D01*
D15*
G04 #@! TO.N,GND*
X750000Y19250000D03*
X19000000Y15875000D03*
X20750000Y15875000D03*
X17250000Y15875000D03*
X6625000Y9875000D03*
X4125000Y3500000D03*
X13500000Y16000000D03*
X9250000Y8875000D03*
G04 #@! TO.N,3.3V*
X4375000Y19250000D03*
X4000000Y16625000D03*
D16*
X4375000Y19250000D02*
X4375000Y17000000D01*
X4000000Y16625000D02*
X4375000Y17000000D01*
D15*
G04 #@! TO.N,GND*
X15750000Y16000000D03*
D17*
G04 #@! TA.AperFunction,Conductor*
G36*
X300000Y399999D02*
X319500Y340672D01*
X399999Y300000D01*
X1822362Y300000D01*
X1822362Y20112795D01*
X1645301Y20145893D01*
X1636433Y20148417D01*
X1456891Y20217971D01*
X1448661Y20222069D01*
X1284947Y20323436D01*
X1277603Y20328982D01*
X1135316Y20458695D01*
X1129104Y20465508D01*
X1013074Y20619157D01*
X1008226Y20626987D01*
X922406Y20799337D01*
X919076Y20807931D01*
X866384Y20993126D01*
X864692Y21002175D01*
X846714Y21196195D01*
X846500Y21200811D01*
X846500Y21383982D01*
X848066Y21388747D01*
X862513Y21396046D01*
X862513Y21600005D01*
X857748Y21601571D01*
X846500Y21623833D01*
X846500Y21799189D01*
X846714Y21803805D01*
X864692Y21997825D01*
X866384Y22006874D01*
X919076Y22192069D01*
X922406Y22200663D01*
X1008226Y22373013D01*
X1013074Y22380843D01*
X1129104Y22534492D01*
X1135316Y22541305D01*
X1277603Y22671018D01*
X1284947Y22676564D01*
X1448661Y22777931D01*
X1456891Y22782029D01*
X1636433Y22851583D01*
X1645301Y22854107D01*
X1828918Y22888431D01*
X1839995Y22866507D01*
X1839995Y22583732D01*
X1763430Y22575105D01*
X1595713Y22516419D01*
X1445261Y22421883D01*
X1319617Y22296239D01*
X1225081Y22145787D01*
X1166395Y21978070D01*
X1146500Y21801500D01*
X1146500Y21600005D01*
X862513Y21600005D01*
X862513Y21396046D01*
X870328Y21399995D01*
X1146500Y21399995D01*
X1146500Y21198500D01*
X1166395Y21021930D01*
X1225081Y20854213D01*
X1319617Y20703761D01*
X1445261Y20578117D01*
X1595713Y20483581D01*
X1763430Y20424895D01*
X1839995Y20416268D01*
X1839995Y20125678D01*
X1838429Y20120913D01*
X1822362Y20112795D01*
X1822362Y300000D01*
X2051082Y300000D01*
X2051082Y20111569D01*
X2040005Y20133493D01*
X2040005Y20416268D01*
X2116570Y20424895D01*
X2284287Y20483581D01*
X2434739Y20578117D01*
X2560383Y20703761D01*
X2654919Y20854213D01*
X2713605Y21021930D01*
X2733500Y21198500D01*
X2733500Y21399995D01*
X2733500Y21600005D01*
X2733500Y21801500D01*
X2713605Y21978070D01*
X2654919Y22145787D01*
X2560383Y22296239D01*
X2434739Y22421883D01*
X2284287Y22516419D01*
X2116570Y22575105D01*
X2040005Y22583732D01*
X2040005Y22874322D01*
X2041571Y22879087D01*
X2057638Y22887205D01*
X2234699Y22854107D01*
X2243567Y22851583D01*
X2423109Y22782029D01*
X2431339Y22777931D01*
X2595053Y22676564D01*
X2602397Y22671018D01*
X2744684Y22541305D01*
X2750896Y22534492D01*
X2866926Y22380843D01*
X2871774Y22373013D01*
X2957594Y22200663D01*
X2960924Y22192069D01*
X3013616Y22006874D01*
X3015308Y21997825D01*
X3033286Y21803805D01*
X3033500Y21799189D01*
X3033500Y21616018D01*
X3031934Y21611253D01*
X3009672Y21600005D01*
X2733500Y21600005D01*
X2733500Y21399995D01*
X3017487Y21399995D01*
X3022252Y21398429D01*
X3033500Y21376167D01*
X3033500Y21200811D01*
X3033286Y21196195D01*
X3015308Y21002175D01*
X3013616Y20993126D01*
X2960924Y20807931D01*
X2957594Y20799337D01*
X2871774Y20626987D01*
X2866926Y20619157D01*
X2750896Y20465508D01*
X2744684Y20458695D01*
X2602397Y20328982D01*
X2595053Y20323436D01*
X2431339Y20222069D01*
X2423109Y20217971D01*
X2243567Y20148417D01*
X2234699Y20145893D01*
X2051082Y20111569D01*
X2051082Y300000D01*
X3943110Y300000D01*
X3943110Y16179580D01*
X3929095Y16181595D01*
X3819926Y16213651D01*
X3807045Y16219534D01*
X3711328Y16281048D01*
X3700632Y16290315D01*
X3626117Y16376309D01*
X3618466Y16388216D01*
X3571199Y16491715D01*
X3567210Y16505299D01*
X3551018Y16617920D01*
X3551018Y16632080D01*
X3567210Y16744701D01*
X3571199Y16758285D01*
X3618466Y16861784D01*
X3626117Y16873691D01*
X3700632Y16959685D01*
X3711328Y16968952D01*
X3807045Y17030466D01*
X3819926Y17036349D01*
X3929095Y17068405D01*
X3943110Y17070420D01*
X3975001Y17070420D01*
X4034328Y17089920D01*
X4075000Y17170419D01*
X4075000Y18878747D01*
X4050575Y18944233D01*
X4001117Y19001310D01*
X3993466Y19013216D01*
X3946199Y19116715D01*
X3942210Y19130299D01*
X3926018Y19242920D01*
X3926018Y19257080D01*
X3942210Y19369701D01*
X3946199Y19383285D01*
X3993466Y19486784D01*
X4001117Y19498691D01*
X4075632Y19584685D01*
X4086328Y19593952D01*
X4182045Y19655466D01*
X4194926Y19661349D01*
X4304095Y19693405D01*
X4318110Y19695420D01*
X4431890Y19695420D01*
X4445905Y19693405D01*
X4475106Y19684830D01*
X4475106Y20205482D01*
X4291071Y20223608D01*
X4281474Y20225517D01*
X4104510Y20279198D01*
X4095466Y20282945D01*
X3932376Y20370118D01*
X3924240Y20375555D01*
X3781292Y20492868D01*
X3774368Y20499792D01*
X3657055Y20642740D01*
X3651618Y20650876D01*
X3564445Y20813966D01*
X3560698Y20823010D01*
X3507017Y20999974D01*
X3505108Y21009571D01*
X3486741Y21196057D01*
X3486500Y21200950D01*
X3486500Y21799050D01*
X3486741Y21803943D01*
X3505108Y21990429D01*
X3507017Y22000026D01*
X3560698Y22176990D01*
X3564445Y22186034D01*
X3651618Y22349124D01*
X3657055Y22357260D01*
X3774368Y22500208D01*
X3781292Y22507132D01*
X3924240Y22624445D01*
X3932376Y22629882D01*
X4095466Y22717055D01*
X4104510Y22720802D01*
X4281474Y22774483D01*
X4291071Y22776392D01*
X4475106Y22794518D01*
X4484894Y22794518D01*
X4668929Y22776392D01*
X4678526Y22774483D01*
X4855490Y22720802D01*
X4864534Y22717055D01*
X5027624Y22629882D01*
X5035760Y22624445D01*
X5178708Y22507132D01*
X5185632Y22500208D01*
X5302945Y22357260D01*
X5308382Y22349124D01*
X5395555Y22186034D01*
X5399302Y22176990D01*
X5452983Y22000026D01*
X5454892Y21990429D01*
X5473259Y21803943D01*
X5473500Y21799050D01*
X5473500Y21200950D01*
X5473259Y21196057D01*
X5454892Y21009571D01*
X5452983Y20999974D01*
X5399302Y20823010D01*
X5395555Y20813966D01*
X5308382Y20650876D01*
X5302945Y20642740D01*
X5185632Y20499792D01*
X5178708Y20492868D01*
X5035760Y20375555D01*
X5027624Y20370118D01*
X4864534Y20282945D01*
X4855490Y20279198D01*
X4678526Y20225517D01*
X4668929Y20223608D01*
X4484894Y20205482D01*
X4475106Y20205482D01*
X4475106Y19684830D01*
X4555074Y19661349D01*
X4567955Y19655466D01*
X4663672Y19593952D01*
X4674368Y19584685D01*
X4748883Y19498691D01*
X4756534Y19486784D01*
X4803801Y19383285D01*
X4807790Y19369701D01*
X4823982Y19257080D01*
X4823982Y19242920D01*
X4807790Y19130299D01*
X4803801Y19116715D01*
X4756534Y19013216D01*
X4748883Y19001310D01*
X4699425Y18944233D01*
X4675000Y18878747D01*
X4675000Y17004371D01*
X4673861Y16991352D01*
X4674567Y16991290D01*
X4674564Y16991221D01*
X4673859Y16991283D01*
X4671595Y16965402D01*
X4664845Y16940213D01*
X4662956Y16931695D01*
X4658427Y16906009D01*
X4651023Y16885668D01*
X4641875Y16866050D01*
X4626917Y16844687D01*
X4622231Y16837332D01*
X4609187Y16814740D01*
X4592487Y16794838D01*
X4593115Y16794311D01*
X4593072Y16794264D01*
X4592444Y16794791D01*
X4584043Y16784779D01*
X4477856Y16678592D01*
X4449585Y16622113D01*
X4432790Y16505299D01*
X4428801Y16491715D01*
X4381534Y16388216D01*
X4373883Y16376309D01*
X4299368Y16290315D01*
X4288672Y16281048D01*
X4192955Y16219534D01*
X4180074Y16213651D01*
X4070905Y16181595D01*
X4056890Y16179580D01*
X3943110Y16179580D01*
X3943110Y300000D01*
X7015106Y300000D01*
X7015106Y20205482D01*
X6831071Y20223608D01*
X6821474Y20225517D01*
X6644510Y20279198D01*
X6635466Y20282945D01*
X6472376Y20370118D01*
X6464240Y20375555D01*
X6321292Y20492868D01*
X6314368Y20499792D01*
X6197055Y20642740D01*
X6191618Y20650876D01*
X6104445Y20813966D01*
X6100698Y20823010D01*
X6047017Y20999974D01*
X6045108Y21009571D01*
X6026741Y21196057D01*
X6026500Y21200950D01*
X6026500Y21799050D01*
X6026741Y21803943D01*
X6045108Y21990429D01*
X6047017Y22000026D01*
X6100698Y22176990D01*
X6104445Y22186034D01*
X6191618Y22349124D01*
X6197055Y22357260D01*
X6314368Y22500208D01*
X6321292Y22507132D01*
X6464240Y22624445D01*
X6472376Y22629882D01*
X6635466Y22717055D01*
X6644510Y22720802D01*
X6821474Y22774483D01*
X6831071Y22776392D01*
X7015106Y22794518D01*
X7024894Y22794518D01*
X7208929Y22776392D01*
X7218526Y22774483D01*
X7395490Y22720802D01*
X7404534Y22717055D01*
X7567624Y22629882D01*
X7575760Y22624445D01*
X7718708Y22507132D01*
X7725632Y22500208D01*
X7842945Y22357260D01*
X7848382Y22349124D01*
X7935555Y22186034D01*
X7939302Y22176990D01*
X7992983Y22000026D01*
X7994892Y21990429D01*
X8013259Y21803943D01*
X8013500Y21799050D01*
X8013500Y21200950D01*
X8013259Y21196057D01*
X7994892Y21009571D01*
X7992983Y20999974D01*
X7939302Y20823010D01*
X7935555Y20813966D01*
X7848382Y20650876D01*
X7842945Y20642740D01*
X7725632Y20499792D01*
X7718708Y20492868D01*
X7575760Y20375555D01*
X7567624Y20370118D01*
X7404534Y20282945D01*
X7395490Y20279198D01*
X7218526Y20225517D01*
X7208929Y20223608D01*
X7024894Y20205482D01*
X7015106Y20205482D01*
X7015106Y300000D01*
X8771414Y300000D01*
X8771414Y20205000D01*
X8761683Y20205958D01*
X8699623Y20218303D01*
X8681773Y20225696D01*
X8633267Y20258108D01*
X8619608Y20271767D01*
X8587196Y20320273D01*
X8579803Y20338123D01*
X8567458Y20400183D01*
X8566500Y20409914D01*
X8566500Y22590086D01*
X8567458Y22599817D01*
X8579803Y22661877D01*
X8587196Y22679727D01*
X8619608Y22728233D01*
X8633267Y22741892D01*
X8681773Y22774304D01*
X8699623Y22781697D01*
X8761683Y22794042D01*
X8771414Y22795000D01*
X10348586Y22795000D01*
X10358317Y22794042D01*
X10420377Y22781697D01*
X10438227Y22774304D01*
X10486733Y22741892D01*
X10500392Y22728233D01*
X10532804Y22679727D01*
X10540197Y22661877D01*
X10552542Y22599817D01*
X10553500Y22590086D01*
X10553500Y20409914D01*
X10552542Y20400183D01*
X10540197Y20338123D01*
X10532804Y20320273D01*
X10500392Y20271767D01*
X10486733Y20258108D01*
X10438227Y20225696D01*
X10420377Y20218303D01*
X10358317Y20205958D01*
X10348586Y20205000D01*
X8771414Y20205000D01*
X8771414Y300000D01*
X15193110Y300000D01*
X15193110Y8304580D01*
X15179095Y8306595D01*
X15069926Y8338651D01*
X15057045Y8344534D01*
X14961328Y8406048D01*
X14950632Y8415315D01*
X14876117Y8501309D01*
X14868466Y8513216D01*
X14821199Y8616715D01*
X14817210Y8630299D01*
X14800415Y8747112D01*
X14772144Y8803591D01*
X11655024Y11920711D01*
X11584314Y11950000D01*
X10875091Y11950000D01*
X10806089Y11918488D01*
X10804777Y11920002D01*
X10799621Y11915535D01*
X10799517Y11915487D01*
X10799369Y11915316D01*
X10788672Y11906048D01*
X10692955Y11844534D01*
X10680074Y11838651D01*
X10570905Y11806595D01*
X10556890Y11804580D01*
X10443110Y11804580D01*
X10429095Y11806595D01*
X10319926Y11838651D01*
X10307045Y11844534D01*
X10211328Y11906048D01*
X10200632Y11915315D01*
X10126117Y12001309D01*
X10118466Y12013216D01*
X10071199Y12116715D01*
X10067210Y12130299D01*
X10051018Y12242920D01*
X10051018Y12257080D01*
X10067210Y12369701D01*
X10071199Y12383285D01*
X10118466Y12486784D01*
X10126117Y12498691D01*
X10200632Y12584685D01*
X10211328Y12593952D01*
X10307045Y12655466D01*
X10319926Y12661349D01*
X10429095Y12693405D01*
X10443110Y12695420D01*
X10556890Y12695420D01*
X10570905Y12693405D01*
X10680074Y12661349D01*
X10692955Y12655466D01*
X10788672Y12593952D01*
X10799369Y12584684D01*
X10799517Y12584513D01*
X10799621Y12584465D01*
X10804777Y12579998D01*
X10806089Y12581512D01*
X10875091Y12550000D01*
X11745635Y12550000D01*
X11758650Y12548861D01*
X11758725Y12549719D01*
X11758787Y12549716D01*
X11758712Y12548858D01*
X11784602Y12546593D01*
X11809789Y12539844D01*
X11818309Y12537955D01*
X11843987Y12533428D01*
X11864341Y12526019D01*
X11883952Y12516875D01*
X11905318Y12501914D01*
X11912675Y12497226D01*
X11935264Y12484184D01*
X11955161Y12467489D01*
X11955601Y12468013D01*
X11955655Y12467964D01*
X11955215Y12467439D01*
X11965224Y12459041D01*
X15199556Y9224709D01*
X15270266Y9195420D01*
X15306890Y9195420D01*
X15320905Y9193405D01*
X15430074Y9161349D01*
X15442955Y9155466D01*
X15538672Y9093952D01*
X15549368Y9084685D01*
X15623883Y8998691D01*
X15631534Y8986784D01*
X15678801Y8883285D01*
X15682790Y8869701D01*
X15698982Y8757080D01*
X15698982Y8742920D01*
X15682790Y8630299D01*
X15678801Y8616715D01*
X15631534Y8513216D01*
X15623883Y8501309D01*
X15549368Y8415315D01*
X15538672Y8406048D01*
X15442955Y8344534D01*
X15430074Y8338651D01*
X15320905Y8306595D01*
X15306890Y8304580D01*
X15193110Y8304580D01*
X15193110Y300000D01*
X19205082Y300000D01*
X19205082Y17352504D01*
X19200878Y17353214D01*
X19199911Y17353969D01*
X19039101Y17533914D01*
X19035609Y17538293D01*
X18834443Y17821811D01*
X18831461Y17826556D01*
X18663303Y18130815D01*
X18660877Y18135852D01*
X18527842Y18457027D01*
X18525991Y18462317D01*
X18429756Y18796355D01*
X18428505Y18801836D01*
X18370278Y19144540D01*
X18369650Y19150115D01*
X18350157Y19497204D01*
X18350157Y19502796D01*
X18369650Y19849885D01*
X18370278Y19855460D01*
X18428505Y20198164D01*
X18429756Y20203645D01*
X18525991Y20537683D01*
X18527842Y20542973D01*
X18660877Y20864148D01*
X18663303Y20869185D01*
X18831461Y21173444D01*
X18834443Y21178189D01*
X19035609Y21461707D01*
X19039101Y21466086D01*
X19195200Y21640759D01*
X19206950Y21647548D01*
X19211190Y21647075D01*
X19212193Y21646378D01*
X19418646Y21439925D01*
X19316773Y21331945D01*
X19118860Y21066101D01*
X18953147Y20779078D01*
X18821876Y20474757D01*
X18726822Y20157255D01*
X18669271Y19830865D01*
X18650000Y19500000D01*
X18669271Y19169135D01*
X18726822Y18842745D01*
X18821876Y18525243D01*
X18953147Y18220922D01*
X19118860Y17933899D01*
X19316773Y17668055D01*
X19418646Y17560075D01*
X19217194Y17358623D01*
X19205082Y17352504D01*
X19205082Y300000D01*
X21497204Y300000D01*
X21497204Y16350157D01*
X21150115Y16369650D01*
X21144540Y16370278D01*
X20801836Y16428505D01*
X20796355Y16429756D01*
X20462317Y16525991D01*
X20457027Y16527842D01*
X20135852Y16660877D01*
X20130815Y16663303D01*
X19826556Y16831461D01*
X19821811Y16834443D01*
X19538293Y17035609D01*
X19533914Y17039101D01*
X19359241Y17195200D01*
X19352452Y17206950D01*
X19352925Y17211190D01*
X19353622Y17212193D01*
X19557371Y17415942D01*
X19557371Y21584058D01*
X19358623Y21782806D01*
X19352504Y21794918D01*
X19353214Y21799122D01*
X19353969Y21800089D01*
X19533914Y21960899D01*
X19538293Y21964391D01*
X19821811Y22165557D01*
X19826556Y22168539D01*
X20130815Y22336697D01*
X20135852Y22339123D01*
X20457027Y22472158D01*
X20462317Y22474009D01*
X20796355Y22570244D01*
X20801836Y22571495D01*
X21144540Y22629722D01*
X21150115Y22630350D01*
X21497204Y22649843D01*
X21502796Y22649843D01*
X21849885Y22630350D01*
X21855460Y22629722D01*
X22198164Y22571495D01*
X22203645Y22570244D01*
X22537683Y22474009D01*
X22542973Y22472158D01*
X22864148Y22339123D01*
X22869185Y22336697D01*
X23173444Y22168539D01*
X23178189Y22165557D01*
X23461707Y21964391D01*
X23466086Y21960899D01*
X23640759Y21804800D01*
X23647548Y21793050D01*
X23647075Y21788810D01*
X23646378Y21787807D01*
X23442629Y21584058D01*
X23201902Y21786051D01*
X22925000Y21968172D01*
X22628827Y22116916D01*
X22317389Y22230270D01*
X21994897Y22306702D01*
X21665713Y22345178D01*
X21334287Y22345178D01*
X21005103Y22306702D01*
X20682611Y22230270D01*
X20371173Y22116916D01*
X20075000Y21968172D01*
X19798098Y21786051D01*
X19557371Y21584058D01*
X19557371Y17415942D01*
X19798098Y17213949D01*
X20075000Y17031828D01*
X20371173Y16883084D01*
X20682611Y16769730D01*
X21005103Y16693298D01*
X21334287Y16654822D01*
X21665713Y16654822D01*
X21994897Y16693298D01*
X22317389Y16769730D01*
X22628827Y16883084D01*
X22925000Y17031828D01*
X23201902Y17213949D01*
X23442629Y17415942D01*
X23641377Y17217194D01*
X23647496Y17205082D01*
X23646786Y17200878D01*
X23646031Y17199911D01*
X23466086Y17039101D01*
X23461707Y17035609D01*
X23178189Y16834443D01*
X23173444Y16831461D01*
X22869185Y16663303D01*
X22864148Y16660877D01*
X22542973Y16527842D01*
X22537683Y16525991D01*
X22203645Y16429756D01*
X22198164Y16428505D01*
X21855460Y16370278D01*
X21849885Y16369650D01*
X21502796Y16350157D01*
X21497204Y16350157D01*
X21497204Y300000D01*
X22409914Y300000D01*
X22409914Y5236500D01*
X22400183Y5237458D01*
X22338123Y5249803D01*
X22320273Y5257196D01*
X22271767Y5289608D01*
X22258108Y5303267D01*
X22225696Y5351773D01*
X22218303Y5369623D01*
X22205958Y5431683D01*
X22205000Y5441414D01*
X22205000Y7018586D01*
X22205958Y7028317D01*
X22218303Y7090377D01*
X22225696Y7108227D01*
X22258108Y7156733D01*
X22271767Y7170392D01*
X22320273Y7202804D01*
X22338123Y7210197D01*
X22400183Y7222542D01*
X22409914Y7223500D01*
X23200811Y7223500D01*
X23200811Y7676500D01*
X23196195Y7676714D01*
X23002175Y7694692D01*
X22993126Y7696384D01*
X22807931Y7749076D01*
X22799337Y7752406D01*
X22626987Y7838226D01*
X22619157Y7843074D01*
X22465508Y7959104D01*
X22458695Y7965316D01*
X22328982Y8107603D01*
X22323436Y8114947D01*
X22222069Y8278661D01*
X22217971Y8286891D01*
X22148417Y8466433D01*
X22145893Y8475301D01*
X22111569Y8658918D01*
X22125678Y8666046D01*
X22125678Y8870005D01*
X22120913Y8871571D01*
X22112795Y8887638D01*
X22145893Y9064699D01*
X22148417Y9073567D01*
X22217971Y9253109D01*
X22222069Y9261339D01*
X22323436Y9425053D01*
X22328982Y9432397D01*
X22409914Y9521174D01*
X22409914Y11236500D01*
X22400183Y11237458D01*
X22338123Y11249803D01*
X22320273Y11257196D01*
X22271767Y11289608D01*
X22258108Y11303267D01*
X22225696Y11351773D01*
X22218303Y11369623D01*
X22205958Y11431683D01*
X22205000Y11441414D01*
X22205000Y13018586D01*
X22205958Y13028317D01*
X22218303Y13090377D01*
X22225696Y13108227D01*
X22258108Y13156733D01*
X22271767Y13170392D01*
X22320273Y13202804D01*
X22338123Y13210197D01*
X22400183Y13222542D01*
X22409914Y13223500D01*
X23200811Y13223500D01*
X23200811Y13676500D01*
X23196195Y13676714D01*
X23002175Y13694692D01*
X22993126Y13696384D01*
X22807931Y13749076D01*
X22799337Y13752406D01*
X22626987Y13838226D01*
X22619157Y13843074D01*
X22465508Y13959104D01*
X22458695Y13965316D01*
X22328982Y14107603D01*
X22323436Y14114947D01*
X22222069Y14278661D01*
X22217971Y14286891D01*
X22148417Y14466433D01*
X22145893Y14475301D01*
X22111569Y14658918D01*
X22125678Y14666046D01*
X22125678Y14870005D01*
X22120913Y14871571D01*
X22112795Y14887638D01*
X22145893Y15064699D01*
X22148417Y15073567D01*
X22217971Y15253109D01*
X22222069Y15261339D01*
X22323436Y15425053D01*
X22328982Y15432397D01*
X22458695Y15574684D01*
X22465508Y15580896D01*
X22619157Y15696926D01*
X22626987Y15701774D01*
X22799337Y15787594D01*
X22807931Y15790924D01*
X22993126Y15843616D01*
X23002175Y15845308D01*
X23196195Y15863286D01*
X23200811Y15863500D01*
X23383982Y15863500D01*
X23388747Y15861934D01*
X23399995Y15839672D01*
X23399995Y15563500D01*
X23198500Y15563500D01*
X23021930Y15543605D01*
X22854213Y15484919D01*
X22703761Y15390383D01*
X22578117Y15264739D01*
X22483581Y15114287D01*
X22424895Y14946570D01*
X22416268Y14870005D01*
X22125678Y14870005D01*
X22125678Y14666046D01*
X22133493Y14669995D01*
X22416268Y14669995D01*
X22424895Y14593430D01*
X22483581Y14425713D01*
X22578117Y14275261D01*
X22703761Y14149617D01*
X22854213Y14055081D01*
X23021930Y13996395D01*
X23198500Y13976500D01*
X23399995Y13976500D01*
X23399995Y13692513D01*
X23398429Y13687748D01*
X23376167Y13676500D01*
X23200811Y13676500D01*
X23200811Y13223500D01*
X23616018Y13223500D01*
X23616018Y13676500D01*
X23611253Y13678066D01*
X23600005Y13700328D01*
X23600005Y13976500D01*
X23801500Y13976500D01*
X23978070Y13996395D01*
X24145787Y14055081D01*
X24296239Y14149617D01*
X24421883Y14275261D01*
X24516419Y14425713D01*
X24575105Y14593430D01*
X24583732Y14669995D01*
X24583732Y14870005D01*
X24575105Y14946570D01*
X24516419Y15114287D01*
X24421883Y15264739D01*
X24296239Y15390383D01*
X24145787Y15484919D01*
X23978070Y15543605D01*
X23801500Y15563500D01*
X23600005Y15563500D01*
X23600005Y15847487D01*
X23601571Y15852252D01*
X23623833Y15863500D01*
X23793050Y15863500D01*
X23793050Y17352452D01*
X23788810Y17352925D01*
X23787807Y17353622D01*
X23581354Y17560075D01*
X23683227Y17668055D01*
X23881140Y17933899D01*
X24046853Y18220922D01*
X24178124Y18525243D01*
X24273178Y18842745D01*
X24330729Y19169135D01*
X24350000Y19500000D01*
X24330729Y19830865D01*
X24273178Y20157255D01*
X24178124Y20474757D01*
X24046853Y20779078D01*
X23881140Y21066101D01*
X23683227Y21331945D01*
X23581354Y21439925D01*
X23782806Y21641377D01*
X23794918Y21647496D01*
X23799122Y21646786D01*
X23800089Y21646031D01*
X23960899Y21466086D01*
X23964391Y21461707D01*
X24165557Y21178189D01*
X24168539Y21173444D01*
X24336697Y20869185D01*
X24339123Y20864148D01*
X24472158Y20542973D01*
X24474009Y20537683D01*
X24570244Y20203645D01*
X24571495Y20198164D01*
X24629722Y19855460D01*
X24630350Y19849885D01*
X24649843Y19502796D01*
X24649843Y19497204D01*
X24630350Y19150115D01*
X24629722Y19144540D01*
X24571495Y18801836D01*
X24570244Y18796355D01*
X24474009Y18462317D01*
X24472158Y18457027D01*
X24339123Y18135852D01*
X24336697Y18130815D01*
X24168539Y17826556D01*
X24165557Y17821811D01*
X23964391Y17538293D01*
X23960899Y17533914D01*
X23804800Y17359241D01*
X23793050Y17352452D01*
X23793050Y15863500D01*
X23799189Y15863500D01*
X23803805Y15863286D01*
X23997825Y15845308D01*
X24006874Y15843616D01*
X24192069Y15790924D01*
X24200663Y15787594D01*
X24373013Y15701774D01*
X24380843Y15696926D01*
X24534492Y15580896D01*
X24541305Y15574684D01*
X24671018Y15432397D01*
X24676564Y15425053D01*
X24777931Y15261339D01*
X24782029Y15253109D01*
X24851583Y15073567D01*
X24854107Y15064699D01*
X24888431Y14881082D01*
X24866507Y14870005D01*
X24583732Y14870005D01*
X24583732Y14669995D01*
X24874322Y14669995D01*
X24879087Y14668429D01*
X24887205Y14652362D01*
X24854107Y14475301D01*
X24851583Y14466433D01*
X24782029Y14286891D01*
X24777931Y14278661D01*
X24676564Y14114947D01*
X24671018Y14107603D01*
X24541305Y13965316D01*
X24534492Y13959104D01*
X24380843Y13843074D01*
X24373013Y13838226D01*
X24200663Y13752406D01*
X24192069Y13749076D01*
X24006874Y13696384D01*
X23997825Y13694692D01*
X23803805Y13676714D01*
X23799189Y13676500D01*
X23616018Y13676500D01*
X23616018Y13223500D01*
X24590086Y13223500D01*
X24599817Y13222542D01*
X24661877Y13210197D01*
X24679727Y13202804D01*
X24728233Y13170392D01*
X24741892Y13156733D01*
X24774304Y13108227D01*
X24781697Y13090377D01*
X24794042Y13028317D01*
X24795000Y13018586D01*
X24795000Y11441414D01*
X24794042Y11431683D01*
X24781697Y11369623D01*
X24774304Y11351773D01*
X24741892Y11303267D01*
X24728233Y11289608D01*
X24679727Y11257196D01*
X24661877Y11249803D01*
X24599817Y11237458D01*
X24590086Y11236500D01*
X22409914Y11236500D01*
X22409914Y9521174D01*
X22458695Y9574684D01*
X22465508Y9580896D01*
X22619157Y9696926D01*
X22626987Y9701774D01*
X22799337Y9787594D01*
X22807931Y9790924D01*
X22993126Y9843616D01*
X23002175Y9845308D01*
X23196195Y9863286D01*
X23200811Y9863500D01*
X23383982Y9863500D01*
X23388747Y9861934D01*
X23399995Y9839672D01*
X23399995Y9563500D01*
X23198500Y9563500D01*
X23021930Y9543605D01*
X22854213Y9484919D01*
X22703761Y9390383D01*
X22578117Y9264739D01*
X22483581Y9114287D01*
X22424895Y8946570D01*
X22416268Y8870005D01*
X22125678Y8870005D01*
X22125678Y8666046D01*
X22133493Y8669995D01*
X22416268Y8669995D01*
X22424895Y8593430D01*
X22483581Y8425713D01*
X22578117Y8275261D01*
X22703761Y8149617D01*
X22854213Y8055081D01*
X23021930Y7996395D01*
X23198500Y7976500D01*
X23399995Y7976500D01*
X23399995Y7692513D01*
X23398429Y7687748D01*
X23376167Y7676500D01*
X23200811Y7676500D01*
X23200811Y7223500D01*
X23616018Y7223500D01*
X23616018Y7676500D01*
X23611253Y7678066D01*
X23600005Y7700328D01*
X23600005Y7976500D01*
X23801500Y7976500D01*
X23978070Y7996395D01*
X24145787Y8055081D01*
X24296239Y8149617D01*
X24421883Y8275261D01*
X24516419Y8425713D01*
X24575105Y8593430D01*
X24583732Y8669995D01*
X24583732Y8870005D01*
X24575105Y8946570D01*
X24516419Y9114287D01*
X24421883Y9264739D01*
X24296239Y9390383D01*
X24145787Y9484919D01*
X23978070Y9543605D01*
X23801500Y9563500D01*
X23600005Y9563500D01*
X23600005Y9847487D01*
X23601571Y9852252D01*
X23623833Y9863500D01*
X23799189Y9863500D01*
X23803805Y9863286D01*
X23997825Y9845308D01*
X24006874Y9843616D01*
X24192069Y9790924D01*
X24200663Y9787594D01*
X24373013Y9701774D01*
X24380843Y9696926D01*
X24534492Y9580896D01*
X24541305Y9574684D01*
X24671018Y9432397D01*
X24676564Y9425053D01*
X24777931Y9261339D01*
X24782029Y9253109D01*
X24851583Y9073567D01*
X24854107Y9064699D01*
X24888431Y8881082D01*
X24866507Y8870005D01*
X24583732Y8870005D01*
X24583732Y8669995D01*
X24874322Y8669995D01*
X24879087Y8668429D01*
X24887205Y8652362D01*
X24854107Y8475301D01*
X24851583Y8466433D01*
X24782029Y8286891D01*
X24777931Y8278661D01*
X24676564Y8114947D01*
X24671018Y8107603D01*
X24541305Y7965316D01*
X24534492Y7959104D01*
X24380843Y7843074D01*
X24373013Y7838226D01*
X24200663Y7752406D01*
X24192069Y7749076D01*
X24006874Y7696384D01*
X23997825Y7694692D01*
X23803805Y7676714D01*
X23799189Y7676500D01*
X23616018Y7676500D01*
X23616018Y7223500D01*
X24590086Y7223500D01*
X24599817Y7222542D01*
X24661877Y7210197D01*
X24679727Y7202804D01*
X24728233Y7170392D01*
X24741892Y7156733D01*
X24774304Y7108227D01*
X24781697Y7090377D01*
X24794042Y7028317D01*
X24795000Y7018586D01*
X24795000Y5441414D01*
X24794042Y5431683D01*
X24781697Y5369623D01*
X24774304Y5351773D01*
X24741892Y5303267D01*
X24728233Y5289608D01*
X24679727Y5257196D01*
X24661877Y5249803D01*
X24599817Y5237458D01*
X24590086Y5236500D01*
X22409914Y5236500D01*
X22409914Y300000D01*
X25100001Y300000D01*
X25159328Y319500D01*
X25200000Y399999D01*
X25200000Y23100001D01*
X25180500Y23159328D01*
X25100001Y23200000D01*
X399999Y23200000D01*
X340672Y23180500D01*
X300000Y23100001D01*
X300000Y399999D01*
G37*
G04 --- BOARD END --- *
G04 #@! TF.MD5,2feeaaa8ef5376f74fc7d3ac8c8f6ed8*
M02*
