G04 --- HEADER BEGIN --- *
G04 #@! TF.GenerationSoftware,LibrePCB,LibrePCB,2.1.0*
G04 #@! TF.CreationDate,2026-08-16T21:20:06*
G04 #@! TF.ProjectId,Lab-Lamp,1f94bfc4-d831-43e1-86c0-4bc184f53f1f,v1*
G04 #@! TF.Part,Single*
G04 #@! TF.SameCoordinates*
G04 #@! TF.FileFunction,Copper,L1,Top*
G04 #@! TF.FilePolarity,Positive*
%FSLAX66Y66*%
%MOMM*%
G01*
G75*
G04 --- HEADER END --- *
G04 --- APERTURE LIST BEGIN --- *
G04 #@! TA.AperFunction,SMDPad,CuDef*
%AMROUNDEDRECT10*20,1,0.25,-0.4,0.0,0.4,0.0,0.0*20,1,0.125,-0.4625,0.0,0.4625,0.0,0.0*1,1,0.125,-0.4,0.0625*1,1,0.125,0.4,0.0625*1,1,0.125,0.4,-0.0625*1,1,0.125,-0.4,-0.0625*%
%ADD10ROUNDEDRECT10*%
%AMROUNDEDRECT11*20,1,0.25,-0.3375,0.0,0.3375,0.0,90.0*20,1,0.125,-0.4,0.0,0.4,0.0,90.0*1,1,0.125,-0.0625,-0.3375*1,1,0.125,-0.0625,0.3375*1,1,0.125,0.0625,0.3375*1,1,0.125,0.0625,-0.3375*%
%ADD11ROUNDEDRECT11*%
%AMROUNDEDRECT12*20,1,0.25,-0.3375,0.0,0.3375,0.0,0.0*20,1,0.125,-0.4,0.0,0.4,0.0,0.0*1,1,0.125,-0.3375,0.0625*1,1,0.125,0.3375,0.0625*1,1,0.125,0.3375,-0.0625*1,1,0.125,-0.3375,-0.0625*%
%ADD12ROUNDEDRECT12*%
%AMROUNDEDRECT13*20,1,0.25,-0.3,0.0,0.3,0.0,90.0*20,1,0.125,-0.3625,0.0,0.3625,0.0,90.0*1,1,0.125,-0.0625,-0.3*1,1,0.125,-0.0625,0.3*1,1,0.125,0.0625,0.3*1,1,0.125,0.0625,-0.3*%
%ADD13ROUNDEDRECT13*%
%AMROUNDEDRECT14*20,1,0.2,-0.4125,0.0,0.4125,0.0,0.0*20,1,0.1,-0.4625,0.0,0.4625,0.0,0.0*1,1,0.1,-0.4125,0.05*1,1,0.1,0.4125,0.05*1,1,0.1,0.4125,-0.05*1,1,0.1,-0.4125,-0.05*%
%ADD14ROUNDEDRECT14*%
%AMROUNDEDRECT15*20,1,0.425,-0.296875,0.0,0.296875,0.0,90.0*20,1,0.31875,-0.35,0.0,0.35,0.0,90.0*1,1,0.10625,-0.159375,-0.296875*1,1,0.10625,-0.159375,0.296875*1,1,0.10625,0.159375,0.296875*1,1,0.10625,0.159375,-0.296875*%
%ADD15ROUNDEDRECT15*%
%AMROUNDEDRECT16*20,1,0.2,-0.35,0.0,0.35,0.0,90.0*20,1,0.1,-0.4,0.0,0.4,0.0,90.0*1,1,0.1,-0.05,-0.35*1,1,0.1,-0.05,0.35*1,1,0.1,0.05,0.35*1,1,0.1,0.05,-0.35*%
%ADD16ROUNDEDRECT16*%
%AMROUNDEDRECT17*20,1,0.7,-0.4125,0.0,0.4125,0.0,90.0*20,1,0.525,-0.5,0.0,0.5,0.0,90.0*1,1,0.175,-0.2625,-0.4125*1,1,0.175,-0.2625,0.4125*1,1,0.175,0.2625,0.4125*1,1,0.175,0.2625,-0.4125*%
%ADD17ROUNDEDRECT17*%
%AMROUNDEDRECT18*20,1,0.8,-0.45,0.0,0.45,0.0,90.0*20,1,0.4,-0.65,0.0,0.65,0.0,90.0*1,1,0.4,-0.2,-0.45*1,1,0.4,-0.2,0.45*1,1,0.4,0.2,0.45*1,1,0.4,0.2,-0.45*%
%ADD18ROUNDEDRECT18*%
%ADD19R,1.25X0.95*%
%ADD20R,0.5X0.35*%
%ADD21R,0.5X0.4*%
G04 #@! TA.AperFunction,BGAPad,CuDef*
%ADD22C,1.0*%
G04 #@! TA.AperFunction,SMDPad,CuDef*
%ADD23R,0.35X0.5*%
%ADD24R,0.8X0.85*%
%AMROUNDEDRECT25*20,1,0.6,-0.2,0.0,0.2,0.0,0.0*20,1,0.3,-0.35,0.0,0.35,0.0,0.0*1,1,0.3,-0.2,0.15*1,1,0.3,0.2,0.15*1,1,0.3,0.2,-0.15*1,1,0.3,-0.2,-0.15*%
%ADD25ROUNDEDRECT25*%
%ADD26R,3.25X2.15*%
%AMROUNDEDRECT27*20,1,0.95,-0.8375,0.0,0.8375,0.0,90.0*20,1,0.475,-1.075,0.0,1.075,0.0,90.0*1,1,0.475,-0.2375,-0.8375*1,1,0.475,-0.2375,0.8375*1,1,0.475,0.2375,0.8375*1,1,0.475,0.2375,-0.8375*%
%ADD27ROUNDEDRECT27*%
G04 #@! TA.AperFunction,ComponentPad*
%ADD28O,1.587X2.19*%
%ADD29R,1.587X2.19*%
%ADD30O,1.8X1.6*%
%ADD31O,1.6X1.8*%
G04 #@! TA.AperFunction,SMDPad,CuDef*
%AMROUNDEDRECT32*20,1,0.33,-0.5675,0.0,0.5675,0.0,90.0*20,1,0.165,-0.65,0.0,0.65,0.0,90.0*1,1,0.165,-0.0825,-0.5675*1,1,0.165,-0.0825,0.5675*1,1,0.165,0.0825,0.5675*1,1,0.165,0.0825,-0.5675*%
%ADD32ROUNDEDRECT32*%
%AMROUNDEDRECT33*20,1,2.5,-3.75,0.0,3.75,0.0,90.0*20,1,2.0,-4.0,0.0,4.0,0.0,90.0*1,1,0.5,-1.0,-3.75*1,1,0.5,-1.0,3.75*1,1,0.5,1.0,3.75*1,1,0.5,1.0,-3.75*%
%ADD33ROUNDEDRECT33*%
%ADD34R,0.4X0.5*%
G04 #@! TA.AperFunction,ViaPad*
%ADD35C,0.5*%
G04 #@! TA.AperFunction,Conductor*
%ADD36C,0.2*%
%ADD37C,0.5*%
%ADD38C,0.8*%
%ADD39C,0.3*%
%ADD40C,1.0*%
%ADD41C,0.4*%
%ADD42C,0.01*%
G04 #@! TD*
G04 --- APERTURE LIST END --- *
G04 --- BOARD BEGIN --- *
D10*
G04 #@! TO.N,FAULT*
G04 #@! TO.C,U1*
G04 #@! TO.P,U1,10,FAULT*
X23882500Y10300000D03*
D11*
G04 #@! TO.N,N4*
G04 #@! TO.P,U1,18,ISET*
X22545000Y13900000D03*
G04 #@! TO.N,N5*
G04 #@! TO.P,U1,17,IREF*
X23045000Y13900000D03*
D12*
G04 #@! TO.N,N/C*
G04 #@! TO.P,U1,2*
X21145000Y13200000D03*
G04 #@! TO.N,GND*
G04 #@! TO.P,U1,15,AGND*
X23945000Y13200000D03*
G04 #@! TO.N,PWM_OUT*
G04 #@! TO.P,U1,3,EN/DIM*
X21145000Y12700000D03*
G04 #@! TO.N,N6*
G04 #@! TO.P,U1,16,VCC*
X23945000Y13700000D03*
D13*
X23545000Y13937500D03*
D14*
G04 #@! TO.N,GND*
G04 #@! TO.P,U1,12,PGND*
X23882500Y10925000D03*
D13*
G04 #@! TO.N,FAULT*
G04 #@! TO.P,U1,10,FAULT*
X23545000Y10062500D03*
D10*
G04 #@! TO.N,N8*
G04 #@! TO.P,U1,7,BST*
X21207500Y10300000D03*
D15*
G04 #@! TO.N,GND*
G04 #@! TO.P,U1,5,PGND*
X21457500Y11175000D03*
D12*
G04 #@! TO.P,U1,14,INGND*
X23945000Y12700000D03*
D13*
G04 #@! TO.N,N8*
G04 #@! TO.P,U1,7,BST*
X21545000Y10062500D03*
D14*
G04 #@! TO.N,Vin*
G04 #@! TO.P,U1,13,VIN*
X23882500Y12050000D03*
G04 #@! TO.N,GND*
G04 #@! TO.P,U1,12,PGND*
X23882500Y11425000D03*
D16*
G04 #@! TO.N,N7*
G04 #@! TO.P,U1,8,SW*
X22295000Y10100000D03*
D14*
G04 #@! TO.N,GND*
G04 #@! TO.P,U1,5,PGND*
X21207500Y10925000D03*
G04 #@! TO.N,Vin*
G04 #@! TO.P,U1,4,VIN*
X21208000Y12050000D03*
G04 #@! TO.N,GND*
G04 #@! TO.P,U1,5,PGND*
X21207500Y11425000D03*
D16*
G04 #@! TO.N,N7*
G04 #@! TO.P,U1,8,SW*
X22795000Y10100000D03*
D11*
G04 #@! TO.N,N12*
G04 #@! TO.P,U1,19,NTC*
X22045000Y13900000D03*
D15*
G04 #@! TO.N,GND*
G04 #@! TO.P,U1,12,PGND*
X23632000Y11175000D03*
D12*
G04 #@! TO.N,N2*
G04 #@! TO.P,U1,1,DUTY*
X21145000Y13700000D03*
D13*
X21545000Y13937500D03*
D17*
G04 #@! TO.N,N7*
G04 #@! TO.P,U1,8,SW*
X22545000Y10700000D03*
D18*
G04 #@! TO.N,GND*
G04 #@! TO.C,Q1*
G04 #@! TO.P,Q1,2,E*
X9100000Y15050000D03*
G04 #@! TO.N,N10*
G04 #@! TO.P,Q1,3,C*
X8150000Y17250000D03*
G04 #@! TO.N,N17*
G04 #@! TO.P,Q1,1,B*
X7200000Y15050000D03*
D19*
G04 #@! TO.N,Vin*
G04 #@! TO.C,C8*
G04 #@! TO.P,C8,1,1*
X27295000Y13625000D03*
G04 #@! TO.N,GND*
G04 #@! TO.P,C8,2,2*
X27295000Y15375000D03*
D20*
G04 #@! TO.N,N12*
G04 #@! TO.C,R2*
G04 #@! TO.P,R2,2,2*
X21795000Y15075000D03*
G04 #@! TO.N,GND*
G04 #@! TO.P,R2,1,1*
X21795000Y15925000D03*
D21*
G04 #@! TO.N,3.3V*
G04 #@! TO.C,C16*
G04 #@! TO.P,C16,1,1*
X12045000Y7850000D03*
G04 #@! TO.N,GND*
G04 #@! TO.P,C16,2,2*
X12045000Y8650000D03*
D22*
G04 #@! TO.N,IR_OUT*
G04 #@! TO.C,TP2*
G04 #@! TO.P,TP2,1,1*
X8500000Y9500000D03*
D21*
G04 #@! TO.N,OUT*
G04 #@! TO.C,C14*
G04 #@! TO.P,C14,1,1*
X28545000Y7850000D03*
G04 #@! TO.N,GND*
G04 #@! TO.P,C14,2,2*
X28545000Y8650000D03*
D22*
G04 #@! TO.N,ADC_TEMP*
G04 #@! TO.C,TP1*
G04 #@! TO.P,TP1,1,1*
X17545000Y12750000D03*
D23*
G04 #@! TO.N,3.3V*
G04 #@! TO.C,R7*
G04 #@! TO.P,R7,2,2*
X13120000Y10500000D03*
G04 #@! TO.N,N18*
G04 #@! TO.P,R7,1,1*
X13970000Y10500000D03*
G04 #@! TO.N,ADC_V_IN*
G04 #@! TO.C,R10*
G04 #@! TO.P,R10,2,2*
X15720000Y11250000D03*
G04 #@! TO.N,GND*
G04 #@! TO.P,R10,1,1*
X14870000Y11250000D03*
D20*
G04 #@! TO.N,N3*
G04 #@! TO.C,R1*
G04 #@! TO.P,R1,2,2*
X19795000Y10425000D03*
G04 #@! TO.N,N8*
G04 #@! TO.P,R1,1,1*
X19795000Y9575000D03*
D19*
G04 #@! TO.N,OUT*
G04 #@! TO.C,C12*
G04 #@! TO.P,C12,1,1*
X29045000Y6625000D03*
G04 #@! TO.N,GND*
G04 #@! TO.P,C12,2,2*
X29045000Y4875000D03*
D24*
G04 #@! TO.C,C10*
G04 #@! TO.P,C10,2,2*
X27295000Y10525000D03*
G04 #@! TO.N,Vin*
G04 #@! TO.P,C10,1,1*
X27295000Y11975000D03*
D25*
G04 #@! TO.N,GND*
G04 #@! TO.C,LED2*
G04 #@! TO.P,LED2,K,C*
X19765000Y15580000D03*
G04 #@! TO.N,N14*
G04 #@! TO.P,LED2,A,A*
X19765000Y14630000D03*
D26*
G04 #@! TO.N,3.3V*
G04 #@! TO.C,U3*
G04 #@! TO.P,U3,4,OUT*
X14795000Y8150000D03*
D27*
G04 #@! TO.N,GND*
G04 #@! TO.P,U3,1,GND*
X12495000Y2350000D03*
G04 #@! TO.N,3.3V*
G04 #@! TO.P,U3,2,OUT*
X14795000Y2350000D03*
G04 #@! TO.N,Vin*
G04 #@! TO.P,U3,3,IN*
X17095000Y2350000D03*
D23*
G04 #@! TO.N,N1*
G04 #@! TO.C,R13*
G04 #@! TO.P,R13,2,2*
X8575000Y13800000D03*
G04 #@! TO.N,N17*
G04 #@! TO.P,R13,1,1*
X7725000Y13800000D03*
D24*
G04 #@! TO.N,GND*
G04 #@! TO.C,C11*
G04 #@! TO.P,C11,2,2*
X25920000Y10525000D03*
G04 #@! TO.N,Vin*
G04 #@! TO.P,C11,1,1*
X25920000Y11975000D03*
D28*
G04 #@! TO.N,SWCLK*
G04 #@! TO.C,J1*
G04 #@! TO.P,J1,2,2*
X10930000Y22100000D03*
D29*
G04 #@! TO.N,GND*
G04 #@! TO.P,J1,1,1*
X8390000Y22100000D03*
D28*
G04 #@! TO.N,3.3V*
G04 #@! TO.P,J1,4,4*
X16010000Y22100000D03*
G04 #@! TO.N,SWDIO*
G04 #@! TO.P,J1,3,3*
X13470000Y22100000D03*
D25*
G04 #@! TO.N,GND*
G04 #@! TO.C,LED1*
G04 #@! TO.P,LED1,K,C*
X10400000Y7625000D03*
G04 #@! TO.N,N11*
G04 #@! TO.P,LED1,A,A*
X10400000Y8575000D03*
D30*
G04 #@! TO.N,OUT*
G04 #@! TO.C,J5*
G04 #@! TO.P,J5,2,2*
X33800000Y3000000D03*
G04 #@! TO.N,GND*
G04 #@! TO.P,J5,1,1*
X33800000Y5500000D03*
D20*
G04 #@! TO.N,3.3V*
G04 #@! TO.C,R8*
G04 #@! TO.P,R8,2,2*
X10400000Y10325000D03*
G04 #@! TO.N,N11*
G04 #@! TO.P,R8,1,1*
X10400000Y9475000D03*
D23*
G04 #@! TO.N,3.3V*
G04 #@! TO.C,R3*
G04 #@! TO.P,R3,2,2*
X13370000Y19750000D03*
G04 #@! TO.N,FAULT*
G04 #@! TO.P,R3,1,1*
X14220000Y19750000D03*
D31*
G04 #@! TO.N,Vin*
G04 #@! TO.C,J2*
G04 #@! TO.P,J2,2,2*
X33800000Y21450000D03*
G04 #@! TO.N,GND*
G04 #@! TO.P,J2,1,1*
X31300000Y21450000D03*
D21*
G04 #@! TO.N,Vin*
G04 #@! TO.C,C15*
G04 #@! TO.P,C15,1,1*
X17545000Y7850000D03*
G04 #@! TO.N,GND*
G04 #@! TO.P,C15,2,2*
X17545000Y8650000D03*
G04 #@! TO.N,OUT*
G04 #@! TO.C,C13*
G04 #@! TO.P,C13,1,1*
X29545000Y7850000D03*
G04 #@! TO.N,GND*
G04 #@! TO.P,C13,2,2*
X29545000Y8650000D03*
D19*
G04 #@! TO.N,Vin*
G04 #@! TO.C,C9*
G04 #@! TO.P,C9,1,1*
X29045000Y13625000D03*
G04 #@! TO.N,GND*
G04 #@! TO.P,C9,2,2*
X29045000Y15375000D03*
D21*
G04 #@! TO.N,N6*
G04 #@! TO.C,C5*
G04 #@! TO.P,C5,1,1*
X24045000Y15100000D03*
G04 #@! TO.N,GND*
G04 #@! TO.P,C5,2,2*
X24045000Y15900000D03*
D20*
G04 #@! TO.N,N2*
G04 #@! TO.C,R4*
G04 #@! TO.P,R4,2,2*
X21045000Y15075000D03*
G04 #@! TO.N,GND*
G04 #@! TO.P,R4,1,1*
X21045000Y15925000D03*
D32*
G04 #@! TO.N,N/C*
G04 #@! TO.C,U2*
G04 #@! TO.P,U2,8,PA1*
X14920000Y12600000D03*
G04 #@! TO.P,U2,7,PA0*
X14270000Y12600000D03*
G04 #@! TO.N,ADC_TEMP*
G04 #@! TO.P,U2,10,PA3*
X16220000Y12600000D03*
G04 #@! TO.N,N15*
G04 #@! TO.P,U2,11,PA4*
X16220000Y18400000D03*
G04 #@! TO.N,N/C*
G04 #@! TO.P,U2,12,PA5*
X15570000Y18400000D03*
G04 #@! TO.N,N1*
G04 #@! TO.P,U2,1,PB7/PB8*
X10370000Y12600000D03*
G04 #@! TO.N,N/C*
G04 #@! TO.P,U2,15,PA8/PB0/PB1/PB2*
X13620000Y18400000D03*
G04 #@! TO.N,PWM_OUT*
G04 #@! TO.P,U2,13,PA6*
X14920000Y18400000D03*
G04 #@! TO.N,N18*
G04 #@! TO.P,U2,6,NRST*
X13620000Y12600000D03*
G04 #@! TO.N,SWCLK*
G04 #@! TO.P,U2,19,PA14-BOOT0/PA15*
X11020000Y18400000D03*
G04 #@! TO.N,ADC_V_IN*
G04 #@! TO.P,U2,9,PA2*
X15570000Y12600000D03*
G04 #@! TO.N,FAULT*
G04 #@! TO.P,U2,14,PA7*
X14270000Y18400000D03*
G04 #@! TO.N,3.3V*
G04 #@! TO.P,U2,4,VBAT*
X12320000Y12600000D03*
G04 #@! TO.N,IR_OUT*
G04 #@! TO.P,U2,2,PB9/PC14-OSC32_IN*
X11020000Y12600000D03*
G04 #@! TO.N,N/C*
G04 #@! TO.P,U2,16,PA9/PA11*
X12970000Y18400000D03*
G04 #@! TO.N,GND*
G04 #@! TO.P,U2,5,VSS/VSSA*
X12970000Y12600000D03*
G04 #@! TO.N,N/C*
G04 #@! TO.P,U2,3,PC15-OSC32_OUT*
X11670000Y12600000D03*
G04 #@! TO.P,U2,17,PA10/PA12*
X12320000Y18400000D03*
G04 #@! TO.N,SWDIO*
G04 #@! TO.P,U2,18,PA13*
X11670000Y18400000D03*
G04 #@! TO.N,N/C*
G04 #@! TO.P,U2,20,PB3/PB4/PB5/PB6*
X10370000Y18400000D03*
D20*
G04 #@! TO.N,N15*
G04 #@! TO.C,R12*
G04 #@! TO.P,R12,2,2*
X18495000Y15530000D03*
G04 #@! TO.N,N14*
G04 #@! TO.P,R12,1,1*
X18495000Y14680000D03*
D33*
G04 #@! TO.N,N7*
G04 #@! TO.C,L1*
G04 #@! TO.P,L1,1,1*
X21045000Y5000000D03*
G04 #@! TO.N,OUT*
G04 #@! TO.P,L1,2,2*
X26545000Y5000000D03*
D20*
G04 #@! TO.N,N5*
G04 #@! TO.C,R6*
G04 #@! TO.P,R6,2,2*
X23295000Y15075000D03*
G04 #@! TO.N,GND*
G04 #@! TO.P,R6,1,1*
X23295000Y15925000D03*
D19*
G04 #@! TO.N,Vin*
G04 #@! TO.C,C7*
G04 #@! TO.P,C7,1,1*
X25545000Y13625000D03*
G04 #@! TO.N,GND*
G04 #@! TO.P,C7,2,2*
X25545000Y15375000D03*
D23*
G04 #@! TO.N,SWCLK*
G04 #@! TO.C,R11*
G04 #@! TO.P,R11,2,2*
X10470000Y19750000D03*
G04 #@! TO.N,GND*
G04 #@! TO.P,R11,1,1*
X9620000Y19750000D03*
D34*
G04 #@! TO.N,3.3V*
G04 #@! TO.C,C2*
G04 #@! TO.P,C2,1,1*
X11645000Y11250000D03*
G04 #@! TO.N,GND*
G04 #@! TO.P,C2,2,2*
X12445000Y11250000D03*
G04 #@! TO.N,3.3V*
G04 #@! TO.C,C3*
G04 #@! TO.P,C3,1,1*
X11645000Y10500000D03*
G04 #@! TO.N,GND*
G04 #@! TO.P,C3,2,2*
X12445000Y10500000D03*
D30*
G04 #@! TO.N,N10*
G04 #@! TO.C,J3*
G04 #@! TO.P,J3,2,2*
X2700000Y18700000D03*
G04 #@! TO.N,Vin*
G04 #@! TO.P,J3,1,1*
X2700000Y21200000D03*
D23*
G04 #@! TO.C,R9*
G04 #@! TO.P,R9,2,2*
X17345000Y11250000D03*
G04 #@! TO.N,ADC_V_IN*
G04 #@! TO.P,R9,1,1*
X16495000Y11250000D03*
D20*
G04 #@! TO.N,N4*
G04 #@! TO.C,R5*
G04 #@! TO.P,R5,2,2*
X22545000Y15075000D03*
G04 #@! TO.N,GND*
G04 #@! TO.P,R5,1,1*
X22545000Y15925000D03*
D19*
G04 #@! TO.N,Vin*
G04 #@! TO.C,C6*
G04 #@! TO.P,C6,1,1*
X28995000Y11975000D03*
G04 #@! TO.N,GND*
G04 #@! TO.P,C6,2,2*
X28995000Y10225000D03*
D21*
G04 #@! TO.N,N3*
G04 #@! TO.C,C1*
G04 #@! TO.P,C1,1,1*
X19045000Y10400000D03*
G04 #@! TO.N,N7*
G04 #@! TO.P,C1,2,2*
X19045000Y9600000D03*
D34*
G04 #@! TO.N,N18*
G04 #@! TO.C,C4*
G04 #@! TO.P,C4,1,1*
X13945000Y11250000D03*
G04 #@! TO.N,GND*
G04 #@! TO.P,C4,2,2*
X13145000Y11250000D03*
D31*
G04 #@! TO.N,IR_OUT*
G04 #@! TO.C,J4*
G04 #@! TO.P,J4,2,2*
X5950000Y2400000D03*
G04 #@! TO.N,GND*
G04 #@! TO.P,J4,1,1*
X8450000Y2400000D03*
D35*
G04 #@! TD.C*
G04 #@! TD.P*
G04 #@! TO.N,FAULT*
X18795000Y12750000D03*
X23545000Y9250000D03*
D36*
X18795000Y12750000D02*
X17710000Y13835000D01*
X14270000Y18400000D02*
X14270000Y19700000D01*
X23545000Y10062500D02*
X23545000Y9250000D01*
X14270000Y18400000D02*
X14270000Y14885000D01*
X17710000Y13835000D02*
X15320000Y13835000D01*
X23545000Y10062500D02*
X23545000Y10300000D01*
X15320000Y13835000D02*
X14270000Y14885000D01*
X14220000Y19750000D02*
X14270000Y19700000D01*
X23882500Y10300000D02*
X23545000Y10300000D01*
D35*
G04 #@! TO.N,GND*
X27295000Y16375000D03*
X29045000Y16375000D03*
X25545000Y16375000D03*
D37*
X29045000Y15375000D02*
X29045000Y16375000D01*
X25545000Y15375000D02*
X25545000Y16375000D01*
X27295000Y15375000D02*
X27295000Y16375000D01*
D38*
X27295000Y15375000D02*
X29045000Y15375000D01*
X27295000Y15375000D02*
X25545000Y15375000D01*
D35*
X29420000Y3875000D03*
D36*
G04 #@! TO.N,ADC_TEMP*
X17545000Y12750000D02*
X17395000Y12600000D01*
X16220000Y12600000D02*
X17395000Y12600000D01*
D35*
G04 #@! TO.N,GND*
X22545000Y16500000D03*
D36*
X22545000Y15925000D02*
X22545000Y16500000D01*
X23295000Y15925000D02*
X22545000Y15925000D01*
D35*
X12420000Y9875000D03*
D36*
X13045000Y11250000D02*
X12970000Y11325000D01*
X12970000Y12600000D02*
X12970000Y11325000D01*
X12445000Y11250000D02*
X12445000Y10500000D01*
X12445000Y10500000D02*
X12445000Y9875000D01*
X13145000Y11250000D02*
X13045000Y11250000D01*
X12420000Y9875000D02*
X12445000Y9875000D01*
X12445000Y11250000D02*
X13045000Y11250000D01*
D35*
X12045000Y9250000D03*
D39*
X12045000Y8650000D02*
X12045000Y9250000D01*
D36*
G04 #@! TO.N,N18*
X13945000Y11250000D02*
X13945000Y10525000D01*
X13945000Y11250000D02*
X13945000Y11625000D01*
X13970000Y10500000D02*
X13945000Y10525000D01*
X13620000Y12600000D02*
X13620000Y11950000D01*
X13945000Y11625000D02*
X13620000Y11950000D01*
D35*
G04 #@! TO.N,GND*
X22545000Y11750000D03*
G04 #@! TO.N,3.3V*
X12300000Y16700000D03*
X12600000Y19600000D03*
D36*
X13370000Y19750000D02*
X14120000Y20500000D01*
D39*
X12045000Y7850000D02*
X11650000Y7850000D01*
X11500000Y8000000D02*
X11500000Y10355000D01*
D36*
X14120000Y20500000D02*
X14800000Y20500000D01*
D39*
X14795000Y8150000D02*
X14495000Y7850000D01*
X11645000Y10500000D02*
X11500000Y10355000D01*
D36*
X10400000Y10325000D02*
X10925000Y10325000D01*
X14795000Y8150000D02*
X14350000Y8150000D01*
X13370000Y19750000D02*
X12750000Y19750000D01*
X11100000Y10500000D02*
X10925000Y10325000D01*
D39*
X11500000Y8000000D02*
X11650000Y7850000D01*
D36*
X16010000Y22100000D02*
X16010000Y21710000D01*
D39*
X11645000Y11250000D02*
X11645000Y11345000D01*
X12320000Y12600000D02*
X12320000Y12020000D01*
D36*
X13120000Y10500000D02*
X13120000Y9380000D01*
X11645000Y10500000D02*
X11100000Y10500000D01*
X12320000Y12600000D02*
X12300000Y12620000D01*
D39*
X11645000Y11345000D02*
X12320000Y12020000D01*
D36*
X12300000Y16700000D02*
X12300000Y12620000D01*
D39*
X14795000Y8150000D02*
X14795000Y2350000D01*
X11645000Y11250000D02*
X11645000Y10500000D01*
D36*
X16010000Y21710000D02*
X14800000Y20500000D01*
X12600000Y19600000D02*
X12750000Y19750000D01*
X14350000Y8150000D02*
X13120000Y9380000D01*
D39*
X12045000Y7850000D02*
X14495000Y7850000D01*
D36*
G04 #@! TO.N,N2*
X21545000Y14250000D02*
X21045000Y14750000D01*
X21545000Y13937500D02*
X21545000Y14250000D01*
X21145000Y13700000D02*
X21545000Y13700000D01*
X21045000Y15075000D02*
X21045000Y14750000D01*
X21545000Y13937500D02*
X21545000Y13700000D01*
G04 #@! TO.N,N6*
X24045000Y14750000D02*
X23545000Y14250000D01*
X23545000Y13937500D02*
X23545000Y14250000D01*
X24045000Y15100000D02*
X24045000Y14750000D01*
X23945000Y13700000D02*
X23545000Y13700000D01*
X23545000Y13937500D02*
X23545000Y13700000D01*
D40*
G04 #@! TO.N,Vin*
X33800000Y17950000D02*
X28995000Y13145000D01*
X33800000Y21450000D02*
X33800000Y17950000D01*
X28995000Y11975000D02*
X28995000Y13145000D01*
D35*
G04 #@! TO.N,GND*
X22545000Y13000000D03*
D36*
X23945000Y13200000D02*
X23945000Y12700000D01*
X22545000Y13000000D02*
X22745000Y13200000D01*
X23945000Y13200000D02*
X22745000Y13200000D01*
G04 #@! TO.N,N14*
X19765000Y14630000D02*
X19715000Y14680000D01*
X18495000Y14680000D02*
X19715000Y14680000D01*
D35*
G04 #@! TO.N,GND*
X12900000Y3900000D03*
D36*
G04 #@! TO.N,N17*
X7200000Y14000000D02*
X7400000Y13800000D01*
X7200000Y15050000D02*
X7200000Y14000000D01*
X7725000Y13800000D02*
X7400000Y13800000D01*
G04 #@! TO.N,N3*
X19045000Y10400000D02*
X19770000Y10400000D01*
X19795000Y10425000D02*
X19770000Y10400000D01*
G04 #@! TO.N,N12*
X22045000Y14500000D02*
X21795000Y14750000D01*
X22045000Y13900000D02*
X22045000Y14500000D01*
X21795000Y15075000D02*
X21795000Y14750000D01*
D35*
G04 #@! TO.N,GND*
X10400000Y6900000D03*
D36*
X10400000Y7625000D02*
X10400000Y6900000D01*
G04 #@! TO.N,N1*
X10370000Y12600000D02*
X10370000Y13180000D01*
X10370000Y13180000D02*
X9750000Y13800000D01*
X8575000Y13800000D02*
X9750000Y13800000D01*
D35*
G04 #@! TO.N,GND*
X28670000Y3875000D03*
X19765000Y16375000D03*
D36*
X19765000Y15580000D02*
X19765000Y16375000D01*
D35*
X9100000Y16150000D03*
D37*
X9100000Y15050000D02*
X9100000Y15050000D01*
X9100000Y16150000D02*
X9100000Y15050000D01*
D36*
G04 #@! TO.N,ADC_V_IN*
X15570000Y12600000D02*
X15570000Y11400000D01*
X15720000Y11250000D02*
X16495000Y11250000D01*
X15720000Y11250000D02*
X15570000Y11400000D01*
G04 #@! TO.N,IR_OUT*
X8500000Y9500000D02*
X5950000Y6950000D01*
X5950000Y2400000D02*
X5950000Y6950000D01*
X11020000Y12600000D02*
X11020000Y12020000D01*
X8500000Y9500000D02*
X11020000Y12020000D01*
G04 #@! TO.N,N15*
X16220000Y16745000D02*
X17435000Y15530000D01*
X18495000Y15530000D02*
X17435000Y15530000D01*
X16220000Y18400000D02*
X16220000Y16745000D01*
G04 #@! TO.N,SWDIO*
X13470000Y22100000D02*
X11670000Y20300000D01*
X11670000Y18400000D02*
X11670000Y20300000D01*
G04 #@! TO.N,N5*
X23045000Y13900000D02*
X23045000Y14500000D01*
X23295000Y15075000D02*
X23295000Y14750000D01*
X23295000Y14750000D02*
X23045000Y14500000D01*
D35*
G04 #@! TO.N,GND*
X12100000Y3900000D03*
D36*
G04 #@! TO.N,N7*
X19045000Y9600000D02*
X21045000Y7100000D01*
X21045000Y5000000D02*
X21045000Y7100000D01*
D35*
G04 #@! TO.N,GND*
X20420000Y11250000D03*
X9545000Y19050000D03*
D36*
X9545000Y19050000D02*
X9545000Y19675000D01*
X9620000Y19750000D02*
X9545000Y19675000D01*
G04 #@! TO.N,N4*
X22545000Y13900000D02*
X22545000Y15075000D01*
D40*
G04 #@! TO.N,OUT*
X31400000Y5050000D02*
X31400000Y3950000D01*
X32350000Y3000000D02*
X31400000Y3950000D01*
X31400000Y5050000D02*
X30050000Y6400000D01*
X33800000Y3000000D02*
X32350000Y3000000D01*
D37*
G04 #@! TO.N,N10*
X2700000Y18700000D02*
X6700000Y18700000D01*
X8150000Y17250000D02*
X6700000Y18700000D01*
D36*
G04 #@! TO.N,SWCLK*
X10930000Y22100000D02*
X10930000Y20210000D01*
X10470000Y19750000D02*
X11020000Y19200000D01*
X10470000Y19750000D02*
X10930000Y20210000D01*
X11020000Y18400000D02*
X11020000Y19200000D01*
D35*
G04 #@! TO.N,GND*
X14920000Y10375000D03*
D36*
X14870000Y11250000D02*
X14870000Y10375000D01*
X14920000Y10375000D02*
X14870000Y10375000D01*
G04 #@! TO.N,N8*
X19795000Y9575000D02*
X20520000Y10300000D01*
X21207500Y10300000D02*
X21545000Y10300000D01*
X21207500Y10300000D02*
X20520000Y10300000D01*
X21545000Y10062500D02*
X21545000Y10300000D01*
D39*
G04 #@! TO.N,Vin*
X17545000Y7850000D02*
X18020000Y7850000D01*
X18295000Y8125000D02*
X18295000Y11250000D01*
D41*
X23882500Y12050000D02*
X23370000Y12050000D01*
D39*
X17345000Y11250000D02*
X18295000Y11250000D01*
X18020000Y7850000D02*
X18295000Y8125000D01*
D41*
X23045000Y12375000D02*
X22045000Y12375000D01*
D39*
X17095000Y2350000D02*
X17095000Y7400000D01*
D41*
X23045000Y12375000D02*
X23370000Y12050000D01*
X21208000Y12050000D02*
X21720000Y12050000D01*
D39*
X21208000Y12050000D02*
X19095000Y12050000D01*
X17545000Y7850000D02*
X17095000Y7400000D01*
X18295000Y11250000D02*
X19095000Y12050000D01*
D41*
X21720000Y12050000D02*
X22045000Y12375000D01*
D35*
G04 #@! TO.N,GND*
X29545000Y9250000D03*
X25920000Y9625000D03*
X28545000Y9250000D03*
X27295000Y9625000D03*
X24670000Y11250000D03*
D41*
X28545000Y8650000D02*
X28545000Y9250000D01*
X29545000Y9250000D02*
X29545000Y9655000D01*
X28995000Y10225000D02*
X29075000Y10125000D01*
X28995000Y10225000D02*
X28545000Y9875000D01*
X28545000Y9250000D02*
X28545000Y9875000D01*
D38*
X24670000Y11250000D02*
X25395000Y10525000D01*
D37*
X25920000Y10525000D02*
X25920000Y9625000D01*
D38*
X27295000Y10525000D02*
X28995000Y10225000D01*
X25920000Y10525000D02*
X25395000Y10525000D01*
X25920000Y10525000D02*
X25945000Y10500000D01*
D41*
X29075000Y10125000D02*
X29545000Y9655000D01*
X29545000Y8650000D02*
X29545000Y9250000D01*
D37*
X27295000Y10525000D02*
X27295000Y9625000D01*
D38*
X27295000Y10525000D02*
X25945000Y10500000D01*
D35*
X21795000Y16500000D03*
D36*
X21795000Y15925000D02*
X21045000Y15925000D01*
X21795000Y15925000D02*
X21795000Y16500000D01*
D35*
X17545000Y9375000D03*
D36*
X17545000Y8650000D02*
X17545000Y9375000D01*
G04 #@! TO.N,N11*
X10400000Y8575000D02*
X10400000Y9475000D01*
G04 #@! TO.N,PWM_OUT*
X15955000Y14470000D02*
X17860000Y14470000D01*
X21145000Y12700000D02*
X19630000Y12700000D01*
X19630000Y12700000D02*
X17860000Y14470000D01*
X14920000Y18400000D02*
X14920000Y15505000D01*
X14920000Y15505000D02*
X15955000Y14470000D01*
D35*
G04 #@! TO.N,GND*
X24045000Y16500000D03*
D36*
X24045000Y15900000D02*
X24045000Y16500000D01*
D42*
G04 #@! TA.AperFunction,Conductor*
G36*
X28295000Y3791421D02*
X28324289Y3720711D01*
X28515711Y3529289D01*
X28586421Y3500000D01*
X29503579Y3500000D01*
X29574289Y3529289D01*
X29765711Y3720711D01*
X29795000Y3791421D01*
X29795000Y5083579D01*
X29765711Y5154289D01*
X29699289Y5220711D01*
X29628579Y5250000D01*
X28461421Y5250000D01*
X28390711Y5220711D01*
X28324289Y5154289D01*
X28295000Y5083579D01*
X28295000Y3791421D01*
G37*
G04 #@! TO.N,OUT*
G36*
X25295000Y2099999D02*
X25314500Y2040672D01*
X25394999Y2000000D01*
X27503579Y2000000D01*
X27574289Y2029289D01*
X27640711Y2095711D01*
X27670000Y2166421D01*
X27670000Y5354956D01*
X27684256Y5389090D01*
X28085961Y5786124D01*
X28119738Y5800000D01*
X29758579Y5800000D01*
X29829289Y5829289D01*
X30520711Y6520711D01*
X30550000Y6591421D01*
X30550000Y8050001D01*
X30530500Y8109328D01*
X30450001Y8150000D01*
X28169782Y8150000D01*
X28135954Y8163930D01*
X27574238Y8721004D01*
X27503822Y8750000D01*
X25461421Y8750000D01*
X25390711Y8720711D01*
X25324289Y8654289D01*
X25295000Y8583579D01*
X25295000Y2099999D01*
G37*
G04 #@! TO.N,GND*
G36*
X11800000Y2641421D02*
X11829289Y2570711D01*
X12070711Y2329289D01*
X12141421Y2300000D01*
X12858579Y2300000D01*
X12929289Y2329289D01*
X13170711Y2570711D01*
X13200000Y2641421D01*
X13200000Y3958579D01*
X13170711Y4029289D01*
X13029289Y4170711D01*
X12958579Y4200000D01*
X12041421Y4200000D01*
X11970711Y4170711D01*
X11829289Y4029289D01*
X11800000Y3958579D01*
X11800000Y2641421D01*
G37*
G04 #@! TO.N,Vin*
G36*
X23700000Y11941421D02*
X23729289Y11870711D01*
X23745711Y11854289D01*
X23816421Y11825000D01*
X24497939Y11825000D01*
X24527689Y11829528D01*
X24556068Y11838371D01*
X24567886Y11840537D01*
X24700195Y11848540D01*
X24712173Y11847815D01*
X24842553Y11823922D01*
X24854017Y11820350D01*
X24868655Y11813762D01*
X24871092Y11809601D01*
X24899036Y11792160D01*
X24900449Y11791575D01*
X24921460Y11789997D01*
X24974886Y11765952D01*
X24985166Y11759738D01*
X25091886Y11676127D01*
X25096400Y11672128D01*
X25439239Y11329289D01*
X25509949Y11300000D01*
X27680109Y11300000D01*
X27714065Y11285935D01*
X27870711Y11129289D01*
X27941421Y11100000D01*
X29658579Y11100000D01*
X29729289Y11129289D01*
X29970711Y11370711D01*
X30000000Y11441421D01*
X30000000Y13958579D01*
X29970711Y14029289D01*
X29629289Y14370711D01*
X29558579Y14400000D01*
X25041421Y14400000D01*
X24970711Y14370711D01*
X24729289Y14129289D01*
X24700000Y14058579D01*
X24700000Y12619891D01*
X24685935Y12585935D01*
X24414065Y12314065D01*
X24380109Y12300000D01*
X23799999Y12300000D01*
X23740672Y12280500D01*
X23700000Y12200001D01*
X23700000Y11941421D01*
G37*
G04 #@! TO.N,N7*
G36*
X19670000Y1666421D02*
X19699289Y1595711D01*
X20015711Y1279289D01*
X20086421Y1250000D01*
X22128579Y1250000D01*
X22199289Y1279289D01*
X23015711Y2095711D01*
X23045000Y2166421D01*
X23045000Y10675737D01*
X23015711Y10746447D01*
X22986341Y10775817D01*
X22980139Y10783373D01*
X22948611Y10830558D01*
X22899436Y10869053D01*
X22865465Y10875000D01*
X22224535Y10875000D01*
X22165208Y10855500D01*
X22141389Y10830558D01*
X22109861Y10783373D01*
X22103659Y10775817D01*
X22074289Y10746447D01*
X22045000Y10675737D01*
X22045000Y9894891D01*
X22030935Y9860935D01*
X21874344Y9704344D01*
X21855954Y9679032D01*
X21823439Y9615216D01*
X21814304Y9602643D01*
X21767357Y9555696D01*
X21754784Y9546561D01*
X21690968Y9514046D01*
X21665656Y9495656D01*
X21434065Y9264065D01*
X21400109Y9250000D01*
X20211421Y9250000D01*
X20140711Y9220711D01*
X19699289Y8779289D01*
X19670000Y8708579D01*
X19670000Y1666421D01*
G37*
G04 #@! TO.N,GND*
G36*
X20170000Y10916421D02*
X20199289Y10845711D01*
X20265711Y10779289D01*
X20336421Y10750000D01*
X21753579Y10750000D01*
X21824289Y10779289D01*
X21965711Y10920711D01*
X21995000Y10991421D01*
X21995000Y11108569D01*
X21995615Y11116382D01*
X22007840Y11193571D01*
X22012643Y11208352D01*
X22046336Y11274478D01*
X22055472Y11287052D01*
X22107948Y11339528D01*
X22120522Y11348664D01*
X22186648Y11382357D01*
X22201429Y11387160D01*
X22278618Y11399385D01*
X22286431Y11400000D01*
X22803569Y11400000D01*
X22811382Y11399385D01*
X22888571Y11387160D01*
X22903352Y11382357D01*
X22969478Y11348664D01*
X22982052Y11339528D01*
X23034528Y11287052D01*
X23043664Y11274478D01*
X23077357Y11208352D01*
X23082160Y11193571D01*
X23094385Y11116382D01*
X23095000Y11108569D01*
X23095000Y10991421D01*
X23124289Y10920711D01*
X23265711Y10779289D01*
X23336421Y10750000D01*
X24753579Y10750000D01*
X24824289Y10779289D01*
X24890711Y10845711D01*
X24920000Y10916421D01*
X24920000Y11458579D01*
X24890711Y11529289D01*
X24824289Y11595711D01*
X24753579Y11625000D01*
X23314891Y11625000D01*
X23280935Y11639065D01*
X23265808Y11654192D01*
X23240500Y11672580D01*
X23225352Y11680299D01*
X23210850Y11686306D01*
X23195885Y11691168D01*
X23182037Y11698224D01*
X23169305Y11707474D01*
X23155927Y11715673D01*
X23141897Y11722822D01*
X23129319Y11731960D01*
X23118189Y11743090D01*
X23106256Y11753281D01*
X23090340Y11764844D01*
X23084380Y11769935D01*
X23008604Y11845711D01*
X22937894Y11875000D01*
X22152106Y11875000D01*
X22081396Y11845711D01*
X22005620Y11769935D01*
X21999661Y11764845D01*
X21983745Y11753282D01*
X21971812Y11743091D01*
X21960677Y11731956D01*
X21948106Y11722823D01*
X21934072Y11715672D01*
X21920693Y11707473D01*
X21907964Y11698225D01*
X21894109Y11691165D01*
X21879145Y11686303D01*
X21864647Y11680298D01*
X21850617Y11673149D01*
X21835834Y11668346D01*
X21820278Y11665882D01*
X21805022Y11662219D01*
X21790061Y11657358D01*
X21774704Y11654926D01*
X21758973Y11654926D01*
X21743330Y11653695D01*
X21723882Y11650615D01*
X21716069Y11650000D01*
X21211931Y11650000D01*
X21204118Y11650615D01*
X21092164Y11668346D01*
X21077383Y11673149D01*
X21046075Y11689101D01*
X21000676Y11700000D01*
X20286421Y11700000D01*
X20215711Y11670711D01*
X20199289Y11654289D01*
X20170000Y11583579D01*
X20170000Y10916421D01*
G37*
G04 --- BOARD END --- *
G04 #@! TF.MD5,9fb71af38babb53735b8fa926407ef5d*
M02*
