G04 --- HEADER BEGIN --- *
G04 #@! TF.GenerationSoftware,LibrePCB,LibrePCB,2.1.1*
G04 #@! TF.CreationDate,2026-08-29T23:07:21*
G04 #@! TF.ProjectId,Lab-Lamp,1f94bfc4-d831-43e1-86c0-4bc184f53f1f,v1*
G04 #@! TF.Part,Single*
G04 #@! TF.SameCoordinates*
G04 #@! TF.FileFunction,Legend,Top*
G04 #@! TF.FilePolarity,Positive*
%FSLAX66Y66*%
%MOMM*%
G01*
G75*
G04 --- HEADER END --- *
G04 --- APERTURE LIST BEGIN --- *
%ADD10C,0.25*%
%ADD11C,0.15*%
%ADD12C,0.1*%
%ADD13C,0.2*%
%ADD14C,0.01*%
%AMROUNDEDRECT15*20,1,0.45,-0.4,0.0,0.4,0.0,0.0*20,1,0.125,-0.5625,0.0,0.5625,0.0,0.0*1,1,0.325,-0.4,0.0625*1,1,0.325,0.4,0.0625*1,1,0.325,0.4,-0.0625*1,1,0.325,-0.4,-0.0625*%
%ADD15ROUNDEDRECT15*%
%AMROUNDEDRECT16*20,1,0.45,-0.3375,0.0,0.3375,0.0,90.0*20,1,0.125,-0.5,0.0,0.5,0.0,90.0*1,1,0.325,-0.0625,-0.3375*1,1,0.325,-0.0625,0.3375*1,1,0.325,0.0625,0.3375*1,1,0.325,0.0625,-0.3375*%
%ADD16ROUNDEDRECT16*%
%AMROUNDEDRECT17*20,1,0.45,-0.3375,0.0,0.3375,0.0,0.0*20,1,0.125,-0.5,0.0,0.5,0.0,0.0*1,1,0.325,-0.3375,0.0625*1,1,0.325,0.3375,0.0625*1,1,0.325,0.3375,-0.0625*1,1,0.325,-0.3375,-0.0625*%
%ADD17ROUNDEDRECT17*%
%AMROUNDEDRECT18*20,1,0.45,-0.3,0.0,0.3,0.0,90.0*20,1,0.125,-0.4625,0.0,0.4625,0.0,90.0*1,1,0.325,-0.0625,-0.3*1,1,0.325,-0.0625,0.3*1,1,0.325,0.0625,0.3*1,1,0.325,0.0625,-0.3*%
%ADD18ROUNDEDRECT18*%
%AMROUNDEDRECT19*20,1,0.4,-0.4125,0.0,0.4125,0.0,0.0*20,1,0.1,-0.5625,0.0,0.5625,0.0,0.0*1,1,0.3,-0.4125,0.05*1,1,0.3,0.4125,0.05*1,1,0.3,0.4125,-0.05*1,1,0.3,-0.4125,-0.05*%
%ADD19ROUNDEDRECT19*%
%AMROUNDEDRECT20*20,1,0.625,-0.296875,0.0,0.296875,0.0,90.0*20,1,0.31875,-0.45,0.0,0.45,0.0,90.0*1,1,0.30625,-0.159375,-0.296875*1,1,0.30625,-0.159375,0.296875*1,1,0.30625,0.159375,0.296875*1,1,0.30625,0.159375,-0.296875*%
%ADD20ROUNDEDRECT20*%
%AMROUNDEDRECT21*20,1,0.4,-0.35,0.0,0.35,0.0,90.0*20,1,0.1,-0.5,0.0,0.5,0.0,90.0*1,1,0.3,-0.05,-0.35*1,1,0.3,-0.05,0.35*1,1,0.3,0.05,0.35*1,1,0.3,0.05,-0.35*%
%ADD21ROUNDEDRECT21*%
%AMROUNDEDRECT22*20,1,0.9,-0.4125,0.0,0.4125,0.0,90.0*20,1,0.525,-0.6,0.0,0.6,0.0,90.0*1,1,0.375,-0.2625,-0.4125*1,1,0.375,-0.2625,0.4125*1,1,0.375,0.2625,0.4125*1,1,0.375,0.2625,-0.4125*%
%ADD22ROUNDEDRECT22*%
%AMROUNDEDRECT23*20,1,1.15,-0.625,0.0,0.625,0.0,90.0*20,1,0.95,-0.725,0.0,0.725,0.0,90.0*1,1,0.2,-0.475,-0.625*1,1,0.2,-0.475,0.625*1,1,0.2,0.475,0.625*1,1,0.2,0.475,-0.625*%
%ADD23ROUNDEDRECT23*%
%AMROUNDEDRECT24*20,1,1.0,-0.45,0.0,0.45,0.0,90.0*20,1,0.4,-0.75,0.0,0.75,0.0,90.0*1,1,0.6,-0.2,-0.45*1,1,0.6,-0.2,0.45*1,1,0.6,0.2,0.45*1,1,0.6,0.2,-0.45*%
%ADD24ROUNDEDRECT24*%
%AMROUNDEDRECT25*20,1,1.15,-0.625,0.0,0.625,0.0,0.0*20,1,0.95,-0.725,0.0,0.725,0.0,0.0*1,1,0.2,-0.625,0.475*1,1,0.2,0.625,0.475*1,1,0.2,0.625,-0.475*1,1,0.2,-0.625,-0.475*%
%ADD25ROUNDEDRECT25*%
%AMROUNDEDRECT26*20,1,0.55,-0.25,0.0,0.25,0.0,0.0*20,1,0.35,-0.35,0.0,0.35,0.0,0.0*1,1,0.2,-0.25,0.175*1,1,0.2,0.25,0.175*1,1,0.2,0.25,-0.175*1,1,0.2,-0.25,-0.175*%
%ADD26ROUNDEDRECT26*%
%ADD27C,1.2*%
%AMROUNDEDRECT28*20,1,0.6,-0.25,0.0,0.25,0.0,0.0*20,1,0.4,-0.35,0.0,0.35,0.0,0.0*1,1,0.2,-0.25,0.2*1,1,0.2,0.25,0.2*1,1,0.2,0.25,-0.2*1,1,0.2,-0.25,-0.2*%
%ADD28ROUNDEDRECT28*%
%AMROUNDEDRECT29*20,1,0.55,-0.25,0.0,0.25,0.0,90.0*20,1,0.35,-0.35,0.0,0.35,0.0,90.0*1,1,0.2,-0.175,-0.25*1,1,0.2,-0.175,0.25*1,1,0.2,0.175,0.25*1,1,0.2,0.175,-0.25*%
%ADD29ROUNDEDRECT29*%
%AMROUNDEDRECT30*20,1,0.6,-0.25,0.0,0.25,0.0,90.0*20,1,0.4,-0.35,0.0,0.35,0.0,90.0*1,1,0.2,-0.2,-0.25*1,1,0.2,-0.2,0.25*1,1,0.2,0.2,0.25*1,1,0.2,0.2,-0.25*%
%ADD30ROUNDEDRECT30*%
%AMROUNDEDRECT31*20,1,1.0,-0.425,0.0,0.425,0.0,90.0*20,1,0.8,-0.525,0.0,0.525,0.0,90.0*1,1,0.2,-0.4,-0.425*1,1,0.2,-0.4,0.425*1,1,0.2,0.4,0.425*1,1,0.2,0.4,-0.425*%
%ADD31ROUNDEDRECT31*%
%AMROUNDEDRECT32*20,1,0.8,-0.2,0.0,0.2,0.0,0.0*20,1,0.3,-0.45,0.0,0.45,0.0,0.0*1,1,0.5,-0.2,0.15*1,1,0.5,0.2,0.15*1,1,0.5,0.2,-0.15*1,1,0.5,-0.2,-0.15*%
%ADD32ROUNDEDRECT32*%
%ADD33O,1.787X2.39*%
%AMROUNDEDRECT34*20,1,1.787,-1.095,0.0,1.095,0.0,90.0*20,1,1.587,-1.195,0.0,1.195,0.0,90.0*1,1,0.2,-0.7935,-1.095*1,1,0.2,-0.7935,1.095*1,1,0.2,0.7935,1.095*1,1,0.2,0.7935,-1.095*%
%ADD34ROUNDEDRECT34*%
%ADD35O,2.0X1.8*%
%ADD36O,1.8X2.0*%
%AMROUNDEDRECT37*20,1,0.53,-0.5675,0.0,0.5675,0.0,90.0*20,1,0.165,-0.75,0.0,0.75,0.0,90.0*1,1,0.365,-0.0825,-0.5675*1,1,0.365,-0.0825,0.5675*1,1,0.365,0.0825,0.5675*1,1,0.365,0.0825,-0.5675*%
%ADD37ROUNDEDRECT37*%
%AMROUNDEDRECT38*20,1,2.7,-3.75,0.0,3.75,0.0,90.0*20,1,2.0,-4.1,0.0,4.1,0.0,90.0*1,1,0.7,-1.0,-3.75*1,1,0.7,-1.0,3.75*1,1,0.7,1.0,3.75*1,1,0.7,1.0,-3.75*%
%ADD38ROUNDEDRECT38*%
%AMROUNDEDRECT39*20,1,0.8,-0.4,0.0,0.4,0.0,90.0*20,1,0.3,-0.65,0.0,0.65,0.0,90.0*1,1,0.5,-0.15,-0.4*1,1,0.5,-0.15,0.4*1,1,0.5,0.15,0.4*1,1,0.5,0.15,-0.4*%
%ADD39ROUNDEDRECT39*%
%AMROUNDEDRECT40*20,1,1.0,-1.15,0.0,1.15,0.0,90.0*20,1,0.4,-1.45,0.0,1.45,0.0,90.0*1,1,0.6,-0.2,-1.15*1,1,0.6,-0.2,1.15*1,1,0.6,0.2,1.15*1,1,0.6,0.2,-1.15*%
%ADD40ROUNDEDRECT40*%
%ADD41C,3.4*%
G04 --- APERTURE LIST END --- *
G04 --- BOARD BEGIN --- *
D10*
G04 #@! TO.C,C20*
X13425000Y8900000D02*
X13675000Y8900000D01*
X13425000Y7400000D02*
X13675000Y7400000D01*
D11*
G04 #@! TO.C,Q1*
X7850000Y15425000D02*
X8450000Y15425000D01*
X6550000Y14450000D02*
X6550000Y15800000D01*
X6625000Y15800000D01*
X6625000Y16875000D01*
X7350000Y16875000D01*
X9675000Y15800000D02*
X9675000Y16875000D01*
X8950000Y16875000D01*
D10*
G04 #@! TO.C,C8*
X26545000Y14375000D02*
X26545000Y14625000D01*
X28045000Y14375000D02*
X28045000Y14625000D01*
D12*
G04 #@! TO.C,TP2*
X9100000Y9500000D02*
G02*
X7900000Y9500000I-600000J0D01*
G01*
G02*
X9100000Y9500000I600000J0D01*
G01*
G04 #@! TO.C,TP1*
X18145000Y12750000D02*
G02*
X16945000Y12750000I-600000J0D01*
G01*
G02*
X18145000Y12750000I600000J0D01*
G01*
D10*
G04 #@! TO.C,C12*
X29795000Y5875000D02*
X29795000Y5625000D01*
X28295000Y5875000D02*
X28295000Y5625000D01*
D11*
G04 #@! TO.C,C10*
X26820000Y11325000D02*
X26820000Y11175000D01*
X27770000Y11325000D02*
X27770000Y11175000D01*
D13*
G04 #@! TO.C,LED2*
X19365000Y16105000D02*
X20165000Y16105000D01*
D11*
G04 #@! TO.C,C11*
X25445000Y11325000D02*
X25445000Y11175000D01*
X26395000Y11325000D02*
X26395000Y11175000D01*
D10*
G04 #@! TO.C,J1*
X7265000Y23495000D02*
X9390000Y23495000D01*
X9660000Y23225000D01*
X9930000Y23495000D01*
X11930000Y23495000D01*
X12200000Y23225000D01*
X12470000Y23495000D01*
X14470000Y23495000D01*
X14740000Y23225000D01*
X15010000Y23495000D01*
X17135000Y23495000D01*
X17405000Y23225000D01*
X17405000Y20975000D01*
X17135000Y20705000D01*
X15010000Y20705000D01*
X14740000Y20975000D01*
X14470000Y20705000D01*
X12470000Y20705000D01*
X12200000Y20975000D01*
X11930000Y20705000D01*
X9930000Y20705000D01*
X9660000Y20975000D01*
X9390000Y20705000D01*
X7265000Y20705000D01*
X6995000Y20975000D01*
X6995000Y23225000D01*
X7265000Y23495000D01*
D13*
G04 #@! TO.C,LED1*
X10800000Y7100000D02*
X10000000Y7100000D01*
G04 #@! TO.C,J5*
X36150000Y7950000D02*
X30400000Y7950000D01*
X36150000Y7950000D02*
X36150000Y550000D01*
X30400000Y7950000D02*
X30400000Y550000D01*
X30400000Y550000D02*
X36150000Y550000D01*
G04 #@! TO.C,J2*
X28850000Y23800000D02*
X28850000Y18050000D01*
X28850000Y23800000D02*
X36250000Y23800000D01*
X28850000Y18050000D02*
X36250000Y18050000D01*
X36250000Y18050000D02*
X36250000Y23800000D01*
D10*
G04 #@! TO.C,C9*
X28295000Y14375000D02*
X28295000Y14625000D01*
X29795000Y14375000D02*
X29795000Y14625000D01*
G04 #@! TO.C,U2*
X16670000Y13425000D02*
X16670000Y17575000D01*
X9920000Y12075000D02*
X9920000Y17575000D01*
G04 #@! TO.C,C7*
X24795000Y14375000D02*
X24795000Y14625000D01*
X26295000Y14375000D02*
X26295000Y14625000D01*
D13*
G04 #@! TO.C,U4*
X15550000Y2900000D02*
X15550000Y3900000D01*
X15500000Y3900000D01*
X15500000Y5700000D01*
X15550000Y5700000D01*
X18550000Y5700000D02*
X18600000Y5700000D01*
X18600000Y3900000D01*
X18550000Y3900000D01*
D12*
G04 #@! TO.C,LOGO2*
X7205627Y10493352D02*
X7145654Y10394575D01*
X7152252Y10387833D01*
X7166953Y10377685D01*
X7182117Y10368927D01*
X7190104Y10366352D01*
X7253825Y10466718D01*
X7312518Y10562850D01*
X7289411Y10577666D01*
X7268421Y10589308D01*
X7248930Y10560909D01*
X7205627Y10493352D01*
X7205627Y10493352D01*
X7048993Y10403394D02*
X7038895Y10396603D01*
X7031707Y10389283D01*
X7028576Y10382183D01*
X7029871Y10380502D01*
X7033118Y10379052D01*
X7052477Y10370145D01*
X7069454Y10357533D01*
X7074057Y10352804D01*
X7075848Y10349331D01*
X7075060Y10345726D01*
X7071924Y10340600D01*
X7065926Y10331427D01*
X7052874Y10339189D01*
X7027474Y10355416D01*
X7015479Y10363530D01*
X7002074Y10342364D01*
X6988668Y10320138D01*
X7013363Y10303558D01*
X7037704Y10288741D01*
X7032413Y10278511D01*
X7028984Y10272563D01*
X7025357Y10270617D01*
X7019613Y10272706D01*
X7009835Y10278863D01*
X6987963Y10292269D01*
X6975263Y10300030D01*
X6962563Y10279922D01*
X6949863Y10257697D01*
X6974204Y10240763D01*
X6998899Y10225594D01*
X6992901Y10215363D01*
X6989401Y10209730D01*
X6986331Y10207338D01*
X6982136Y10207724D01*
X6975263Y10210425D01*
X6953611Y10222287D01*
X6938574Y10234413D01*
X6936369Y10236530D01*
X6934693Y10236530D01*
X6920626Y10214085D01*
X6911057Y10195608D01*
X6917760Y10189214D01*
X6933987Y10178322D01*
X6950215Y10167386D01*
X6956918Y10160683D01*
X6950568Y10149041D01*
X6944218Y10140574D01*
X6921287Y10155038D01*
X6904398Y10165181D01*
X6895182Y10169502D01*
X6889273Y10163549D01*
X6879660Y10149394D01*
X6867665Y10129638D01*
X6876132Y10123288D01*
X6896946Y10110941D01*
X6909530Y10103880D01*
X6914805Y10097580D01*
X6914857Y10094002D01*
X6913267Y10089758D01*
X6905412Y10078133D01*
X6894476Y10083777D01*
X6869782Y10100358D01*
X6854965Y10109530D01*
X6842265Y10090127D01*
X6829918Y10067549D01*
X6860808Y10046273D01*
X6928872Y10002374D01*
X6997201Y9959401D01*
X7028885Y9940902D01*
X7044980Y9964935D01*
X7053932Y9982883D01*
X7029238Y9998758D01*
X7006307Y10014633D01*
X7012657Y10024863D01*
X7019007Y10032977D01*
X7041585Y10018513D01*
X7058474Y10008988D01*
X7067690Y10005813D01*
X7083565Y10025569D01*
X7095207Y10043561D01*
X7087093Y10049911D01*
X7062046Y10066138D01*
X7045113Y10077780D01*
X7053226Y10089069D01*
X7060988Y10098947D01*
X7085329Y10083072D01*
X7110024Y10067197D01*
X7121665Y10085541D01*
X7132469Y10106443D01*
X7132828Y10111437D01*
X7129779Y10113058D01*
X7120486Y10116988D01*
X7106231Y10125978D01*
X7093168Y10135829D01*
X7087446Y10142338D01*
X7089298Y10147674D01*
X7093796Y10154333D01*
X7099793Y10162094D01*
X7123782Y10146219D01*
X7149182Y10130697D01*
X7163558Y10152172D01*
X7175288Y10174441D01*
X7151652Y10188905D01*
X7128015Y10205133D01*
X7128633Y10209234D01*
X7132954Y10215716D01*
X7139304Y10223830D01*
X7162940Y10209013D01*
X7188340Y10194197D01*
X7202055Y10213291D01*
X7214446Y10234766D01*
X7189752Y10252405D01*
X7165057Y10268280D01*
X7170702Y10277100D01*
X7176302Y10283361D01*
X7181638Y10285919D01*
X7187651Y10284265D01*
X7195881Y10279834D01*
X7214093Y10265811D01*
X7221876Y10259549D01*
X7227675Y10258314D01*
X7232151Y10262239D01*
X7235965Y10271455D01*
X7238259Y10285434D01*
X7234202Y10300736D01*
X7229219Y10310261D01*
X7218679Y10320315D01*
X7196498Y10335661D01*
X7156590Y10361061D01*
X7101689Y10394045D01*
X7083119Y10403923D01*
X7072982Y10407980D01*
X7060988Y10407672D01*
X7048993Y10403394D01*
X7048993Y10403394D01*
X5259703Y7156425D02*
X5270507Y7150252D01*
X5272850Y7147496D01*
X5273109Y7145136D01*
X5248061Y7104567D01*
X5224778Y7066820D01*
X5220501Y7060751D01*
X5210667Y7051871D01*
X5199775Y7043851D01*
X5192323Y7040361D01*
X5187648Y7039479D01*
X5184561Y7037539D01*
X5177533Y7034987D01*
X5164585Y7033791D01*
X5152365Y7034116D01*
X5148605Y7034901D01*
X5147520Y7036128D01*
X5189500Y7103156D01*
X5214856Y7143130D01*
X5223061Y7154551D01*
X5229629Y7161276D01*
X5235568Y7164065D01*
X5241888Y7163679D01*
X5259703Y7156425D01*
X5259703Y7156425D01*
X5382823Y7108448D02*
X5443853Y7084459D01*
X5441737Y7058000D01*
X5436335Y7017249D01*
X5432484Y7001625D01*
X5427625Y6988635D01*
X5421576Y6977878D01*
X5414154Y6968951D01*
X5405177Y6961456D01*
X5394464Y6954989D01*
X5379607Y6948778D01*
X5364572Y6945453D01*
X5349611Y6944956D01*
X5334977Y6947228D01*
X5320922Y6952212D01*
X5307697Y6959851D01*
X5295556Y6970086D01*
X5284750Y6982859D01*
X5274255Y7000277D01*
X5268523Y7014256D01*
X5266141Y7023428D01*
X5263231Y7028367D01*
X5260271Y7033521D01*
X5260717Y7042081D01*
X5264273Y7052428D01*
X5270639Y7062939D01*
X5281223Y7079873D01*
X5287925Y7092573D01*
X5303800Y7117267D01*
X5311694Y7127718D01*
X5317206Y7132084D01*
X5382823Y7108448D01*
X5382823Y7108448D01*
X6639065Y7571645D02*
X6646473Y7564942D01*
X6646473Y7212870D01*
X6646473Y6860797D01*
X6637301Y6853742D01*
X6633768Y6851297D01*
X6628548Y6849459D01*
X6604052Y6847260D01*
X6435865Y6846334D01*
X6243954Y6846334D01*
X6235487Y6855153D01*
X6226668Y6863620D01*
X6226668Y7214634D01*
X6226668Y7565648D01*
X6236193Y7573056D01*
X6239670Y7575384D01*
X6244764Y7577124D01*
X6269045Y7579142D01*
X6438687Y7579406D01*
X6605287Y7577510D01*
X6630676Y7575388D01*
X6635982Y7573758D01*
X6639065Y7571645D01*
X6639065Y7571645D01*
X6459854Y9485113D02*
X6098962Y8914671D01*
X6071445Y8908674D01*
X6050411Y8902544D01*
X6038637Y8896679D01*
X5884473Y8654321D01*
X5731367Y8413726D01*
X5712053Y8406979D01*
X5671042Y8396793D01*
X5608601Y8382329D01*
X5599428Y8373245D01*
X5586023Y8354107D01*
X5569442Y8327296D01*
X5575087Y8300132D01*
X5581084Y8266618D01*
X5575307Y8252948D01*
X5561328Y8229223D01*
X5541926Y8198179D01*
X5551098Y8156904D01*
X5560270Y8115629D01*
X5538751Y8081762D01*
X5522964Y8054113D01*
X5519700Y8045696D01*
X5519348Y8040487D01*
X5530725Y7997404D01*
X5536281Y7969931D01*
X5533740Y7960302D01*
X5524154Y7941577D01*
X5475250Y7861629D01*
X5422775Y7780710D01*
X5411453Y7766924D01*
X5407755Y7764283D01*
X5404695Y7763556D01*
X5366948Y7756854D01*
X5346222Y7752664D01*
X5337667Y7751915D01*
X5327789Y7748387D01*
X5304462Y7739259D01*
X5261820Y7725104D01*
X5211786Y7707423D01*
X5164100Y7687108D01*
X5119193Y7664437D01*
X5077493Y7639687D01*
X5039432Y7613134D01*
X5005438Y7585056D01*
X4975943Y7555729D01*
X4951375Y7525431D01*
X4936029Y7502980D01*
X4923065Y7478379D01*
X4905734Y7437176D01*
X4877292Y7364917D01*
X4835664Y7259084D01*
X4817364Y7209210D01*
X4814580Y7194542D01*
X4814144Y7179709D01*
X4815571Y7163150D01*
X4819469Y7146989D01*
X4825666Y7131488D01*
X4833988Y7116914D01*
X4844262Y7103531D01*
X4856312Y7091602D01*
X4869967Y7081394D01*
X4885053Y7073170D01*
X4896138Y7068551D01*
X4905205Y7066114D01*
X4914868Y7065530D01*
X4927739Y7066467D01*
X4948862Y7070259D01*
X4966545Y7075639D01*
X4976731Y7079255D01*
X4979096Y7079310D01*
X4979245Y7078109D01*
X4929503Y6999439D01*
X4896386Y6945729D01*
X4882583Y6921122D01*
X4888845Y6914684D01*
X4904103Y6904542D01*
X4918787Y6894047D01*
X4923004Y6889957D01*
X4924211Y6887256D01*
X4854714Y6774720D01*
X4805942Y6696623D01*
X4785217Y6661125D01*
X4782439Y6654378D01*
X4776750Y6645250D01*
X4771988Y6637842D01*
X4771458Y6634667D01*
X4771502Y6631845D01*
X4768636Y6624789D01*
X4759624Y6605210D01*
X4752100Y6584572D01*
X4747552Y6567639D01*
X4747469Y6559172D01*
X4751646Y6559466D01*
X4759122Y6564039D01*
X4780631Y6582764D01*
X4805314Y6608831D01*
X4826492Y6635725D01*
X4838486Y6650542D01*
X4907278Y6756375D01*
X4972542Y6859739D01*
X4995825Y6846334D01*
X5011921Y6837249D01*
X5019814Y6835045D01*
X5071320Y6916184D01*
X5120356Y6994148D01*
X5149284Y6992031D01*
X5171382Y6991689D01*
X5188221Y6993795D01*
X5199439Y6998282D01*
X5202825Y7001397D01*
X5204670Y7005084D01*
X5206164Y7008418D01*
X5208683Y7010596D01*
X5217723Y7012139D01*
X5223836Y7011571D01*
X5228262Y7008920D01*
X5232357Y7002763D01*
X5237478Y6991678D01*
X5249087Y6966107D01*
X5258116Y6949830D01*
X5267145Y6939042D01*
X5278753Y6929942D01*
X5298503Y6917446D01*
X5315574Y6909878D01*
X5333373Y6906080D01*
X5355306Y6904895D01*
X5378099Y6906245D01*
X5397419Y6910671D01*
X5415085Y6918736D01*
X5432917Y6931000D01*
X5446675Y6941936D01*
X5455495Y6928178D01*
X5465863Y6914789D01*
X5479704Y6901764D01*
X5495728Y6890128D01*
X5512645Y6880906D01*
X5534093Y6874898D01*
X5559609Y6872792D01*
X5584926Y6874655D01*
X5605778Y6880553D01*
X5620733Y6888744D01*
X5635191Y6898986D01*
X5647996Y6910418D01*
X5657989Y6922181D01*
X5666809Y6934175D01*
X5691856Y6920417D01*
X5726594Y6903379D01*
X5764969Y6888623D01*
X5807446Y6875917D01*
X5854487Y6865031D01*
X5873868Y6861960D01*
X5896820Y6860048D01*
X5970904Y6859034D01*
X6026681Y6859734D01*
X6068667Y6862517D01*
X6106486Y6868410D01*
X6149762Y6878436D01*
X6169898Y6883326D01*
X6180145Y6884478D01*
X6182604Y6883518D01*
X6183844Y6881462D01*
X6184334Y6873850D01*
X6185388Y6864613D01*
X6188138Y6855114D01*
X6197828Y6836676D01*
X6211619Y6821215D01*
X6219495Y6815437D01*
X6227726Y6811409D01*
X6244692Y6809760D01*
X6285405Y6808542D01*
X6437276Y6807528D01*
X6612739Y6808454D01*
X6640129Y6810653D01*
X6652471Y6814936D01*
X6666449Y6824505D01*
X6677518Y6838572D01*
X6687043Y6855153D01*
X6687043Y7213223D01*
X6686073Y7523447D01*
X6684066Y7569666D01*
X6682451Y7579140D01*
X6680340Y7584698D01*
X6671388Y7597221D01*
X6659526Y7607628D01*
X6645062Y7617153D01*
X6439040Y7618212D01*
X6233018Y7618917D01*
X6220318Y7611156D01*
X6203384Y7599515D01*
X6197249Y7591450D01*
X6191875Y7580244D01*
X6187757Y7567120D01*
X6185393Y7553301D01*
X6183276Y7539807D01*
X6181159Y7534251D01*
X6154348Y7552242D01*
X6081009Y7603103D01*
X5996259Y7657502D01*
X5914884Y7706280D01*
X5851665Y7740273D01*
X5803251Y7760563D01*
X5755136Y7775066D01*
X5706160Y7784078D01*
X5655167Y7787898D01*
X5624476Y7789309D01*
X5649170Y7830584D01*
X5674570Y7870801D01*
X5699264Y7877151D01*
X5745831Y7887381D01*
X5767351Y7891262D01*
X5787812Y7924423D01*
X5799371Y7942420D01*
X5807523Y7953042D01*
X5814551Y7958703D01*
X5822737Y7961818D01*
X5839317Y7965345D01*
X5854134Y7969931D01*
X5866481Y7973636D01*
X5878828Y7975223D01*
X5885945Y7975989D01*
X5892102Y7980030D01*
X5899912Y7989957D01*
X5911990Y8008384D01*
X5929099Y8032329D01*
X5939859Y8043309D01*
X5971609Y8051070D01*
X5997009Y8057068D01*
X6014295Y8083879D01*
X6031229Y8111043D01*
X6016412Y8176307D01*
X6004285Y8234780D01*
X6004654Y8245164D01*
X6008298Y8252507D01*
X6162462Y8496982D01*
X6310629Y8730874D01*
X6304632Y8757685D01*
X6298634Y8784849D01*
X6659173Y9354585D01*
X6913835Y9757854D01*
X7019007Y9927497D01*
X6973587Y9958806D01*
X6844029Y10041444D01*
X6820746Y10055908D01*
X6459854Y9485113D01*
X6459854Y9485113D01*
X5376825Y7706406D02*
X5306975Y7595634D01*
X5244534Y7496503D01*
X5230070Y7500031D01*
X5205375Y7507792D01*
X5184876Y7514131D01*
X5158059Y7519346D01*
X5130118Y7522576D01*
X5106245Y7522962D01*
X5087208Y7520231D01*
X5068646Y7514809D01*
X5050837Y7506882D01*
X5034057Y7496636D01*
X5018584Y7484256D01*
X5004694Y7469929D01*
X4992665Y7453841D01*
X4982772Y7436178D01*
X4978161Y7424475D01*
X4974658Y7411341D01*
X4971043Y7382468D01*
X4972057Y7352934D01*
X4977833Y7326112D01*
X4988659Y7302046D01*
X5003851Y7278839D01*
X5021291Y7259337D01*
X5030193Y7251864D01*
X5038864Y7246384D01*
X5048389Y7241092D01*
X5039922Y7224159D01*
X5022636Y7196995D01*
X4994414Y7156425D01*
X4983544Y7140176D01*
X4974923Y7129614D01*
X4966434Y7122493D01*
X4955961Y7116561D01*
X4939634Y7110283D01*
X4924299Y7107345D01*
X4910420Y7107781D01*
X4898458Y7111623D01*
X4887837Y7118855D01*
X4876983Y7128997D01*
X4867254Y7140594D01*
X4860006Y7152192D01*
X4855982Y7165107D01*
X4854538Y7180899D01*
X4855739Y7196890D01*
X4859653Y7210400D01*
X4912217Y7342339D01*
X4967250Y7476395D01*
X4984351Y7502445D01*
X5006227Y7528490D01*
X5032393Y7554164D01*
X5062368Y7579098D01*
X5095666Y7602923D01*
X5131805Y7625273D01*
X5170299Y7645779D01*
X5210667Y7664073D01*
X5284574Y7693001D01*
X5322498Y7704995D01*
X5336609Y7708170D01*
X5355306Y7712404D01*
X5372592Y7716284D01*
X5379295Y7717695D01*
X5381340Y7717172D01*
X5381632Y7715358D01*
X5376825Y7706406D01*
X5376825Y7706406D01*
X5711612Y7740273D02*
X5748918Y7733984D01*
X5778816Y7726471D01*
X5807656Y7715716D01*
X5841787Y7699704D01*
X5894715Y7671878D01*
X5952735Y7637438D01*
X6026631Y7589769D01*
X6127184Y7522256D01*
X6165990Y7494387D01*
X6184334Y7480276D01*
X6183629Y7205109D01*
X6182570Y6929942D01*
X6168459Y6925003D01*
X6126975Y6913879D01*
X6074444Y6904542D01*
X6018738Y6898115D01*
X5967729Y6895722D01*
X5914218Y6898028D01*
X5862898Y6904707D01*
X5813679Y6915802D01*
X5766469Y6931353D01*
X5721177Y6951402D01*
X5677712Y6975990D01*
X5635984Y7005159D01*
X5595901Y7038950D01*
X5557448Y7073170D01*
X5542576Y7083141D01*
X5521817Y7094733D01*
X5478778Y7114445D01*
X5381472Y7152098D01*
X5241932Y7207975D01*
X5114893Y7259949D01*
X5055092Y7285895D01*
X5044645Y7294362D01*
X5035347Y7304482D01*
X5027323Y7315958D01*
X5020696Y7328493D01*
X5015590Y7341788D01*
X5012130Y7355547D01*
X5010439Y7369470D01*
X5010642Y7383262D01*
X5014324Y7402301D01*
X5021578Y7421538D01*
X5031478Y7438923D01*
X5043097Y7452406D01*
X5057039Y7463841D01*
X5071353Y7472514D01*
X5086444Y7478476D01*
X5102717Y7481775D01*
X5120578Y7482461D01*
X5140431Y7480584D01*
X5162682Y7476194D01*
X5187736Y7469339D01*
X5244666Y7452274D01*
X5291806Y7439706D01*
X5350014Y7423831D01*
X5457612Y7393492D01*
X5650581Y7339870D01*
X5753284Y7312486D01*
X5769495Y7310551D01*
X5776876Y7313412D01*
X5784108Y7320599D01*
X5785210Y7324971D01*
X5784990Y7330698D01*
X5784666Y7335857D01*
X5782603Y7340157D01*
X5775570Y7344688D01*
X5760339Y7350541D01*
X5692369Y7370584D01*
X5552862Y7409014D01*
X5456774Y7435958D01*
X5414925Y7448878D01*
X5414270Y7451020D01*
X5416033Y7456353D01*
X5428551Y7479570D01*
X5501709Y7597045D01*
X5568163Y7700938D01*
X5598370Y7745565D01*
X5612691Y7747417D01*
X5641233Y7746888D01*
X5676654Y7744374D01*
X5711612Y7740273D01*
X5711612Y7740273D01*
X5513350Y7052709D02*
X5541176Y7032821D01*
X5571912Y7006848D01*
X5598943Y6982594D01*
X5617773Y6967336D01*
X5626769Y6959575D01*
X5630473Y6953931D01*
X5626967Y6947410D01*
X5618037Y6938276D01*
X5606065Y6928680D01*
X5593431Y6920770D01*
X5578543Y6915621D01*
X5560579Y6913450D01*
X5542284Y6914320D01*
X5526403Y6918300D01*
X5514872Y6925146D01*
X5502944Y6935234D01*
X5492074Y6947173D01*
X5483717Y6959575D01*
X5478822Y6974612D01*
X5477367Y6996264D01*
X5480233Y7044198D01*
X5482775Y7061699D01*
X5485481Y7068584D01*
X5513350Y7052709D01*
X5513350Y7052709D01*
D14*
G04 #@! TO.C,LOGO1*
G36*
X20355000Y17800000D02*
X20775000Y17800000D01*
X20775000Y17600000D01*
X20355000Y17600000D01*
X20355000Y17800000D01*
G37*
G36*
X19195000Y19160000D02*
X19395000Y19160000D01*
X19395000Y19580000D01*
X19195000Y19580000D01*
X19195000Y19160000D01*
G37*
G36*
X18795000Y19160000D02*
X18995000Y19160000D01*
X18995000Y19580000D01*
X18795000Y19580000D01*
X18795000Y19160000D01*
G37*
G36*
X18235000Y18600000D02*
X17815000Y18600000D01*
X17815000Y18400000D01*
X18235000Y18400000D01*
X18235000Y18600000D01*
G37*
G36*
X19195000Y17040000D02*
X19395000Y17040000D01*
X19395000Y16620000D01*
X19195000Y16620000D01*
X19195000Y17040000D01*
G37*
G36*
X18660000Y18947000D02*
X19930000Y18947000D01*
G02*
X20142000Y18735000I0J-212000D01*
G01*
X20142000Y17465000D01*
G02*
X19930000Y17253000I-212000J0D01*
G01*
X18660000Y17253000D01*
G02*
X18448000Y17465000I0J212000D01*
G01*
X18448000Y18565000D01*
X18663000Y18565000D01*
G03*
X18830000Y18398000I167000J0D01*
G01*
G03*
X18997000Y18565000I0J167000D01*
G01*
G03*
X18830000Y18732000I-167000J0D01*
G01*
G03*
X18663000Y18565000I0J-167000D01*
G01*
X18448000Y18565000D01*
X18448000Y18735000D01*
G02*
X18660000Y18947000I212000J0D01*
G01*
G37*
G36*
X20355000Y18600000D02*
X20775000Y18600000D01*
X20775000Y18400000D01*
X20355000Y18400000D01*
X20355000Y18600000D01*
G37*
G36*
X19595000Y19160000D02*
X19795000Y19160000D01*
X19795000Y19580000D01*
X19595000Y19580000D01*
X19595000Y19160000D01*
G37*
G36*
X18235000Y18200000D02*
X17815000Y18200000D01*
X17815000Y18000000D01*
X18235000Y18000000D01*
X18235000Y18200000D01*
G37*
G36*
X18795000Y17040000D02*
X18995000Y17040000D01*
X18995000Y16620000D01*
X18795000Y16620000D01*
X18795000Y17040000D01*
G37*
G36*
X18235000Y17800000D02*
X17815000Y17800000D01*
X17815000Y17600000D01*
X18235000Y17600000D01*
X18235000Y17800000D01*
G37*
G36*
X19595000Y17040000D02*
X19795000Y17040000D01*
X19795000Y16620000D01*
X19595000Y16620000D01*
X19595000Y17040000D01*
G37*
G36*
X20355000Y18200000D02*
X20775000Y18200000D01*
X20775000Y18000000D01*
X20355000Y18000000D01*
X20355000Y18200000D01*
G37*
D11*
X21395000Y18292000D02*
X21395000Y19092000D01*
X21661667Y18520444D01*
X21928333Y19092000D01*
X21928333Y18292000D01*
X22619666Y18292000D02*
X22619666Y18710667D01*
X22581444Y18787111D01*
X22505000Y18825333D01*
X22353000Y18825333D01*
X22276555Y18787111D01*
X22619666Y18330222D02*
X22543222Y18292000D01*
X22353000Y18292000D01*
X22276555Y18330222D01*
X22238333Y18406667D01*
X22238333Y18482222D01*
X22276555Y18558667D01*
X22353000Y18596889D01*
X22543222Y18596889D01*
X22619666Y18635111D01*
X23310999Y18292000D02*
X23310999Y19092000D01*
X23310999Y18330222D02*
X23234555Y18292000D01*
X23081666Y18292000D01*
X23006110Y18330222D01*
X22967888Y18368444D01*
X22929666Y18444000D01*
X22929666Y18673333D01*
X22967888Y18748889D01*
X23006110Y18787111D01*
X23081666Y18825333D01*
X23234555Y18825333D01*
X23310999Y18787111D01*
X23964110Y18330222D02*
X23887666Y18292000D01*
X23735666Y18292000D01*
X23659221Y18330222D01*
X23620999Y18406667D01*
X23620999Y18710667D01*
X23659221Y18787111D01*
X23735666Y18825333D01*
X23887666Y18825333D01*
X23964110Y18787111D01*
X24002332Y18710667D01*
X24002332Y18635111D01*
X23620999Y18558667D01*
X24942331Y19092000D02*
X25132553Y18292000D01*
X25285442Y18863556D01*
X25437442Y18292000D01*
X25627664Y19092000D01*
X25975886Y18292000D02*
X25975886Y18825333D01*
X25975886Y19092000D02*
X25937664Y19053778D01*
X25975886Y19015556D01*
X26014108Y19053778D01*
X25975886Y19092000D01*
X25975886Y19015556D01*
X26324108Y18825333D02*
X26628997Y18825333D01*
X26438775Y19092000D02*
X26438775Y18406667D01*
X26476108Y18330222D01*
X26552552Y18292000D01*
X26628997Y18292000D01*
X26938997Y18292000D02*
X26938997Y19092000D01*
X27282108Y18292000D02*
X27282108Y18710667D01*
X27243886Y18787111D01*
X27167441Y18825333D01*
X27053664Y18825333D01*
X26977219Y18787111D01*
X26938997Y18748889D01*
X21776333Y17108000D02*
X21395000Y17108000D01*
X21395000Y17908000D01*
X22124555Y17108000D02*
X22124555Y17641333D01*
X22124555Y17908000D02*
X22086333Y17869778D01*
X22124555Y17831556D01*
X22162777Y17869778D01*
X22124555Y17908000D01*
X22124555Y17831556D01*
X22472777Y17108000D02*
X22472777Y17908000D01*
X22472777Y17603111D02*
X22549221Y17641333D01*
X22701221Y17641333D01*
X22777666Y17603111D01*
X22815888Y17564889D01*
X22854110Y17489333D01*
X22854110Y17260000D01*
X22815888Y17184444D01*
X22777666Y17146222D01*
X22701221Y17108000D01*
X22549221Y17108000D01*
X22472777Y17146222D01*
X23164110Y17108000D02*
X23164110Y17641333D01*
X23164110Y17489333D02*
X23202332Y17564889D01*
X23240554Y17603111D01*
X23316110Y17641333D01*
X23392554Y17641333D01*
X24045665Y17146222D02*
X23969221Y17108000D01*
X23817221Y17108000D01*
X23740776Y17146222D01*
X23702554Y17222667D01*
X23702554Y17526667D01*
X23740776Y17603111D01*
X23817221Y17641333D01*
X23969221Y17641333D01*
X24045665Y17603111D01*
X24083887Y17526667D01*
X24083887Y17451111D01*
X23702554Y17374667D01*
X24393887Y17108000D02*
X24393887Y17908000D01*
X24698776Y17908000D01*
X24775220Y17869778D01*
X24812554Y17831556D01*
X24850776Y17756000D01*
X24850776Y17641333D01*
X24812554Y17564889D01*
X24775220Y17526667D01*
X24698776Y17489333D01*
X24393887Y17489333D01*
X25655887Y17184444D02*
X25617665Y17146222D01*
X25503887Y17108000D01*
X25427443Y17108000D01*
X25312776Y17146222D01*
X25237220Y17222667D01*
X25198998Y17298222D01*
X25160776Y17451111D01*
X25160776Y17564889D01*
X25198998Y17717778D01*
X25237220Y17793333D01*
X25312776Y17869778D01*
X25427443Y17908000D01*
X25503887Y17908000D01*
X25617665Y17869778D01*
X25655887Y17831556D01*
X26232554Y17526667D02*
X26347220Y17489333D01*
X26384554Y17451111D01*
X26422776Y17374667D01*
X26422776Y17260000D01*
X26384554Y17184444D01*
X26347220Y17146222D01*
X26270776Y17108000D01*
X25965887Y17108000D01*
X25965887Y17908000D01*
X26232554Y17908000D01*
X26308998Y17869778D01*
X26347220Y17831556D01*
X26384554Y17756000D01*
X26384554Y17679556D01*
X26347220Y17603111D01*
X26308998Y17564889D01*
X26232554Y17526667D01*
X25965887Y17526667D01*
D10*
G04 #@! TO.C,C6*
X29745000Y11225000D02*
X29745000Y10975000D01*
X28245000Y11225000D02*
X28245000Y10975000D01*
D13*
G04 #@! TO.C,J4*
X10900000Y50000D02*
X10900000Y5800000D01*
X10900000Y50000D02*
X3500000Y50000D01*
X10900000Y5800000D02*
X3500000Y5800000D01*
X3500000Y5800000D02*
X3500000Y50000D01*
D11*
G04 #@! TD*
X19776333Y22700000D02*
X19395000Y22700000D01*
X19395000Y23500000D01*
X20467666Y22700000D02*
X20467666Y23118667D01*
X20429444Y23195111D01*
X20353000Y23233333D01*
X20201000Y23233333D01*
X20124555Y23195111D01*
X20467666Y22738222D02*
X20391222Y22700000D01*
X20201000Y22700000D01*
X20124555Y22738222D01*
X20086333Y22814667D01*
X20086333Y22890222D01*
X20124555Y22966667D01*
X20201000Y23004889D01*
X20391222Y23004889D01*
X20467666Y23043111D01*
X20777666Y22700000D02*
X20777666Y23500000D01*
X20777666Y23195111D02*
X20854110Y23233333D01*
X21006110Y23233333D01*
X21082555Y23195111D01*
X21120777Y23156889D01*
X21158999Y23081333D01*
X21158999Y22852000D01*
X21120777Y22776444D01*
X21082555Y22738222D01*
X21006110Y22700000D01*
X20854110Y22700000D01*
X20777666Y22738222D01*
X21468999Y23004889D02*
X22078777Y23004889D01*
X22770110Y22700000D02*
X22388777Y22700000D01*
X22388777Y23500000D01*
X23461443Y22700000D02*
X23461443Y23118667D01*
X23423221Y23195111D01*
X23346777Y23233333D01*
X23194777Y23233333D01*
X23118332Y23195111D01*
X23461443Y22738222D02*
X23384999Y22700000D01*
X23194777Y22700000D01*
X23118332Y22738222D01*
X23080110Y22814667D01*
X23080110Y22890222D01*
X23118332Y22966667D01*
X23194777Y23004889D01*
X23384999Y23004889D01*
X23461443Y23043111D01*
X23771443Y22700000D02*
X23771443Y23233333D01*
X23771443Y23156889D02*
X23809665Y23195111D01*
X23886110Y23233333D01*
X23999887Y23233333D01*
X24076332Y23195111D01*
X24114554Y23118667D01*
X24114554Y22700000D01*
X24114554Y23118667D02*
X24152776Y23195111D01*
X24228332Y23233333D01*
X24342999Y23233333D01*
X24419443Y23195111D01*
X24456776Y23118667D01*
X24456776Y22700000D01*
X24766776Y23233333D02*
X24766776Y22433333D01*
X24766776Y23195111D02*
X24843220Y23233333D01*
X24995220Y23233333D01*
X25071665Y23195111D01*
X25109887Y23156889D01*
X25148109Y23081333D01*
X25148109Y22852000D01*
X25109887Y22776444D01*
X25071665Y22738222D01*
X24995220Y22700000D01*
X24843220Y22700000D01*
X24766776Y22738222D01*
X26088108Y23233333D02*
X26278330Y22700000D01*
X26469441Y23233333D01*
X27236330Y22700000D02*
X26779441Y22700000D01*
X27007885Y22700000D02*
X27007885Y23500000D01*
X26931441Y23385333D01*
X26855885Y23309778D01*
X26779441Y23271556D01*
X19776333Y21500000D02*
X19395000Y21500000D01*
X19395000Y22300000D01*
X20124555Y21576444D02*
X20162777Y21538222D01*
X20124555Y21500000D01*
X20086333Y21538222D01*
X20124555Y21576444D01*
X20124555Y21500000D01*
X21369443Y21918667D02*
X21484109Y21881333D01*
X21521443Y21843111D01*
X21559665Y21766667D01*
X21559665Y21652000D01*
X21521443Y21576444D01*
X21484109Y21538222D01*
X21407665Y21500000D01*
X21102776Y21500000D01*
X21102776Y22300000D01*
X21369443Y22300000D01*
X21445887Y22261778D01*
X21484109Y22223556D01*
X21521443Y22148000D01*
X21521443Y22071556D01*
X21484109Y21995111D01*
X21445887Y21956889D01*
X21369443Y21918667D01*
X21102776Y21918667D01*
X22250998Y21500000D02*
X22250998Y21918667D01*
X22212776Y21995111D01*
X22136332Y22033333D01*
X21984332Y22033333D01*
X21907887Y21995111D01*
X22250998Y21538222D02*
X22174554Y21500000D01*
X21984332Y21500000D01*
X21907887Y21538222D01*
X21869665Y21614667D01*
X21869665Y21690222D01*
X21907887Y21766667D01*
X21984332Y21804889D01*
X22174554Y21804889D01*
X22250998Y21843111D01*
X22560998Y21500000D02*
X22560998Y22033333D01*
X22560998Y21881333D02*
X22599220Y21956889D01*
X22637442Y21995111D01*
X22712998Y22033333D01*
X22789442Y22033333D01*
X23099442Y21500000D02*
X23099442Y22300000D01*
X23099442Y21995111D02*
X23175886Y22033333D01*
X23327886Y22033333D01*
X23404331Y21995111D01*
X23442553Y21956889D01*
X23480775Y21881333D01*
X23480775Y21652000D01*
X23442553Y21576444D01*
X23404331Y21538222D01*
X23327886Y21500000D01*
X23175886Y21500000D01*
X23099442Y21538222D01*
X23828997Y21500000D02*
X23828997Y22033333D01*
X23828997Y22300000D02*
X23790775Y22261778D01*
X23828997Y22223556D01*
X23867219Y22261778D01*
X23828997Y22300000D01*
X23828997Y22223556D01*
X24177219Y21538222D02*
X24253663Y21500000D01*
X24405663Y21500000D01*
X24482108Y21538222D01*
X24520330Y21614667D01*
X24520330Y21652000D01*
X24482108Y21728444D01*
X24405663Y21766667D01*
X24291886Y21766667D01*
X24215441Y21804889D01*
X24177219Y21881333D01*
X24177219Y21918667D01*
X24215441Y21995111D01*
X24291886Y22033333D01*
X24405663Y22033333D01*
X24482108Y21995111D01*
X25211663Y21538222D02*
X25135219Y21500000D01*
X24982330Y21500000D01*
X24906774Y21538222D01*
X24868552Y21576444D01*
X24830330Y21652000D01*
X24830330Y21881333D01*
X24868552Y21956889D01*
X24906774Y21995111D01*
X24982330Y22033333D01*
X25135219Y22033333D01*
X25211663Y21995111D01*
X25521663Y21500000D02*
X25521663Y22300000D01*
X25864774Y21500000D02*
X25864774Y21918667D01*
X25826552Y21995111D01*
X25750107Y22033333D01*
X25636330Y22033333D01*
X25559885Y21995111D01*
X25521663Y21956889D01*
X19851889Y20300000D02*
X19395000Y20300000D01*
X19623444Y20300000D02*
X19623444Y21100000D01*
X19547000Y20985333D01*
X19471444Y20909778D01*
X19395000Y20871556D01*
X20543222Y21100000D02*
X20390333Y21100000D01*
X20313889Y21061778D01*
X20276556Y21023556D01*
X20200111Y20909778D01*
X20161889Y20756889D01*
X20161889Y20452000D01*
X20200111Y20376444D01*
X20238333Y20338222D01*
X20313889Y20300000D01*
X20466778Y20300000D01*
X20543222Y20338222D01*
X20580556Y20376444D01*
X20618778Y20452000D01*
X20618778Y20643111D01*
X20580556Y20718667D01*
X20543222Y20756889D01*
X20466778Y20795111D01*
X20313889Y20795111D01*
X20238333Y20756889D01*
X20200111Y20718667D01*
X20161889Y20643111D01*
X20967000Y20376444D02*
X21005222Y20338222D01*
X20967000Y20300000D01*
X20928778Y20338222D01*
X20967000Y20376444D01*
X20967000Y20300000D01*
X21505444Y21100000D02*
X21581889Y21100000D01*
X21658333Y21061778D01*
X21696555Y21023556D01*
X21733889Y20948000D01*
X21772111Y20795111D01*
X21772111Y20604889D01*
X21733889Y20452000D01*
X21696555Y20376444D01*
X21658333Y20338222D01*
X21581889Y20300000D01*
X21505444Y20300000D01*
X21429889Y20338222D01*
X21391666Y20376444D01*
X21353444Y20452000D01*
X21315222Y20604889D01*
X21315222Y20795111D01*
X21353444Y20948000D01*
X21391666Y21023556D01*
X21429889Y21061778D01*
X21505444Y21100000D01*
X22234111Y20756889D02*
X22158555Y20795111D01*
X22120333Y20833333D01*
X22082111Y20909778D01*
X22082111Y20948000D01*
X22120333Y21023556D01*
X22158555Y21061778D01*
X22234111Y21100000D01*
X22387000Y21100000D01*
X22463444Y21061778D01*
X22500778Y21023556D01*
X22539000Y20948000D01*
X22539000Y20909778D01*
X22500778Y20833333D01*
X22463444Y20795111D01*
X22387000Y20756889D01*
X22234111Y20756889D01*
X22158555Y20718667D01*
X22120333Y20681333D01*
X22082111Y20604889D01*
X22082111Y20452000D01*
X22120333Y20376444D01*
X22158555Y20338222D01*
X22234111Y20300000D01*
X22387000Y20300000D01*
X22463444Y20338222D01*
X22500778Y20376444D01*
X22539000Y20452000D01*
X22539000Y20604889D01*
X22500778Y20681333D01*
X22463444Y20718667D01*
X22387000Y20756889D01*
X22887222Y20376444D02*
X22925444Y20338222D01*
X22887222Y20300000D01*
X22849000Y20338222D01*
X22887222Y20376444D01*
X22887222Y20300000D01*
X23273666Y21023556D02*
X23311888Y21061778D01*
X23387444Y21100000D01*
X23578555Y21100000D01*
X23654111Y21061778D01*
X23692333Y21023556D01*
X23730555Y20948000D01*
X23730555Y20871556D01*
X23692333Y20756889D01*
X23235444Y20300000D01*
X23730555Y20300000D01*
X24230777Y21100000D02*
X24307222Y21100000D01*
X24383666Y21061778D01*
X24421888Y21023556D01*
X24459222Y20948000D01*
X24497444Y20795111D01*
X24497444Y20604889D01*
X24459222Y20452000D01*
X24421888Y20376444D01*
X24383666Y20338222D01*
X24307222Y20300000D01*
X24230777Y20300000D01*
X24155222Y20338222D01*
X24116999Y20376444D01*
X24078777Y20452000D01*
X24040555Y20604889D01*
X24040555Y20795111D01*
X24078777Y20948000D01*
X24116999Y21023556D01*
X24155222Y21061778D01*
X24230777Y21100000D01*
X24845666Y21023556D02*
X24883888Y21061778D01*
X24959444Y21100000D01*
X25150555Y21100000D01*
X25226111Y21061778D01*
X25264333Y21023556D01*
X25302555Y20948000D01*
X25302555Y20871556D01*
X25264333Y20756889D01*
X24807444Y20300000D01*
X25302555Y20300000D01*
X25993888Y21100000D02*
X25840999Y21100000D01*
X25764555Y21061778D01*
X25727222Y21023556D01*
X25650777Y20909778D01*
X25612555Y20756889D01*
X25612555Y20452000D01*
X25650777Y20376444D01*
X25688999Y20338222D01*
X25764555Y20300000D01*
X25917444Y20300000D01*
X25993888Y20338222D01*
X26031222Y20376444D01*
X26069444Y20452000D01*
X26069444Y20643111D01*
X26031222Y20718667D01*
X25993888Y20756889D01*
X25917444Y20795111D01*
X25764555Y20795111D01*
X25688999Y20756889D01*
X25650777Y20718667D01*
X25612555Y20643111D01*
D13*
X3100000Y750000D02*
X2300000Y750000D01*
X3100000Y1566889D02*
X2718667Y1300222D01*
X3100000Y1110000D02*
X2300000Y1110000D01*
X2300000Y1414889D01*
X2338222Y1491333D01*
X2376444Y1528667D01*
X2452000Y1566889D01*
X2566667Y1566889D01*
X2643111Y1528667D01*
X2681333Y1491333D01*
X2718667Y1414889D01*
X2718667Y1110000D01*
X2795111Y1926889D02*
X2795111Y2536667D01*
X2300000Y3086889D02*
X2300000Y3239778D01*
X2338222Y3315334D01*
X2414667Y3391778D01*
X2566667Y3430000D01*
X2833333Y3430000D01*
X2985333Y3391778D01*
X3061778Y3315334D01*
X3100000Y3239778D01*
X3100000Y3086889D01*
X3061778Y3011334D01*
X2985333Y2934889D01*
X2833333Y2896667D01*
X2566667Y2896667D01*
X2414667Y2934889D01*
X2338222Y3011334D01*
X2300000Y3086889D01*
X2300000Y3790000D02*
X2948000Y3790000D01*
X3023556Y3828222D01*
X3061778Y3866444D01*
X3100000Y3942000D01*
X3100000Y4094889D01*
X3061778Y4171333D01*
X3023556Y4208667D01*
X2948000Y4246889D01*
X2300000Y4246889D01*
X2300000Y4606889D02*
X2300000Y5063778D01*
X3100000Y4835333D02*
X2300000Y4835333D01*
X6981333Y17966667D02*
X6981333Y17700000D01*
X7400000Y17700000D02*
X6600000Y17700000D01*
X6600000Y18081333D01*
X7171556Y18517777D02*
X7171556Y18898222D01*
X7400000Y18441333D02*
X6600000Y18708000D01*
X7400000Y18974666D01*
X7400000Y19334666D02*
X6600000Y19334666D01*
X7400000Y19791555D01*
X6600000Y19791555D01*
X31581333Y8400000D02*
X31200000Y8400000D01*
X31200000Y9200000D01*
X31941333Y8818667D02*
X32208000Y8818667D01*
X32322666Y8400000D02*
X31941333Y8400000D01*
X31941333Y9200000D01*
X32322666Y9200000D01*
X32682666Y8400000D02*
X32682666Y9200000D01*
X32872888Y9200000D01*
X32987555Y9161778D01*
X33063999Y9085333D01*
X33101333Y9009778D01*
X33139555Y8856889D01*
X33139555Y8743111D01*
X33101333Y8590222D01*
X33063999Y8514667D01*
X32987555Y8438222D01*
X32872888Y8400000D01*
X32682666Y8400000D01*
X33499555Y8438222D02*
X33575999Y8400000D01*
X33727999Y8400000D01*
X33804444Y8438222D01*
X33842666Y8514667D01*
X33842666Y8552000D01*
X33804444Y8628444D01*
X33727999Y8666667D01*
X33614222Y8666667D01*
X33537777Y8704889D01*
X33499555Y8781333D01*
X33499555Y8818667D01*
X33537777Y8895111D01*
X33614222Y8933333D01*
X33727999Y8933333D01*
X33804444Y8895111D01*
X32650000Y17700000D02*
X32916667Y16900000D01*
X33183333Y17700000D01*
X33543333Y16900000D02*
X33543333Y17700000D01*
X33903333Y16900000D02*
X33903333Y17700000D01*
X34360222Y16900000D01*
X34360222Y17700000D01*
%LPC*%
D15*
G04 #@! TO.C,U1*
X23882500Y10300000D03*
D16*
X22545000Y13900000D03*
X23045000Y13900000D03*
D17*
X21145000Y13200000D03*
X23945000Y13200000D03*
X21145000Y12700000D03*
X23945000Y13700000D03*
D18*
X23545000Y13937500D03*
D19*
X23882500Y10925000D03*
D18*
X23545000Y10062500D03*
D15*
X21207500Y10300000D03*
D20*
X21457500Y11175000D03*
D17*
X23945000Y12700000D03*
D18*
X21545000Y10062500D03*
D19*
X23882500Y12050000D03*
X23882500Y11425000D03*
D21*
X22295000Y10100000D03*
D19*
X21207500Y10925000D03*
X21208000Y12050000D03*
X21207500Y11425000D03*
D21*
X22795000Y10100000D03*
D16*
X22045000Y13900000D03*
D20*
X23632000Y11175000D03*
D17*
X21145000Y13700000D03*
D18*
X21545000Y13937500D03*
D22*
X22545000Y10700000D03*
D23*
G04 #@! TO.C,C20*
X12675000Y8150000D03*
X14425000Y8150000D03*
D24*
G04 #@! TO.C,Q1*
X9100000Y15050000D03*
X8150000Y17250000D03*
X7200000Y15050000D03*
D25*
G04 #@! TO.C,C8*
X27295000Y13625000D03*
X27295000Y15375000D03*
D26*
G04 #@! TO.C,R2*
X21795000Y15075000D03*
X21795000Y15925000D03*
D27*
G04 #@! TO.C,TP2*
X8500000Y9500000D03*
D28*
G04 #@! TO.C,C14*
X28545000Y7850000D03*
X28545000Y8650000D03*
D27*
G04 #@! TO.C,TP1*
X17545000Y12750000D03*
D29*
G04 #@! TO.C,R7*
X13120000Y10500000D03*
X13970000Y10500000D03*
G04 #@! TO.C,R10*
X15720000Y11250000D03*
X14870000Y11250000D03*
D30*
G04 #@! TO.C,C18*
X17000000Y7400000D03*
X16200000Y7400000D03*
D26*
G04 #@! TO.C,R1*
X19795000Y10425000D03*
X19795000Y9575000D03*
D25*
G04 #@! TO.C,C12*
X29045000Y6625000D03*
X29045000Y4875000D03*
D29*
G04 #@! TO.C,R15*
X17075000Y2250000D03*
X17925000Y2250000D03*
D31*
G04 #@! TO.C,C10*
X27295000Y10525000D03*
X27295000Y11975000D03*
D32*
G04 #@! TO.C,LED2*
X19765000Y15580000D03*
X19765000Y14630000D03*
D29*
G04 #@! TO.C,R13*
X8575000Y13800000D03*
X7725000Y13800000D03*
D31*
G04 #@! TO.C,C11*
X25920000Y10525000D03*
X25920000Y11975000D03*
D33*
G04 #@! TO.C,J1*
X10930000Y22100000D03*
D34*
X8390000Y22100000D03*
D33*
X16010000Y22100000D03*
X13470000Y22100000D03*
D32*
G04 #@! TO.C,LED1*
X10400000Y7625000D03*
X10400000Y8575000D03*
D35*
G04 #@! TO.C,J5*
X33800000Y3000000D03*
X33800000Y5500000D03*
D29*
G04 #@! TO.C,R14*
X17925000Y1350000D03*
X17075000Y1350000D03*
D26*
G04 #@! TO.C,R8*
X10400000Y10325000D03*
X10400000Y9475000D03*
D29*
G04 #@! TO.C,R3*
X13370000Y19750000D03*
X14220000Y19750000D03*
D36*
G04 #@! TO.C,J2*
X33800000Y21450000D03*
X31300000Y21450000D03*
D28*
G04 #@! TO.C,C13*
X29545000Y7850000D03*
X29545000Y8650000D03*
D30*
G04 #@! TO.C,C17*
X17000000Y8300000D03*
X16200000Y8300000D03*
D25*
G04 #@! TO.C,C9*
X29045000Y13625000D03*
X29045000Y15375000D03*
D28*
G04 #@! TO.C,C5*
X24045000Y15100000D03*
X24045000Y15900000D03*
D30*
G04 #@! TO.C,C19*
X14900000Y3600000D03*
X14100000Y3600000D03*
D26*
G04 #@! TO.C,R4*
X21045000Y15075000D03*
X21045000Y15925000D03*
D37*
G04 #@! TO.C,U2*
X14920000Y12600000D03*
X14270000Y12600000D03*
X16220000Y12600000D03*
X16220000Y18400000D03*
X15570000Y18400000D03*
X10370000Y12600000D03*
X13620000Y18400000D03*
X14920000Y18400000D03*
X13620000Y12600000D03*
X11020000Y18400000D03*
X15570000Y12600000D03*
X14270000Y18400000D03*
X12320000Y12600000D03*
X11020000Y12600000D03*
X12970000Y18400000D03*
X12970000Y12600000D03*
X11670000Y12600000D03*
X12320000Y18400000D03*
X11670000Y18400000D03*
X10370000Y18400000D03*
D26*
G04 #@! TO.C,R12*
X18495000Y15530000D03*
X18495000Y14680000D03*
D38*
G04 #@! TO.C,L1*
X21045000Y5000000D03*
X26545000Y5000000D03*
D26*
G04 #@! TO.C,R6*
X23295000Y15075000D03*
X23295000Y15925000D03*
D25*
G04 #@! TO.C,C7*
X25545000Y13625000D03*
X25545000Y15375000D03*
D39*
G04 #@! TO.C,U4*
X17050000Y6200000D03*
X17050000Y3400000D03*
X16100000Y6200000D03*
X16100000Y3400000D03*
X18000000Y3400000D03*
X18000000Y6200000D03*
D29*
G04 #@! TO.C,R11*
X10470000Y19750000D03*
X9620000Y19750000D03*
D30*
G04 #@! TO.C,C2*
X11645000Y11250000D03*
X12445000Y11250000D03*
D40*
G04 #@! TO.C,L2*
X14650000Y5650000D03*
X12450000Y5650000D03*
D30*
G04 #@! TO.C,C3*
X11645000Y10500000D03*
X12445000Y10500000D03*
D35*
G04 #@! TO.C,J3*
X2700000Y18700000D03*
X2700000Y21200000D03*
D29*
G04 #@! TO.C,R9*
X17345000Y11250000D03*
X16495000Y11250000D03*
D26*
G04 #@! TO.C,R5*
X22545000Y15075000D03*
X22545000Y15925000D03*
D25*
G04 #@! TO.C,C6*
X28995000Y11975000D03*
X28995000Y10225000D03*
D28*
G04 #@! TO.C,C1*
X19045000Y10400000D03*
X19045000Y9600000D03*
D30*
G04 #@! TO.C,C4*
X13945000Y11250000D03*
X13145000Y11250000D03*
D36*
G04 #@! TO.C,J4*
X5950000Y2400000D03*
X8450000Y2400000D03*
D41*
G04 #@! TD*
X3000000Y12000000D03*
X33000000Y12000000D03*
G04 --- BOARD END --- *
G04 #@! TF.MD5,5751a697766695752861cd00253a2ec1*
M02*
