M48
; #@! TF.GenerationSoftware,LibrePCB,LibrePCB,2.0.1
; #@! TF.CreationDate,2026-04-17T23:48:40
; #@! TF.ProjectId,Lab-Lamp,1f94bfc4-d831-43e1-86c0-4bc184f53f1f,v1
; #@! TF.Part,Single
; #@! TF.SameCoordinates
; #@! TF.FileFunction,Plated,1,2,PTH
FMAT,2
METRIC,TZ
; #@! TA.AperFunction,ViaDrill
T1C0.2
; #@! TA.AperFunction,ComponentDrill
T2C1.0
; #@! TA.AperFunction,ComponentDrill
T3C1.1
; #@! TA.AperFunction,ComponentDrill
T4C3.2
%
G90
G05
M71
T1
X15.75Y16.0
X4.0Y16.625
X4.375Y19.25
X9.25Y8.875
X13.5Y16.0
X4.125Y3.5
X6.625Y9.875
X17.25Y15.875
X20.75Y15.875
X19.0Y15.875
X0.75Y19.25
X15.25Y8.75
X10.5Y12.25
X12.125Y10.75
X20.375Y3.375
X16.375Y10.75
X21.25Y8.75
X19.0Y9.125
X20.25Y8.75
X17.625Y9.125
X14.25Y12.5
X14.25Y11.25
X3.75Y8.75
X4.125Y9.375
X14.25Y16.0
X21.125Y3.375
T2
X4.48Y21.5
X1.94Y21.5
X9.56Y21.5
X7.02Y21.5
T3
X23.5Y12.23
X23.5Y14.77
X23.5Y6.23
X23.5Y8.77
T4
X21.5Y19.5
T0
M30
