G04 --- HEADER BEGIN --- *
G04 #@! TF.GenerationSoftware,LibrePCB,LibrePCB,2.1.0*
G04 #@! TF.CreationDate,2026-08-16T21:20:06*
G04 #@! TF.ProjectId,Lab-Lamp,1f94bfc4-d831-43e1-86c0-4bc184f53f1f,v1*
G04 #@! TF.Part,Single*
G04 #@! TF.SameCoordinates*
G04 #@! TF.FileFunction,Legend,Bot*
G04 #@! TF.FilePolarity,Positive*
%FSLAX66Y66*%
%MOMM*%
G01*
G75*
G04 --- HEADER END --- *
G04 --- APERTURE LIST BEGIN --- *
%ADD10C,0.2*%
%ADD11O,1.787X2.39*%
%AMROUNDEDRECT12*20,1,1.787,-1.095,0.0,1.095,0.0,90.0*20,1,1.587,-1.195,0.0,1.195,0.0,90.0*1,1,0.2,-0.7935,-1.095*1,1,0.2,-0.7935,1.095*1,1,0.2,0.7935,1.095*1,1,0.2,0.7935,-1.095*%
%ADD12ROUNDEDRECT12*%
%ADD13O,2.0X1.8*%
%ADD14O,1.8X2.0*%
%ADD15C,3.4*%
G04 --- APERTURE LIST END --- *
G04 --- BOARD BEGIN --- *
D10*
G04 #@! TO.C,J3*
X350000Y23650000D02*
X6100000Y23650000D01*
X350000Y23650000D02*
X350000Y16250000D01*
X6100000Y23650000D02*
X6100000Y16250000D01*
X6100000Y16250000D02*
X350000Y16250000D01*
X-2499999Y20268889D02*
X-1785555Y20268889D01*
X-1643332Y20316667D01*
X-1547777Y20412222D01*
X-1499999Y20554444D01*
X-1499999Y20650000D01*
X-2499999Y19868889D02*
X-2499999Y19250000D01*
X-2118888Y19583333D01*
X-2118888Y19440000D01*
X-2071110Y19345556D01*
X-2023332Y19297778D01*
X-1928888Y19250000D01*
X-1689999Y19250000D01*
X-1595555Y19297778D01*
X-1547777Y19345556D01*
X-1499999Y19440000D01*
X-1499999Y19725556D01*
X-1547777Y19821111D01*
X-1595555Y19868889D01*
%LPC*%
D11*
G04 #@! TO.C,J1*
X10930000Y22100000D03*
D12*
X8390000Y22100000D03*
D11*
X16010000Y22100000D03*
X13470000Y22100000D03*
D13*
G04 #@! TO.C,J5*
X33800000Y3000000D03*
X33800000Y5500000D03*
D14*
G04 #@! TO.C,J2*
X33800000Y21450000D03*
X31300000Y21450000D03*
D13*
G04 #@! TO.C,J3*
X2700000Y18700000D03*
X2700000Y21200000D03*
D14*
G04 #@! TO.C,J4*
X5950000Y2400000D03*
X8450000Y2400000D03*
D15*
G04 #@! TD*
X3000000Y12000000D03*
X33000000Y12000000D03*
G04 --- BOARD END --- *
G04 #@! TF.MD5,fc200bff194dfbf659dfc66209965c80*
M02*
