G04 --- HEADER BEGIN --- *
G04 #@! TF.GenerationSoftware,LibrePCB,LibrePCB,2.0.1*
G04 #@! TF.CreationDate,2026-04-17T23:48:40*
G04 #@! TF.ProjectId,Lab-Lamp,1f94bfc4-d831-43e1-86c0-4bc184f53f1f,v1*
G04 #@! TF.Part,Single*
G04 #@! TF.SameCoordinates*
G04 #@! TF.FileFunction,Legend,Top*
G04 #@! TF.FilePolarity,Positive*
%FSLAX66Y66*%
%MOMM*%
G01*
G75*
G04 --- HEADER END --- *
G04 --- APERTURE LIST BEGIN --- *
%ADD10C,0.25*%
%ADD11C,0.2*%
%ADD12C,0.15*%
%ADD13C,0.01*%
%AMROUNDEDRECT14*20,1,0.45,-0.4,0.0,0.4,0.0,0.0*20,1,0.125,-0.5625,0.0,0.5625,0.0,0.0*1,1,0.325,-0.4,0.0625*1,1,0.325,0.4,0.0625*1,1,0.325,0.4,-0.0625*1,1,0.325,-0.4,-0.0625*%
%ADD14ROUNDEDRECT14*%
%AMROUNDEDRECT15*20,1,0.45,-0.3375,0.0,0.3375,0.0,90.0*20,1,0.125,-0.5,0.0,0.5,0.0,90.0*1,1,0.325,-0.0625,-0.3375*1,1,0.325,-0.0625,0.3375*1,1,0.325,0.0625,0.3375*1,1,0.325,0.0625,-0.3375*%
%ADD15ROUNDEDRECT15*%
%AMROUNDEDRECT16*20,1,0.45,-0.3375,0.0,0.3375,0.0,0.0*20,1,0.125,-0.5,0.0,0.5,0.0,0.0*1,1,0.325,-0.3375,0.0625*1,1,0.325,0.3375,0.0625*1,1,0.325,0.3375,-0.0625*1,1,0.325,-0.3375,-0.0625*%
%ADD16ROUNDEDRECT16*%
%AMROUNDEDRECT17*20,1,0.45,-0.3,0.0,0.3,0.0,90.0*20,1,0.125,-0.4625,0.0,0.4625,0.0,90.0*1,1,0.325,-0.0625,-0.3*1,1,0.325,-0.0625,0.3*1,1,0.325,0.0625,0.3*1,1,0.325,0.0625,-0.3*%
%ADD17ROUNDEDRECT17*%
%AMROUNDEDRECT18*20,1,0.4,-0.4125,0.0,0.4125,0.0,0.0*20,1,0.1,-0.5625,0.0,0.5625,0.0,0.0*1,1,0.3,-0.4125,0.05*1,1,0.3,0.4125,0.05*1,1,0.3,0.4125,-0.05*1,1,0.3,-0.4125,-0.05*%
%ADD18ROUNDEDRECT18*%
%AMROUNDEDRECT19*20,1,0.625,-0.296875,0.0,0.296875,0.0,90.0*20,1,0.31875,-0.45,0.0,0.45,0.0,90.0*1,1,0.30625,-0.159375,-0.296875*1,1,0.30625,-0.159375,0.296875*1,1,0.30625,0.159375,0.296875*1,1,0.30625,0.159375,-0.296875*%
%ADD19ROUNDEDRECT19*%
%AMROUNDEDRECT20*20,1,0.4,-0.35,0.0,0.35,0.0,90.0*20,1,0.1,-0.5,0.0,0.5,0.0,90.0*1,1,0.3,-0.05,-0.35*1,1,0.3,-0.05,0.35*1,1,0.3,0.05,0.35*1,1,0.3,0.05,-0.35*%
%ADD20ROUNDEDRECT20*%
%AMROUNDEDRECT21*20,1,0.9,-0.4125,0.0,0.4125,0.0,90.0*20,1,0.525,-0.6,0.0,0.6,0.0,90.0*1,1,0.375,-0.2625,-0.4125*1,1,0.375,-0.2625,0.4125*1,1,0.375,0.2625,0.4125*1,1,0.375,0.2625,-0.4125*%
%ADD21ROUNDEDRECT21*%
%AMROUNDEDRECT22*20,1,1.15,-0.625,0.0,0.625,0.0,0.0*20,1,0.95,-0.725,0.0,0.725,0.0,0.0*1,1,0.2,-0.625,0.475*1,1,0.2,0.625,0.475*1,1,0.2,0.625,-0.475*1,1,0.2,-0.625,-0.475*%
%ADD22ROUNDEDRECT22*%
%AMROUNDEDRECT23*20,1,0.55,-0.25,0.0,0.25,0.0,0.0*20,1,0.35,-0.35,0.0,0.35,0.0,0.0*1,1,0.2,-0.25,0.175*1,1,0.2,0.25,0.175*1,1,0.2,0.25,-0.175*1,1,0.2,-0.25,-0.175*%
%ADD23ROUNDEDRECT23*%
%ADD24O,2.39X1.787*%
%AMROUNDEDRECT25*20,1,1.787,-1.095,0.0,1.095,0.0,0.0*20,1,1.587,-1.195,0.0,1.195,0.0,0.0*1,1,0.2,-1.095,0.7935*1,1,0.2,1.095,0.7935*1,1,0.2,1.095,-0.7935*1,1,0.2,-1.095,-0.7935*%
%ADD25ROUNDEDRECT25*%
%AMROUNDEDRECT26*20,1,0.6,-0.25,0.0,0.25,0.0,0.0*20,1,0.4,-0.35,0.0,0.35,0.0,0.0*1,1,0.2,-0.25,0.2*1,1,0.2,0.25,0.2*1,1,0.2,0.25,-0.2*1,1,0.2,-0.25,-0.2*%
%ADD26ROUNDEDRECT26*%
%AMROUNDEDRECT27*20,1,0.55,-0.25,0.0,0.25,0.0,90.0*20,1,0.35,-0.35,0.0,0.35,0.0,90.0*1,1,0.2,-0.175,-0.25*1,1,0.2,-0.175,0.25*1,1,0.2,0.175,0.25*1,1,0.2,0.175,-0.25*%
%ADD27ROUNDEDRECT27*%
%ADD28C,5.8*%
%AMROUNDEDRECT29*20,1,1.0,-0.425,0.0,0.425,0.0,90.0*20,1,0.8,-0.525,0.0,0.525,0.0,90.0*1,1,0.2,-0.4,-0.425*1,1,0.2,-0.4,0.425*1,1,0.2,0.4,0.425*1,1,0.2,0.4,-0.425*%
%ADD29ROUNDEDRECT29*%
%AMROUNDEDRECT30*20,1,2.35,-1.625,0.0,1.625,0.0,0.0*20,1,2.15,-1.725,0.0,1.725,0.0,0.0*1,1,0.2,-1.625,1.075*1,1,0.2,1.625,1.075*1,1,0.2,1.625,-1.075*1,1,0.2,-1.625,-1.075*%
%ADD30ROUNDEDRECT30*%
%AMROUNDEDRECT31*20,1,1.15,-0.8375,0.0,0.8375,0.0,90.0*20,1,0.475,-1.175,0.0,1.175,0.0,90.0*1,1,0.675,-0.2375,-0.8375*1,1,0.675,-0.2375,0.8375*1,1,0.675,0.2375,0.8375*1,1,0.675,0.2375,-0.8375*%
%ADD31ROUNDEDRECT31*%
%ADD32O,1.787X2.39*%
%AMROUNDEDRECT33*20,1,1.787,-1.095,0.0,1.095,0.0,90.0*20,1,1.587,-1.195,0.0,1.195,0.0,90.0*1,1,0.2,-0.7935,-1.095*1,1,0.2,-0.7935,1.095*1,1,0.2,0.7935,1.095*1,1,0.2,0.7935,-1.095*%
%ADD33ROUNDEDRECT33*%
%AMROUNDEDRECT34*20,1,0.53,-0.5675,0.0,0.5675,0.0,90.0*20,1,0.165,-0.75,0.0,0.75,0.0,90.0*1,1,0.365,-0.0825,-0.5675*1,1,0.365,-0.0825,0.5675*1,1,0.365,0.0825,0.5675*1,1,0.365,0.0825,-0.5675*%
%ADD34ROUNDEDRECT34*%
%AMROUNDEDRECT35*20,1,2.7,-3.75,0.0,3.75,0.0,90.0*20,1,2.0,-4.1,0.0,4.1,0.0,90.0*1,1,0.7,-1.0,-3.75*1,1,0.7,-1.0,3.75*1,1,0.7,1.0,3.75*1,1,0.7,1.0,-3.75*%
%ADD35ROUNDEDRECT35*%
%AMROUNDEDRECT36*20,1,0.6,-0.25,0.0,0.25,0.0,90.0*20,1,0.4,-0.35,0.0,0.35,0.0,90.0*1,1,0.2,-0.2,-0.25*1,1,0.2,-0.2,0.25*1,1,0.2,0.2,0.25*1,1,0.2,0.2,-0.25*%
%ADD36ROUNDEDRECT36*%
%AMROUNDEDRECT37*20,1,1.4,-0.6,0.0,0.6,0.0,0.0*20,1,1.2,-0.7,0.0,0.7,0.0,0.0*1,1,0.2,-0.6,0.6*1,1,0.2,0.6,0.6*1,1,0.2,0.6,-0.6*1,1,0.2,-0.6,-0.6*%
%ADD37ROUNDEDRECT37*%
G04 --- APERTURE LIST END --- *
G04 --- BOARD BEGIN --- *
D10*
G04 #@! TO.C,C8*
X18250000Y13875000D02*
X18250000Y14125000D01*
X19750000Y13875000D02*
X19750000Y14125000D01*
G04 #@! TO.C,J2*
X22105000Y5105000D02*
X22105000Y7230000D01*
X22375000Y7500000D01*
X22105000Y7770000D01*
X22105000Y9895000D01*
X22375000Y10165000D01*
X24625000Y10165000D01*
X24895000Y9895000D01*
X24895000Y7770000D01*
X24625000Y7500000D01*
X24895000Y7230000D01*
X24895000Y5105000D01*
X24625000Y4835000D01*
X22375000Y4835000D01*
X22105000Y5105000D01*
G04 #@! TO.C,J3*
X22105000Y11105000D02*
X22105000Y13230000D01*
X22375000Y13500000D01*
X22105000Y13770000D01*
X22105000Y15895000D01*
X22375000Y16165000D01*
X24625000Y16165000D01*
X24895000Y15895000D01*
X24895000Y13770000D01*
X24625000Y13500000D01*
X24895000Y13230000D01*
X24895000Y11105000D01*
X24625000Y10835000D01*
X22375000Y10835000D01*
X22105000Y11105000D01*
D11*
G04 #@! TO.C,H1*
X24550000Y19500000D02*
G02*
X18450000Y19500000I-3050000J0D01*
G01*
G02*
X24550000Y19500000I3050000J0D01*
G01*
D10*
G04 #@! TO.C,C12*
X21500000Y5375000D02*
X21500000Y5125000D01*
X20000000Y5375000D02*
X20000000Y5125000D01*
D12*
G04 #@! TO.C,C10*
X18525000Y10825000D02*
X18525000Y10675000D01*
X19475000Y10825000D02*
X19475000Y10675000D01*
D11*
G04 #@! TO.C,U3*
X8000000Y2900000D02*
X7200000Y2900000D01*
X9525000Y2900000D02*
X9850000Y2900000D01*
X9850000Y6600000D01*
X8375000Y6600000D01*
X3475000Y950000D02*
X3475000Y2900000D01*
X3150000Y2900000D01*
X3150000Y6600000D01*
X4625000Y6600000D01*
X5000000Y2900000D02*
X5800000Y2900000D01*
D12*
G04 #@! TO.C,C11*
X17150000Y10825000D02*
X17150000Y10675000D01*
X18100000Y10825000D02*
X18100000Y10675000D01*
D10*
G04 #@! TO.C,J1*
X10685000Y20105000D02*
X8560000Y20105000D01*
X8290000Y20375000D01*
X8020000Y20105000D01*
X6020000Y20105000D01*
X5750000Y20375000D01*
X5480000Y20105000D01*
X3480000Y20105000D01*
X3210000Y20375000D01*
X2940000Y20105000D01*
X815000Y20105000D01*
X545000Y20375000D01*
X545000Y22625000D01*
X815000Y22895000D01*
X2940000Y22895000D01*
X3210000Y22625000D01*
X3480000Y22895000D01*
X5480000Y22895000D01*
X5750000Y22625000D01*
X6020000Y22895000D01*
X8020000Y22895000D01*
X8290000Y22625000D01*
X8560000Y22895000D01*
X10685000Y22895000D01*
X10955000Y22625000D01*
X10955000Y20375000D01*
X10685000Y20105000D01*
G04 #@! TO.C,C9*
X20000000Y13875000D02*
X20000000Y14125000D01*
X21500000Y13875000D02*
X21500000Y14125000D01*
G04 #@! TO.C,U2*
X8375000Y12925000D02*
X8375000Y17075000D01*
X1625000Y11575000D02*
X1625000Y17075000D01*
G04 #@! TO.C,C7*
X16500000Y13875000D02*
X16500000Y14125000D01*
X18000000Y13875000D02*
X18000000Y14125000D01*
G04 #@! TO.C,LED1*
X875000Y6275000D02*
X875000Y2825000D01*
X2125000Y2825000D01*
X2625000Y3325000D02*
X2625000Y6275000D01*
D13*
G36*
X2775000Y2825000D02*
G02*
X2475000Y2825000I-150000J0D01*
G01*
G02*
X2775000Y2825000I150000J0D01*
G01*
G37*
G04 #@! TO.C,LOGO1*
G36*
X11310000Y17200000D02*
X11730000Y17200000D01*
X11730000Y17000000D01*
X11310000Y17000000D01*
X11310000Y17200000D01*
G37*
G36*
X10150000Y18560000D02*
X10350000Y18560000D01*
X10350000Y18980000D01*
X10150000Y18980000D01*
X10150000Y18560000D01*
G37*
G36*
X9750000Y18560000D02*
X9950000Y18560000D01*
X9950000Y18980000D01*
X9750000Y18980000D01*
X9750000Y18560000D01*
G37*
G36*
X9190000Y18000000D02*
X8770000Y18000000D01*
X8770000Y17800000D01*
X9190000Y17800000D01*
X9190000Y18000000D01*
G37*
G36*
X10150000Y16440000D02*
X10350000Y16440000D01*
X10350000Y16020000D01*
X10150000Y16020000D01*
X10150000Y16440000D01*
G37*
G36*
X9615000Y18347000D02*
X10885000Y18347000D01*
G02*
X11097000Y18135000I0J-212000D01*
G01*
X11097000Y16865000D01*
G02*
X10885000Y16653000I-212000J0D01*
G01*
X9615000Y16653000D01*
G02*
X9403000Y16865000I0J212000D01*
G01*
X9403000Y17965000D01*
X9618000Y17965000D01*
G03*
X9785000Y17798000I167000J0D01*
G01*
G03*
X9952000Y17965000I0J167000D01*
G01*
G03*
X9785000Y18132000I-167000J0D01*
G01*
G03*
X9618000Y17965000I0J-167000D01*
G01*
X9403000Y17965000D01*
X9403000Y18135000D01*
G02*
X9615000Y18347000I212000J0D01*
G01*
G37*
G36*
X11310000Y18000000D02*
X11730000Y18000000D01*
X11730000Y17800000D01*
X11310000Y17800000D01*
X11310000Y18000000D01*
G37*
G36*
X10550000Y18560000D02*
X10750000Y18560000D01*
X10750000Y18980000D01*
X10550000Y18980000D01*
X10550000Y18560000D01*
G37*
G36*
X9190000Y17600000D02*
X8770000Y17600000D01*
X8770000Y17400000D01*
X9190000Y17400000D01*
X9190000Y17600000D01*
G37*
G36*
X9750000Y16440000D02*
X9950000Y16440000D01*
X9950000Y16020000D01*
X9750000Y16020000D01*
X9750000Y16440000D01*
G37*
G36*
X9190000Y17200000D02*
X8770000Y17200000D01*
X8770000Y17000000D01*
X9190000Y17000000D01*
X9190000Y17200000D01*
G37*
G36*
X10550000Y16440000D02*
X10750000Y16440000D01*
X10750000Y16020000D01*
X10550000Y16020000D01*
X10550000Y16440000D01*
G37*
G36*
X11310000Y17600000D02*
X11730000Y17600000D01*
X11730000Y17400000D01*
X11310000Y17400000D01*
X11310000Y17600000D01*
G37*
D12*
X12350000Y17692000D02*
X12350000Y18492000D01*
X12616667Y17920444D01*
X12883333Y18492000D01*
X12883333Y17692000D01*
X13574666Y17692000D02*
X13574666Y18110667D01*
X13536444Y18187111D01*
X13460000Y18225333D01*
X13308000Y18225333D01*
X13231555Y18187111D01*
X13574666Y17730222D02*
X13498222Y17692000D01*
X13308000Y17692000D01*
X13231555Y17730222D01*
X13193333Y17806667D01*
X13193333Y17882222D01*
X13231555Y17958667D01*
X13308000Y17996889D01*
X13498222Y17996889D01*
X13574666Y18035111D01*
X14265999Y17692000D02*
X14265999Y18492000D01*
X14265999Y17730222D02*
X14189555Y17692000D01*
X14036666Y17692000D01*
X13961110Y17730222D01*
X13922888Y17768444D01*
X13884666Y17844000D01*
X13884666Y18073333D01*
X13922888Y18148889D01*
X13961110Y18187111D01*
X14036666Y18225333D01*
X14189555Y18225333D01*
X14265999Y18187111D01*
X14919110Y17730222D02*
X14842666Y17692000D01*
X14690666Y17692000D01*
X14614221Y17730222D01*
X14575999Y17806667D01*
X14575999Y18110667D01*
X14614221Y18187111D01*
X14690666Y18225333D01*
X14842666Y18225333D01*
X14919110Y18187111D01*
X14957332Y18110667D01*
X14957332Y18035111D01*
X14575999Y17958667D01*
X15897331Y18492000D02*
X16087553Y17692000D01*
X16240442Y18263556D01*
X16392442Y17692000D01*
X16582664Y18492000D01*
X16930886Y17692000D02*
X16930886Y18225333D01*
X16930886Y18492000D02*
X16892664Y18453778D01*
X16930886Y18415556D01*
X16969108Y18453778D01*
X16930886Y18492000D01*
X16930886Y18415556D01*
X17279108Y18225333D02*
X17583997Y18225333D01*
X17393775Y18492000D02*
X17393775Y17806667D01*
X17431108Y17730222D01*
X17507552Y17692000D01*
X17583997Y17692000D01*
X17893997Y17692000D02*
X17893997Y18492000D01*
X18237108Y17692000D02*
X18237108Y18110667D01*
X18198886Y18187111D01*
X18122441Y18225333D01*
X18008664Y18225333D01*
X17932219Y18187111D01*
X17893997Y18148889D01*
X12731333Y16508000D02*
X12350000Y16508000D01*
X12350000Y17308000D01*
X13079555Y16508000D02*
X13079555Y17041333D01*
X13079555Y17308000D02*
X13041333Y17269778D01*
X13079555Y17231556D01*
X13117777Y17269778D01*
X13079555Y17308000D01*
X13079555Y17231556D01*
X13427777Y16508000D02*
X13427777Y17308000D01*
X13427777Y17003111D02*
X13504221Y17041333D01*
X13656221Y17041333D01*
X13732666Y17003111D01*
X13770888Y16964889D01*
X13809110Y16889333D01*
X13809110Y16660000D01*
X13770888Y16584444D01*
X13732666Y16546222D01*
X13656221Y16508000D01*
X13504221Y16508000D01*
X13427777Y16546222D01*
X14119110Y16508000D02*
X14119110Y17041333D01*
X14119110Y16889333D02*
X14157332Y16964889D01*
X14195554Y17003111D01*
X14271110Y17041333D01*
X14347554Y17041333D01*
X15000665Y16546222D02*
X14924221Y16508000D01*
X14772221Y16508000D01*
X14695776Y16546222D01*
X14657554Y16622667D01*
X14657554Y16926667D01*
X14695776Y17003111D01*
X14772221Y17041333D01*
X14924221Y17041333D01*
X15000665Y17003111D01*
X15038887Y16926667D01*
X15038887Y16851111D01*
X14657554Y16774667D01*
X15348887Y16508000D02*
X15348887Y17308000D01*
X15653776Y17308000D01*
X15730220Y17269778D01*
X15767554Y17231556D01*
X15805776Y17156000D01*
X15805776Y17041333D01*
X15767554Y16964889D01*
X15730220Y16926667D01*
X15653776Y16889333D01*
X15348887Y16889333D01*
X16610887Y16584444D02*
X16572665Y16546222D01*
X16458887Y16508000D01*
X16382443Y16508000D01*
X16267776Y16546222D01*
X16192220Y16622667D01*
X16153998Y16698222D01*
X16115776Y16851111D01*
X16115776Y16964889D01*
X16153998Y17117778D01*
X16192220Y17193333D01*
X16267776Y17269778D01*
X16382443Y17308000D01*
X16458887Y17308000D01*
X16572665Y17269778D01*
X16610887Y17231556D01*
X17187554Y16926667D02*
X17302220Y16889333D01*
X17339554Y16851111D01*
X17377776Y16774667D01*
X17377776Y16660000D01*
X17339554Y16584444D01*
X17302220Y16546222D01*
X17225776Y16508000D01*
X16920887Y16508000D01*
X16920887Y17308000D01*
X17187554Y17308000D01*
X17263998Y17269778D01*
X17302220Y17231556D01*
X17339554Y17156000D01*
X17339554Y17079556D01*
X17302220Y17003111D01*
X17263998Y16964889D01*
X17187554Y16926667D01*
X16920887Y16926667D01*
D10*
G04 #@! TO.C,C6*
X21250000Y10625000D02*
X21250000Y10375000D01*
X19750000Y10625000D02*
X19750000Y10375000D01*
D12*
G04 #@! TD*
X11631333Y22150000D02*
X11250000Y22150000D01*
X11250000Y22950000D01*
X12322666Y22150000D02*
X12322666Y22568667D01*
X12284444Y22645111D01*
X12208000Y22683333D01*
X12056000Y22683333D01*
X11979555Y22645111D01*
X12322666Y22188222D02*
X12246222Y22150000D01*
X12056000Y22150000D01*
X11979555Y22188222D01*
X11941333Y22264667D01*
X11941333Y22340222D01*
X11979555Y22416667D01*
X12056000Y22454889D01*
X12246222Y22454889D01*
X12322666Y22493111D01*
X12632666Y22150000D02*
X12632666Y22950000D01*
X12632666Y22645111D02*
X12709110Y22683333D01*
X12861110Y22683333D01*
X12937555Y22645111D01*
X12975777Y22606889D01*
X13013999Y22531333D01*
X13013999Y22302000D01*
X12975777Y22226444D01*
X12937555Y22188222D01*
X12861110Y22150000D01*
X12709110Y22150000D01*
X12632666Y22188222D01*
X13323999Y22454889D02*
X13933777Y22454889D01*
X14625110Y22150000D02*
X14243777Y22150000D01*
X14243777Y22950000D01*
X15316443Y22150000D02*
X15316443Y22568667D01*
X15278221Y22645111D01*
X15201777Y22683333D01*
X15049777Y22683333D01*
X14973332Y22645111D01*
X15316443Y22188222D02*
X15239999Y22150000D01*
X15049777Y22150000D01*
X14973332Y22188222D01*
X14935110Y22264667D01*
X14935110Y22340222D01*
X14973332Y22416667D01*
X15049777Y22454889D01*
X15239999Y22454889D01*
X15316443Y22493111D01*
X15626443Y22150000D02*
X15626443Y22683333D01*
X15626443Y22606889D02*
X15664665Y22645111D01*
X15741110Y22683333D01*
X15854887Y22683333D01*
X15931332Y22645111D01*
X15969554Y22568667D01*
X15969554Y22150000D01*
X15969554Y22568667D02*
X16007776Y22645111D01*
X16083332Y22683333D01*
X16197999Y22683333D01*
X16274443Y22645111D01*
X16311776Y22568667D01*
X16311776Y22150000D01*
X16621776Y22683333D02*
X16621776Y21883333D01*
X16621776Y22645111D02*
X16698220Y22683333D01*
X16850220Y22683333D01*
X16926665Y22645111D01*
X16964887Y22606889D01*
X17003109Y22531333D01*
X17003109Y22302000D01*
X16964887Y22226444D01*
X16926665Y22188222D01*
X16850220Y22150000D01*
X16698220Y22150000D01*
X16621776Y22188222D01*
X11631333Y20950000D02*
X11250000Y20950000D01*
X11250000Y21750000D01*
X11979555Y21026444D02*
X12017777Y20988222D01*
X11979555Y20950000D01*
X11941333Y20988222D01*
X11979555Y21026444D01*
X11979555Y20950000D01*
X13224443Y21368667D02*
X13339109Y21331333D01*
X13376443Y21293111D01*
X13414665Y21216667D01*
X13414665Y21102000D01*
X13376443Y21026444D01*
X13339109Y20988222D01*
X13262665Y20950000D01*
X12957776Y20950000D01*
X12957776Y21750000D01*
X13224443Y21750000D01*
X13300887Y21711778D01*
X13339109Y21673556D01*
X13376443Y21598000D01*
X13376443Y21521556D01*
X13339109Y21445111D01*
X13300887Y21406889D01*
X13224443Y21368667D01*
X12957776Y21368667D01*
X14105998Y20950000D02*
X14105998Y21368667D01*
X14067776Y21445111D01*
X13991332Y21483333D01*
X13839332Y21483333D01*
X13762887Y21445111D01*
X14105998Y20988222D02*
X14029554Y20950000D01*
X13839332Y20950000D01*
X13762887Y20988222D01*
X13724665Y21064667D01*
X13724665Y21140222D01*
X13762887Y21216667D01*
X13839332Y21254889D01*
X14029554Y21254889D01*
X14105998Y21293111D01*
X14415998Y20950000D02*
X14415998Y21483333D01*
X14415998Y21331333D02*
X14454220Y21406889D01*
X14492442Y21445111D01*
X14567998Y21483333D01*
X14644442Y21483333D01*
X14954442Y20950000D02*
X14954442Y21750000D01*
X14954442Y21445111D02*
X15030886Y21483333D01*
X15182886Y21483333D01*
X15259331Y21445111D01*
X15297553Y21406889D01*
X15335775Y21331333D01*
X15335775Y21102000D01*
X15297553Y21026444D01*
X15259331Y20988222D01*
X15182886Y20950000D01*
X15030886Y20950000D01*
X14954442Y20988222D01*
X15683997Y20950000D02*
X15683997Y21483333D01*
X15683997Y21750000D02*
X15645775Y21711778D01*
X15683997Y21673556D01*
X15722219Y21711778D01*
X15683997Y21750000D01*
X15683997Y21673556D01*
X16032219Y20988222D02*
X16108663Y20950000D01*
X16260663Y20950000D01*
X16337108Y20988222D01*
X16375330Y21064667D01*
X16375330Y21102000D01*
X16337108Y21178444D01*
X16260663Y21216667D01*
X16146886Y21216667D01*
X16070441Y21254889D01*
X16032219Y21331333D01*
X16032219Y21368667D01*
X16070441Y21445111D01*
X16146886Y21483333D01*
X16260663Y21483333D01*
X16337108Y21445111D01*
X17066663Y20988222D02*
X16990219Y20950000D01*
X16837330Y20950000D01*
X16761774Y20988222D01*
X16723552Y21026444D01*
X16685330Y21102000D01*
X16685330Y21331333D01*
X16723552Y21406889D01*
X16761774Y21445111D01*
X16837330Y21483333D01*
X16990219Y21483333D01*
X17066663Y21445111D01*
X17376663Y20950000D02*
X17376663Y21750000D01*
X17719774Y20950000D02*
X17719774Y21368667D01*
X17681552Y21445111D01*
X17605107Y21483333D01*
X17491330Y21483333D01*
X17414885Y21445111D01*
X17376663Y21406889D01*
X11706889Y19750000D02*
X11250000Y19750000D01*
X11478444Y19750000D02*
X11478444Y20550000D01*
X11402000Y20435333D01*
X11326444Y20359778D01*
X11250000Y20321556D01*
X12016889Y20550000D02*
X12550222Y20550000D01*
X12207111Y19750000D01*
X12898444Y19826444D02*
X12936666Y19788222D01*
X12898444Y19750000D01*
X12860222Y19788222D01*
X12898444Y19826444D01*
X12898444Y19750000D01*
X13436888Y20550000D02*
X13513333Y20550000D01*
X13589777Y20511778D01*
X13627999Y20473556D01*
X13665333Y20398000D01*
X13703555Y20245111D01*
X13703555Y20054889D01*
X13665333Y19902000D01*
X13627999Y19826444D01*
X13589777Y19788222D01*
X13513333Y19750000D01*
X13436888Y19750000D01*
X13361333Y19788222D01*
X13323110Y19826444D01*
X13284888Y19902000D01*
X13246666Y20054889D01*
X13246666Y20245111D01*
X13284888Y20398000D01*
X13323110Y20473556D01*
X13361333Y20511778D01*
X13436888Y20550000D01*
X14394888Y20283333D02*
X14394888Y19750000D01*
X14203777Y20588222D02*
X14013555Y20016667D01*
X14508666Y20016667D01*
X14856888Y19826444D02*
X14895110Y19788222D01*
X14856888Y19750000D01*
X14818666Y19788222D01*
X14856888Y19826444D01*
X14856888Y19750000D01*
X15243332Y20473556D02*
X15281554Y20511778D01*
X15357110Y20550000D01*
X15548221Y20550000D01*
X15623777Y20511778D01*
X15661999Y20473556D01*
X15700221Y20398000D01*
X15700221Y20321556D01*
X15661999Y20206889D01*
X15205110Y19750000D01*
X15700221Y19750000D01*
X16200443Y20550000D02*
X16276888Y20550000D01*
X16353332Y20511778D01*
X16391554Y20473556D01*
X16428888Y20398000D01*
X16467110Y20245111D01*
X16467110Y20054889D01*
X16428888Y19902000D01*
X16391554Y19826444D01*
X16353332Y19788222D01*
X16276888Y19750000D01*
X16200443Y19750000D01*
X16124888Y19788222D01*
X16086665Y19826444D01*
X16048443Y19902000D01*
X16010221Y20054889D01*
X16010221Y20245111D01*
X16048443Y20398000D01*
X16086665Y20473556D01*
X16124888Y20511778D01*
X16200443Y20550000D01*
X16815332Y20473556D02*
X16853554Y20511778D01*
X16929110Y20550000D01*
X17120221Y20550000D01*
X17195777Y20511778D01*
X17233999Y20473556D01*
X17272221Y20398000D01*
X17272221Y20321556D01*
X17233999Y20206889D01*
X16777110Y19750000D01*
X17272221Y19750000D01*
X17963554Y20550000D02*
X17810665Y20550000D01*
X17734221Y20511778D01*
X17696888Y20473556D01*
X17620443Y20359778D01*
X17582221Y20206889D01*
X17582221Y19902000D01*
X17620443Y19826444D01*
X17658665Y19788222D01*
X17734221Y19750000D01*
X17887110Y19750000D01*
X17963554Y19788222D01*
X18000888Y19826444D01*
X18039110Y19902000D01*
X18039110Y20093111D01*
X18000888Y20168667D01*
X17963554Y20206889D01*
X17887110Y20245111D01*
X17734221Y20245111D01*
X17658665Y20206889D01*
X17620443Y20168667D01*
X17582221Y20093111D01*
%LPC*%
D14*
G04 #@! TO.C,U1*
X15587500Y9800000D03*
D15*
X14250000Y13400000D03*
X14750000Y13400000D03*
D16*
X12850000Y12700000D03*
X15650000Y12700000D03*
X12850000Y12200000D03*
X15650000Y13200000D03*
D17*
X15250000Y13437500D03*
D18*
X15587500Y10425000D03*
D17*
X15250000Y9562500D03*
D14*
X12912500Y9800000D03*
D19*
X13162500Y10675000D03*
D16*
X15650000Y12200000D03*
D17*
X13250000Y9562500D03*
D18*
X15587500Y11550000D03*
X15587500Y10925000D03*
D20*
X14000000Y9600000D03*
D18*
X12912500Y10425000D03*
X12913000Y11550000D03*
X12912500Y10925000D03*
D20*
X14500000Y9600000D03*
D15*
X13750000Y13400000D03*
D19*
X15337000Y10675000D03*
D16*
X12850000Y13200000D03*
D17*
X13250000Y13437500D03*
D21*
X14250000Y10200000D03*
D22*
G04 #@! TO.C,C8*
X19000000Y13125000D03*
X19000000Y14875000D03*
D23*
G04 #@! TO.C,R2*
X13500000Y14575000D03*
X13500000Y15425000D03*
D24*
G04 #@! TO.C,J2*
X23500000Y8770000D03*
D25*
X23500000Y6230000D03*
D26*
G04 #@! TO.C,C16*
X3750000Y7350000D03*
X3750000Y8150000D03*
D24*
G04 #@! TO.C,J3*
X23500000Y14770000D03*
D25*
X23500000Y12230000D03*
D26*
G04 #@! TO.C,C14*
X20250000Y7350000D03*
X20250000Y8150000D03*
D27*
G04 #@! TO.C,R7*
X4825000Y10000000D03*
X5675000Y10000000D03*
G04 #@! TO.C,R10*
X7425000Y10750000D03*
X6575000Y10750000D03*
D28*
G04 #@! TO.C,H1*
X21500000Y19500000D03*
D23*
G04 #@! TO.C,R1*
X11500000Y9925000D03*
X11500000Y9075000D03*
D22*
G04 #@! TO.C,C12*
X20750000Y6125000D03*
X20750000Y4375000D03*
D29*
G04 #@! TO.C,C10*
X19000000Y10025000D03*
X19000000Y11475000D03*
D30*
G04 #@! TO.C,U3*
X6500000Y7650000D03*
D31*
X4200000Y1850000D03*
X6500000Y1850000D03*
X8800000Y1850000D03*
D29*
G04 #@! TO.C,C11*
X17625000Y10025000D03*
X17625000Y11475000D03*
D32*
G04 #@! TO.C,J1*
X7020000Y21500000D03*
D33*
X9560000Y21500000D03*
D32*
X1940000Y21500000D03*
X4480000Y21500000D03*
D23*
G04 #@! TO.C,R8*
X1750000Y7925000D03*
X1750000Y7075000D03*
D27*
G04 #@! TO.C,R3*
X5075000Y19250000D03*
X5925000Y19250000D03*
D26*
G04 #@! TO.C,C15*
X9250000Y7350000D03*
X9250000Y8150000D03*
G04 #@! TO.C,C13*
X21250000Y7350000D03*
X21250000Y8150000D03*
D22*
G04 #@! TO.C,C9*
X20750000Y13125000D03*
X20750000Y14875000D03*
D26*
G04 #@! TO.C,C5*
X15750000Y14600000D03*
X15750000Y15400000D03*
D23*
G04 #@! TO.C,R4*
X12750000Y14575000D03*
X12750000Y15425000D03*
D34*
G04 #@! TO.C,U2*
X6625000Y12100000D03*
X5975000Y12100000D03*
X7925000Y12100000D03*
X7925000Y17900000D03*
X7275000Y17900000D03*
X2075000Y12100000D03*
X5325000Y17900000D03*
X6625000Y17900000D03*
X5325000Y12100000D03*
X2725000Y17900000D03*
X7275000Y12100000D03*
X5975000Y17900000D03*
X4025000Y12100000D03*
X2725000Y12100000D03*
X4675000Y17900000D03*
X4675000Y12100000D03*
X3375000Y12100000D03*
X4025000Y17900000D03*
X3375000Y17900000D03*
X2075000Y17900000D03*
D35*
G04 #@! TO.C,L1*
X12750000Y4500000D03*
X18250000Y4500000D03*
D23*
G04 #@! TO.C,R6*
X15000000Y14575000D03*
X15000000Y15425000D03*
D22*
G04 #@! TO.C,C7*
X17250000Y13125000D03*
X17250000Y14875000D03*
D27*
G04 #@! TO.C,R11*
X2175000Y19250000D03*
X1325000Y19250000D03*
D36*
G04 #@! TO.C,C2*
X3350000Y10750000D03*
X4150000Y10750000D03*
G04 #@! TO.C,C3*
X3350000Y10000000D03*
X4150000Y10000000D03*
D37*
G04 #@! TO.C,LED1*
X1750000Y5800000D03*
X1750000Y3700000D03*
D27*
G04 #@! TO.C,R9*
X9050000Y10750000D03*
X8200000Y10750000D03*
D23*
G04 #@! TO.C,R5*
X14250000Y14575000D03*
X14250000Y15425000D03*
D22*
G04 #@! TO.C,C6*
X20500000Y11375000D03*
X20500000Y9625000D03*
D26*
G04 #@! TO.C,C1*
X10750000Y9900000D03*
X10750000Y9100000D03*
D36*
G04 #@! TO.C,C4*
X5650000Y10750000D03*
X4850000Y10750000D03*
G04 --- BOARD END --- *
G04 #@! TF.MD5,bd59f5746189dffcdbaf8d89a352bdab*
M02*
