G04 --- HEADER BEGIN --- *
G04 #@! TF.GenerationSoftware,LibrePCB,LibrePCB,2.0.1*
G04 #@! TF.CreationDate,2026-04-17T23:48:40*
G04 #@! TF.ProjectId,Lab-Lamp,1f94bfc4-d831-43e1-86c0-4bc184f53f1f,v1*
G04 #@! TF.Part,Single*
G04 #@! TF.SameCoordinates*
G04 #@! TF.FileFunction,Copper,L1,Top*
G04 #@! TF.FilePolarity,Positive*
%FSLAX66Y66*%
%MOMM*%
G01*
G75*
G04 --- HEADER END --- *
G04 --- APERTURE LIST BEGIN --- *
G04 #@! TA.AperFunction,SMDPad,CuDef*
%AMROUNDEDRECT10*20,1,0.25,-0.4,0.0,0.4,0.0,0.0*20,1,0.125,-0.4625,0.0,0.4625,0.0,0.0*1,1,0.125,-0.4,0.0625*1,1,0.125,0.4,0.0625*1,1,0.125,0.4,-0.0625*1,1,0.125,-0.4,-0.0625*%
%ADD10ROUNDEDRECT10*%
%AMROUNDEDRECT11*20,1,0.25,-0.3375,0.0,0.3375,0.0,90.0*20,1,0.125,-0.4,0.0,0.4,0.0,90.0*1,1,0.125,-0.0625,-0.3375*1,1,0.125,-0.0625,0.3375*1,1,0.125,0.0625,0.3375*1,1,0.125,0.0625,-0.3375*%
%ADD11ROUNDEDRECT11*%
%AMROUNDEDRECT12*20,1,0.25,-0.3375,0.0,0.3375,0.0,0.0*20,1,0.125,-0.4,0.0,0.4,0.0,0.0*1,1,0.125,-0.3375,0.0625*1,1,0.125,0.3375,0.0625*1,1,0.125,0.3375,-0.0625*1,1,0.125,-0.3375,-0.0625*%
%ADD12ROUNDEDRECT12*%
%AMROUNDEDRECT13*20,1,0.25,-0.3,0.0,0.3,0.0,90.0*20,1,0.125,-0.3625,0.0,0.3625,0.0,90.0*1,1,0.125,-0.0625,-0.3*1,1,0.125,-0.0625,0.3*1,1,0.125,0.0625,0.3*1,1,0.125,0.0625,-0.3*%
%ADD13ROUNDEDRECT13*%
%AMROUNDEDRECT14*20,1,0.2,-0.4125,0.0,0.4125,0.0,0.0*20,1,0.1,-0.4625,0.0,0.4625,0.0,0.0*1,1,0.1,-0.4125,0.05*1,1,0.1,0.4125,0.05*1,1,0.1,0.4125,-0.05*1,1,0.1,-0.4125,-0.05*%
%ADD14ROUNDEDRECT14*%
%AMROUNDEDRECT15*20,1,0.425,-0.296875,0.0,0.296875,0.0,90.0*20,1,0.31875,-0.35,0.0,0.35,0.0,90.0*1,1,0.10625,-0.159375,-0.296875*1,1,0.10625,-0.159375,0.296875*1,1,0.10625,0.159375,0.296875*1,1,0.10625,0.159375,-0.296875*%
%ADD15ROUNDEDRECT15*%
%AMROUNDEDRECT16*20,1,0.2,-0.35,0.0,0.35,0.0,90.0*20,1,0.1,-0.4,0.0,0.4,0.0,90.0*1,1,0.1,-0.05,-0.35*1,1,0.1,-0.05,0.35*1,1,0.1,0.05,0.35*1,1,0.1,0.05,-0.35*%
%ADD16ROUNDEDRECT16*%
%AMROUNDEDRECT17*20,1,0.7,-0.4125,0.0,0.4125,0.0,90.0*20,1,0.525,-0.5,0.0,0.5,0.0,90.0*1,1,0.175,-0.2625,-0.4125*1,1,0.175,-0.2625,0.4125*1,1,0.175,0.2625,0.4125*1,1,0.175,0.2625,-0.4125*%
%ADD17ROUNDEDRECT17*%
%ADD18R,1.25X0.95*%
%ADD19R,0.5X0.35*%
G04 #@! TA.AperFunction,ComponentPad*
%ADD20O,2.19X1.587*%
%ADD21R,2.19X1.587*%
G04 #@! TA.AperFunction,SMDPad,CuDef*
%ADD22R,0.5X0.4*%
%ADD23R,0.35X0.5*%
G04 #@! TA.AperFunction,ComponentPad*
%ADD24C,5.7*%
G04 #@! TA.AperFunction,SMDPad,CuDef*
%ADD25R,0.8X0.85*%
%ADD26R,3.25X2.15*%
%AMROUNDEDRECT27*20,1,0.95,-0.8375,0.0,0.8375,0.0,90.0*20,1,0.475,-1.075,0.0,1.075,0.0,90.0*1,1,0.475,-0.2375,-0.8375*1,1,0.475,-0.2375,0.8375*1,1,0.475,0.2375,0.8375*1,1,0.475,0.2375,-0.8375*%
%ADD27ROUNDEDRECT27*%
G04 #@! TA.AperFunction,ComponentPad*
%ADD28O,1.587X2.19*%
%ADD29R,1.587X2.19*%
G04 #@! TA.AperFunction,SMDPad,CuDef*
%AMROUNDEDRECT30*20,1,0.33,-0.5675,0.0,0.5675,0.0,90.0*20,1,0.165,-0.65,0.0,0.65,0.0,90.0*1,1,0.165,-0.0825,-0.5675*1,1,0.165,-0.0825,0.5675*1,1,0.165,0.0825,0.5675*1,1,0.165,0.0825,-0.5675*%
%ADD30ROUNDEDRECT30*%
%AMROUNDEDRECT31*20,1,2.5,-3.75,0.0,3.75,0.0,90.0*20,1,2.0,-4.0,0.0,4.0,0.0,90.0*1,1,0.5,-1.0,-3.75*1,1,0.5,-1.0,3.75*1,1,0.5,1.0,3.75*1,1,0.5,1.0,-3.75*%
%ADD31ROUNDEDRECT31*%
%ADD32R,0.4X0.5*%
%ADD33R,1.2X1.2*%
G04 #@! TA.AperFunction,Conductor*
%ADD34C,0.2*%
G04 #@! TA.AperFunction,ViaPad*
%ADD35C,0.5*%
G04 #@! TA.AperFunction,Conductor*
%ADD36C,0.3*%
%ADD37C,0.8*%
%ADD38C,0.4*%
%ADD39C,0.5*%
%ADD40C,0.01*%
G04 #@! TD*
G04 --- APERTURE LIST END --- *
G04 --- BOARD BEGIN --- *
D10*
G04 #@! TO.N,FAULT*
G04 #@! TO.C,U1*
G04 #@! TO.P,U1,10,FAULT*
X15587500Y9800000D03*
D11*
G04 #@! TO.N,N4*
G04 #@! TO.P,U1,18,ISET*
X14250000Y13400000D03*
G04 #@! TO.N,N5*
G04 #@! TO.P,U1,17,IREF*
X14750000Y13400000D03*
D12*
G04 #@! TO.N,N/C*
G04 #@! TO.P,U1,2*
X12850000Y12700000D03*
G04 #@! TO.N,GND*
G04 #@! TO.P,U1,15,AGND*
X15650000Y12700000D03*
G04 #@! TO.N,PWM_OUT*
G04 #@! TO.P,U1,3,EN/DIM*
X12850000Y12200000D03*
G04 #@! TO.N,N6*
G04 #@! TO.P,U1,16,VCC*
X15650000Y13200000D03*
D13*
X15250000Y13437500D03*
D14*
G04 #@! TO.N,GND*
G04 #@! TO.P,U1,12,PGND*
X15587500Y10425000D03*
D13*
G04 #@! TO.N,FAULT*
G04 #@! TO.P,U1,10,FAULT*
X15250000Y9562500D03*
D10*
G04 #@! TO.N,N8*
G04 #@! TO.P,U1,7,BST*
X12912500Y9800000D03*
D15*
G04 #@! TO.N,GND*
G04 #@! TO.P,U1,5,PGND*
X13162500Y10675000D03*
D12*
G04 #@! TO.P,U1,14,INGND*
X15650000Y12200000D03*
D13*
G04 #@! TO.N,N8*
G04 #@! TO.P,U1,7,BST*
X13250000Y9562500D03*
D14*
G04 #@! TO.N,Vin*
G04 #@! TO.P,U1,13,VIN*
X15587500Y11550000D03*
G04 #@! TO.N,GND*
G04 #@! TO.P,U1,12,PGND*
X15587500Y10925000D03*
D16*
G04 #@! TO.N,N7*
G04 #@! TO.P,U1,8,SW*
X14000000Y9600000D03*
D14*
G04 #@! TO.N,GND*
G04 #@! TO.P,U1,5,PGND*
X12912500Y10425000D03*
G04 #@! TO.N,Vin*
G04 #@! TO.P,U1,4,VIN*
X12913000Y11550000D03*
G04 #@! TO.N,GND*
G04 #@! TO.P,U1,5,PGND*
X12912500Y10925000D03*
D16*
G04 #@! TO.N,N7*
G04 #@! TO.P,U1,8,SW*
X14500000Y9600000D03*
D11*
G04 #@! TO.N,N12*
G04 #@! TO.P,U1,19,NTC*
X13750000Y13400000D03*
D15*
G04 #@! TO.N,GND*
G04 #@! TO.P,U1,12,PGND*
X15337000Y10675000D03*
D12*
G04 #@! TO.N,N2*
G04 #@! TO.P,U1,1,DUTY*
X12850000Y13200000D03*
D13*
X13250000Y13437500D03*
D17*
G04 #@! TO.N,N7*
G04 #@! TO.P,U1,8,SW*
X14250000Y10200000D03*
D18*
G04 #@! TO.N,Vin*
G04 #@! TO.C,C8*
G04 #@! TO.P,C8,1,1*
X19000000Y13125000D03*
G04 #@! TO.N,GND*
G04 #@! TO.P,C8,2,2*
X19000000Y14875000D03*
D19*
G04 #@! TO.N,N12*
G04 #@! TO.C,R2*
G04 #@! TO.P,R2,2,2*
X13500000Y14575000D03*
G04 #@! TO.N,GND*
G04 #@! TO.P,R2,1,1*
X13500000Y15425000D03*
D20*
G04 #@! TO.C,J2*
G04 #@! TO.P,J2,2,2*
X23500000Y8770000D03*
D21*
G04 #@! TO.N,OUT*
G04 #@! TO.P,J2,1,1*
X23500000Y6230000D03*
D22*
G04 #@! TO.N,3.3V*
G04 #@! TO.C,C16*
G04 #@! TO.P,C16,1,1*
X3750000Y7350000D03*
G04 #@! TO.N,GND*
G04 #@! TO.P,C16,2,2*
X3750000Y8150000D03*
D20*
G04 #@! TO.C,J3*
G04 #@! TO.P,J3,2,2*
X23500000Y14770000D03*
D21*
G04 #@! TO.N,Vin*
G04 #@! TO.P,J3,1,1*
X23500000Y12230000D03*
D22*
G04 #@! TO.N,OUT*
G04 #@! TO.C,C14*
G04 #@! TO.P,C14,1,1*
X20250000Y7350000D03*
G04 #@! TO.N,GND*
G04 #@! TO.P,C14,2,2*
X20250000Y8150000D03*
D23*
G04 #@! TO.N,3.3V*
G04 #@! TO.C,R7*
G04 #@! TO.P,R7,2,2*
X4825000Y10000000D03*
G04 #@! TO.N,N10*
G04 #@! TO.P,R7,1,1*
X5675000Y10000000D03*
G04 #@! TO.N,ADC_V_IN*
G04 #@! TO.C,R10*
G04 #@! TO.P,R10,2,2*
X7425000Y10750000D03*
G04 #@! TO.N,GND*
G04 #@! TO.P,R10,1,1*
X6575000Y10750000D03*
D24*
G04 #@! TO.C,H1*
G04 #@! TO.P,H1,1,1*
X21500000Y19500000D03*
D19*
G04 #@! TO.N,N3*
G04 #@! TO.C,R1*
G04 #@! TO.P,R1,2,2*
X11500000Y9925000D03*
G04 #@! TO.N,N8*
G04 #@! TO.P,R1,1,1*
X11500000Y9075000D03*
D18*
G04 #@! TO.N,OUT*
G04 #@! TO.C,C12*
G04 #@! TO.P,C12,1,1*
X20750000Y6125000D03*
G04 #@! TO.N,GND*
G04 #@! TO.P,C12,2,2*
X20750000Y4375000D03*
D25*
G04 #@! TO.C,C10*
G04 #@! TO.P,C10,2,2*
X19000000Y10025000D03*
G04 #@! TO.N,Vin*
G04 #@! TO.P,C10,1,1*
X19000000Y11475000D03*
D26*
G04 #@! TO.N,3.3V*
G04 #@! TO.C,U3*
G04 #@! TO.P,U3,4,OUT*
X6500000Y7650000D03*
D27*
G04 #@! TO.N,GND*
G04 #@! TO.P,U3,1,GND*
X4200000Y1850000D03*
G04 #@! TO.N,3.3V*
G04 #@! TO.P,U3,2,OUT*
X6500000Y1850000D03*
G04 #@! TO.N,Vin*
G04 #@! TO.P,U3,3,IN*
X8800000Y1850000D03*
D25*
G04 #@! TO.N,GND*
G04 #@! TO.C,C11*
G04 #@! TO.P,C11,2,2*
X17625000Y10025000D03*
G04 #@! TO.N,Vin*
G04 #@! TO.P,C11,1,1*
X17625000Y11475000D03*
D28*
G04 #@! TO.N,SWDIO*
G04 #@! TO.C,J1*
G04 #@! TO.P,J1,2,2*
X7020000Y21500000D03*
D29*
G04 #@! TO.N,3.3V*
G04 #@! TO.P,J1,1,1*
X9560000Y21500000D03*
D28*
G04 #@! TO.N,GND*
G04 #@! TO.P,J1,4,4*
X1940000Y21500000D03*
G04 #@! TO.N,SWCLK*
G04 #@! TO.P,J1,3,3*
X4480000Y21500000D03*
D19*
G04 #@! TO.N,3.3V*
G04 #@! TO.C,R8*
G04 #@! TO.P,R8,2,2*
X1750000Y7925000D03*
G04 #@! TO.N,N11*
G04 #@! TO.P,R8,1,1*
X1750000Y7075000D03*
D23*
G04 #@! TO.N,3.3V*
G04 #@! TO.C,R3*
G04 #@! TO.P,R3,2,2*
X5075000Y19250000D03*
G04 #@! TO.N,FAULT*
G04 #@! TO.P,R3,1,1*
X5925000Y19250000D03*
D22*
G04 #@! TO.N,Vin*
G04 #@! TO.C,C15*
G04 #@! TO.P,C15,1,1*
X9250000Y7350000D03*
G04 #@! TO.N,GND*
G04 #@! TO.P,C15,2,2*
X9250000Y8150000D03*
G04 #@! TO.N,OUT*
G04 #@! TO.C,C13*
G04 #@! TO.P,C13,1,1*
X21250000Y7350000D03*
G04 #@! TO.N,GND*
G04 #@! TO.P,C13,2,2*
X21250000Y8150000D03*
D18*
G04 #@! TO.N,Vin*
G04 #@! TO.C,C9*
G04 #@! TO.P,C9,1,1*
X20750000Y13125000D03*
G04 #@! TO.N,GND*
G04 #@! TO.P,C9,2,2*
X20750000Y14875000D03*
D22*
G04 #@! TO.N,N6*
G04 #@! TO.C,C5*
G04 #@! TO.P,C5,1,1*
X15750000Y14600000D03*
G04 #@! TO.N,GND*
G04 #@! TO.P,C5,2,2*
X15750000Y15400000D03*
D19*
G04 #@! TO.N,N2*
G04 #@! TO.C,R4*
G04 #@! TO.P,R4,2,2*
X12750000Y14575000D03*
G04 #@! TO.N,GND*
G04 #@! TO.P,R4,1,1*
X12750000Y15425000D03*
D30*
G04 #@! TO.N,N/C*
G04 #@! TO.C,U2*
G04 #@! TO.P,U2,8,PA1*
X6625000Y12100000D03*
G04 #@! TO.P,U2,7,PA0*
X5975000Y12100000D03*
G04 #@! TO.N,ADC_TEMP*
G04 #@! TO.P,U2,10,PA3*
X7925000Y12100000D03*
G04 #@! TO.N,N/C*
G04 #@! TO.P,U2,11,PA4*
X7925000Y17900000D03*
G04 #@! TO.P,U2,12,PA5*
X7275000Y17900000D03*
G04 #@! TO.P,U2,1,PB7/PB8*
X2075000Y12100000D03*
G04 #@! TO.P,U2,15,PA8/PB0/PB1/PB2*
X5325000Y17900000D03*
G04 #@! TO.N,PWM_OUT*
G04 #@! TO.P,U2,13,PA6*
X6625000Y17900000D03*
G04 #@! TO.N,N10*
G04 #@! TO.P,U2,6,NRST*
X5325000Y12100000D03*
G04 #@! TO.N,SWCLK*
G04 #@! TO.P,U2,19,PA14-BOOT0/PA15*
X2725000Y17900000D03*
G04 #@! TO.N,ADC_V_IN*
G04 #@! TO.P,U2,9,PA2*
X7275000Y12100000D03*
G04 #@! TO.N,FAULT*
G04 #@! TO.P,U2,14,PA7*
X5975000Y17900000D03*
G04 #@! TO.N,3.3V*
G04 #@! TO.P,U2,4,VBAT*
X4025000Y12100000D03*
G04 #@! TO.N,N/C*
G04 #@! TO.P,U2,2,PB9/PC14-OSC32_IN*
X2725000Y12100000D03*
G04 #@! TO.P,U2,16,PA9/PA11*
X4675000Y17900000D03*
G04 #@! TO.N,GND*
G04 #@! TO.P,U2,5,VSS/VSSA*
X4675000Y12100000D03*
G04 #@! TO.N,N/C*
G04 #@! TO.P,U2,3,PC15-OSC32_OUT*
X3375000Y12100000D03*
G04 #@! TO.P,U2,17,PA10/PA12*
X4025000Y17900000D03*
G04 #@! TO.N,SWDIO*
G04 #@! TO.P,U2,18,PA13*
X3375000Y17900000D03*
G04 #@! TO.N,N/C*
G04 #@! TO.P,U2,20,PB3/PB4/PB5/PB6*
X2075000Y17900000D03*
D31*
G04 #@! TO.N,N7*
G04 #@! TO.C,L1*
G04 #@! TO.P,L1,1,1*
X12750000Y4500000D03*
G04 #@! TO.N,OUT*
G04 #@! TO.P,L1,2,2*
X18250000Y4500000D03*
D19*
G04 #@! TO.N,N5*
G04 #@! TO.C,R6*
G04 #@! TO.P,R6,2,2*
X15000000Y14575000D03*
G04 #@! TO.N,GND*
G04 #@! TO.P,R6,1,1*
X15000000Y15425000D03*
D18*
G04 #@! TO.N,Vin*
G04 #@! TO.C,C7*
G04 #@! TO.P,C7,1,1*
X17250000Y13125000D03*
G04 #@! TO.N,GND*
G04 #@! TO.P,C7,2,2*
X17250000Y14875000D03*
D23*
G04 #@! TO.N,SWCLK*
G04 #@! TO.C,R11*
G04 #@! TO.P,R11,2,2*
X2175000Y19250000D03*
G04 #@! TO.N,GND*
G04 #@! TO.P,R11,1,1*
X1325000Y19250000D03*
D32*
G04 #@! TO.N,3.3V*
G04 #@! TO.C,C2*
G04 #@! TO.P,C2,1,1*
X3350000Y10750000D03*
G04 #@! TO.N,GND*
G04 #@! TO.P,C2,2,2*
X4150000Y10750000D03*
G04 #@! TO.N,3.3V*
G04 #@! TO.C,C3*
G04 #@! TO.P,C3,1,1*
X3350000Y10000000D03*
G04 #@! TO.N,GND*
G04 #@! TO.P,C3,2,2*
X4150000Y10000000D03*
D33*
G04 #@! TO.N,N11*
G04 #@! TO.C,LED1*
G04 #@! TO.P,LED1,A,A*
X1750000Y5800000D03*
G04 #@! TO.N,GND*
G04 #@! TO.P,LED1,C,C*
X1750000Y3700000D03*
D23*
G04 #@! TO.N,Vin*
G04 #@! TO.C,R9*
G04 #@! TO.P,R9,2,2*
X9050000Y10750000D03*
G04 #@! TO.N,ADC_V_IN*
G04 #@! TO.P,R9,1,1*
X8200000Y10750000D03*
D19*
G04 #@! TO.N,N4*
G04 #@! TO.C,R5*
G04 #@! TO.P,R5,2,2*
X14250000Y14575000D03*
G04 #@! TO.N,GND*
G04 #@! TO.P,R5,1,1*
X14250000Y15425000D03*
D18*
G04 #@! TO.N,Vin*
G04 #@! TO.C,C6*
G04 #@! TO.P,C6,1,1*
X20500000Y11375000D03*
G04 #@! TO.N,GND*
G04 #@! TO.P,C6,2,2*
X20500000Y9625000D03*
D22*
G04 #@! TO.N,N3*
G04 #@! TO.C,C1*
G04 #@! TO.P,C1,1,1*
X10750000Y9900000D03*
G04 #@! TO.N,N7*
G04 #@! TO.P,C1,2,2*
X10750000Y9100000D03*
D32*
G04 #@! TO.N,N10*
G04 #@! TO.C,C4*
G04 #@! TO.P,C4,1,1*
X5650000Y10750000D03*
G04 #@! TO.N,GND*
G04 #@! TO.P,C4,2,2*
X4850000Y10750000D03*
D34*
G04 #@! TD.C*
G04 #@! TD.P*
G04 #@! TO.N,N10*
X5650000Y10750000D02*
X5650000Y10025000D01*
X5650000Y10750000D02*
X5650000Y11125000D01*
X5675000Y10000000D02*
X5650000Y10025000D01*
X5325000Y12100000D02*
X5325000Y11450000D01*
X5325000Y11450000D02*
X5650000Y11125000D01*
D35*
G04 #@! TO.N,GND*
X21125000Y3375000D03*
X14250000Y16000000D03*
D34*
X14250000Y15425000D02*
X14250000Y16000000D01*
X15000000Y15425000D02*
X14250000Y15425000D01*
D35*
X4125000Y9375000D03*
D34*
X4750000Y10750000D02*
X4675000Y10825000D01*
X4675000Y12100000D02*
X4675000Y10825000D01*
X4150000Y10750000D02*
X4150000Y10000000D01*
X4150000Y10000000D02*
X4150000Y9375000D01*
X4850000Y10750000D02*
X4750000Y10750000D01*
X4125000Y9375000D02*
X4150000Y9375000D01*
X4150000Y10750000D02*
X4750000Y10750000D01*
D35*
X3750000Y8750000D03*
D36*
X3750000Y8150000D02*
X3750000Y8750000D01*
D35*
X14250000Y11250000D03*
D34*
G04 #@! TO.N,N2*
X13250000Y13750000D02*
X12750000Y14250000D01*
X13250000Y13437500D02*
X13250000Y13750000D01*
X12850000Y13200000D02*
X13250000Y13200000D01*
X12750000Y14575000D02*
X12750000Y14250000D01*
X13250000Y13437500D02*
X13250000Y13200000D01*
G04 #@! TO.N,PWM_OUT*
X12850000Y12200000D02*
X11425000Y12200000D01*
X6625000Y17000000D02*
X11425000Y12200000D01*
X6625000Y17900000D02*
X6625000Y17000000D01*
G04 #@! TO.N,SWCLK*
X2725000Y19250000D02*
X2725000Y19995000D01*
X4480000Y21500000D02*
X2725000Y19995000D01*
X2725000Y17900000D02*
X2725000Y19250000D01*
X2175000Y19250000D02*
X2725000Y19250000D01*
G04 #@! TO.N,N6*
X15750000Y14250000D02*
X15250000Y13750000D01*
X15250000Y13437500D02*
X15250000Y13750000D01*
X15750000Y14600000D02*
X15750000Y14250000D01*
X15650000Y13200000D02*
X15250000Y13200000D01*
X15250000Y13437500D02*
X15250000Y13200000D01*
D35*
G04 #@! TO.N,GND*
X14250000Y12500000D03*
D34*
X15650000Y12700000D02*
X15650000Y12200000D01*
X14250000Y12500000D02*
X14450000Y12700000D01*
X15650000Y12700000D02*
X14450000Y12700000D01*
D35*
X17625000Y9125000D03*
X20250000Y8750000D03*
X19000000Y9125000D03*
X21250000Y8750000D03*
X16375000Y10750000D03*
D37*
X22480000Y8770000D02*
X21625000Y9625000D01*
D38*
X21250000Y8150000D02*
X21250000Y8750000D01*
X20500000Y9625000D02*
X20250000Y9375000D01*
D37*
X20500000Y9625000D02*
X21625000Y9625000D01*
X23500000Y8770000D02*
X22480000Y8770000D01*
X17625000Y10025000D02*
X17100000Y10025000D01*
X17625000Y10025000D02*
X17650000Y10000000D01*
D39*
X19000000Y10025000D02*
X19000000Y9125000D01*
D37*
X16375000Y10750000D02*
X17100000Y10025000D01*
X19000000Y10025000D02*
X20500000Y9625000D01*
D39*
X17625000Y10025000D02*
X17625000Y9125000D01*
D38*
X20250000Y8150000D02*
X20250000Y8750000D01*
X21250000Y8750000D02*
X21250000Y9250000D01*
X21250000Y9250000D02*
X21625000Y9625000D01*
X20250000Y8750000D02*
X20250000Y9375000D01*
D37*
X19000000Y10025000D02*
X17650000Y10000000D01*
D34*
G04 #@! TO.N,N3*
X10750000Y9900000D02*
X11475000Y9900000D01*
X11500000Y9925000D02*
X11475000Y9900000D01*
G04 #@! TO.N,N12*
X13750000Y14000000D02*
X13500000Y14250000D01*
X13750000Y13400000D02*
X13750000Y14000000D01*
X13500000Y14575000D02*
X13500000Y14250000D01*
D36*
G04 #@! TO.N,N11*
X1750000Y7075000D02*
X1750000Y5800000D01*
D35*
G04 #@! TO.N,GND*
X20375000Y3375000D03*
D34*
G04 #@! TO.N,ADC_V_IN*
X7275000Y12100000D02*
X7275000Y10900000D01*
X7425000Y10750000D02*
X8200000Y10750000D01*
X7425000Y10750000D02*
X7275000Y10900000D01*
G04 #@! TO.N,SWDIO*
X3375000Y17900000D02*
X3375000Y19125000D01*
X4250000Y20000000D02*
X5270000Y20000000D01*
X7020000Y21500000D02*
X5270000Y20000000D01*
X3375000Y19125000D02*
X4250000Y20000000D01*
G04 #@! TO.N,N5*
X14750000Y13400000D02*
X14750000Y14000000D01*
X15000000Y14575000D02*
X15000000Y14250000D01*
X15000000Y14250000D02*
X14750000Y14000000D01*
D38*
G04 #@! TO.N,Vin*
X15587500Y11550000D02*
X15075000Y11550000D01*
D36*
X9250000Y7350000D02*
X8800000Y6900000D01*
X8800000Y1850000D02*
X8800000Y6900000D01*
X9250000Y7350000D02*
X9725000Y7350000D01*
X10000000Y7625000D02*
X10000000Y10750000D01*
D38*
X15075000Y11550000D02*
X14750000Y11875000D01*
X13425000Y11550000D02*
X13750000Y11875000D01*
D36*
X10000000Y7625000D02*
X9725000Y7350000D01*
D34*
X9050000Y10750000D02*
X10000000Y10750000D01*
D36*
X10800000Y11550000D02*
X10000000Y10750000D01*
X12913000Y11550000D02*
X10800000Y11550000D01*
D38*
X14750000Y11875000D02*
X13750000Y11875000D01*
X12913000Y11550000D02*
X13425000Y11550000D01*
D34*
G04 #@! TO.N,N7*
X10750000Y9100000D02*
X12750000Y6600000D01*
X12750000Y4500000D02*
X12750000Y6600000D01*
D35*
G04 #@! TO.N,GND*
X12125000Y10750000D03*
G04 #@! TO.N,FAULT*
X10500000Y12250000D03*
X15250000Y8750000D03*
D34*
X5975000Y17900000D02*
X5975000Y16775000D01*
X10500000Y12250000D02*
X5975000Y16775000D01*
X15587500Y9800000D02*
X15250000Y9800000D01*
X15250000Y9562500D02*
X15250000Y8750000D01*
X5925000Y19250000D02*
X5975000Y19200000D01*
X15250000Y9562500D02*
X15250000Y9800000D01*
X5975000Y17900000D02*
X5975000Y19200000D01*
D35*
G04 #@! TO.N,GND*
X750000Y19250000D03*
D34*
X1325000Y19250000D02*
X750000Y19250000D01*
D35*
X19000000Y15875000D03*
X20750000Y15875000D03*
X17250000Y15875000D03*
D39*
X19000000Y14875000D02*
X19000000Y15875000D01*
D37*
X23500000Y14770000D02*
X23395000Y14875000D01*
X19000000Y14875000D02*
X20750000Y14875000D01*
D39*
X17250000Y14875000D02*
X17250000Y15875000D01*
D37*
X19000000Y14875000D02*
X17250000Y14875000D01*
D39*
X20750000Y14875000D02*
X20750000Y15875000D01*
D37*
X20750000Y14875000D02*
X23395000Y14875000D01*
D34*
G04 #@! TO.N,N4*
X14250000Y13400000D02*
X14250000Y14575000D01*
D35*
G04 #@! TO.N,GND*
X6625000Y9875000D03*
D34*
X6575000Y10750000D02*
X6575000Y9875000D01*
X6625000Y9875000D02*
X6575000Y9875000D01*
G04 #@! TO.N,N8*
X11500000Y9075000D02*
X12225000Y9800000D01*
X12912500Y9800000D02*
X13250000Y9800000D01*
X12912500Y9800000D02*
X12225000Y9800000D01*
X13250000Y9562500D02*
X13250000Y9800000D01*
D35*
G04 #@! TO.N,GND*
X4125000Y3500000D03*
D36*
X4200000Y1850000D02*
X2525000Y1850000D01*
X1750000Y3700000D02*
X1750000Y2625000D01*
X4200000Y1850000D02*
X4125000Y1925000D01*
X4125000Y3500000D02*
X4125000Y1925000D01*
X2525000Y1850000D02*
X1750000Y2625000D01*
D35*
X13500000Y16000000D03*
D34*
X13500000Y15425000D02*
X12750000Y15425000D01*
X13500000Y15425000D02*
X13500000Y16000000D01*
D35*
X9250000Y8875000D03*
D34*
X9250000Y8150000D02*
X9250000Y8875000D01*
D35*
G04 #@! TO.N,3.3V*
X4375000Y19250000D03*
X4000000Y16625000D03*
D36*
X3000000Y9650000D02*
X3000000Y7350000D01*
X2650000Y7350000D02*
X2075000Y7925000D01*
D34*
X3350000Y10750000D02*
X3350000Y10000000D01*
D36*
X3750000Y7350000D02*
X6200000Y7350000D01*
D34*
X5075000Y19250000D02*
X5700000Y19875000D01*
D36*
X6500000Y7650000D02*
X6200000Y7350000D01*
X3750000Y7350000D02*
X3000000Y7350000D01*
D34*
X4025000Y11550000D02*
X3350000Y10875000D01*
X6500000Y7650000D02*
X5125000Y8150000D01*
D36*
X2650000Y7350000D02*
X3000000Y7350000D01*
D34*
X7685000Y19875000D02*
X5700000Y19875000D01*
D36*
X3350000Y10000000D02*
X3000000Y9650000D01*
D34*
X5075000Y19250000D02*
X4375000Y19250000D01*
X4000000Y16625000D02*
X4025000Y16600000D01*
X5125000Y8150000D02*
X5125000Y8500000D01*
D36*
X1750000Y7925000D02*
X2075000Y7925000D01*
D34*
X4825000Y10000000D02*
X4825000Y8800000D01*
X9560000Y21500000D02*
X7685000Y19875000D01*
X4025000Y12100000D02*
X4025000Y16600000D01*
X4025000Y12100000D02*
X4025000Y11550000D01*
X5125000Y8500000D02*
X4825000Y8800000D01*
X3350000Y10750000D02*
X3350000Y10875000D01*
D38*
X6500000Y7650000D02*
X6500000Y1850000D01*
D35*
G04 #@! TO.N,GND*
X15750000Y16000000D03*
D34*
X15750000Y15400000D02*
X15750000Y16000000D01*
D40*
G04 #@! TA.AperFunction,Conductor*
G36*
X20000000Y3291421D02*
X20029289Y3220711D01*
X20220711Y3029289D01*
X20291421Y3000000D01*
X21208579Y3000000D01*
X21279289Y3029289D01*
X21470711Y3220711D01*
X21500000Y3291421D01*
X21500000Y4583579D01*
X21470711Y4654289D01*
X21404289Y4720711D01*
X21333579Y4750000D01*
X20166421Y4750000D01*
X20095711Y4720711D01*
X20029289Y4654289D01*
X20000000Y4583579D01*
X20000000Y3291421D01*
G37*
G04 #@! TO.N,OUT*
G36*
X17000000Y1599999D02*
X17019500Y1540672D01*
X17099999Y1500000D01*
X19208579Y1500000D01*
X19279289Y1529289D01*
X19345711Y1595711D01*
X19375000Y1666421D01*
X19375000Y4855109D01*
X19389065Y4889065D01*
X19735935Y5235935D01*
X19769891Y5250000D01*
X24583579Y5250000D01*
X24654289Y5279289D01*
X24720711Y5345711D01*
X24750000Y5416421D01*
X24750000Y7083579D01*
X24720711Y7154289D01*
X24654289Y7220711D01*
X24583579Y7250000D01*
X22019891Y7250000D01*
X21985935Y7264065D01*
X21654289Y7595711D01*
X21583579Y7625000D01*
X19894891Y7625000D01*
X19860935Y7639065D01*
X19279289Y8220711D01*
X19208579Y8250000D01*
X17166421Y8250000D01*
X17095711Y8220711D01*
X17029289Y8154289D01*
X17000000Y8083579D01*
X17000000Y1599999D01*
G37*
G04 #@! TO.N,Vin*
G36*
X15375000Y11424999D02*
X15394500Y11365672D01*
X15474999Y11325000D01*
X16202939Y11325000D01*
X16232689Y11329528D01*
X16261068Y11338371D01*
X16272886Y11340537D01*
X16405195Y11348540D01*
X16417173Y11347815D01*
X16547550Y11323923D01*
X16559022Y11320348D01*
X16679884Y11265953D01*
X16690166Y11259738D01*
X16796886Y11176127D01*
X16801400Y11172128D01*
X17194239Y10779289D01*
X17264949Y10750000D01*
X19480109Y10750000D01*
X19514065Y10735935D01*
X19595711Y10654289D01*
X19666421Y10625000D01*
X21333579Y10625000D01*
X21404289Y10654289D01*
X21735935Y10985935D01*
X21769891Y11000000D01*
X24708579Y11000000D01*
X24779289Y11029289D01*
X24970711Y11220711D01*
X25000000Y11291421D01*
X25000000Y13071483D01*
X24980500Y13130810D01*
X24955470Y13154687D01*
X24650193Y13358205D01*
X24594724Y13375000D01*
X22269891Y13375000D01*
X22235935Y13389065D01*
X21779289Y13845711D01*
X21708579Y13875000D01*
X16666421Y13875000D01*
X16595711Y13845711D01*
X16404289Y13654289D01*
X16375000Y13583579D01*
X16375000Y12019891D01*
X16360935Y11985935D01*
X16139065Y11764065D01*
X16105109Y11750000D01*
X15474999Y11750000D01*
X15415672Y11730500D01*
X15375000Y11650001D01*
X15375000Y11424999D01*
G37*
G04 #@! TO.N,N7*
G36*
X11375000Y1166421D02*
X11404289Y1095711D01*
X11720711Y779289D01*
X11791421Y750000D01*
X13833579Y750000D01*
X13904289Y779289D01*
X14720711Y1595711D01*
X14750000Y1666421D01*
X14750000Y10175737D01*
X14720711Y10246447D01*
X14691341Y10275817D01*
X14685139Y10283373D01*
X14653611Y10330558D01*
X14604436Y10369053D01*
X14570465Y10375000D01*
X13929535Y10375000D01*
X13870208Y10355500D01*
X13846389Y10330558D01*
X13814861Y10283373D01*
X13808659Y10275817D01*
X13779289Y10246447D01*
X13750000Y10175737D01*
X13750000Y9394891D01*
X13735935Y9360935D01*
X13579344Y9204344D01*
X13560954Y9179032D01*
X13528439Y9115216D01*
X13519304Y9102643D01*
X13472357Y9055696D01*
X13459784Y9046561D01*
X13395968Y9014046D01*
X13370656Y8995656D01*
X13139065Y8764065D01*
X13105109Y8750000D01*
X11916421Y8750000D01*
X11845711Y8720711D01*
X11404289Y8279289D01*
X11375000Y8208579D01*
X11375000Y1166421D01*
G37*
G04 #@! TO.N,GND*
G36*
X11875000Y10416421D02*
X11904289Y10345711D01*
X11970711Y10279289D01*
X12041421Y10250000D01*
X13458579Y10250000D01*
X13529289Y10279289D01*
X13670711Y10420711D01*
X13700000Y10491421D01*
X13700000Y10608569D01*
X13700615Y10616382D01*
X13712840Y10693571D01*
X13717643Y10708352D01*
X13751336Y10774478D01*
X13760472Y10787052D01*
X13812948Y10839528D01*
X13825522Y10848664D01*
X13891648Y10882357D01*
X13906429Y10887160D01*
X13983618Y10899385D01*
X13991431Y10900000D01*
X14508569Y10900000D01*
X14516382Y10899385D01*
X14593571Y10887160D01*
X14608352Y10882357D01*
X14674478Y10848664D01*
X14687052Y10839528D01*
X14739528Y10787052D01*
X14748664Y10774478D01*
X14782357Y10708352D01*
X14787160Y10693571D01*
X14799385Y10616382D01*
X14800000Y10608569D01*
X14800000Y10491421D01*
X14829289Y10420711D01*
X14970711Y10279289D01*
X15041421Y10250000D01*
X16458579Y10250000D01*
X16529289Y10279289D01*
X16595711Y10345711D01*
X16625000Y10416421D01*
X16625000Y10958579D01*
X16595711Y11029289D01*
X16529289Y11095711D01*
X16458579Y11125000D01*
X15019891Y11125000D01*
X14985935Y11139065D01*
X14970808Y11154192D01*
X14945500Y11172580D01*
X14930352Y11180299D01*
X14915850Y11186306D01*
X14900885Y11191168D01*
X14887037Y11198224D01*
X14874305Y11207474D01*
X14860927Y11215673D01*
X14846897Y11222822D01*
X14834319Y11231960D01*
X14823189Y11243090D01*
X14811256Y11253281D01*
X14795340Y11264844D01*
X14789380Y11269935D01*
X14713604Y11345711D01*
X14642894Y11375000D01*
X13857106Y11375000D01*
X13786396Y11345711D01*
X13710620Y11269935D01*
X13704661Y11264845D01*
X13688745Y11253282D01*
X13676812Y11243091D01*
X13665677Y11231956D01*
X13653106Y11222823D01*
X13639072Y11215672D01*
X13625693Y11207473D01*
X13612964Y11198225D01*
X13599109Y11191165D01*
X13584145Y11186303D01*
X13569647Y11180298D01*
X13555617Y11173149D01*
X13540834Y11168346D01*
X13525278Y11165882D01*
X13510022Y11162219D01*
X13495061Y11157358D01*
X13479704Y11154926D01*
X13463973Y11154926D01*
X13448330Y11153695D01*
X13428882Y11150615D01*
X13421069Y11150000D01*
X12916931Y11150000D01*
X12909118Y11150615D01*
X12797164Y11168346D01*
X12782383Y11173149D01*
X12751075Y11189101D01*
X12705676Y11200000D01*
X11991421Y11200000D01*
X11920711Y11170711D01*
X11904289Y11154289D01*
X11875000Y11083579D01*
X11875000Y10416421D01*
G37*
G04 --- BOARD END --- *
G04 #@! TF.MD5,402eab5c453ba099bbfcb5d3709e5d7c*
M02*
